G04 #@! TF.GenerationSoftware,KiCad,Pcbnew,(5.1.6)-1*
G04 #@! TF.CreationDate,2020-11-13T18:36:43+07:00*
G04 #@! TF.ProjectId,Clock,436c6f63-6b2e-46b6-9963-61645f706362,rev?*
G04 #@! TF.SameCoordinates,PX9d739e0PY13ae73c0*
G04 #@! TF.FileFunction,Legend,Bot*
G04 #@! TF.FilePolarity,Positive*
%FSLAX46Y46*%
G04 Gerber Fmt 4.6, Leading zero omitted, Abs format (unit mm)*
G04 Created by KiCad (PCBNEW (5.1.6)-1) date 2020-11-13 18:36:43*
%MOMM*%
%LPD*%
G01*
G04 APERTURE LIST*
%ADD10C,0.120000*%
%ADD11C,0.100000*%
%ADD12C,0.150000*%
G04 APERTURE END LIST*
D10*
X336300000Y266200000D02*
X336300000Y274200000D01*
X336300000Y274200000D02*
X350300000Y274200000D01*
X350300000Y274200000D02*
X350300000Y266200000D01*
X350300000Y266200000D02*
X336300000Y266200000D01*
X356700000Y203600000D02*
X342700000Y203600000D01*
X356700000Y211600000D02*
X356700000Y203600000D01*
X342700000Y211600000D02*
X356700000Y211600000D01*
X342700000Y203600000D02*
X342700000Y211600000D01*
X333030000Y208270000D02*
X333030000Y210930000D01*
X335630000Y208270000D02*
X333030000Y208270000D01*
X335630000Y210930000D02*
X333030000Y210930000D01*
X335630000Y208270000D02*
X335630000Y210930000D01*
X336900000Y208270000D02*
X338230000Y208270000D01*
X338230000Y208270000D02*
X338230000Y209600000D01*
X361580000Y209600000D02*
X362350000Y209600000D01*
X369660000Y209600000D02*
X368890000Y209600000D01*
X362350000Y210970000D02*
X368890000Y210970000D01*
X362350000Y208230000D02*
X362350000Y210970000D01*
X368890000Y208230000D02*
X362350000Y208230000D01*
X368890000Y210970000D02*
X368890000Y208230000D01*
X362310000Y204430000D02*
X362310000Y207170000D01*
X362310000Y207170000D02*
X368850000Y207170000D01*
X368850000Y207170000D02*
X368850000Y204430000D01*
X368850000Y204430000D02*
X362310000Y204430000D01*
X361540000Y205800000D02*
X362310000Y205800000D01*
X369620000Y205800000D02*
X368850000Y205800000D01*
X293980000Y222580000D02*
X298220000Y222580000D01*
X293980000Y232580000D02*
X298220000Y232580000D01*
X298220000Y232580000D02*
X298220000Y222580000D01*
X293980000Y232580000D02*
X293980000Y222580000D01*
X292480000Y232580000D02*
X299720000Y232580000D01*
X292480000Y237580000D02*
X299720000Y237580000D01*
X299720000Y237580000D02*
X299720000Y232580000D01*
X292480000Y237580000D02*
X292480000Y232580000D01*
X287980000Y237580000D02*
X304220000Y237580000D01*
X287980000Y245320000D02*
X304220000Y245320000D01*
X304220000Y245320000D02*
X304220000Y237580000D01*
X287980000Y245320000D02*
X287980000Y237580000D01*
X293560000Y247410000D02*
X283060000Y247410000D01*
X293560000Y257810000D02*
X293560000Y247410000D01*
X283060000Y257810000D02*
X293560000Y257810000D01*
X283060000Y247410000D02*
X283060000Y257810000D01*
X290560000Y247470000D02*
X289310000Y247470000D01*
X290560000Y257750000D02*
X290560000Y247470000D01*
X286060000Y257750000D02*
X290560000Y257750000D01*
X286060000Y247470000D02*
X286060000Y257750000D01*
X287310000Y247470000D02*
X286060000Y247470000D01*
X289310000Y247470000D02*
G75*
G03*
X287310000Y247470000I-1000000J0D01*
G01*
X298970000Y249670000D02*
X300300000Y249670000D01*
X298970000Y251000000D02*
X298970000Y249670000D01*
X298970000Y252270000D02*
X301630000Y252270000D01*
X301630000Y252270000D02*
X301630000Y254870000D01*
X298970000Y252270000D02*
X298970000Y254870000D01*
X298970000Y254870000D02*
X301630000Y254870000D01*
X186590000Y244340000D02*
X197090000Y244340000D01*
X186590000Y223780000D02*
X186590000Y244340000D01*
X197090000Y223780000D02*
X186590000Y223780000D01*
X197090000Y244340000D02*
X197090000Y223780000D01*
X189590000Y244280000D02*
X190840000Y244280000D01*
X189590000Y223840000D02*
X189590000Y244280000D01*
X194090000Y223840000D02*
X189590000Y223840000D01*
X194090000Y244280000D02*
X194090000Y223840000D01*
X192840000Y244280000D02*
X194090000Y244280000D01*
X190840000Y244280000D02*
G75*
G03*
X192840000Y244280000I1000000J0D01*
G01*
X240460000Y39810000D02*
X229960000Y39810000D01*
X240460000Y60370000D02*
X240460000Y39810000D01*
X229960000Y60370000D02*
X240460000Y60370000D01*
X229960000Y39810000D02*
X229960000Y60370000D01*
X237460000Y39870000D02*
X236210000Y39870000D01*
X237460000Y60310000D02*
X237460000Y39870000D01*
X232960000Y60310000D02*
X237460000Y60310000D01*
X232960000Y39870000D02*
X232960000Y60310000D01*
X234210000Y39870000D02*
X232960000Y39870000D01*
X236210000Y39870000D02*
G75*
G03*
X234210000Y39870000I-1000000J0D01*
G01*
X216490000Y191060000D02*
X216490000Y180560000D01*
X195930000Y191060000D02*
X216490000Y191060000D01*
X195930000Y180560000D02*
X195930000Y191060000D01*
X216490000Y180560000D02*
X195930000Y180560000D01*
X216430000Y188060000D02*
X216430000Y186810000D01*
X195990000Y188060000D02*
X216430000Y188060000D01*
X195990000Y183560000D02*
X195990000Y188060000D01*
X216430000Y183560000D02*
X195990000Y183560000D01*
X216430000Y184810000D02*
X216430000Y183560000D01*
X216430000Y186810000D02*
G75*
G03*
X216430000Y184810000I0J-1000000D01*
G01*
X364180000Y264200000D02*
X364950000Y264200000D01*
X372260000Y264200000D02*
X371490000Y264200000D01*
X364950000Y265570000D02*
X371490000Y265570000D01*
X364950000Y262830000D02*
X364950000Y265570000D01*
X371490000Y262830000D02*
X364950000Y262830000D01*
X371490000Y265570000D02*
X371490000Y262830000D01*
X372220000Y267600000D02*
X371450000Y267600000D01*
X364140000Y267600000D02*
X364910000Y267600000D01*
X371450000Y266230000D02*
X364910000Y266230000D01*
X371450000Y268970000D02*
X371450000Y266230000D01*
X364910000Y268970000D02*
X371450000Y268970000D01*
X364910000Y266230000D02*
X364910000Y268970000D01*
X372220000Y260800000D02*
X371450000Y260800000D01*
X364140000Y260800000D02*
X364910000Y260800000D01*
X371450000Y259430000D02*
X364910000Y259430000D01*
X371450000Y262170000D02*
X371450000Y259430000D01*
X364910000Y262170000D02*
X371450000Y262170000D01*
X364910000Y259430000D02*
X364910000Y262170000D01*
X364910000Y256030000D02*
X364910000Y258770000D01*
X364910000Y258770000D02*
X371450000Y258770000D01*
X371450000Y258770000D02*
X371450000Y256030000D01*
X371450000Y256030000D02*
X364910000Y256030000D01*
X364140000Y257400000D02*
X364910000Y257400000D01*
X372220000Y257400000D02*
X371450000Y257400000D01*
X348219050Y256850000D02*
G75*
G03*
X348219050Y256850000I-4579050J0D01*
G01*
X339570000Y263100000D02*
X337450000Y263100000D01*
X337450000Y263100000D02*
X337450000Y250800000D01*
X337450000Y250800000D02*
X339570000Y250800000D01*
X342630000Y250800000D02*
X344570000Y250800000D01*
X347630000Y250800000D02*
X349750000Y250800000D01*
X349750000Y250800000D02*
X349750000Y263100000D01*
X349750000Y263100000D02*
X347630000Y263100000D01*
X344570000Y263100000D02*
X342630000Y263100000D01*
X361280000Y247090000D02*
X351040000Y247090000D01*
X361280000Y262980000D02*
X351040000Y262980000D01*
X361280000Y262980000D02*
X361280000Y247090000D01*
X351040000Y262980000D02*
X351040000Y247090000D01*
X358700000Y247090000D02*
X358700000Y244550000D01*
X356160000Y247090000D02*
X356160000Y244550000D01*
X353620000Y247090000D02*
X353620000Y244550000D01*
X366420000Y246400000D02*
G75*
G03*
X366420000Y246400000I-2120000J0D01*
G01*
X366380000Y246400000D02*
X362220000Y246400000D01*
X366380000Y246440000D02*
X362220000Y246440000D01*
X366379000Y246480000D02*
X362221000Y246480000D01*
X366377000Y246520000D02*
X362223000Y246520000D01*
X366374000Y246560000D02*
X362226000Y246560000D01*
X366371000Y246600000D02*
X365140000Y246600000D01*
X363460000Y246600000D02*
X362229000Y246600000D01*
X366367000Y246640000D02*
X365140000Y246640000D01*
X363460000Y246640000D02*
X362233000Y246640000D01*
X366362000Y246680000D02*
X365140000Y246680000D01*
X363460000Y246680000D02*
X362238000Y246680000D01*
X366356000Y246720000D02*
X365140000Y246720000D01*
X363460000Y246720000D02*
X362244000Y246720000D01*
X366350000Y246760000D02*
X365140000Y246760000D01*
X363460000Y246760000D02*
X362250000Y246760000D01*
X366342000Y246800000D02*
X365140000Y246800000D01*
X363460000Y246800000D02*
X362258000Y246800000D01*
X366334000Y246840000D02*
X365140000Y246840000D01*
X363460000Y246840000D02*
X362266000Y246840000D01*
X366325000Y246880000D02*
X365140000Y246880000D01*
X363460000Y246880000D02*
X362275000Y246880000D01*
X366316000Y246920000D02*
X365140000Y246920000D01*
X363460000Y246920000D02*
X362284000Y246920000D01*
X366305000Y246960000D02*
X365140000Y246960000D01*
X363460000Y246960000D02*
X362295000Y246960000D01*
X366294000Y247000000D02*
X365140000Y247000000D01*
X363460000Y247000000D02*
X362306000Y247000000D01*
X366282000Y247040000D02*
X365140000Y247040000D01*
X363460000Y247040000D02*
X362318000Y247040000D01*
X366268000Y247080000D02*
X365140000Y247080000D01*
X363460000Y247080000D02*
X362332000Y247080000D01*
X366254000Y247121000D02*
X365140000Y247121000D01*
X363460000Y247121000D02*
X362346000Y247121000D01*
X366240000Y247161000D02*
X365140000Y247161000D01*
X363460000Y247161000D02*
X362360000Y247161000D01*
X366224000Y247201000D02*
X365140000Y247201000D01*
X363460000Y247201000D02*
X362376000Y247201000D01*
X366207000Y247241000D02*
X365140000Y247241000D01*
X363460000Y247241000D02*
X362393000Y247241000D01*
X366189000Y247281000D02*
X365140000Y247281000D01*
X363460000Y247281000D02*
X362411000Y247281000D01*
X366170000Y247321000D02*
X365140000Y247321000D01*
X363460000Y247321000D02*
X362430000Y247321000D01*
X366151000Y247361000D02*
X365140000Y247361000D01*
X363460000Y247361000D02*
X362449000Y247361000D01*
X366130000Y247401000D02*
X365140000Y247401000D01*
X363460000Y247401000D02*
X362470000Y247401000D01*
X366108000Y247441000D02*
X365140000Y247441000D01*
X363460000Y247441000D02*
X362492000Y247441000D01*
X366085000Y247481000D02*
X365140000Y247481000D01*
X363460000Y247481000D02*
X362515000Y247481000D01*
X366060000Y247521000D02*
X365140000Y247521000D01*
X363460000Y247521000D02*
X362540000Y247521000D01*
X366035000Y247561000D02*
X365140000Y247561000D01*
X363460000Y247561000D02*
X362565000Y247561000D01*
X366008000Y247601000D02*
X365140000Y247601000D01*
X363460000Y247601000D02*
X362592000Y247601000D01*
X365980000Y247641000D02*
X365140000Y247641000D01*
X363460000Y247641000D02*
X362620000Y247641000D01*
X365950000Y247681000D02*
X365140000Y247681000D01*
X363460000Y247681000D02*
X362650000Y247681000D01*
X365919000Y247721000D02*
X365140000Y247721000D01*
X363460000Y247721000D02*
X362681000Y247721000D01*
X365887000Y247761000D02*
X365140000Y247761000D01*
X363460000Y247761000D02*
X362713000Y247761000D01*
X365852000Y247801000D02*
X365140000Y247801000D01*
X363460000Y247801000D02*
X362748000Y247801000D01*
X365816000Y247841000D02*
X365140000Y247841000D01*
X363460000Y247841000D02*
X362784000Y247841000D01*
X365778000Y247881000D02*
X365140000Y247881000D01*
X363460000Y247881000D02*
X362822000Y247881000D01*
X365738000Y247921000D02*
X365140000Y247921000D01*
X363460000Y247921000D02*
X362862000Y247921000D01*
X365696000Y247961000D02*
X365140000Y247961000D01*
X363460000Y247961000D02*
X362904000Y247961000D01*
X365651000Y248001000D02*
X365140000Y248001000D01*
X363460000Y248001000D02*
X362949000Y248001000D01*
X365604000Y248041000D02*
X365140000Y248041000D01*
X363460000Y248041000D02*
X362996000Y248041000D01*
X365554000Y248081000D02*
X365140000Y248081000D01*
X363460000Y248081000D02*
X363046000Y248081000D01*
X365500000Y248121000D02*
X365140000Y248121000D01*
X363460000Y248121000D02*
X363100000Y248121000D01*
X365442000Y248161000D02*
X365140000Y248161000D01*
X363460000Y248161000D02*
X363158000Y248161000D01*
X365380000Y248201000D02*
X365140000Y248201000D01*
X363460000Y248201000D02*
X363220000Y248201000D01*
X365313000Y248241000D02*
X363287000Y248241000D01*
X365240000Y248281000D02*
X363360000Y248281000D01*
X365159000Y248321000D02*
X363441000Y248321000D01*
X365068000Y248361000D02*
X363532000Y248361000D01*
X364964000Y248401000D02*
X363636000Y248401000D01*
X364837000Y248441000D02*
X363763000Y248441000D01*
X364670000Y248481000D02*
X363930000Y248481000D01*
X365495000Y244130199D02*
X365495000Y244530199D01*
X365695000Y244330199D02*
X365295000Y244330199D01*
X366420000Y239400000D02*
G75*
G03*
X366420000Y239400000I-2120000J0D01*
G01*
X362220000Y239400000D02*
X366380000Y239400000D01*
X362220000Y239360000D02*
X366380000Y239360000D01*
X362221000Y239320000D02*
X366379000Y239320000D01*
X362223000Y239280000D02*
X366377000Y239280000D01*
X362226000Y239240000D02*
X366374000Y239240000D01*
X362229000Y239200000D02*
X363460000Y239200000D01*
X365140000Y239200000D02*
X366371000Y239200000D01*
X362233000Y239160000D02*
X363460000Y239160000D01*
X365140000Y239160000D02*
X366367000Y239160000D01*
X362238000Y239120000D02*
X363460000Y239120000D01*
X365140000Y239120000D02*
X366362000Y239120000D01*
X362244000Y239080000D02*
X363460000Y239080000D01*
X365140000Y239080000D02*
X366356000Y239080000D01*
X362250000Y239040000D02*
X363460000Y239040000D01*
X365140000Y239040000D02*
X366350000Y239040000D01*
X362258000Y239000000D02*
X363460000Y239000000D01*
X365140000Y239000000D02*
X366342000Y239000000D01*
X362266000Y238960000D02*
X363460000Y238960000D01*
X365140000Y238960000D02*
X366334000Y238960000D01*
X362275000Y238920000D02*
X363460000Y238920000D01*
X365140000Y238920000D02*
X366325000Y238920000D01*
X362284000Y238880000D02*
X363460000Y238880000D01*
X365140000Y238880000D02*
X366316000Y238880000D01*
X362295000Y238840000D02*
X363460000Y238840000D01*
X365140000Y238840000D02*
X366305000Y238840000D01*
X362306000Y238800000D02*
X363460000Y238800000D01*
X365140000Y238800000D02*
X366294000Y238800000D01*
X362318000Y238760000D02*
X363460000Y238760000D01*
X365140000Y238760000D02*
X366282000Y238760000D01*
X362332000Y238720000D02*
X363460000Y238720000D01*
X365140000Y238720000D02*
X366268000Y238720000D01*
X362346000Y238679000D02*
X363460000Y238679000D01*
X365140000Y238679000D02*
X366254000Y238679000D01*
X362360000Y238639000D02*
X363460000Y238639000D01*
X365140000Y238639000D02*
X366240000Y238639000D01*
X362376000Y238599000D02*
X363460000Y238599000D01*
X365140000Y238599000D02*
X366224000Y238599000D01*
X362393000Y238559000D02*
X363460000Y238559000D01*
X365140000Y238559000D02*
X366207000Y238559000D01*
X362411000Y238519000D02*
X363460000Y238519000D01*
X365140000Y238519000D02*
X366189000Y238519000D01*
X362430000Y238479000D02*
X363460000Y238479000D01*
X365140000Y238479000D02*
X366170000Y238479000D01*
X362449000Y238439000D02*
X363460000Y238439000D01*
X365140000Y238439000D02*
X366151000Y238439000D01*
X362470000Y238399000D02*
X363460000Y238399000D01*
X365140000Y238399000D02*
X366130000Y238399000D01*
X362492000Y238359000D02*
X363460000Y238359000D01*
X365140000Y238359000D02*
X366108000Y238359000D01*
X362515000Y238319000D02*
X363460000Y238319000D01*
X365140000Y238319000D02*
X366085000Y238319000D01*
X362540000Y238279000D02*
X363460000Y238279000D01*
X365140000Y238279000D02*
X366060000Y238279000D01*
X362565000Y238239000D02*
X363460000Y238239000D01*
X365140000Y238239000D02*
X366035000Y238239000D01*
X362592000Y238199000D02*
X363460000Y238199000D01*
X365140000Y238199000D02*
X366008000Y238199000D01*
X362620000Y238159000D02*
X363460000Y238159000D01*
X365140000Y238159000D02*
X365980000Y238159000D01*
X362650000Y238119000D02*
X363460000Y238119000D01*
X365140000Y238119000D02*
X365950000Y238119000D01*
X362681000Y238079000D02*
X363460000Y238079000D01*
X365140000Y238079000D02*
X365919000Y238079000D01*
X362713000Y238039000D02*
X363460000Y238039000D01*
X365140000Y238039000D02*
X365887000Y238039000D01*
X362748000Y237999000D02*
X363460000Y237999000D01*
X365140000Y237999000D02*
X365852000Y237999000D01*
X362784000Y237959000D02*
X363460000Y237959000D01*
X365140000Y237959000D02*
X365816000Y237959000D01*
X362822000Y237919000D02*
X363460000Y237919000D01*
X365140000Y237919000D02*
X365778000Y237919000D01*
X362862000Y237879000D02*
X363460000Y237879000D01*
X365140000Y237879000D02*
X365738000Y237879000D01*
X362904000Y237839000D02*
X363460000Y237839000D01*
X365140000Y237839000D02*
X365696000Y237839000D01*
X362949000Y237799000D02*
X363460000Y237799000D01*
X365140000Y237799000D02*
X365651000Y237799000D01*
X362996000Y237759000D02*
X363460000Y237759000D01*
X365140000Y237759000D02*
X365604000Y237759000D01*
X363046000Y237719000D02*
X363460000Y237719000D01*
X365140000Y237719000D02*
X365554000Y237719000D01*
X363100000Y237679000D02*
X363460000Y237679000D01*
X365140000Y237679000D02*
X365500000Y237679000D01*
X363158000Y237639000D02*
X363460000Y237639000D01*
X365140000Y237639000D02*
X365442000Y237639000D01*
X363220000Y237599000D02*
X363460000Y237599000D01*
X365140000Y237599000D02*
X365380000Y237599000D01*
X363287000Y237559000D02*
X365313000Y237559000D01*
X363360000Y237519000D02*
X365240000Y237519000D01*
X363441000Y237479000D02*
X365159000Y237479000D01*
X363532000Y237439000D02*
X365068000Y237439000D01*
X363636000Y237399000D02*
X364964000Y237399000D01*
X363763000Y237359000D02*
X364837000Y237359000D01*
X363930000Y237319000D02*
X364670000Y237319000D01*
X363105000Y241669801D02*
X363105000Y241269801D01*
X362905000Y241469801D02*
X363305000Y241469801D01*
X369550000Y237550000D02*
X393850000Y237550000D01*
X369550000Y252050000D02*
X369550000Y237550000D01*
X393850000Y252050000D02*
X369550000Y252050000D01*
X393850000Y237550000D02*
X393850000Y252050000D01*
X331150000Y207550000D02*
X331150000Y260350000D01*
X308650000Y207550000D02*
X331150000Y207550000D01*
X308650000Y260350000D02*
X308650000Y207550000D01*
X331150000Y260350000D02*
X308650000Y260350000D01*
X204710000Y39870000D02*
X203460000Y39870000D01*
X203460000Y39870000D02*
X203460000Y60310000D01*
X203460000Y60310000D02*
X207960000Y60310000D01*
X207960000Y60310000D02*
X207960000Y39870000D01*
X207960000Y39870000D02*
X206710000Y39870000D01*
X200460000Y39810000D02*
X200460000Y60370000D01*
X200460000Y60370000D02*
X210960000Y60370000D01*
X210960000Y60370000D02*
X210960000Y39810000D01*
X210960000Y39810000D02*
X200460000Y39810000D01*
X206710000Y39870000D02*
G75*
G03*
X204710000Y39870000I-1000000J0D01*
G01*
X183460000Y40120000D02*
X182210000Y40120000D01*
X182210000Y40120000D02*
X182210000Y60560000D01*
X182210000Y60560000D02*
X186710000Y60560000D01*
X186710000Y60560000D02*
X186710000Y40120000D01*
X186710000Y40120000D02*
X185460000Y40120000D01*
X179210000Y40060000D02*
X179210000Y60620000D01*
X179210000Y60620000D02*
X189710000Y60620000D01*
X189710000Y60620000D02*
X189710000Y40060000D01*
X189710000Y40060000D02*
X179210000Y40060000D01*
X185460000Y40120000D02*
G75*
G03*
X183460000Y40120000I-1000000J0D01*
G01*
X216710000Y223870000D02*
X215460000Y223870000D01*
X215460000Y223870000D02*
X215460000Y244310000D01*
X215460000Y244310000D02*
X219960000Y244310000D01*
X219960000Y244310000D02*
X219960000Y223870000D01*
X219960000Y223870000D02*
X218710000Y223870000D01*
X212460000Y223810000D02*
X212460000Y244370000D01*
X212460000Y244370000D02*
X222960000Y244370000D01*
X222960000Y244370000D02*
X222960000Y223810000D01*
X222960000Y223810000D02*
X212460000Y223810000D01*
X218710000Y223870000D02*
G75*
G03*
X216710000Y223870000I-1000000J0D01*
G01*
X248460000Y223370000D02*
X247210000Y223370000D01*
X247210000Y223370000D02*
X247210000Y243810000D01*
X247210000Y243810000D02*
X251710000Y243810000D01*
X251710000Y243810000D02*
X251710000Y223370000D01*
X251710000Y223370000D02*
X250460000Y223370000D01*
X244210000Y223310000D02*
X244210000Y243870000D01*
X244210000Y243870000D02*
X254710000Y243870000D01*
X254710000Y243870000D02*
X254710000Y223310000D01*
X254710000Y223310000D02*
X244210000Y223310000D01*
X250460000Y223370000D02*
G75*
G03*
X248460000Y223370000I-1000000J0D01*
G01*
X248350000Y183180000D02*
X248350000Y183950000D01*
X248350000Y191260000D02*
X248350000Y190490000D01*
X246980000Y183950000D02*
X246980000Y190490000D01*
X249720000Y183950000D02*
X246980000Y183950000D01*
X249720000Y190490000D02*
X249720000Y183950000D01*
X246980000Y190490000D02*
X249720000Y190490000D01*
X215980000Y170610000D02*
X215980000Y169360000D01*
X215980000Y169360000D02*
X198080000Y169360000D01*
X198080000Y169360000D02*
X198080000Y173860000D01*
X198080000Y173860000D02*
X215980000Y173860000D01*
X215980000Y173860000D02*
X215980000Y172610000D01*
X216040000Y166360000D02*
X198020000Y166360000D01*
X198020000Y166360000D02*
X198020000Y176860000D01*
X198020000Y176860000D02*
X216040000Y176860000D01*
X216040000Y176860000D02*
X216040000Y166360000D01*
X215980000Y172610000D02*
G75*
G03*
X215980000Y170610000I0J-1000000D01*
G01*
X204760000Y134220000D02*
X203510000Y134220000D01*
X203510000Y134220000D02*
X203510000Y152120000D01*
X203510000Y152120000D02*
X208010000Y152120000D01*
X208010000Y152120000D02*
X208010000Y134220000D01*
X208010000Y134220000D02*
X206760000Y134220000D01*
X200510000Y134160000D02*
X200510000Y152180000D01*
X200510000Y152180000D02*
X211010000Y152180000D01*
X211010000Y152180000D02*
X211010000Y134160000D01*
X211010000Y134160000D02*
X200510000Y134160000D01*
X206760000Y134220000D02*
G75*
G03*
X204760000Y134220000I-1000000J0D01*
G01*
X160610000Y134110000D02*
X150110000Y134110000D01*
X160610000Y154670000D02*
X160610000Y134110000D01*
X150110000Y154670000D02*
X160610000Y154670000D01*
X150110000Y134110000D02*
X150110000Y154670000D01*
X157610000Y134170000D02*
X156360000Y134170000D01*
X157610000Y154610000D02*
X157610000Y134170000D01*
X153110000Y154610000D02*
X157610000Y154610000D01*
X153110000Y134170000D02*
X153110000Y154610000D01*
X154360000Y134170000D02*
X153110000Y134170000D01*
X156360000Y134170000D02*
G75*
G03*
X154360000Y134170000I-1000000J0D01*
G01*
X191120000Y89100000D02*
X190350000Y89100000D01*
X183040000Y89100000D02*
X183810000Y89100000D01*
X190350000Y87730000D02*
X183810000Y87730000D01*
X190350000Y90470000D02*
X190350000Y87730000D01*
X183810000Y90470000D02*
X190350000Y90470000D01*
X183810000Y87730000D02*
X183810000Y90470000D01*
X226860000Y134110000D02*
X216360000Y134110000D01*
X226860000Y154670000D02*
X226860000Y134110000D01*
X216360000Y154670000D02*
X226860000Y154670000D01*
X216360000Y134110000D02*
X216360000Y154670000D01*
X223860000Y134170000D02*
X222610000Y134170000D01*
X223860000Y154610000D02*
X223860000Y134170000D01*
X219360000Y154610000D02*
X223860000Y154610000D01*
X219360000Y134170000D02*
X219360000Y154610000D01*
X220610000Y134170000D02*
X219360000Y134170000D01*
X222610000Y134170000D02*
G75*
G03*
X220610000Y134170000I-1000000J0D01*
G01*
X188410000Y134160000D02*
X177910000Y134160000D01*
X188410000Y154720000D02*
X188410000Y134160000D01*
X177910000Y154720000D02*
X188410000Y154720000D01*
X177910000Y134160000D02*
X177910000Y154720000D01*
X185410000Y134220000D02*
X184160000Y134220000D01*
X185410000Y154660000D02*
X185410000Y134220000D01*
X180910000Y154660000D02*
X185410000Y154660000D01*
X180910000Y134220000D02*
X180910000Y154660000D01*
X182160000Y134220000D02*
X180910000Y134220000D01*
X184160000Y134220000D02*
G75*
G03*
X182160000Y134220000I-1000000J0D01*
G01*
X122175000Y65354775D02*
X122675000Y65354775D01*
X122425000Y65604775D02*
X122425000Y65104775D01*
X123616000Y60199000D02*
X124184000Y60199000D01*
X123382000Y60239000D02*
X124418000Y60239000D01*
X123223000Y60279000D02*
X124577000Y60279000D01*
X123095000Y60319000D02*
X124705000Y60319000D01*
X122985000Y60359000D02*
X124815000Y60359000D01*
X122889000Y60399000D02*
X124911000Y60399000D01*
X122802000Y60439000D02*
X124998000Y60439000D01*
X122722000Y60479000D02*
X125078000Y60479000D01*
X122649000Y60519000D02*
X125151000Y60519000D01*
X122581000Y60559000D02*
X125219000Y60559000D01*
X122517000Y60599000D02*
X125283000Y60599000D01*
X122457000Y60639000D02*
X125343000Y60639000D01*
X122400000Y60679000D02*
X125400000Y60679000D01*
X122346000Y60719000D02*
X125454000Y60719000D01*
X122295000Y60759000D02*
X125505000Y60759000D01*
X124940000Y60799000D02*
X125553000Y60799000D01*
X122247000Y60799000D02*
X122860000Y60799000D01*
X124940000Y60839000D02*
X125599000Y60839000D01*
X122201000Y60839000D02*
X122860000Y60839000D01*
X124940000Y60879000D02*
X125643000Y60879000D01*
X122157000Y60879000D02*
X122860000Y60879000D01*
X124940000Y60919000D02*
X125685000Y60919000D01*
X122115000Y60919000D02*
X122860000Y60919000D01*
X124940000Y60959000D02*
X125726000Y60959000D01*
X122074000Y60959000D02*
X122860000Y60959000D01*
X124940000Y60999000D02*
X125764000Y60999000D01*
X122036000Y60999000D02*
X122860000Y60999000D01*
X124940000Y61039000D02*
X125801000Y61039000D01*
X121999000Y61039000D02*
X122860000Y61039000D01*
X124940000Y61079000D02*
X125837000Y61079000D01*
X121963000Y61079000D02*
X122860000Y61079000D01*
X124940000Y61119000D02*
X125871000Y61119000D01*
X121929000Y61119000D02*
X122860000Y61119000D01*
X124940000Y61159000D02*
X125904000Y61159000D01*
X121896000Y61159000D02*
X122860000Y61159000D01*
X124940000Y61199000D02*
X125935000Y61199000D01*
X121865000Y61199000D02*
X122860000Y61199000D01*
X124940000Y61239000D02*
X125965000Y61239000D01*
X121835000Y61239000D02*
X122860000Y61239000D01*
X124940000Y61279000D02*
X125995000Y61279000D01*
X121805000Y61279000D02*
X122860000Y61279000D01*
X124940000Y61319000D02*
X126022000Y61319000D01*
X121778000Y61319000D02*
X122860000Y61319000D01*
X124940000Y61359000D02*
X126049000Y61359000D01*
X121751000Y61359000D02*
X122860000Y61359000D01*
X124940000Y61399000D02*
X126075000Y61399000D01*
X121725000Y61399000D02*
X122860000Y61399000D01*
X124940000Y61439000D02*
X126100000Y61439000D01*
X121700000Y61439000D02*
X122860000Y61439000D01*
X124940000Y61479000D02*
X126124000Y61479000D01*
X121676000Y61479000D02*
X122860000Y61479000D01*
X124940000Y61519000D02*
X126147000Y61519000D01*
X121653000Y61519000D02*
X122860000Y61519000D01*
X124940000Y61559000D02*
X126168000Y61559000D01*
X121632000Y61559000D02*
X122860000Y61559000D01*
X124940000Y61599000D02*
X126190000Y61599000D01*
X121610000Y61599000D02*
X122860000Y61599000D01*
X124940000Y61639000D02*
X126210000Y61639000D01*
X121590000Y61639000D02*
X122860000Y61639000D01*
X124940000Y61679000D02*
X126229000Y61679000D01*
X121571000Y61679000D02*
X122860000Y61679000D01*
X124940000Y61719000D02*
X126248000Y61719000D01*
X121552000Y61719000D02*
X122860000Y61719000D01*
X124940000Y61759000D02*
X126265000Y61759000D01*
X121535000Y61759000D02*
X122860000Y61759000D01*
X124940000Y61799000D02*
X126282000Y61799000D01*
X121518000Y61799000D02*
X122860000Y61799000D01*
X124940000Y61839000D02*
X126298000Y61839000D01*
X121502000Y61839000D02*
X122860000Y61839000D01*
X124940000Y61879000D02*
X126314000Y61879000D01*
X121486000Y61879000D02*
X122860000Y61879000D01*
X124940000Y61919000D02*
X126328000Y61919000D01*
X121472000Y61919000D02*
X122860000Y61919000D01*
X124940000Y61959000D02*
X126342000Y61959000D01*
X121458000Y61959000D02*
X122860000Y61959000D01*
X124940000Y61999000D02*
X126355000Y61999000D01*
X121445000Y61999000D02*
X122860000Y61999000D01*
X124940000Y62039000D02*
X126368000Y62039000D01*
X121432000Y62039000D02*
X122860000Y62039000D01*
X124940000Y62079000D02*
X126380000Y62079000D01*
X121420000Y62079000D02*
X122860000Y62079000D01*
X124940000Y62120000D02*
X126391000Y62120000D01*
X121409000Y62120000D02*
X122860000Y62120000D01*
X124940000Y62160000D02*
X126401000Y62160000D01*
X121399000Y62160000D02*
X122860000Y62160000D01*
X124940000Y62200000D02*
X126411000Y62200000D01*
X121389000Y62200000D02*
X122860000Y62200000D01*
X124940000Y62240000D02*
X126420000Y62240000D01*
X121380000Y62240000D02*
X122860000Y62240000D01*
X124940000Y62280000D02*
X126428000Y62280000D01*
X121372000Y62280000D02*
X122860000Y62280000D01*
X124940000Y62320000D02*
X126436000Y62320000D01*
X121364000Y62320000D02*
X122860000Y62320000D01*
X124940000Y62360000D02*
X126443000Y62360000D01*
X121357000Y62360000D02*
X122860000Y62360000D01*
X124940000Y62400000D02*
X126450000Y62400000D01*
X121350000Y62400000D02*
X122860000Y62400000D01*
X124940000Y62440000D02*
X126456000Y62440000D01*
X121344000Y62440000D02*
X122860000Y62440000D01*
X124940000Y62480000D02*
X126461000Y62480000D01*
X121339000Y62480000D02*
X122860000Y62480000D01*
X124940000Y62520000D02*
X126465000Y62520000D01*
X121335000Y62520000D02*
X122860000Y62520000D01*
X124940000Y62560000D02*
X126469000Y62560000D01*
X121331000Y62560000D02*
X122860000Y62560000D01*
X124940000Y62600000D02*
X126473000Y62600000D01*
X121327000Y62600000D02*
X122860000Y62600000D01*
X124940000Y62640000D02*
X126476000Y62640000D01*
X121324000Y62640000D02*
X122860000Y62640000D01*
X124940000Y62680000D02*
X126478000Y62680000D01*
X121322000Y62680000D02*
X122860000Y62680000D01*
X124940000Y62720000D02*
X126479000Y62720000D01*
X121321000Y62720000D02*
X122860000Y62720000D01*
X121320000Y62760000D02*
X122860000Y62760000D01*
X124940000Y62760000D02*
X126480000Y62760000D01*
X121320000Y62800000D02*
X122860000Y62800000D01*
X124940000Y62800000D02*
X126480000Y62800000D01*
X126520000Y62800000D02*
G75*
G03*
X126520000Y62800000I-2620000J0D01*
G01*
X88705000Y65469801D02*
X89105000Y65469801D01*
X88905000Y65669801D02*
X88905000Y65269801D01*
X89730000Y61319000D02*
X90470000Y61319000D01*
X89563000Y61359000D02*
X90637000Y61359000D01*
X89436000Y61399000D02*
X90764000Y61399000D01*
X89332000Y61439000D02*
X90868000Y61439000D01*
X89241000Y61479000D02*
X90959000Y61479000D01*
X89160000Y61519000D02*
X91040000Y61519000D01*
X89087000Y61559000D02*
X91113000Y61559000D01*
X90940000Y61599000D02*
X91180000Y61599000D01*
X89020000Y61599000D02*
X89260000Y61599000D01*
X90940000Y61639000D02*
X91242000Y61639000D01*
X88958000Y61639000D02*
X89260000Y61639000D01*
X90940000Y61679000D02*
X91300000Y61679000D01*
X88900000Y61679000D02*
X89260000Y61679000D01*
X90940000Y61719000D02*
X91354000Y61719000D01*
X88846000Y61719000D02*
X89260000Y61719000D01*
X90940000Y61759000D02*
X91404000Y61759000D01*
X88796000Y61759000D02*
X89260000Y61759000D01*
X90940000Y61799000D02*
X91451000Y61799000D01*
X88749000Y61799000D02*
X89260000Y61799000D01*
X90940000Y61839000D02*
X91496000Y61839000D01*
X88704000Y61839000D02*
X89260000Y61839000D01*
X90940000Y61879000D02*
X91538000Y61879000D01*
X88662000Y61879000D02*
X89260000Y61879000D01*
X90940000Y61919000D02*
X91578000Y61919000D01*
X88622000Y61919000D02*
X89260000Y61919000D01*
X90940000Y61959000D02*
X91616000Y61959000D01*
X88584000Y61959000D02*
X89260000Y61959000D01*
X90940000Y61999000D02*
X91652000Y61999000D01*
X88548000Y61999000D02*
X89260000Y61999000D01*
X90940000Y62039000D02*
X91687000Y62039000D01*
X88513000Y62039000D02*
X89260000Y62039000D01*
X90940000Y62079000D02*
X91719000Y62079000D01*
X88481000Y62079000D02*
X89260000Y62079000D01*
X90940000Y62119000D02*
X91750000Y62119000D01*
X88450000Y62119000D02*
X89260000Y62119000D01*
X90940000Y62159000D02*
X91780000Y62159000D01*
X88420000Y62159000D02*
X89260000Y62159000D01*
X90940000Y62199000D02*
X91808000Y62199000D01*
X88392000Y62199000D02*
X89260000Y62199000D01*
X90940000Y62239000D02*
X91835000Y62239000D01*
X88365000Y62239000D02*
X89260000Y62239000D01*
X90940000Y62279000D02*
X91860000Y62279000D01*
X88340000Y62279000D02*
X89260000Y62279000D01*
X90940000Y62319000D02*
X91885000Y62319000D01*
X88315000Y62319000D02*
X89260000Y62319000D01*
X90940000Y62359000D02*
X91908000Y62359000D01*
X88292000Y62359000D02*
X89260000Y62359000D01*
X90940000Y62399000D02*
X91930000Y62399000D01*
X88270000Y62399000D02*
X89260000Y62399000D01*
X90940000Y62439000D02*
X91951000Y62439000D01*
X88249000Y62439000D02*
X89260000Y62439000D01*
X90940000Y62479000D02*
X91970000Y62479000D01*
X88230000Y62479000D02*
X89260000Y62479000D01*
X90940000Y62519000D02*
X91989000Y62519000D01*
X88211000Y62519000D02*
X89260000Y62519000D01*
X90940000Y62559000D02*
X92007000Y62559000D01*
X88193000Y62559000D02*
X89260000Y62559000D01*
X90940000Y62599000D02*
X92024000Y62599000D01*
X88176000Y62599000D02*
X89260000Y62599000D01*
X90940000Y62639000D02*
X92040000Y62639000D01*
X88160000Y62639000D02*
X89260000Y62639000D01*
X90940000Y62679000D02*
X92054000Y62679000D01*
X88146000Y62679000D02*
X89260000Y62679000D01*
X90940000Y62720000D02*
X92068000Y62720000D01*
X88132000Y62720000D02*
X89260000Y62720000D01*
X90940000Y62760000D02*
X92082000Y62760000D01*
X88118000Y62760000D02*
X89260000Y62760000D01*
X90940000Y62800000D02*
X92094000Y62800000D01*
X88106000Y62800000D02*
X89260000Y62800000D01*
X90940000Y62840000D02*
X92105000Y62840000D01*
X88095000Y62840000D02*
X89260000Y62840000D01*
X90940000Y62880000D02*
X92116000Y62880000D01*
X88084000Y62880000D02*
X89260000Y62880000D01*
X90940000Y62920000D02*
X92125000Y62920000D01*
X88075000Y62920000D02*
X89260000Y62920000D01*
X90940000Y62960000D02*
X92134000Y62960000D01*
X88066000Y62960000D02*
X89260000Y62960000D01*
X90940000Y63000000D02*
X92142000Y63000000D01*
X88058000Y63000000D02*
X89260000Y63000000D01*
X90940000Y63040000D02*
X92150000Y63040000D01*
X88050000Y63040000D02*
X89260000Y63040000D01*
X90940000Y63080000D02*
X92156000Y63080000D01*
X88044000Y63080000D02*
X89260000Y63080000D01*
X90940000Y63120000D02*
X92162000Y63120000D01*
X88038000Y63120000D02*
X89260000Y63120000D01*
X90940000Y63160000D02*
X92167000Y63160000D01*
X88033000Y63160000D02*
X89260000Y63160000D01*
X90940000Y63200000D02*
X92171000Y63200000D01*
X88029000Y63200000D02*
X89260000Y63200000D01*
X88026000Y63240000D02*
X92174000Y63240000D01*
X88023000Y63280000D02*
X92177000Y63280000D01*
X88021000Y63320000D02*
X92179000Y63320000D01*
X88020000Y63360000D02*
X92180000Y63360000D01*
X88020000Y63400000D02*
X92180000Y63400000D01*
X92220000Y63400000D02*
G75*
G03*
X92220000Y63400000I-2120000J0D01*
G01*
X122175000Y57354775D02*
X122675000Y57354775D01*
X122425000Y57604775D02*
X122425000Y57104775D01*
X123616000Y52199000D02*
X124184000Y52199000D01*
X123382000Y52239000D02*
X124418000Y52239000D01*
X123223000Y52279000D02*
X124577000Y52279000D01*
X123095000Y52319000D02*
X124705000Y52319000D01*
X122985000Y52359000D02*
X124815000Y52359000D01*
X122889000Y52399000D02*
X124911000Y52399000D01*
X122802000Y52439000D02*
X124998000Y52439000D01*
X122722000Y52479000D02*
X125078000Y52479000D01*
X122649000Y52519000D02*
X125151000Y52519000D01*
X122581000Y52559000D02*
X125219000Y52559000D01*
X122517000Y52599000D02*
X125283000Y52599000D01*
X122457000Y52639000D02*
X125343000Y52639000D01*
X122400000Y52679000D02*
X125400000Y52679000D01*
X122346000Y52719000D02*
X125454000Y52719000D01*
X122295000Y52759000D02*
X125505000Y52759000D01*
X124940000Y52799000D02*
X125553000Y52799000D01*
X122247000Y52799000D02*
X122860000Y52799000D01*
X124940000Y52839000D02*
X125599000Y52839000D01*
X122201000Y52839000D02*
X122860000Y52839000D01*
X124940000Y52879000D02*
X125643000Y52879000D01*
X122157000Y52879000D02*
X122860000Y52879000D01*
X124940000Y52919000D02*
X125685000Y52919000D01*
X122115000Y52919000D02*
X122860000Y52919000D01*
X124940000Y52959000D02*
X125726000Y52959000D01*
X122074000Y52959000D02*
X122860000Y52959000D01*
X124940000Y52999000D02*
X125764000Y52999000D01*
X122036000Y52999000D02*
X122860000Y52999000D01*
X124940000Y53039000D02*
X125801000Y53039000D01*
X121999000Y53039000D02*
X122860000Y53039000D01*
X124940000Y53079000D02*
X125837000Y53079000D01*
X121963000Y53079000D02*
X122860000Y53079000D01*
X124940000Y53119000D02*
X125871000Y53119000D01*
X121929000Y53119000D02*
X122860000Y53119000D01*
X124940000Y53159000D02*
X125904000Y53159000D01*
X121896000Y53159000D02*
X122860000Y53159000D01*
X124940000Y53199000D02*
X125935000Y53199000D01*
X121865000Y53199000D02*
X122860000Y53199000D01*
X124940000Y53239000D02*
X125965000Y53239000D01*
X121835000Y53239000D02*
X122860000Y53239000D01*
X124940000Y53279000D02*
X125995000Y53279000D01*
X121805000Y53279000D02*
X122860000Y53279000D01*
X124940000Y53319000D02*
X126022000Y53319000D01*
X121778000Y53319000D02*
X122860000Y53319000D01*
X124940000Y53359000D02*
X126049000Y53359000D01*
X121751000Y53359000D02*
X122860000Y53359000D01*
X124940000Y53399000D02*
X126075000Y53399000D01*
X121725000Y53399000D02*
X122860000Y53399000D01*
X124940000Y53439000D02*
X126100000Y53439000D01*
X121700000Y53439000D02*
X122860000Y53439000D01*
X124940000Y53479000D02*
X126124000Y53479000D01*
X121676000Y53479000D02*
X122860000Y53479000D01*
X124940000Y53519000D02*
X126147000Y53519000D01*
X121653000Y53519000D02*
X122860000Y53519000D01*
X124940000Y53559000D02*
X126168000Y53559000D01*
X121632000Y53559000D02*
X122860000Y53559000D01*
X124940000Y53599000D02*
X126190000Y53599000D01*
X121610000Y53599000D02*
X122860000Y53599000D01*
X124940000Y53639000D02*
X126210000Y53639000D01*
X121590000Y53639000D02*
X122860000Y53639000D01*
X124940000Y53679000D02*
X126229000Y53679000D01*
X121571000Y53679000D02*
X122860000Y53679000D01*
X124940000Y53719000D02*
X126248000Y53719000D01*
X121552000Y53719000D02*
X122860000Y53719000D01*
X124940000Y53759000D02*
X126265000Y53759000D01*
X121535000Y53759000D02*
X122860000Y53759000D01*
X124940000Y53799000D02*
X126282000Y53799000D01*
X121518000Y53799000D02*
X122860000Y53799000D01*
X124940000Y53839000D02*
X126298000Y53839000D01*
X121502000Y53839000D02*
X122860000Y53839000D01*
X124940000Y53879000D02*
X126314000Y53879000D01*
X121486000Y53879000D02*
X122860000Y53879000D01*
X124940000Y53919000D02*
X126328000Y53919000D01*
X121472000Y53919000D02*
X122860000Y53919000D01*
X124940000Y53959000D02*
X126342000Y53959000D01*
X121458000Y53959000D02*
X122860000Y53959000D01*
X124940000Y53999000D02*
X126355000Y53999000D01*
X121445000Y53999000D02*
X122860000Y53999000D01*
X124940000Y54039000D02*
X126368000Y54039000D01*
X121432000Y54039000D02*
X122860000Y54039000D01*
X124940000Y54079000D02*
X126380000Y54079000D01*
X121420000Y54079000D02*
X122860000Y54079000D01*
X124940000Y54120000D02*
X126391000Y54120000D01*
X121409000Y54120000D02*
X122860000Y54120000D01*
X124940000Y54160000D02*
X126401000Y54160000D01*
X121399000Y54160000D02*
X122860000Y54160000D01*
X124940000Y54200000D02*
X126411000Y54200000D01*
X121389000Y54200000D02*
X122860000Y54200000D01*
X124940000Y54240000D02*
X126420000Y54240000D01*
X121380000Y54240000D02*
X122860000Y54240000D01*
X124940000Y54280000D02*
X126428000Y54280000D01*
X121372000Y54280000D02*
X122860000Y54280000D01*
X124940000Y54320000D02*
X126436000Y54320000D01*
X121364000Y54320000D02*
X122860000Y54320000D01*
X124940000Y54360000D02*
X126443000Y54360000D01*
X121357000Y54360000D02*
X122860000Y54360000D01*
X124940000Y54400000D02*
X126450000Y54400000D01*
X121350000Y54400000D02*
X122860000Y54400000D01*
X124940000Y54440000D02*
X126456000Y54440000D01*
X121344000Y54440000D02*
X122860000Y54440000D01*
X124940000Y54480000D02*
X126461000Y54480000D01*
X121339000Y54480000D02*
X122860000Y54480000D01*
X124940000Y54520000D02*
X126465000Y54520000D01*
X121335000Y54520000D02*
X122860000Y54520000D01*
X124940000Y54560000D02*
X126469000Y54560000D01*
X121331000Y54560000D02*
X122860000Y54560000D01*
X124940000Y54600000D02*
X126473000Y54600000D01*
X121327000Y54600000D02*
X122860000Y54600000D01*
X124940000Y54640000D02*
X126476000Y54640000D01*
X121324000Y54640000D02*
X122860000Y54640000D01*
X124940000Y54680000D02*
X126478000Y54680000D01*
X121322000Y54680000D02*
X122860000Y54680000D01*
X124940000Y54720000D02*
X126479000Y54720000D01*
X121321000Y54720000D02*
X122860000Y54720000D01*
X121320000Y54760000D02*
X122860000Y54760000D01*
X124940000Y54760000D02*
X126480000Y54760000D01*
X121320000Y54800000D02*
X122860000Y54800000D01*
X124940000Y54800000D02*
X126480000Y54800000D01*
X126520000Y54800000D02*
G75*
G03*
X126520000Y54800000I-2620000J0D01*
G01*
X88805000Y56869801D02*
X89205000Y56869801D01*
X89005000Y57069801D02*
X89005000Y56669801D01*
X89830000Y52719000D02*
X90570000Y52719000D01*
X89663000Y52759000D02*
X90737000Y52759000D01*
X89536000Y52799000D02*
X90864000Y52799000D01*
X89432000Y52839000D02*
X90968000Y52839000D01*
X89341000Y52879000D02*
X91059000Y52879000D01*
X89260000Y52919000D02*
X91140000Y52919000D01*
X89187000Y52959000D02*
X91213000Y52959000D01*
X91040000Y52999000D02*
X91280000Y52999000D01*
X89120000Y52999000D02*
X89360000Y52999000D01*
X91040000Y53039000D02*
X91342000Y53039000D01*
X89058000Y53039000D02*
X89360000Y53039000D01*
X91040000Y53079000D02*
X91400000Y53079000D01*
X89000000Y53079000D02*
X89360000Y53079000D01*
X91040000Y53119000D02*
X91454000Y53119000D01*
X88946000Y53119000D02*
X89360000Y53119000D01*
X91040000Y53159000D02*
X91504000Y53159000D01*
X88896000Y53159000D02*
X89360000Y53159000D01*
X91040000Y53199000D02*
X91551000Y53199000D01*
X88849000Y53199000D02*
X89360000Y53199000D01*
X91040000Y53239000D02*
X91596000Y53239000D01*
X88804000Y53239000D02*
X89360000Y53239000D01*
X91040000Y53279000D02*
X91638000Y53279000D01*
X88762000Y53279000D02*
X89360000Y53279000D01*
X91040000Y53319000D02*
X91678000Y53319000D01*
X88722000Y53319000D02*
X89360000Y53319000D01*
X91040000Y53359000D02*
X91716000Y53359000D01*
X88684000Y53359000D02*
X89360000Y53359000D01*
X91040000Y53399000D02*
X91752000Y53399000D01*
X88648000Y53399000D02*
X89360000Y53399000D01*
X91040000Y53439000D02*
X91787000Y53439000D01*
X88613000Y53439000D02*
X89360000Y53439000D01*
X91040000Y53479000D02*
X91819000Y53479000D01*
X88581000Y53479000D02*
X89360000Y53479000D01*
X91040000Y53519000D02*
X91850000Y53519000D01*
X88550000Y53519000D02*
X89360000Y53519000D01*
X91040000Y53559000D02*
X91880000Y53559000D01*
X88520000Y53559000D02*
X89360000Y53559000D01*
X91040000Y53599000D02*
X91908000Y53599000D01*
X88492000Y53599000D02*
X89360000Y53599000D01*
X91040000Y53639000D02*
X91935000Y53639000D01*
X88465000Y53639000D02*
X89360000Y53639000D01*
X91040000Y53679000D02*
X91960000Y53679000D01*
X88440000Y53679000D02*
X89360000Y53679000D01*
X91040000Y53719000D02*
X91985000Y53719000D01*
X88415000Y53719000D02*
X89360000Y53719000D01*
X91040000Y53759000D02*
X92008000Y53759000D01*
X88392000Y53759000D02*
X89360000Y53759000D01*
X91040000Y53799000D02*
X92030000Y53799000D01*
X88370000Y53799000D02*
X89360000Y53799000D01*
X91040000Y53839000D02*
X92051000Y53839000D01*
X88349000Y53839000D02*
X89360000Y53839000D01*
X91040000Y53879000D02*
X92070000Y53879000D01*
X88330000Y53879000D02*
X89360000Y53879000D01*
X91040000Y53919000D02*
X92089000Y53919000D01*
X88311000Y53919000D02*
X89360000Y53919000D01*
X91040000Y53959000D02*
X92107000Y53959000D01*
X88293000Y53959000D02*
X89360000Y53959000D01*
X91040000Y53999000D02*
X92124000Y53999000D01*
X88276000Y53999000D02*
X89360000Y53999000D01*
X91040000Y54039000D02*
X92140000Y54039000D01*
X88260000Y54039000D02*
X89360000Y54039000D01*
X91040000Y54079000D02*
X92154000Y54079000D01*
X88246000Y54079000D02*
X89360000Y54079000D01*
X91040000Y54120000D02*
X92168000Y54120000D01*
X88232000Y54120000D02*
X89360000Y54120000D01*
X91040000Y54160000D02*
X92182000Y54160000D01*
X88218000Y54160000D02*
X89360000Y54160000D01*
X91040000Y54200000D02*
X92194000Y54200000D01*
X88206000Y54200000D02*
X89360000Y54200000D01*
X91040000Y54240000D02*
X92205000Y54240000D01*
X88195000Y54240000D02*
X89360000Y54240000D01*
X91040000Y54280000D02*
X92216000Y54280000D01*
X88184000Y54280000D02*
X89360000Y54280000D01*
X91040000Y54320000D02*
X92225000Y54320000D01*
X88175000Y54320000D02*
X89360000Y54320000D01*
X91040000Y54360000D02*
X92234000Y54360000D01*
X88166000Y54360000D02*
X89360000Y54360000D01*
X91040000Y54400000D02*
X92242000Y54400000D01*
X88158000Y54400000D02*
X89360000Y54400000D01*
X91040000Y54440000D02*
X92250000Y54440000D01*
X88150000Y54440000D02*
X89360000Y54440000D01*
X91040000Y54480000D02*
X92256000Y54480000D01*
X88144000Y54480000D02*
X89360000Y54480000D01*
X91040000Y54520000D02*
X92262000Y54520000D01*
X88138000Y54520000D02*
X89360000Y54520000D01*
X91040000Y54560000D02*
X92267000Y54560000D01*
X88133000Y54560000D02*
X89360000Y54560000D01*
X91040000Y54600000D02*
X92271000Y54600000D01*
X88129000Y54600000D02*
X89360000Y54600000D01*
X88126000Y54640000D02*
X92274000Y54640000D01*
X88123000Y54680000D02*
X92277000Y54680000D01*
X88121000Y54720000D02*
X92279000Y54720000D01*
X88120000Y54760000D02*
X92280000Y54760000D01*
X88120000Y54800000D02*
X92280000Y54800000D01*
X92320000Y54800000D02*
G75*
G03*
X92320000Y54800000I-2120000J0D01*
G01*
X54560000Y57370000D02*
X54560000Y60400000D01*
X54560000Y61700000D02*
X54560000Y64610000D01*
X47720000Y57370000D02*
X47720000Y60400000D01*
X47720000Y61700000D02*
X47720000Y64610000D01*
X54560000Y57370000D02*
X47720000Y57370000D01*
X54560000Y64610000D02*
X47720000Y64610000D01*
X73560000Y60980000D02*
X73560000Y63720000D01*
X73560000Y63720000D02*
X80100000Y63720000D01*
X80100000Y63720000D02*
X80100000Y60980000D01*
X80100000Y60980000D02*
X73560000Y60980000D01*
X72790000Y62350000D02*
X73560000Y62350000D01*
X80870000Y62350000D02*
X80100000Y62350000D01*
X41990000Y63970000D02*
X41990000Y61230000D01*
X41990000Y61230000D02*
X35450000Y61230000D01*
X35450000Y61230000D02*
X35450000Y63970000D01*
X35450000Y63970000D02*
X41990000Y63970000D01*
X42760000Y62600000D02*
X41990000Y62600000D01*
X34680000Y62600000D02*
X35450000Y62600000D01*
X69650000Y71050000D02*
G75*
G03*
X69650000Y71050000I-5000000J0D01*
G01*
X52550000Y73800000D02*
X43050000Y73800000D01*
X52550000Y73800000D02*
X52550000Y68200000D01*
X43050000Y73800000D02*
X43050000Y68200000D01*
X43050000Y68200000D02*
X52550000Y68200000D01*
D11*
G36*
X51050000Y68250000D02*
G01*
X52550000Y68200000D01*
X52550000Y73800000D01*
X51050000Y73800000D01*
X51050000Y68250000D01*
G37*
X51050000Y68250000D02*
X52550000Y68200000D01*
X52550000Y73800000D01*
X51050000Y73800000D01*
X51050000Y68250000D01*
D10*
X55500000Y71050000D02*
X51900000Y71050000D01*
X40100000Y71050000D02*
X43000000Y71050000D01*
X80870000Y69300000D02*
G75*
G03*
X80870000Y69300000I-4120000J0D01*
G01*
X72670000Y69300000D02*
X80830000Y69300000D01*
X72670000Y69260000D02*
X80830000Y69260000D01*
X72670000Y69220000D02*
X80830000Y69220000D01*
X72671000Y69180000D02*
X80829000Y69180000D01*
X72673000Y69140000D02*
X80827000Y69140000D01*
X72674000Y69100000D02*
X80826000Y69100000D01*
X72676000Y69060000D02*
X80824000Y69060000D01*
X72679000Y69020000D02*
X80821000Y69020000D01*
X72682000Y68980000D02*
X80818000Y68980000D01*
X72685000Y68940000D02*
X80815000Y68940000D01*
X72689000Y68900000D02*
X80811000Y68900000D01*
X72693000Y68860000D02*
X80807000Y68860000D01*
X72698000Y68820000D02*
X80802000Y68820000D01*
X72702000Y68780000D02*
X80798000Y68780000D01*
X72708000Y68740000D02*
X80792000Y68740000D01*
X72713000Y68700000D02*
X80787000Y68700000D01*
X72720000Y68660000D02*
X80780000Y68660000D01*
X72726000Y68620000D02*
X80774000Y68620000D01*
X72733000Y68579000D02*
X75710000Y68579000D01*
X77790000Y68579000D02*
X80767000Y68579000D01*
X72740000Y68539000D02*
X75710000Y68539000D01*
X77790000Y68539000D02*
X80760000Y68539000D01*
X72748000Y68499000D02*
X75710000Y68499000D01*
X77790000Y68499000D02*
X80752000Y68499000D01*
X72756000Y68459000D02*
X75710000Y68459000D01*
X77790000Y68459000D02*
X80744000Y68459000D01*
X72765000Y68419000D02*
X75710000Y68419000D01*
X77790000Y68419000D02*
X80735000Y68419000D01*
X72774000Y68379000D02*
X75710000Y68379000D01*
X77790000Y68379000D02*
X80726000Y68379000D01*
X72783000Y68339000D02*
X75710000Y68339000D01*
X77790000Y68339000D02*
X80717000Y68339000D01*
X72793000Y68299000D02*
X75710000Y68299000D01*
X77790000Y68299000D02*
X80707000Y68299000D01*
X72803000Y68259000D02*
X75710000Y68259000D01*
X77790000Y68259000D02*
X80697000Y68259000D01*
X72814000Y68219000D02*
X75710000Y68219000D01*
X77790000Y68219000D02*
X80686000Y68219000D01*
X72825000Y68179000D02*
X75710000Y68179000D01*
X77790000Y68179000D02*
X80675000Y68179000D01*
X72836000Y68139000D02*
X75710000Y68139000D01*
X77790000Y68139000D02*
X80664000Y68139000D01*
X72848000Y68099000D02*
X75710000Y68099000D01*
X77790000Y68099000D02*
X80652000Y68099000D01*
X72861000Y68059000D02*
X75710000Y68059000D01*
X77790000Y68059000D02*
X80639000Y68059000D01*
X72873000Y68019000D02*
X75710000Y68019000D01*
X77790000Y68019000D02*
X80627000Y68019000D01*
X72887000Y67979000D02*
X75710000Y67979000D01*
X77790000Y67979000D02*
X80613000Y67979000D01*
X72900000Y67939000D02*
X75710000Y67939000D01*
X77790000Y67939000D02*
X80600000Y67939000D01*
X72915000Y67899000D02*
X75710000Y67899000D01*
X77790000Y67899000D02*
X80585000Y67899000D01*
X72929000Y67859000D02*
X75710000Y67859000D01*
X77790000Y67859000D02*
X80571000Y67859000D01*
X72945000Y67819000D02*
X75710000Y67819000D01*
X77790000Y67819000D02*
X80555000Y67819000D01*
X72960000Y67779000D02*
X75710000Y67779000D01*
X77790000Y67779000D02*
X80540000Y67779000D01*
X72976000Y67739000D02*
X75710000Y67739000D01*
X77790000Y67739000D02*
X80524000Y67739000D01*
X72993000Y67699000D02*
X75710000Y67699000D01*
X77790000Y67699000D02*
X80507000Y67699000D01*
X73010000Y67659000D02*
X75710000Y67659000D01*
X77790000Y67659000D02*
X80490000Y67659000D01*
X73028000Y67619000D02*
X75710000Y67619000D01*
X77790000Y67619000D02*
X80472000Y67619000D01*
X73046000Y67579000D02*
X75710000Y67579000D01*
X77790000Y67579000D02*
X80454000Y67579000D01*
X73064000Y67539000D02*
X75710000Y67539000D01*
X77790000Y67539000D02*
X80436000Y67539000D01*
X73084000Y67499000D02*
X75710000Y67499000D01*
X77790000Y67499000D02*
X80416000Y67499000D01*
X73103000Y67459000D02*
X75710000Y67459000D01*
X77790000Y67459000D02*
X80397000Y67459000D01*
X73123000Y67419000D02*
X75710000Y67419000D01*
X77790000Y67419000D02*
X80377000Y67419000D01*
X73144000Y67379000D02*
X75710000Y67379000D01*
X77790000Y67379000D02*
X80356000Y67379000D01*
X73166000Y67339000D02*
X75710000Y67339000D01*
X77790000Y67339000D02*
X80334000Y67339000D01*
X73188000Y67299000D02*
X75710000Y67299000D01*
X77790000Y67299000D02*
X80312000Y67299000D01*
X73210000Y67259000D02*
X75710000Y67259000D01*
X77790000Y67259000D02*
X80290000Y67259000D01*
X73233000Y67219000D02*
X75710000Y67219000D01*
X77790000Y67219000D02*
X80267000Y67219000D01*
X73257000Y67179000D02*
X75710000Y67179000D01*
X77790000Y67179000D02*
X80243000Y67179000D01*
X73281000Y67139000D02*
X75710000Y67139000D01*
X77790000Y67139000D02*
X80219000Y67139000D01*
X73306000Y67099000D02*
X75710000Y67099000D01*
X77790000Y67099000D02*
X80194000Y67099000D01*
X73332000Y67059000D02*
X75710000Y67059000D01*
X77790000Y67059000D02*
X80168000Y67059000D01*
X73358000Y67019000D02*
X75710000Y67019000D01*
X77790000Y67019000D02*
X80142000Y67019000D01*
X73385000Y66979000D02*
X75710000Y66979000D01*
X77790000Y66979000D02*
X80115000Y66979000D01*
X73412000Y66939000D02*
X75710000Y66939000D01*
X77790000Y66939000D02*
X80088000Y66939000D01*
X73441000Y66899000D02*
X75710000Y66899000D01*
X77790000Y66899000D02*
X80059000Y66899000D01*
X73470000Y66859000D02*
X75710000Y66859000D01*
X77790000Y66859000D02*
X80030000Y66859000D01*
X73500000Y66819000D02*
X75710000Y66819000D01*
X77790000Y66819000D02*
X80000000Y66819000D01*
X73530000Y66779000D02*
X75710000Y66779000D01*
X77790000Y66779000D02*
X79970000Y66779000D01*
X73561000Y66739000D02*
X75710000Y66739000D01*
X77790000Y66739000D02*
X79939000Y66739000D01*
X73594000Y66699000D02*
X75710000Y66699000D01*
X77790000Y66699000D02*
X79906000Y66699000D01*
X73626000Y66659000D02*
X75710000Y66659000D01*
X77790000Y66659000D02*
X79874000Y66659000D01*
X73660000Y66619000D02*
X75710000Y66619000D01*
X77790000Y66619000D02*
X79840000Y66619000D01*
X73695000Y66579000D02*
X75710000Y66579000D01*
X77790000Y66579000D02*
X79805000Y66579000D01*
X73731000Y66539000D02*
X75710000Y66539000D01*
X77790000Y66539000D02*
X79769000Y66539000D01*
X73767000Y66499000D02*
X79733000Y66499000D01*
X73805000Y66459000D02*
X79695000Y66459000D01*
X73843000Y66419000D02*
X79657000Y66419000D01*
X73883000Y66379000D02*
X79617000Y66379000D01*
X73924000Y66339000D02*
X79576000Y66339000D01*
X73966000Y66299000D02*
X79534000Y66299000D01*
X74009000Y66259000D02*
X79491000Y66259000D01*
X74053000Y66219000D02*
X79447000Y66219000D01*
X74099000Y66179000D02*
X79401000Y66179000D01*
X74146000Y66139000D02*
X79354000Y66139000D01*
X74194000Y66099000D02*
X79306000Y66099000D01*
X74245000Y66059000D02*
X79255000Y66059000D01*
X74296000Y66019000D02*
X79204000Y66019000D01*
X74350000Y65979000D02*
X79150000Y65979000D01*
X74405000Y65939000D02*
X79095000Y65939000D01*
X74463000Y65899000D02*
X79037000Y65899000D01*
X74522000Y65859000D02*
X78978000Y65859000D01*
X74584000Y65819000D02*
X78916000Y65819000D01*
X74648000Y65779000D02*
X78852000Y65779000D01*
X74716000Y65739000D02*
X78784000Y65739000D01*
X74786000Y65699000D02*
X78714000Y65699000D01*
X74860000Y65659000D02*
X78640000Y65659000D01*
X74937000Y65619000D02*
X78563000Y65619000D01*
X75019000Y65579000D02*
X78481000Y65579000D01*
X75105000Y65539000D02*
X78395000Y65539000D01*
X75198000Y65499000D02*
X78302000Y65499000D01*
X75297000Y65459000D02*
X78203000Y65459000D01*
X75404000Y65419000D02*
X78096000Y65419000D01*
X75521000Y65379000D02*
X77979000Y65379000D01*
X75652000Y65339000D02*
X77848000Y65339000D01*
X75802000Y65299000D02*
X77698000Y65299000D01*
X75982000Y65259000D02*
X77518000Y65259000D01*
X76217000Y65219000D02*
X77283000Y65219000D01*
X74435000Y73709698D02*
X74435000Y72909698D01*
X74035000Y73309698D02*
X74835000Y73309698D01*
X53820000Y50500000D02*
G75*
G03*
X53820000Y50500000I-5120000J0D01*
G01*
X43620000Y50500000D02*
X53780000Y50500000D01*
X43620000Y50460000D02*
X53780000Y50460000D01*
X43620000Y50420000D02*
X53780000Y50420000D01*
X43621000Y50380000D02*
X53779000Y50380000D01*
X43622000Y50340000D02*
X53778000Y50340000D01*
X43623000Y50300000D02*
X53777000Y50300000D01*
X43625000Y50260000D02*
X53775000Y50260000D01*
X43627000Y50220000D02*
X53773000Y50220000D01*
X43630000Y50180000D02*
X53770000Y50180000D01*
X43632000Y50140000D02*
X53768000Y50140000D01*
X43635000Y50100000D02*
X53765000Y50100000D01*
X43638000Y50060000D02*
X53762000Y50060000D01*
X43642000Y50020000D02*
X53758000Y50020000D01*
X43646000Y49980000D02*
X53754000Y49980000D01*
X43650000Y49940000D02*
X53750000Y49940000D01*
X43655000Y49900000D02*
X53745000Y49900000D01*
X43660000Y49860000D02*
X53740000Y49860000D01*
X43665000Y49820000D02*
X53735000Y49820000D01*
X43670000Y49779000D02*
X53730000Y49779000D01*
X43676000Y49739000D02*
X53724000Y49739000D01*
X43682000Y49699000D02*
X53718000Y49699000D01*
X43689000Y49659000D02*
X53711000Y49659000D01*
X43696000Y49619000D02*
X53704000Y49619000D01*
X43703000Y49579000D02*
X53697000Y49579000D01*
X43710000Y49539000D02*
X53690000Y49539000D01*
X43718000Y49499000D02*
X53682000Y49499000D01*
X43726000Y49459000D02*
X53674000Y49459000D01*
X43735000Y49419000D02*
X53665000Y49419000D01*
X43744000Y49379000D02*
X53656000Y49379000D01*
X43753000Y49339000D02*
X53647000Y49339000D01*
X43762000Y49299000D02*
X53638000Y49299000D01*
X43772000Y49259000D02*
X53628000Y49259000D01*
X43782000Y49219000D02*
X47459000Y49219000D01*
X49941000Y49219000D02*
X53618000Y49219000D01*
X43793000Y49179000D02*
X47459000Y49179000D01*
X49941000Y49179000D02*
X53607000Y49179000D01*
X43803000Y49139000D02*
X47459000Y49139000D01*
X49941000Y49139000D02*
X53597000Y49139000D01*
X43815000Y49099000D02*
X47459000Y49099000D01*
X49941000Y49099000D02*
X53585000Y49099000D01*
X43826000Y49059000D02*
X47459000Y49059000D01*
X49941000Y49059000D02*
X53574000Y49059000D01*
X43838000Y49019000D02*
X47459000Y49019000D01*
X49941000Y49019000D02*
X53562000Y49019000D01*
X43850000Y48979000D02*
X47459000Y48979000D01*
X49941000Y48979000D02*
X53550000Y48979000D01*
X43863000Y48939000D02*
X47459000Y48939000D01*
X49941000Y48939000D02*
X53537000Y48939000D01*
X43876000Y48899000D02*
X47459000Y48899000D01*
X49941000Y48899000D02*
X53524000Y48899000D01*
X43889000Y48859000D02*
X47459000Y48859000D01*
X49941000Y48859000D02*
X53511000Y48859000D01*
X43903000Y48819000D02*
X47459000Y48819000D01*
X49941000Y48819000D02*
X53497000Y48819000D01*
X43917000Y48779000D02*
X47459000Y48779000D01*
X49941000Y48779000D02*
X53483000Y48779000D01*
X43932000Y48739000D02*
X47459000Y48739000D01*
X49941000Y48739000D02*
X53468000Y48739000D01*
X43946000Y48699000D02*
X47459000Y48699000D01*
X49941000Y48699000D02*
X53454000Y48699000D01*
X43962000Y48659000D02*
X47459000Y48659000D01*
X49941000Y48659000D02*
X53438000Y48659000D01*
X43977000Y48619000D02*
X47459000Y48619000D01*
X49941000Y48619000D02*
X53423000Y48619000D01*
X43993000Y48579000D02*
X47459000Y48579000D01*
X49941000Y48579000D02*
X53407000Y48579000D01*
X44010000Y48539000D02*
X47459000Y48539000D01*
X49941000Y48539000D02*
X53390000Y48539000D01*
X44026000Y48499000D02*
X47459000Y48499000D01*
X49941000Y48499000D02*
X53374000Y48499000D01*
X44043000Y48459000D02*
X47459000Y48459000D01*
X49941000Y48459000D02*
X53357000Y48459000D01*
X44061000Y48419000D02*
X47459000Y48419000D01*
X49941000Y48419000D02*
X53339000Y48419000D01*
X44079000Y48379000D02*
X47459000Y48379000D01*
X49941000Y48379000D02*
X53321000Y48379000D01*
X44097000Y48339000D02*
X47459000Y48339000D01*
X49941000Y48339000D02*
X53303000Y48339000D01*
X44116000Y48299000D02*
X47459000Y48299000D01*
X49941000Y48299000D02*
X53284000Y48299000D01*
X44136000Y48259000D02*
X47459000Y48259000D01*
X49941000Y48259000D02*
X53264000Y48259000D01*
X44155000Y48219000D02*
X47459000Y48219000D01*
X49941000Y48219000D02*
X53245000Y48219000D01*
X44175000Y48179000D02*
X47459000Y48179000D01*
X49941000Y48179000D02*
X53225000Y48179000D01*
X44196000Y48139000D02*
X47459000Y48139000D01*
X49941000Y48139000D02*
X53204000Y48139000D01*
X44217000Y48099000D02*
X47459000Y48099000D01*
X49941000Y48099000D02*
X53183000Y48099000D01*
X44238000Y48059000D02*
X47459000Y48059000D01*
X49941000Y48059000D02*
X53162000Y48059000D01*
X44260000Y48019000D02*
X47459000Y48019000D01*
X49941000Y48019000D02*
X53140000Y48019000D01*
X44283000Y47979000D02*
X47459000Y47979000D01*
X49941000Y47979000D02*
X53117000Y47979000D01*
X44305000Y47939000D02*
X47459000Y47939000D01*
X49941000Y47939000D02*
X53095000Y47939000D01*
X44329000Y47899000D02*
X47459000Y47899000D01*
X49941000Y47899000D02*
X53071000Y47899000D01*
X44353000Y47859000D02*
X47459000Y47859000D01*
X49941000Y47859000D02*
X53047000Y47859000D01*
X44377000Y47819000D02*
X47459000Y47819000D01*
X49941000Y47819000D02*
X53023000Y47819000D01*
X44402000Y47779000D02*
X47459000Y47779000D01*
X49941000Y47779000D02*
X52998000Y47779000D01*
X44427000Y47739000D02*
X47459000Y47739000D01*
X49941000Y47739000D02*
X52973000Y47739000D01*
X44453000Y47699000D02*
X47459000Y47699000D01*
X49941000Y47699000D02*
X52947000Y47699000D01*
X44479000Y47659000D02*
X47459000Y47659000D01*
X49941000Y47659000D02*
X52921000Y47659000D01*
X44506000Y47619000D02*
X47459000Y47619000D01*
X49941000Y47619000D02*
X52894000Y47619000D01*
X44534000Y47579000D02*
X47459000Y47579000D01*
X49941000Y47579000D02*
X52866000Y47579000D01*
X44562000Y47539000D02*
X47459000Y47539000D01*
X49941000Y47539000D02*
X52838000Y47539000D01*
X44590000Y47499000D02*
X47459000Y47499000D01*
X49941000Y47499000D02*
X52810000Y47499000D01*
X44620000Y47459000D02*
X47459000Y47459000D01*
X49941000Y47459000D02*
X52780000Y47459000D01*
X44650000Y47419000D02*
X47459000Y47419000D01*
X49941000Y47419000D02*
X52750000Y47419000D01*
X44680000Y47379000D02*
X47459000Y47379000D01*
X49941000Y47379000D02*
X52720000Y47379000D01*
X44711000Y47339000D02*
X47459000Y47339000D01*
X49941000Y47339000D02*
X52689000Y47339000D01*
X44743000Y47299000D02*
X47459000Y47299000D01*
X49941000Y47299000D02*
X52657000Y47299000D01*
X44775000Y47259000D02*
X47459000Y47259000D01*
X49941000Y47259000D02*
X52625000Y47259000D01*
X44808000Y47219000D02*
X47459000Y47219000D01*
X49941000Y47219000D02*
X52592000Y47219000D01*
X44842000Y47179000D02*
X47459000Y47179000D01*
X49941000Y47179000D02*
X52558000Y47179000D01*
X44876000Y47139000D02*
X47459000Y47139000D01*
X49941000Y47139000D02*
X52524000Y47139000D01*
X44911000Y47099000D02*
X47459000Y47099000D01*
X49941000Y47099000D02*
X52489000Y47099000D01*
X44947000Y47059000D02*
X47459000Y47059000D01*
X49941000Y47059000D02*
X52453000Y47059000D01*
X44984000Y47019000D02*
X47459000Y47019000D01*
X49941000Y47019000D02*
X52416000Y47019000D01*
X45021000Y46979000D02*
X47459000Y46979000D01*
X49941000Y46979000D02*
X52379000Y46979000D01*
X45060000Y46939000D02*
X47459000Y46939000D01*
X49941000Y46939000D02*
X52340000Y46939000D01*
X45099000Y46899000D02*
X47459000Y46899000D01*
X49941000Y46899000D02*
X52301000Y46899000D01*
X45139000Y46859000D02*
X47459000Y46859000D01*
X49941000Y46859000D02*
X52261000Y46859000D01*
X45180000Y46819000D02*
X47459000Y46819000D01*
X49941000Y46819000D02*
X52220000Y46819000D01*
X45222000Y46779000D02*
X47459000Y46779000D01*
X49941000Y46779000D02*
X52178000Y46779000D01*
X45264000Y46739000D02*
X52136000Y46739000D01*
X45308000Y46699000D02*
X52092000Y46699000D01*
X45353000Y46659000D02*
X52047000Y46659000D01*
X45399000Y46619000D02*
X52001000Y46619000D01*
X45446000Y46579000D02*
X51954000Y46579000D01*
X45494000Y46539000D02*
X51906000Y46539000D01*
X45544000Y46499000D02*
X51856000Y46499000D01*
X45594000Y46459000D02*
X51806000Y46459000D01*
X45646000Y46419000D02*
X51754000Y46419000D01*
X45700000Y46379000D02*
X51700000Y46379000D01*
X45755000Y46339000D02*
X51645000Y46339000D01*
X45811000Y46299000D02*
X51589000Y46299000D01*
X45870000Y46259000D02*
X51530000Y46259000D01*
X45930000Y46219000D02*
X51470000Y46219000D01*
X45991000Y46179000D02*
X51409000Y46179000D01*
X46055000Y46139000D02*
X51345000Y46139000D01*
X46121000Y46099000D02*
X51279000Y46099000D01*
X46190000Y46059000D02*
X51210000Y46059000D01*
X46261000Y46019000D02*
X51139000Y46019000D01*
X46335000Y45979000D02*
X51065000Y45979000D01*
X46411000Y45939000D02*
X50989000Y45939000D01*
X46491000Y45899000D02*
X50909000Y45899000D01*
X46575000Y45859000D02*
X50825000Y45859000D01*
X46663000Y45819000D02*
X50737000Y45819000D01*
X46756000Y45779000D02*
X50644000Y45779000D01*
X46854000Y45739000D02*
X50546000Y45739000D01*
X46958000Y45699000D02*
X50442000Y45699000D01*
X47070000Y45659000D02*
X50330000Y45659000D01*
X47190000Y45619000D02*
X50210000Y45619000D01*
X47322000Y45579000D02*
X50078000Y45579000D01*
X47470000Y45539000D02*
X49930000Y45539000D01*
X47638000Y45499000D02*
X49762000Y45499000D01*
X47838000Y45459000D02*
X49562000Y45459000D01*
X48101000Y45419000D02*
X49299000Y45419000D01*
X45825000Y55979646D02*
X45825000Y54979646D01*
X45325000Y55479646D02*
X46325000Y55479646D01*
X69900000Y51800000D02*
X69900000Y59800000D01*
X69900000Y59800000D02*
X83900000Y59800000D01*
X83900000Y59800000D02*
X83900000Y51800000D01*
X83900000Y51800000D02*
X69900000Y51800000D01*
D12*
X347133333Y277747620D02*
X347133333Y278747620D01*
X346895238Y278747620D01*
X346752380Y278700000D01*
X346657142Y278604762D01*
X346609523Y278509524D01*
X346561904Y278319048D01*
X346561904Y278176191D01*
X346609523Y277985715D01*
X346657142Y277890477D01*
X346752380Y277795239D01*
X346895238Y277747620D01*
X347133333Y277747620D01*
X345752380Y277795239D02*
X345847619Y277747620D01*
X346038095Y277747620D01*
X346133333Y277795239D01*
X346180952Y277890477D01*
X346180952Y278271429D01*
X346133333Y278366667D01*
X346038095Y278414286D01*
X345847619Y278414286D01*
X345752380Y278366667D01*
X345704761Y278271429D01*
X345704761Y278176191D01*
X346180952Y278080953D01*
X345276190Y277747620D02*
X345276190Y278747620D01*
X345276190Y278366667D02*
X345180952Y278414286D01*
X344990476Y278414286D01*
X344895238Y278366667D01*
X344847619Y278319048D01*
X344800000Y278223810D01*
X344800000Y277938096D01*
X344847619Y277842858D01*
X344895238Y277795239D01*
X344990476Y277747620D01*
X345180952Y277747620D01*
X345276190Y277795239D01*
X344228571Y277747620D02*
X344323809Y277795239D01*
X344371428Y277842858D01*
X344419047Y277938096D01*
X344419047Y278223810D01*
X344371428Y278319048D01*
X344323809Y278366667D01*
X344228571Y278414286D01*
X344085714Y278414286D01*
X343990476Y278366667D01*
X343942857Y278319048D01*
X343895238Y278223810D01*
X343895238Y277938096D01*
X343942857Y277842858D01*
X343990476Y277795239D01*
X344085714Y277747620D01*
X344228571Y277747620D01*
X343038095Y278414286D02*
X343038095Y277747620D01*
X343466666Y278414286D02*
X343466666Y277890477D01*
X343419047Y277795239D01*
X343323809Y277747620D01*
X343180952Y277747620D01*
X343085714Y277795239D01*
X343038095Y277842858D01*
X342561904Y278414286D02*
X342561904Y277747620D01*
X342561904Y278319048D02*
X342514285Y278366667D01*
X342419047Y278414286D01*
X342276190Y278414286D01*
X342180952Y278366667D01*
X342133333Y278271429D01*
X342133333Y277747620D01*
X341228571Y277795239D02*
X341323809Y277747620D01*
X341514285Y277747620D01*
X341609523Y277795239D01*
X341657142Y277842858D01*
X341704761Y277938096D01*
X341704761Y278223810D01*
X341657142Y278319048D01*
X341609523Y278366667D01*
X341514285Y278414286D01*
X341323809Y278414286D01*
X341228571Y278366667D01*
X340419047Y277795239D02*
X340514285Y277747620D01*
X340704761Y277747620D01*
X340800000Y277795239D01*
X340847619Y277890477D01*
X340847619Y278271429D01*
X340800000Y278366667D01*
X340704761Y278414286D01*
X340514285Y278414286D01*
X340419047Y278366667D01*
X340371428Y278271429D01*
X340371428Y278176191D01*
X340847619Y278080953D01*
X339419047Y277747620D02*
X339990476Y277747620D01*
X339704761Y277747620D02*
X339704761Y278747620D01*
X339800000Y278604762D01*
X339895238Y278509524D01*
X339990476Y278461905D01*
X353533333Y215147620D02*
X353533333Y216147620D01*
X353295238Y216147620D01*
X353152380Y216100000D01*
X353057142Y216004762D01*
X353009523Y215909524D01*
X352961904Y215719048D01*
X352961904Y215576191D01*
X353009523Y215385715D01*
X353057142Y215290477D01*
X353152380Y215195239D01*
X353295238Y215147620D01*
X353533333Y215147620D01*
X352152380Y215195239D02*
X352247619Y215147620D01*
X352438095Y215147620D01*
X352533333Y215195239D01*
X352580952Y215290477D01*
X352580952Y215671429D01*
X352533333Y215766667D01*
X352438095Y215814286D01*
X352247619Y215814286D01*
X352152380Y215766667D01*
X352104761Y215671429D01*
X352104761Y215576191D01*
X352580952Y215480953D01*
X351676190Y215147620D02*
X351676190Y216147620D01*
X351676190Y215766667D02*
X351580952Y215814286D01*
X351390476Y215814286D01*
X351295238Y215766667D01*
X351247619Y215719048D01*
X351200000Y215623810D01*
X351200000Y215338096D01*
X351247619Y215242858D01*
X351295238Y215195239D01*
X351390476Y215147620D01*
X351580952Y215147620D01*
X351676190Y215195239D01*
X350628571Y215147620D02*
X350723809Y215195239D01*
X350771428Y215242858D01*
X350819047Y215338096D01*
X350819047Y215623810D01*
X350771428Y215719048D01*
X350723809Y215766667D01*
X350628571Y215814286D01*
X350485714Y215814286D01*
X350390476Y215766667D01*
X350342857Y215719048D01*
X350295238Y215623810D01*
X350295238Y215338096D01*
X350342857Y215242858D01*
X350390476Y215195239D01*
X350485714Y215147620D01*
X350628571Y215147620D01*
X349438095Y215814286D02*
X349438095Y215147620D01*
X349866666Y215814286D02*
X349866666Y215290477D01*
X349819047Y215195239D01*
X349723809Y215147620D01*
X349580952Y215147620D01*
X349485714Y215195239D01*
X349438095Y215242858D01*
X348961904Y215814286D02*
X348961904Y215147620D01*
X348961904Y215719048D02*
X348914285Y215766667D01*
X348819047Y215814286D01*
X348676190Y215814286D01*
X348580952Y215766667D01*
X348533333Y215671429D01*
X348533333Y215147620D01*
X347628571Y215195239D02*
X347723809Y215147620D01*
X347914285Y215147620D01*
X348009523Y215195239D01*
X348057142Y215242858D01*
X348104761Y215338096D01*
X348104761Y215623810D01*
X348057142Y215719048D01*
X348009523Y215766667D01*
X347914285Y215814286D01*
X347723809Y215814286D01*
X347628571Y215766667D01*
X346819047Y215195239D02*
X346914285Y215147620D01*
X347104761Y215147620D01*
X347200000Y215195239D01*
X347247619Y215290477D01*
X347247619Y215671429D01*
X347200000Y215766667D01*
X347104761Y215814286D01*
X346914285Y215814286D01*
X346819047Y215766667D01*
X346771428Y215671429D01*
X346771428Y215576191D01*
X347247619Y215480953D01*
X346390476Y216052381D02*
X346342857Y216100000D01*
X346247619Y216147620D01*
X346009523Y216147620D01*
X345914285Y216100000D01*
X345866666Y216052381D01*
X345819047Y215957143D01*
X345819047Y215861905D01*
X345866666Y215719048D01*
X346438095Y215147620D01*
X345819047Y215147620D01*
X338682380Y209933334D02*
X339396666Y209933334D01*
X339539523Y209980953D01*
X339634761Y210076191D01*
X339682380Y210219048D01*
X339682380Y210314286D01*
X338777619Y209504762D02*
X338730000Y209457143D01*
X338682380Y209361905D01*
X338682380Y209123810D01*
X338730000Y209028572D01*
X338777619Y208980953D01*
X338872857Y208933334D01*
X338968095Y208933334D01*
X339110952Y208980953D01*
X339682380Y209552381D01*
X339682380Y208933334D01*
X372239047Y211517620D02*
X372572380Y211993810D01*
X372810476Y211517620D02*
X372810476Y212517620D01*
X372429523Y212517620D01*
X372334285Y212470000D01*
X372286666Y212422381D01*
X372239047Y212327143D01*
X372239047Y212184286D01*
X372286666Y212089048D01*
X372334285Y212041429D01*
X372429523Y211993810D01*
X372810476Y211993810D01*
X372048571Y211422381D02*
X371286666Y211422381D01*
X370715238Y212041429D02*
X370572380Y211993810D01*
X370524761Y211946191D01*
X370477142Y211850953D01*
X370477142Y211708096D01*
X370524761Y211612858D01*
X370572380Y211565239D01*
X370667619Y211517620D01*
X371048571Y211517620D01*
X371048571Y212517620D01*
X370715238Y212517620D01*
X370620000Y212470000D01*
X370572380Y212422381D01*
X370524761Y212327143D01*
X370524761Y212231905D01*
X370572380Y212136667D01*
X370620000Y212089048D01*
X370715238Y212041429D01*
X371048571Y212041429D01*
X370048571Y212517620D02*
X370048571Y211708096D01*
X370000952Y211612858D01*
X369953333Y211565239D01*
X369858095Y211517620D01*
X369667619Y211517620D01*
X369572380Y211565239D01*
X369524761Y211612858D01*
X369477142Y211708096D01*
X369477142Y212517620D01*
X369143809Y212517620D02*
X368572380Y212517620D01*
X368858095Y211517620D02*
X368858095Y212517620D01*
X368381904Y212517620D02*
X367810476Y212517620D01*
X368096190Y211517620D02*
X368096190Y212517620D01*
X367286666Y212517620D02*
X367096190Y212517620D01*
X367000952Y212470000D01*
X366905714Y212374762D01*
X366858095Y212184286D01*
X366858095Y211850953D01*
X366905714Y211660477D01*
X367000952Y211565239D01*
X367096190Y211517620D01*
X367286666Y211517620D01*
X367381904Y211565239D01*
X367477142Y211660477D01*
X367524761Y211850953D01*
X367524761Y212184286D01*
X367477142Y212374762D01*
X367381904Y212470000D01*
X367286666Y212517620D01*
X366429523Y211517620D02*
X366429523Y212517620D01*
X365858095Y211517620D01*
X365858095Y212517620D01*
X365620000Y211422381D02*
X364858095Y211422381D01*
X364620000Y211517620D02*
X364620000Y212517620D01*
X364239047Y212517620D01*
X364143809Y212470000D01*
X364096190Y212422381D01*
X364048571Y212327143D01*
X364048571Y212184286D01*
X364096190Y212089048D01*
X364143809Y212041429D01*
X364239047Y211993810D01*
X364620000Y211993810D01*
X363620000Y212517620D02*
X363620000Y211708096D01*
X363572380Y211612858D01*
X363524761Y211565239D01*
X363429523Y211517620D01*
X363239047Y211517620D01*
X363143809Y211565239D01*
X363096190Y211612858D01*
X363048571Y211708096D01*
X363048571Y212517620D01*
X362096190Y211517620D02*
X362572380Y211517620D01*
X362572380Y212517620D01*
X361286666Y211517620D02*
X361762857Y211517620D01*
X361762857Y212517620D01*
X360953333Y212517620D02*
X360953333Y211708096D01*
X360905714Y211612858D01*
X360858095Y211565239D01*
X360762857Y211517620D01*
X360572380Y211517620D01*
X360477142Y211565239D01*
X360429523Y211612858D01*
X360381904Y211708096D01*
X360381904Y212517620D01*
X359905714Y211517620D02*
X359905714Y212517620D01*
X359524761Y212517620D01*
X359429523Y212470000D01*
X359381904Y212422381D01*
X359334285Y212327143D01*
X359334285Y212184286D01*
X359381904Y212089048D01*
X359429523Y212041429D01*
X359524761Y211993810D01*
X359905714Y211993810D01*
X358381904Y211517620D02*
X358953333Y211517620D01*
X358667619Y211517620D02*
X358667619Y212517620D01*
X358762857Y212374762D01*
X358858095Y212279524D01*
X358953333Y212231905D01*
X368960952Y202977620D02*
X369294285Y203453810D01*
X369532380Y202977620D02*
X369532380Y203977620D01*
X369151428Y203977620D01*
X369056190Y203930000D01*
X369008571Y203882381D01*
X368960952Y203787143D01*
X368960952Y203644286D01*
X369008571Y203549048D01*
X369056190Y203501429D01*
X369151428Y203453810D01*
X369532380Y203453810D01*
X368770476Y202882381D02*
X368008571Y202882381D01*
X367437142Y203501429D02*
X367294285Y203453810D01*
X367246666Y203406191D01*
X367199047Y203310953D01*
X367199047Y203168096D01*
X367246666Y203072858D01*
X367294285Y203025239D01*
X367389523Y202977620D01*
X367770476Y202977620D01*
X367770476Y203977620D01*
X367437142Y203977620D01*
X367341904Y203930000D01*
X367294285Y203882381D01*
X367246666Y203787143D01*
X367246666Y203691905D01*
X367294285Y203596667D01*
X367341904Y203549048D01*
X367437142Y203501429D01*
X367770476Y203501429D01*
X366770476Y203977620D02*
X366770476Y203168096D01*
X366722857Y203072858D01*
X366675238Y203025239D01*
X366580000Y202977620D01*
X366389523Y202977620D01*
X366294285Y203025239D01*
X366246666Y203072858D01*
X366199047Y203168096D01*
X366199047Y203977620D01*
X365865714Y203977620D02*
X365294285Y203977620D01*
X365580000Y202977620D02*
X365580000Y203977620D01*
X365103809Y203977620D02*
X364532380Y203977620D01*
X364818095Y202977620D02*
X364818095Y203977620D01*
X364008571Y203977620D02*
X363818095Y203977620D01*
X363722857Y203930000D01*
X363627619Y203834762D01*
X363580000Y203644286D01*
X363580000Y203310953D01*
X363627619Y203120477D01*
X363722857Y203025239D01*
X363818095Y202977620D01*
X364008571Y202977620D01*
X364103809Y203025239D01*
X364199047Y203120477D01*
X364246666Y203310953D01*
X364246666Y203644286D01*
X364199047Y203834762D01*
X364103809Y203930000D01*
X364008571Y203977620D01*
X363151428Y202977620D02*
X363151428Y203977620D01*
X362580000Y202977620D01*
X362580000Y203977620D01*
X362151428Y203882381D02*
X362103809Y203930000D01*
X362008571Y203977620D01*
X361770476Y203977620D01*
X361675238Y203930000D01*
X361627619Y203882381D01*
X361580000Y203787143D01*
X361580000Y203691905D01*
X361627619Y203549048D01*
X362199047Y202977620D01*
X361580000Y202977620D01*
X287302380Y239795239D02*
X286826190Y240128572D01*
X287302380Y240366667D02*
X286302380Y240366667D01*
X286302380Y239985715D01*
X286350000Y239890477D01*
X286397619Y239842858D01*
X286492857Y239795239D01*
X286635714Y239795239D01*
X286730952Y239842858D01*
X286778571Y239890477D01*
X286826190Y239985715D01*
X286826190Y240366667D01*
X286302380Y239509524D02*
X287302380Y239176191D01*
X286302380Y238842858D01*
X287302380Y237985715D02*
X287302380Y238557143D01*
X287302380Y238271429D02*
X286302380Y238271429D01*
X286445238Y238366667D01*
X286540476Y238461905D01*
X286588095Y238557143D01*
X289071904Y247017620D02*
X289071904Y246208096D01*
X289024285Y246112858D01*
X288976666Y246065239D01*
X288881428Y246017620D01*
X288690952Y246017620D01*
X288595714Y246065239D01*
X288548095Y246112858D01*
X288500476Y246208096D01*
X288500476Y247017620D01*
X287500476Y246017620D02*
X288071904Y246017620D01*
X287786190Y246017620D02*
X287786190Y247017620D01*
X287881428Y246874762D01*
X287976666Y246779524D01*
X288071904Y246731905D01*
X300633333Y249217620D02*
X300633333Y248503334D01*
X300680952Y248360477D01*
X300776190Y248265239D01*
X300919047Y248217620D01*
X301014285Y248217620D01*
X299633333Y248217620D02*
X300204761Y248217620D01*
X299919047Y248217620D02*
X299919047Y249217620D01*
X300014285Y249074762D01*
X300109523Y248979524D01*
X300204761Y248931905D01*
X195673333Y245351429D02*
X195530476Y245303810D01*
X195482857Y245256191D01*
X195435238Y245160953D01*
X195435238Y245018096D01*
X195482857Y244922858D01*
X195530476Y244875239D01*
X195625714Y244827620D01*
X196006666Y244827620D01*
X196006666Y245827620D01*
X195673333Y245827620D01*
X195578095Y245780000D01*
X195530476Y245732381D01*
X195482857Y245637143D01*
X195482857Y245541905D01*
X195530476Y245446667D01*
X195578095Y245399048D01*
X195673333Y245351429D01*
X196006666Y245351429D01*
X194435238Y244922858D02*
X194482857Y244875239D01*
X194625714Y244827620D01*
X194720952Y244827620D01*
X194863809Y244875239D01*
X194959047Y244970477D01*
X195006666Y245065715D01*
X195054285Y245256191D01*
X195054285Y245399048D01*
X195006666Y245589524D01*
X194959047Y245684762D01*
X194863809Y245780000D01*
X194720952Y245827620D01*
X194625714Y245827620D01*
X194482857Y245780000D01*
X194435238Y245732381D01*
X194006666Y244827620D02*
X194006666Y245827620D01*
X193768571Y245827620D01*
X193625714Y245780000D01*
X193530476Y245684762D01*
X193482857Y245589524D01*
X193435238Y245399048D01*
X193435238Y245256191D01*
X193482857Y245065715D01*
X193530476Y244970477D01*
X193625714Y244875239D01*
X193768571Y244827620D01*
X194006666Y244827620D01*
X193006666Y245208572D02*
X192244761Y245208572D01*
X191578095Y245303810D02*
X191578095Y244827620D01*
X191911428Y245827620D02*
X191578095Y245303810D01*
X191244761Y245827620D01*
X190911428Y245351429D02*
X190578095Y245351429D01*
X190435238Y244827620D02*
X190911428Y244827620D01*
X190911428Y245827620D01*
X190435238Y245827620D01*
X190054285Y245113334D02*
X189578095Y245113334D01*
X190149523Y244827620D02*
X189816190Y245827620D01*
X189482857Y244827620D01*
X188578095Y244827620D02*
X188911428Y245303810D01*
X189149523Y244827620D02*
X189149523Y245827620D01*
X188768571Y245827620D01*
X188673333Y245780000D01*
X188625714Y245732381D01*
X188578095Y245637143D01*
X188578095Y245494286D01*
X188625714Y245399048D01*
X188673333Y245351429D01*
X188768571Y245303810D01*
X189149523Y245303810D01*
X187625714Y244827620D02*
X188197142Y244827620D01*
X187911428Y244827620D02*
X187911428Y245827620D01*
X188006666Y245684762D01*
X188101904Y245589524D01*
X188197142Y245541905D01*
X238995714Y38941429D02*
X238852857Y38893810D01*
X238805238Y38846191D01*
X238757619Y38750953D01*
X238757619Y38608096D01*
X238805238Y38512858D01*
X238852857Y38465239D01*
X238948095Y38417620D01*
X239329047Y38417620D01*
X239329047Y39417620D01*
X238995714Y39417620D01*
X238900476Y39370000D01*
X238852857Y39322381D01*
X238805238Y39227143D01*
X238805238Y39131905D01*
X238852857Y39036667D01*
X238900476Y38989048D01*
X238995714Y38941429D01*
X239329047Y38941429D01*
X237757619Y38512858D02*
X237805238Y38465239D01*
X237948095Y38417620D01*
X238043333Y38417620D01*
X238186190Y38465239D01*
X238281428Y38560477D01*
X238329047Y38655715D01*
X238376666Y38846191D01*
X238376666Y38989048D01*
X238329047Y39179524D01*
X238281428Y39274762D01*
X238186190Y39370000D01*
X238043333Y39417620D01*
X237948095Y39417620D01*
X237805238Y39370000D01*
X237757619Y39322381D01*
X237329047Y38417620D02*
X237329047Y39417620D01*
X237090952Y39417620D01*
X236948095Y39370000D01*
X236852857Y39274762D01*
X236805238Y39179524D01*
X236757619Y38989048D01*
X236757619Y38846191D01*
X236805238Y38655715D01*
X236852857Y38560477D01*
X236948095Y38465239D01*
X237090952Y38417620D01*
X237329047Y38417620D01*
X236329047Y38798572D02*
X235567142Y38798572D01*
X235090952Y38417620D02*
X235090952Y39417620D01*
X234852857Y39417620D01*
X234710000Y39370000D01*
X234614761Y39274762D01*
X234567142Y39179524D01*
X234519523Y38989048D01*
X234519523Y38846191D01*
X234567142Y38655715D01*
X234614761Y38560477D01*
X234710000Y38465239D01*
X234852857Y38417620D01*
X235090952Y38417620D01*
X234138571Y38703334D02*
X233662380Y38703334D01*
X234233809Y38417620D02*
X233900476Y39417620D01*
X233567142Y38417620D01*
X233376666Y39417620D02*
X232805238Y39417620D01*
X233090952Y38417620D02*
X233090952Y39417620D01*
X232471904Y38941429D02*
X232138571Y38941429D01*
X231995714Y38417620D02*
X232471904Y38417620D01*
X232471904Y39417620D01*
X231995714Y39417620D01*
X231043333Y38417620D02*
X231614761Y38417620D01*
X231329047Y38417620D02*
X231329047Y39417620D01*
X231424285Y39274762D01*
X231519523Y39179524D01*
X231614761Y39131905D01*
X217787142Y194595715D02*
X217834761Y194643334D01*
X217882380Y194786191D01*
X217882380Y194881429D01*
X217834761Y195024286D01*
X217739523Y195119524D01*
X217644285Y195167143D01*
X217453809Y195214762D01*
X217310952Y195214762D01*
X217120476Y195167143D01*
X217025238Y195119524D01*
X216930000Y195024286D01*
X216882380Y194881429D01*
X216882380Y194786191D01*
X216930000Y194643334D01*
X216977619Y194595715D01*
X217882380Y194024286D02*
X217834761Y194119524D01*
X217787142Y194167143D01*
X217691904Y194214762D01*
X217406190Y194214762D01*
X217310952Y194167143D01*
X217263333Y194119524D01*
X217215714Y194024286D01*
X217215714Y193881429D01*
X217263333Y193786191D01*
X217310952Y193738572D01*
X217406190Y193690953D01*
X217691904Y193690953D01*
X217787142Y193738572D01*
X217834761Y193786191D01*
X217882380Y193881429D01*
X217882380Y194024286D01*
X217882380Y193262381D02*
X217215714Y193262381D01*
X217310952Y193262381D02*
X217263333Y193214762D01*
X217215714Y193119524D01*
X217215714Y192976667D01*
X217263333Y192881429D01*
X217358571Y192833810D01*
X217882380Y192833810D01*
X217358571Y192833810D02*
X217263333Y192786191D01*
X217215714Y192690953D01*
X217215714Y192548096D01*
X217263333Y192452858D01*
X217358571Y192405239D01*
X217882380Y192405239D01*
X217882380Y191929048D02*
X217215714Y191929048D01*
X217310952Y191929048D02*
X217263333Y191881429D01*
X217215714Y191786191D01*
X217215714Y191643334D01*
X217263333Y191548096D01*
X217358571Y191500477D01*
X217882380Y191500477D01*
X217358571Y191500477D02*
X217263333Y191452858D01*
X217215714Y191357620D01*
X217215714Y191214762D01*
X217263333Y191119524D01*
X217358571Y191071905D01*
X217882380Y191071905D01*
X217882380Y190452858D02*
X217834761Y190548096D01*
X217787142Y190595715D01*
X217691904Y190643334D01*
X217406190Y190643334D01*
X217310952Y190595715D01*
X217263333Y190548096D01*
X217215714Y190452858D01*
X217215714Y190310000D01*
X217263333Y190214762D01*
X217310952Y190167143D01*
X217406190Y190119524D01*
X217691904Y190119524D01*
X217787142Y190167143D01*
X217834761Y190214762D01*
X217882380Y190310000D01*
X217882380Y190452858D01*
X217215714Y189690953D02*
X217882380Y189690953D01*
X217310952Y189690953D02*
X217263333Y189643334D01*
X217215714Y189548096D01*
X217215714Y189405239D01*
X217263333Y189310000D01*
X217358571Y189262381D01*
X217882380Y189262381D01*
X217882380Y188786191D02*
X216882380Y188786191D01*
X216882380Y188405239D01*
X216930000Y188310000D01*
X216977619Y188262381D01*
X217072857Y188214762D01*
X217215714Y188214762D01*
X217310952Y188262381D01*
X217358571Y188310000D01*
X217406190Y188405239D01*
X217406190Y188786191D01*
X217882380Y187786191D02*
X217215714Y187786191D01*
X216882380Y187786191D02*
X216930000Y187833810D01*
X216977619Y187786191D01*
X216930000Y187738572D01*
X216882380Y187786191D01*
X216977619Y187786191D01*
X217215714Y187310000D02*
X217882380Y187310000D01*
X217310952Y187310000D02*
X217263333Y187262381D01*
X217215714Y187167143D01*
X217215714Y187024286D01*
X217263333Y186929048D01*
X217358571Y186881429D01*
X217882380Y186881429D01*
X217787142Y185833810D02*
X217834761Y185881429D01*
X217882380Y186024286D01*
X217882380Y186119524D01*
X217834761Y186262381D01*
X217739523Y186357620D01*
X217644285Y186405239D01*
X217453809Y186452858D01*
X217310952Y186452858D01*
X217120476Y186405239D01*
X217025238Y186357620D01*
X216930000Y186262381D01*
X216882380Y186119524D01*
X216882380Y186024286D01*
X216930000Y185881429D01*
X216977619Y185833810D01*
X217882380Y185262381D02*
X217834761Y185357620D01*
X217787142Y185405239D01*
X217691904Y185452858D01*
X217406190Y185452858D01*
X217310952Y185405239D01*
X217263333Y185357620D01*
X217215714Y185262381D01*
X217215714Y185119524D01*
X217263333Y185024286D01*
X217310952Y184976667D01*
X217406190Y184929048D01*
X217691904Y184929048D01*
X217787142Y184976667D01*
X217834761Y185024286D01*
X217882380Y185119524D01*
X217882380Y185262381D01*
X217215714Y184500477D02*
X217882380Y184500477D01*
X217310952Y184500477D02*
X217263333Y184452858D01*
X217215714Y184357620D01*
X217215714Y184214762D01*
X217263333Y184119524D01*
X217358571Y184071905D01*
X217882380Y184071905D01*
X217215714Y183738572D02*
X217215714Y183357620D01*
X216882380Y183595715D02*
X217739523Y183595715D01*
X217834761Y183548096D01*
X217882380Y183452858D01*
X217882380Y183357620D01*
X217882380Y183024286D02*
X217215714Y183024286D01*
X217406190Y183024286D02*
X217310952Y182976667D01*
X217263333Y182929048D01*
X217215714Y182833810D01*
X217215714Y182738572D01*
X217882380Y182262381D02*
X217834761Y182357620D01*
X217787142Y182405239D01*
X217691904Y182452858D01*
X217406190Y182452858D01*
X217310952Y182405239D01*
X217263333Y182357620D01*
X217215714Y182262381D01*
X217215714Y182119524D01*
X217263333Y182024286D01*
X217310952Y181976667D01*
X217406190Y181929048D01*
X217691904Y181929048D01*
X217787142Y181976667D01*
X217834761Y182024286D01*
X217882380Y182119524D01*
X217882380Y182262381D01*
X217882380Y181357620D02*
X217834761Y181452858D01*
X217739523Y181500477D01*
X216882380Y181500477D01*
X217977619Y181214762D02*
X217977619Y180452858D01*
X216882380Y180357620D02*
X216882380Y179786191D01*
X217882380Y180071905D02*
X216882380Y180071905D01*
X217882380Y179452858D02*
X216882380Y179452858D01*
X217882380Y178976667D02*
X216882380Y178976667D01*
X217596666Y178643334D01*
X216882380Y178310000D01*
X217882380Y178310000D01*
X217358571Y177833810D02*
X217358571Y177500477D01*
X217882380Y177357620D02*
X217882380Y177833810D01*
X216882380Y177833810D01*
X216882380Y177357620D01*
X217882380Y176405239D02*
X217882380Y176976667D01*
X217882380Y176690953D02*
X216882380Y176690953D01*
X217025238Y176786191D01*
X217120476Y176881429D01*
X217168095Y176976667D01*
X370124761Y266117620D02*
X370458095Y266593810D01*
X370696190Y266117620D02*
X370696190Y267117620D01*
X370315238Y267117620D01*
X370220000Y267070000D01*
X370172380Y267022381D01*
X370124761Y266927143D01*
X370124761Y266784286D01*
X370172380Y266689048D01*
X370220000Y266641429D01*
X370315238Y266593810D01*
X370696190Y266593810D01*
X369934285Y266022381D02*
X369172380Y266022381D01*
X368362857Y266117620D02*
X368696190Y266593810D01*
X368934285Y266117620D02*
X368934285Y267117620D01*
X368553333Y267117620D01*
X368458095Y267070000D01*
X368410476Y267022381D01*
X368362857Y266927143D01*
X368362857Y266784286D01*
X368410476Y266689048D01*
X368458095Y266641429D01*
X368553333Y266593810D01*
X368934285Y266593810D01*
X367981904Y266165239D02*
X367839047Y266117620D01*
X367600952Y266117620D01*
X367505714Y266165239D01*
X367458095Y266212858D01*
X367410476Y266308096D01*
X367410476Y266403334D01*
X367458095Y266498572D01*
X367505714Y266546191D01*
X367600952Y266593810D01*
X367791428Y266641429D01*
X367886666Y266689048D01*
X367934285Y266736667D01*
X367981904Y266831905D01*
X367981904Y266927143D01*
X367934285Y267022381D01*
X367886666Y267070000D01*
X367791428Y267117620D01*
X367553333Y267117620D01*
X367410476Y267070000D01*
X367124761Y267117620D02*
X366553333Y267117620D01*
X366839047Y266117620D02*
X366839047Y267117620D01*
X365696190Y266117620D02*
X366267619Y266117620D01*
X365981904Y266117620D02*
X365981904Y267117620D01*
X366077142Y266974762D01*
X366172380Y266879524D01*
X366267619Y266831905D01*
X371965714Y264777620D02*
X372299047Y265253810D01*
X372537142Y264777620D02*
X372537142Y265777620D01*
X372156190Y265777620D01*
X372060952Y265730000D01*
X372013333Y265682381D01*
X371965714Y265587143D01*
X371965714Y265444286D01*
X372013333Y265349048D01*
X372060952Y265301429D01*
X372156190Y265253810D01*
X372537142Y265253810D01*
X371775238Y264682381D02*
X371013333Y264682381D01*
X370775238Y264777620D02*
X370775238Y265777620D01*
X370394285Y265777620D01*
X370299047Y265730000D01*
X370251428Y265682381D01*
X370203809Y265587143D01*
X370203809Y265444286D01*
X370251428Y265349048D01*
X370299047Y265301429D01*
X370394285Y265253810D01*
X370775238Y265253810D01*
X369775238Y265777620D02*
X369775238Y264968096D01*
X369727619Y264872858D01*
X369680000Y264825239D01*
X369584761Y264777620D01*
X369394285Y264777620D01*
X369299047Y264825239D01*
X369251428Y264872858D01*
X369203809Y264968096D01*
X369203809Y265777620D01*
X368251428Y264777620D02*
X368727619Y264777620D01*
X368727619Y265777620D01*
X367441904Y264777620D02*
X367918095Y264777620D01*
X367918095Y265777620D01*
X367108571Y265777620D02*
X367108571Y264968096D01*
X367060952Y264872858D01*
X367013333Y264825239D01*
X366918095Y264777620D01*
X366727619Y264777620D01*
X366632380Y264825239D01*
X366584761Y264872858D01*
X366537142Y264968096D01*
X366537142Y265777620D01*
X366060952Y264777620D02*
X366060952Y265777620D01*
X365680000Y265777620D01*
X365584761Y265730000D01*
X365537142Y265682381D01*
X365489523Y265587143D01*
X365489523Y265444286D01*
X365537142Y265349048D01*
X365584761Y265301429D01*
X365680000Y265253810D01*
X366060952Y265253810D01*
X365299047Y264682381D02*
X364537142Y264682381D01*
X363775238Y264777620D02*
X364346666Y264777620D01*
X364060952Y264777620D02*
X364060952Y265777620D01*
X364156190Y265634762D01*
X364251428Y265539524D01*
X364346666Y265491905D01*
X371965714Y257977620D02*
X372299047Y258453810D01*
X372537142Y257977620D02*
X372537142Y258977620D01*
X372156190Y258977620D01*
X372060952Y258930000D01*
X372013333Y258882381D01*
X371965714Y258787143D01*
X371965714Y258644286D01*
X372013333Y258549048D01*
X372060952Y258501429D01*
X372156190Y258453810D01*
X372537142Y258453810D01*
X371775238Y257882381D02*
X371013333Y257882381D01*
X370775238Y257977620D02*
X370775238Y258977620D01*
X370394285Y258977620D01*
X370299047Y258930000D01*
X370251428Y258882381D01*
X370203809Y258787143D01*
X370203809Y258644286D01*
X370251428Y258549048D01*
X370299047Y258501429D01*
X370394285Y258453810D01*
X370775238Y258453810D01*
X369775238Y258977620D02*
X369775238Y258168096D01*
X369727619Y258072858D01*
X369680000Y258025239D01*
X369584761Y257977620D01*
X369394285Y257977620D01*
X369299047Y258025239D01*
X369251428Y258072858D01*
X369203809Y258168096D01*
X369203809Y258977620D01*
X368251428Y257977620D02*
X368727619Y257977620D01*
X368727619Y258977620D01*
X367441904Y257977620D02*
X367918095Y257977620D01*
X367918095Y258977620D01*
X367108571Y258977620D02*
X367108571Y258168096D01*
X367060952Y258072858D01*
X367013333Y258025239D01*
X366918095Y257977620D01*
X366727619Y257977620D01*
X366632380Y258025239D01*
X366584761Y258072858D01*
X366537142Y258168096D01*
X366537142Y258977620D01*
X366060952Y257977620D02*
X366060952Y258977620D01*
X365680000Y258977620D01*
X365584761Y258930000D01*
X365537142Y258882381D01*
X365489523Y258787143D01*
X365489523Y258644286D01*
X365537142Y258549048D01*
X365584761Y258501429D01*
X365680000Y258453810D01*
X366060952Y258453810D01*
X365299047Y257882381D02*
X364537142Y257882381D01*
X364108571Y258977620D02*
X364013333Y258977620D01*
X363918095Y258930000D01*
X363870476Y258882381D01*
X363822857Y258787143D01*
X363775238Y258596667D01*
X363775238Y258358572D01*
X363822857Y258168096D01*
X363870476Y258072858D01*
X363918095Y258025239D01*
X364013333Y257977620D01*
X364108571Y257977620D01*
X364203809Y258025239D01*
X364251428Y258072858D01*
X364299047Y258168096D01*
X364346666Y258358572D01*
X364346666Y258596667D01*
X364299047Y258787143D01*
X364251428Y258882381D01*
X364203809Y258930000D01*
X364108571Y258977620D01*
X371560952Y254577620D02*
X371894285Y255053810D01*
X372132380Y254577620D02*
X372132380Y255577620D01*
X371751428Y255577620D01*
X371656190Y255530000D01*
X371608571Y255482381D01*
X371560952Y255387143D01*
X371560952Y255244286D01*
X371608571Y255149048D01*
X371656190Y255101429D01*
X371751428Y255053810D01*
X372132380Y255053810D01*
X371370476Y254482381D02*
X370608571Y254482381D01*
X370037142Y255101429D02*
X369894285Y255053810D01*
X369846666Y255006191D01*
X369799047Y254910953D01*
X369799047Y254768096D01*
X369846666Y254672858D01*
X369894285Y254625239D01*
X369989523Y254577620D01*
X370370476Y254577620D01*
X370370476Y255577620D01*
X370037142Y255577620D01*
X369941904Y255530000D01*
X369894285Y255482381D01*
X369846666Y255387143D01*
X369846666Y255291905D01*
X369894285Y255196667D01*
X369941904Y255149048D01*
X370037142Y255101429D01*
X370370476Y255101429D01*
X369370476Y255577620D02*
X369370476Y254768096D01*
X369322857Y254672858D01*
X369275238Y254625239D01*
X369180000Y254577620D01*
X368989523Y254577620D01*
X368894285Y254625239D01*
X368846666Y254672858D01*
X368799047Y254768096D01*
X368799047Y255577620D01*
X368465714Y255577620D02*
X367894285Y255577620D01*
X368180000Y254577620D02*
X368180000Y255577620D01*
X367703809Y255577620D02*
X367132380Y255577620D01*
X367418095Y254577620D02*
X367418095Y255577620D01*
X366608571Y255577620D02*
X366418095Y255577620D01*
X366322857Y255530000D01*
X366227619Y255434762D01*
X366180000Y255244286D01*
X366180000Y254910953D01*
X366227619Y254720477D01*
X366322857Y254625239D01*
X366418095Y254577620D01*
X366608571Y254577620D01*
X366703809Y254625239D01*
X366799047Y254720477D01*
X366846666Y254910953D01*
X366846666Y255244286D01*
X366799047Y255434762D01*
X366703809Y255530000D01*
X366608571Y255577620D01*
X365751428Y254577620D02*
X365751428Y255577620D01*
X365180000Y254577620D01*
X365180000Y255577620D01*
X364180000Y254577620D02*
X364751428Y254577620D01*
X364465714Y254577620D02*
X364465714Y255577620D01*
X364560952Y255434762D01*
X364656190Y255339524D01*
X364751428Y255291905D01*
X336797142Y263159524D02*
X336844761Y263207143D01*
X336892380Y263350000D01*
X336892380Y263445239D01*
X336844761Y263588096D01*
X336749523Y263683334D01*
X336654285Y263730953D01*
X336463809Y263778572D01*
X336320952Y263778572D01*
X336130476Y263730953D01*
X336035238Y263683334D01*
X335940000Y263588096D01*
X335892380Y263445239D01*
X335892380Y263350000D01*
X335940000Y263207143D01*
X335987619Y263159524D01*
X336892380Y262730953D02*
X336225714Y262730953D01*
X336416190Y262730953D02*
X336320952Y262683334D01*
X336273333Y262635715D01*
X336225714Y262540477D01*
X336225714Y262445239D01*
X336844761Y261730953D02*
X336892380Y261826191D01*
X336892380Y262016667D01*
X336844761Y262111905D01*
X336749523Y262159524D01*
X336368571Y262159524D01*
X336273333Y262111905D01*
X336225714Y262016667D01*
X336225714Y261826191D01*
X336273333Y261730953D01*
X336368571Y261683334D01*
X336463809Y261683334D01*
X336559047Y262159524D01*
X336892380Y260826191D02*
X335892380Y260826191D01*
X336844761Y260826191D02*
X336892380Y260921429D01*
X336892380Y261111905D01*
X336844761Y261207143D01*
X336797142Y261254762D01*
X336701904Y261302381D01*
X336416190Y261302381D01*
X336320952Y261254762D01*
X336273333Y261207143D01*
X336225714Y261111905D01*
X336225714Y260921429D01*
X336273333Y260826191D01*
X336844761Y259969048D02*
X336892380Y260064286D01*
X336892380Y260254762D01*
X336844761Y260350000D01*
X336749523Y260397620D01*
X336368571Y260397620D01*
X336273333Y260350000D01*
X336225714Y260254762D01*
X336225714Y260064286D01*
X336273333Y259969048D01*
X336368571Y259921429D01*
X336463809Y259921429D01*
X336559047Y260397620D01*
X336225714Y259492858D02*
X336892380Y259492858D01*
X336320952Y259492858D02*
X336273333Y259445239D01*
X336225714Y259350000D01*
X336225714Y259207143D01*
X336273333Y259111905D01*
X336368571Y259064286D01*
X336892380Y259064286D01*
X336225714Y258730953D02*
X336225714Y258350000D01*
X335892380Y258588096D02*
X336749523Y258588096D01*
X336844761Y258540477D01*
X336892380Y258445239D01*
X336892380Y258350000D01*
X336892380Y258016667D02*
X336225714Y258016667D01*
X335892380Y258016667D02*
X335940000Y258064286D01*
X335987619Y258016667D01*
X335940000Y257969048D01*
X335892380Y258016667D01*
X335987619Y258016667D01*
X336892380Y257111905D02*
X336368571Y257111905D01*
X336273333Y257159524D01*
X336225714Y257254762D01*
X336225714Y257445239D01*
X336273333Y257540477D01*
X336844761Y257111905D02*
X336892380Y257207143D01*
X336892380Y257445239D01*
X336844761Y257540477D01*
X336749523Y257588096D01*
X336654285Y257588096D01*
X336559047Y257540477D01*
X336511428Y257445239D01*
X336511428Y257207143D01*
X336463809Y257111905D01*
X336892380Y256492858D02*
X336844761Y256588096D01*
X336749523Y256635715D01*
X335892380Y256635715D01*
X336844761Y256159524D02*
X336892380Y256064286D01*
X336892380Y255873810D01*
X336844761Y255778572D01*
X336749523Y255730953D01*
X336701904Y255730953D01*
X336606666Y255778572D01*
X336559047Y255873810D01*
X336559047Y256016667D01*
X336511428Y256111905D01*
X336416190Y256159524D01*
X336368571Y256159524D01*
X336273333Y256111905D01*
X336225714Y256016667D01*
X336225714Y255873810D01*
X336273333Y255778572D01*
X336987619Y255540477D02*
X336987619Y254778572D01*
X336892380Y253969048D02*
X336416190Y254302381D01*
X336892380Y254540477D02*
X335892380Y254540477D01*
X335892380Y254159524D01*
X335940000Y254064286D01*
X335987619Y254016667D01*
X336082857Y253969048D01*
X336225714Y253969048D01*
X336320952Y254016667D01*
X336368571Y254064286D01*
X336416190Y254159524D01*
X336416190Y254540477D01*
X336844761Y253159524D02*
X336892380Y253254762D01*
X336892380Y253445239D01*
X336844761Y253540477D01*
X336749523Y253588096D01*
X336368571Y253588096D01*
X336273333Y253540477D01*
X336225714Y253445239D01*
X336225714Y253254762D01*
X336273333Y253159524D01*
X336368571Y253111905D01*
X336463809Y253111905D01*
X336559047Y253588096D01*
X336844761Y252730953D02*
X336892380Y252635715D01*
X336892380Y252445239D01*
X336844761Y252350000D01*
X336749523Y252302381D01*
X336701904Y252302381D01*
X336606666Y252350000D01*
X336559047Y252445239D01*
X336559047Y252588096D01*
X336511428Y252683334D01*
X336416190Y252730953D01*
X336368571Y252730953D01*
X336273333Y252683334D01*
X336225714Y252588096D01*
X336225714Y252445239D01*
X336273333Y252350000D01*
X336844761Y251492858D02*
X336892380Y251588096D01*
X336892380Y251778572D01*
X336844761Y251873810D01*
X336749523Y251921429D01*
X336368571Y251921429D01*
X336273333Y251873810D01*
X336225714Y251778572D01*
X336225714Y251588096D01*
X336273333Y251492858D01*
X336368571Y251445239D01*
X336463809Y251445239D01*
X336559047Y251921429D01*
X336225714Y251159524D02*
X336225714Y250778572D01*
X335892380Y251016667D02*
X336749523Y251016667D01*
X336844761Y250969048D01*
X336892380Y250873810D01*
X336892380Y250778572D01*
X336892380Y249921429D02*
X336892380Y250492858D01*
X336892380Y250207143D02*
X335892380Y250207143D01*
X336035238Y250302381D01*
X336130476Y250397620D01*
X336178095Y250492858D01*
X360402380Y224847620D02*
X359926190Y225180953D01*
X360402380Y225419048D02*
X359402380Y225419048D01*
X359402380Y225038096D01*
X359450000Y224942858D01*
X359497619Y224895239D01*
X359592857Y224847620D01*
X359735714Y224847620D01*
X359830952Y224895239D01*
X359878571Y224942858D01*
X359926190Y225038096D01*
X359926190Y225419048D01*
X359402380Y224561905D02*
X359402380Y223990477D01*
X360402380Y224276191D02*
X359402380Y224276191D01*
X360307142Y223085715D02*
X360354761Y223133334D01*
X360402380Y223276191D01*
X360402380Y223371429D01*
X360354761Y223514286D01*
X360259523Y223609524D01*
X360164285Y223657143D01*
X359973809Y223704762D01*
X359830952Y223704762D01*
X359640476Y223657143D01*
X359545238Y223609524D01*
X359450000Y223514286D01*
X359402380Y223371429D01*
X359402380Y223276191D01*
X359450000Y223133334D01*
X359497619Y223085715D01*
X360402380Y222133334D02*
X360402380Y222704762D01*
X360402380Y222419048D02*
X359402380Y222419048D01*
X359545238Y222514286D01*
X359640476Y222609524D01*
X359688095Y222704762D01*
X361660000Y263527620D02*
X361993333Y264003810D01*
X362231428Y263527620D02*
X362231428Y264527620D01*
X361850476Y264527620D01*
X361755238Y264480000D01*
X361707619Y264432381D01*
X361660000Y264337143D01*
X361660000Y264194286D01*
X361707619Y264099048D01*
X361755238Y264051429D01*
X361850476Y264003810D01*
X362231428Y264003810D01*
X360850476Y263575239D02*
X360945714Y263527620D01*
X361136190Y263527620D01*
X361231428Y263575239D01*
X361279047Y263670477D01*
X361279047Y264051429D01*
X361231428Y264146667D01*
X361136190Y264194286D01*
X360945714Y264194286D01*
X360850476Y264146667D01*
X360802857Y264051429D01*
X360802857Y263956191D01*
X361279047Y263860953D01*
X359945714Y264194286D02*
X359945714Y263384762D01*
X359993333Y263289524D01*
X360040952Y263241905D01*
X360136190Y263194286D01*
X360279047Y263194286D01*
X360374285Y263241905D01*
X359945714Y263575239D02*
X360040952Y263527620D01*
X360231428Y263527620D01*
X360326666Y263575239D01*
X360374285Y263622858D01*
X360421904Y263718096D01*
X360421904Y264003810D01*
X360374285Y264099048D01*
X360326666Y264146667D01*
X360231428Y264194286D01*
X360040952Y264194286D01*
X359945714Y264146667D01*
X359040952Y264194286D02*
X359040952Y263527620D01*
X359469523Y264194286D02*
X359469523Y263670477D01*
X359421904Y263575239D01*
X359326666Y263527620D01*
X359183809Y263527620D01*
X359088571Y263575239D01*
X359040952Y263622858D01*
X358421904Y263527620D02*
X358517142Y263575239D01*
X358564761Y263670477D01*
X358564761Y264527620D01*
X357612380Y263527620D02*
X357612380Y264051429D01*
X357660000Y264146667D01*
X357755238Y264194286D01*
X357945714Y264194286D01*
X358040952Y264146667D01*
X357612380Y263575239D02*
X357707619Y263527620D01*
X357945714Y263527620D01*
X358040952Y263575239D01*
X358088571Y263670477D01*
X358088571Y263765715D01*
X358040952Y263860953D01*
X357945714Y263908572D01*
X357707619Y263908572D01*
X357612380Y263956191D01*
X357279047Y264194286D02*
X356898095Y264194286D01*
X357136190Y264527620D02*
X357136190Y263670477D01*
X357088571Y263575239D01*
X356993333Y263527620D01*
X356898095Y263527620D01*
X356421904Y263527620D02*
X356517142Y263575239D01*
X356564761Y263622858D01*
X356612380Y263718096D01*
X356612380Y264003810D01*
X356564761Y264099048D01*
X356517142Y264146667D01*
X356421904Y264194286D01*
X356279047Y264194286D01*
X356183809Y264146667D01*
X356136190Y264099048D01*
X356088571Y264003810D01*
X356088571Y263718096D01*
X356136190Y263622858D01*
X356183809Y263575239D01*
X356279047Y263527620D01*
X356421904Y263527620D01*
X355660000Y263527620D02*
X355660000Y264194286D01*
X355660000Y264003810D02*
X355612380Y264099048D01*
X355564761Y264146667D01*
X355469523Y264194286D01*
X355374285Y264194286D01*
X355040952Y263908572D02*
X354279047Y263908572D01*
X353898095Y264527620D02*
X353279047Y264527620D01*
X353612380Y264146667D01*
X353469523Y264146667D01*
X353374285Y264099048D01*
X353326666Y264051429D01*
X353279047Y263956191D01*
X353279047Y263718096D01*
X353326666Y263622858D01*
X353374285Y263575239D01*
X353469523Y263527620D01*
X353755238Y263527620D01*
X353850476Y263575239D01*
X353898095Y263622858D01*
X352850476Y263622858D02*
X352802857Y263575239D01*
X352850476Y263527620D01*
X352898095Y263575239D01*
X352850476Y263622858D01*
X352850476Y263527620D01*
X352469523Y264527620D02*
X351850476Y264527620D01*
X352183809Y264146667D01*
X352040952Y264146667D01*
X351945714Y264099048D01*
X351898095Y264051429D01*
X351850476Y263956191D01*
X351850476Y263718096D01*
X351898095Y263622858D01*
X351945714Y263575239D01*
X352040952Y263527620D01*
X352326666Y263527620D01*
X352421904Y263575239D01*
X352469523Y263622858D01*
X351564761Y264527620D02*
X351231428Y263527620D01*
X350898095Y264527620D01*
X350040952Y263527620D02*
X350612380Y263527620D01*
X350326666Y263527620D02*
X350326666Y264527620D01*
X350421904Y264384762D01*
X350517142Y264289524D01*
X350612380Y264241905D01*
X367002380Y250661905D02*
X367002380Y250042858D01*
X367383333Y250376191D01*
X367383333Y250233334D01*
X367430952Y250138096D01*
X367478571Y250090477D01*
X367573809Y250042858D01*
X367811904Y250042858D01*
X367907142Y250090477D01*
X367954761Y250138096D01*
X368002380Y250233334D01*
X368002380Y250519048D01*
X367954761Y250614286D01*
X367907142Y250661905D01*
X367907142Y249614286D02*
X367954761Y249566667D01*
X368002380Y249614286D01*
X367954761Y249661905D01*
X367907142Y249614286D01*
X368002380Y249614286D01*
X367002380Y249233334D02*
X367002380Y248614286D01*
X367383333Y248947620D01*
X367383333Y248804762D01*
X367430952Y248709524D01*
X367478571Y248661905D01*
X367573809Y248614286D01*
X367811904Y248614286D01*
X367907142Y248661905D01*
X367954761Y248709524D01*
X368002380Y248804762D01*
X368002380Y249090477D01*
X367954761Y249185715D01*
X367907142Y249233334D01*
X367002380Y248328572D02*
X368002380Y247995239D01*
X367002380Y247661905D01*
X367621428Y247328572D02*
X367621428Y246566667D01*
X367907142Y245519048D02*
X367954761Y245566667D01*
X368002380Y245709524D01*
X368002380Y245804762D01*
X367954761Y245947620D01*
X367859523Y246042858D01*
X367764285Y246090477D01*
X367573809Y246138096D01*
X367430952Y246138096D01*
X367240476Y246090477D01*
X367145238Y246042858D01*
X367050000Y245947620D01*
X367002380Y245804762D01*
X367002380Y245709524D01*
X367050000Y245566667D01*
X367097619Y245519048D01*
X368002380Y244947620D02*
X367954761Y245042858D01*
X367907142Y245090477D01*
X367811904Y245138096D01*
X367526190Y245138096D01*
X367430952Y245090477D01*
X367383333Y245042858D01*
X367335714Y244947620D01*
X367335714Y244804762D01*
X367383333Y244709524D01*
X367430952Y244661905D01*
X367526190Y244614286D01*
X367811904Y244614286D01*
X367907142Y244661905D01*
X367954761Y244709524D01*
X368002380Y244804762D01*
X368002380Y244947620D01*
X367335714Y243757143D02*
X368002380Y243757143D01*
X367335714Y244185715D02*
X367859523Y244185715D01*
X367954761Y244138096D01*
X368002380Y244042858D01*
X368002380Y243900000D01*
X367954761Y243804762D01*
X367907142Y243757143D01*
X367335714Y243423810D02*
X367335714Y243042858D01*
X367002380Y243280953D02*
X367859523Y243280953D01*
X367954761Y243233334D01*
X368002380Y243138096D01*
X368002380Y243042858D01*
X368002380Y242185715D02*
X368002380Y242757143D01*
X368002380Y242471429D02*
X367002380Y242471429D01*
X367145238Y242566667D01*
X367240476Y242661905D01*
X367288095Y242757143D01*
X360502380Y243161905D02*
X360502380Y242542858D01*
X360883333Y242876191D01*
X360883333Y242733334D01*
X360930952Y242638096D01*
X360978571Y242590477D01*
X361073809Y242542858D01*
X361311904Y242542858D01*
X361407142Y242590477D01*
X361454761Y242638096D01*
X361502380Y242733334D01*
X361502380Y243019048D01*
X361454761Y243114286D01*
X361407142Y243161905D01*
X361407142Y242114286D02*
X361454761Y242066667D01*
X361502380Y242114286D01*
X361454761Y242161905D01*
X361407142Y242114286D01*
X361502380Y242114286D01*
X360502380Y241733334D02*
X360502380Y241114286D01*
X360883333Y241447620D01*
X360883333Y241304762D01*
X360930952Y241209524D01*
X360978571Y241161905D01*
X361073809Y241114286D01*
X361311904Y241114286D01*
X361407142Y241161905D01*
X361454761Y241209524D01*
X361502380Y241304762D01*
X361502380Y241590477D01*
X361454761Y241685715D01*
X361407142Y241733334D01*
X360502380Y240828572D02*
X361502380Y240495239D01*
X360502380Y240161905D01*
X361121428Y239828572D02*
X361121428Y239066667D01*
X361407142Y238019048D02*
X361454761Y238066667D01*
X361502380Y238209524D01*
X361502380Y238304762D01*
X361454761Y238447620D01*
X361359523Y238542858D01*
X361264285Y238590477D01*
X361073809Y238638096D01*
X360930952Y238638096D01*
X360740476Y238590477D01*
X360645238Y238542858D01*
X360550000Y238447620D01*
X360502380Y238304762D01*
X360502380Y238209524D01*
X360550000Y238066667D01*
X360597619Y238019048D01*
X361502380Y237590477D02*
X360835714Y237590477D01*
X360502380Y237590477D02*
X360550000Y237638096D01*
X360597619Y237590477D01*
X360550000Y237542858D01*
X360502380Y237590477D01*
X360597619Y237590477D01*
X360835714Y237114286D02*
X361502380Y237114286D01*
X360930952Y237114286D02*
X360883333Y237066667D01*
X360835714Y236971429D01*
X360835714Y236828572D01*
X360883333Y236733334D01*
X360978571Y236685715D01*
X361502380Y236685715D01*
X361502380Y235685715D02*
X361502380Y236257143D01*
X361502380Y235971429D02*
X360502380Y235971429D01*
X360645238Y236066667D01*
X360740476Y236161905D01*
X360788095Y236257143D01*
X368972380Y246894286D02*
X367972380Y246894286D01*
X368686666Y246560953D01*
X367972380Y246227620D01*
X368972380Y246227620D01*
X368877142Y245180000D02*
X368924761Y245227620D01*
X368972380Y245370477D01*
X368972380Y245465715D01*
X368924761Y245608572D01*
X368829523Y245703810D01*
X368734285Y245751429D01*
X368543809Y245799048D01*
X368400952Y245799048D01*
X368210476Y245751429D01*
X368115238Y245703810D01*
X368020000Y245608572D01*
X367972380Y245465715D01*
X367972380Y245370477D01*
X368020000Y245227620D01*
X368067619Y245180000D01*
X367972380Y244751429D02*
X368781904Y244751429D01*
X368877142Y244703810D01*
X368924761Y244656191D01*
X368972380Y244560953D01*
X368972380Y244370477D01*
X368924761Y244275239D01*
X368877142Y244227620D01*
X368781904Y244180000D01*
X367972380Y244180000D01*
X369067619Y243941905D02*
X369067619Y243180000D01*
X368067619Y242989524D02*
X368020000Y242941905D01*
X367972380Y242846667D01*
X367972380Y242608572D01*
X368020000Y242513334D01*
X368067619Y242465715D01*
X368162857Y242418096D01*
X368258095Y242418096D01*
X368400952Y242465715D01*
X368972380Y243037143D01*
X368972380Y242418096D01*
X322104285Y205957620D02*
X322104285Y206957620D01*
X321770952Y206243334D01*
X321437619Y206957620D01*
X321437619Y205957620D01*
X320390000Y206052858D02*
X320437619Y206005239D01*
X320580476Y205957620D01*
X320675714Y205957620D01*
X320818571Y206005239D01*
X320913809Y206100477D01*
X320961428Y206195715D01*
X321009047Y206386191D01*
X321009047Y206529048D01*
X320961428Y206719524D01*
X320913809Y206814762D01*
X320818571Y206910000D01*
X320675714Y206957620D01*
X320580476Y206957620D01*
X320437619Y206910000D01*
X320390000Y206862381D01*
X319961428Y206957620D02*
X319961428Y206148096D01*
X319913809Y206052858D01*
X319866190Y206005239D01*
X319770952Y205957620D01*
X319580476Y205957620D01*
X319485238Y206005239D01*
X319437619Y206052858D01*
X319390000Y206148096D01*
X319390000Y206957620D01*
X319151904Y205862381D02*
X318390000Y205862381D01*
X317628095Y205957620D02*
X318199523Y205957620D01*
X317913809Y205957620D02*
X317913809Y206957620D01*
X318009047Y206814762D01*
X318104285Y206719524D01*
X318199523Y206671905D01*
X214614761Y38512858D02*
X214662380Y38465239D01*
X214805238Y38417620D01*
X214900476Y38417620D01*
X215043333Y38465239D01*
X215138571Y38560477D01*
X215186190Y38655715D01*
X215233809Y38846191D01*
X215233809Y38989048D01*
X215186190Y39179524D01*
X215138571Y39274762D01*
X215043333Y39370000D01*
X214900476Y39417620D01*
X214805238Y39417620D01*
X214662380Y39370000D01*
X214614761Y39322381D01*
X214043333Y38417620D02*
X214138571Y38465239D01*
X214186190Y38512858D01*
X214233809Y38608096D01*
X214233809Y38893810D01*
X214186190Y38989048D01*
X214138571Y39036667D01*
X214043333Y39084286D01*
X213900476Y39084286D01*
X213805238Y39036667D01*
X213757619Y38989048D01*
X213710000Y38893810D01*
X213710000Y38608096D01*
X213757619Y38512858D01*
X213805238Y38465239D01*
X213900476Y38417620D01*
X214043333Y38417620D01*
X213281428Y38417620D02*
X213281428Y39084286D01*
X213281428Y38989048D02*
X213233809Y39036667D01*
X213138571Y39084286D01*
X212995714Y39084286D01*
X212900476Y39036667D01*
X212852857Y38941429D01*
X212852857Y38417620D01*
X212852857Y38941429D02*
X212805238Y39036667D01*
X212710000Y39084286D01*
X212567142Y39084286D01*
X212471904Y39036667D01*
X212424285Y38941429D01*
X212424285Y38417620D01*
X211948095Y38417620D02*
X211948095Y39084286D01*
X211948095Y38989048D02*
X211900476Y39036667D01*
X211805238Y39084286D01*
X211662380Y39084286D01*
X211567142Y39036667D01*
X211519523Y38941429D01*
X211519523Y38417620D01*
X211519523Y38941429D02*
X211471904Y39036667D01*
X211376666Y39084286D01*
X211233809Y39084286D01*
X211138571Y39036667D01*
X211090952Y38941429D01*
X211090952Y38417620D01*
X210471904Y38417620D02*
X210567142Y38465239D01*
X210614761Y38512858D01*
X210662380Y38608096D01*
X210662380Y38893810D01*
X210614761Y38989048D01*
X210567142Y39036667D01*
X210471904Y39084286D01*
X210329047Y39084286D01*
X210233809Y39036667D01*
X210186190Y38989048D01*
X210138571Y38893810D01*
X210138571Y38608096D01*
X210186190Y38512858D01*
X210233809Y38465239D01*
X210329047Y38417620D01*
X210471904Y38417620D01*
X209710000Y39084286D02*
X209710000Y38417620D01*
X209710000Y38989048D02*
X209662380Y39036667D01*
X209567142Y39084286D01*
X209424285Y39084286D01*
X209329047Y39036667D01*
X209281428Y38941429D01*
X209281428Y38417620D01*
X208805238Y38417620D02*
X208805238Y39417620D01*
X208424285Y39417620D01*
X208329047Y39370000D01*
X208281428Y39322381D01*
X208233809Y39227143D01*
X208233809Y39084286D01*
X208281428Y38989048D01*
X208329047Y38941429D01*
X208424285Y38893810D01*
X208805238Y38893810D01*
X207805238Y38417620D02*
X207805238Y39084286D01*
X207805238Y39417620D02*
X207852857Y39370000D01*
X207805238Y39322381D01*
X207757619Y39370000D01*
X207805238Y39417620D01*
X207805238Y39322381D01*
X207329047Y39084286D02*
X207329047Y38417620D01*
X207329047Y38989048D02*
X207281428Y39036667D01*
X207186190Y39084286D01*
X207043333Y39084286D01*
X206948095Y39036667D01*
X206900476Y38941429D01*
X206900476Y38417620D01*
X205852857Y38512858D02*
X205900476Y38465239D01*
X206043333Y38417620D01*
X206138571Y38417620D01*
X206281428Y38465239D01*
X206376666Y38560477D01*
X206424285Y38655715D01*
X206471904Y38846191D01*
X206471904Y38989048D01*
X206424285Y39179524D01*
X206376666Y39274762D01*
X206281428Y39370000D01*
X206138571Y39417620D01*
X206043333Y39417620D01*
X205900476Y39370000D01*
X205852857Y39322381D01*
X205281428Y38417620D02*
X205376666Y38465239D01*
X205424285Y38512858D01*
X205471904Y38608096D01*
X205471904Y38893810D01*
X205424285Y38989048D01*
X205376666Y39036667D01*
X205281428Y39084286D01*
X205138571Y39084286D01*
X205043333Y39036667D01*
X204995714Y38989048D01*
X204948095Y38893810D01*
X204948095Y38608096D01*
X204995714Y38512858D01*
X205043333Y38465239D01*
X205138571Y38417620D01*
X205281428Y38417620D01*
X204519523Y39084286D02*
X204519523Y38417620D01*
X204519523Y38989048D02*
X204471904Y39036667D01*
X204376666Y39084286D01*
X204233809Y39084286D01*
X204138571Y39036667D01*
X204090952Y38941429D01*
X204090952Y38417620D01*
X203757619Y39084286D02*
X203376666Y39084286D01*
X203614761Y39417620D02*
X203614761Y38560477D01*
X203567142Y38465239D01*
X203471904Y38417620D01*
X203376666Y38417620D01*
X203043333Y38417620D02*
X203043333Y39084286D01*
X203043333Y38893810D02*
X202995714Y38989048D01*
X202948095Y39036667D01*
X202852857Y39084286D01*
X202757619Y39084286D01*
X202281428Y38417620D02*
X202376666Y38465239D01*
X202424285Y38512858D01*
X202471904Y38608096D01*
X202471904Y38893810D01*
X202424285Y38989048D01*
X202376666Y39036667D01*
X202281428Y39084286D01*
X202138571Y39084286D01*
X202043333Y39036667D01*
X201995714Y38989048D01*
X201948095Y38893810D01*
X201948095Y38608096D01*
X201995714Y38512858D01*
X202043333Y38465239D01*
X202138571Y38417620D01*
X202281428Y38417620D01*
X201376666Y38417620D02*
X201471904Y38465239D01*
X201519523Y38560477D01*
X201519523Y39417620D01*
X201233809Y38322381D02*
X200471904Y38322381D01*
X200233809Y38417620D02*
X200233809Y39417620D01*
X199995714Y39417620D01*
X199852857Y39370000D01*
X199757619Y39274762D01*
X199710000Y39179524D01*
X199662380Y38989048D01*
X199662380Y38846191D01*
X199710000Y38655715D01*
X199757619Y38560477D01*
X199852857Y38465239D01*
X199995714Y38417620D01*
X200233809Y38417620D01*
X199281428Y38703334D02*
X198805238Y38703334D01*
X199376666Y38417620D02*
X199043333Y39417620D01*
X198710000Y38417620D01*
X198519523Y39417620D02*
X197948095Y39417620D01*
X198233809Y38417620D02*
X198233809Y39417620D01*
X197614761Y38941429D02*
X197281428Y38941429D01*
X197138571Y38417620D02*
X197614761Y38417620D01*
X197614761Y39417620D01*
X197138571Y39417620D01*
X196186190Y38417620D02*
X196757619Y38417620D01*
X196471904Y38417620D02*
X196471904Y39417620D01*
X196567142Y39274762D01*
X196662380Y39179524D01*
X196757619Y39131905D01*
X192745714Y38667620D02*
X192745714Y39667620D01*
X192507619Y39667620D01*
X192364761Y39620000D01*
X192269523Y39524762D01*
X192221904Y39429524D01*
X192174285Y39239048D01*
X192174285Y39096191D01*
X192221904Y38905715D01*
X192269523Y38810477D01*
X192364761Y38715239D01*
X192507619Y38667620D01*
X192745714Y38667620D01*
X191793333Y38953334D02*
X191317142Y38953334D01*
X191888571Y38667620D02*
X191555238Y39667620D01*
X191221904Y38667620D01*
X191031428Y39667620D02*
X190460000Y39667620D01*
X190745714Y38667620D02*
X190745714Y39667620D01*
X190126666Y39191429D02*
X189793333Y39191429D01*
X189650476Y38667620D02*
X190126666Y38667620D01*
X190126666Y39667620D01*
X189650476Y39667620D01*
X189460000Y38572381D02*
X188698095Y38572381D01*
X188460000Y38667620D02*
X188460000Y39667620D01*
X187983809Y38667620D02*
X187983809Y39667620D01*
X187412380Y38667620D01*
X187412380Y39667620D01*
X186936190Y38667620D02*
X186936190Y39667620D01*
X186555238Y39667620D01*
X186460000Y39620000D01*
X186412380Y39572381D01*
X186364761Y39477143D01*
X186364761Y39334286D01*
X186412380Y39239048D01*
X186460000Y39191429D01*
X186555238Y39143810D01*
X186936190Y39143810D01*
X185936190Y39667620D02*
X185936190Y38858096D01*
X185888571Y38762858D01*
X185840952Y38715239D01*
X185745714Y38667620D01*
X185555238Y38667620D01*
X185460000Y38715239D01*
X185412380Y38762858D01*
X185364761Y38858096D01*
X185364761Y39667620D01*
X185031428Y39667620D02*
X184460000Y39667620D01*
X184745714Y38667620D02*
X184745714Y39667620D01*
X184364761Y38572381D02*
X183602857Y38572381D01*
X182793333Y38762858D02*
X182840952Y38715239D01*
X182983809Y38667620D01*
X183079047Y38667620D01*
X183221904Y38715239D01*
X183317142Y38810477D01*
X183364761Y38905715D01*
X183412380Y39096191D01*
X183412380Y39239048D01*
X183364761Y39429524D01*
X183317142Y39524762D01*
X183221904Y39620000D01*
X183079047Y39667620D01*
X182983809Y39667620D01*
X182840952Y39620000D01*
X182793333Y39572381D01*
X182174285Y39667620D02*
X181983809Y39667620D01*
X181888571Y39620000D01*
X181793333Y39524762D01*
X181745714Y39334286D01*
X181745714Y39000953D01*
X181793333Y38810477D01*
X181888571Y38715239D01*
X181983809Y38667620D01*
X182174285Y38667620D01*
X182269523Y38715239D01*
X182364761Y38810477D01*
X182412380Y39000953D01*
X182412380Y39334286D01*
X182364761Y39524762D01*
X182269523Y39620000D01*
X182174285Y39667620D01*
X181317142Y38667620D02*
X181317142Y39667620D01*
X180745714Y38667620D01*
X180745714Y39667620D01*
X180412380Y39667620D02*
X179840952Y39667620D01*
X180126666Y38667620D02*
X180126666Y39667620D01*
X178936190Y38667620D02*
X179269523Y39143810D01*
X179507619Y38667620D02*
X179507619Y39667620D01*
X179126666Y39667620D01*
X179031428Y39620000D01*
X178983809Y39572381D01*
X178936190Y39477143D01*
X178936190Y39334286D01*
X178983809Y39239048D01*
X179031428Y39191429D01*
X179126666Y39143810D01*
X179507619Y39143810D01*
X178317142Y39667620D02*
X178126666Y39667620D01*
X178031428Y39620000D01*
X177936190Y39524762D01*
X177888571Y39334286D01*
X177888571Y39000953D01*
X177936190Y38810477D01*
X178031428Y38715239D01*
X178126666Y38667620D01*
X178317142Y38667620D01*
X178412380Y38715239D01*
X178507619Y38810477D01*
X178555238Y39000953D01*
X178555238Y39334286D01*
X178507619Y39524762D01*
X178412380Y39620000D01*
X178317142Y39667620D01*
X176983809Y38667620D02*
X177460000Y38667620D01*
X177460000Y39667620D01*
X176126666Y38667620D02*
X176698095Y38667620D01*
X176412380Y38667620D02*
X176412380Y39667620D01*
X176507619Y39524762D01*
X176602857Y39429524D01*
X176698095Y39381905D01*
X225852857Y222893810D02*
X225852857Y222417620D01*
X226186190Y223417620D02*
X225852857Y222893810D01*
X225519523Y223417620D01*
X225186190Y222941429D02*
X224852857Y222941429D01*
X224710000Y222417620D02*
X225186190Y222417620D01*
X225186190Y223417620D01*
X224710000Y223417620D01*
X224329047Y222703334D02*
X223852857Y222703334D01*
X224424285Y222417620D02*
X224090952Y223417620D01*
X223757619Y222417620D01*
X222852857Y222417620D02*
X223186190Y222893810D01*
X223424285Y222417620D02*
X223424285Y223417620D01*
X223043333Y223417620D01*
X222948095Y223370000D01*
X222900476Y223322381D01*
X222852857Y223227143D01*
X222852857Y223084286D01*
X222900476Y222989048D01*
X222948095Y222941429D01*
X223043333Y222893810D01*
X223424285Y222893810D01*
X222662380Y222322381D02*
X221900476Y222322381D01*
X221662380Y222417620D02*
X221662380Y223417620D01*
X221186190Y222417620D02*
X221186190Y223417620D01*
X220614761Y222417620D01*
X220614761Y223417620D01*
X220138571Y222417620D02*
X220138571Y223417620D01*
X219757619Y223417620D01*
X219662380Y223370000D01*
X219614761Y223322381D01*
X219567142Y223227143D01*
X219567142Y223084286D01*
X219614761Y222989048D01*
X219662380Y222941429D01*
X219757619Y222893810D01*
X220138571Y222893810D01*
X219138571Y223417620D02*
X219138571Y222608096D01*
X219090952Y222512858D01*
X219043333Y222465239D01*
X218948095Y222417620D01*
X218757619Y222417620D01*
X218662380Y222465239D01*
X218614761Y222512858D01*
X218567142Y222608096D01*
X218567142Y223417620D01*
X218233809Y223417620D02*
X217662380Y223417620D01*
X217948095Y222417620D02*
X217948095Y223417620D01*
X217567142Y222322381D02*
X216805238Y222322381D01*
X215995714Y222512858D02*
X216043333Y222465239D01*
X216186190Y222417620D01*
X216281428Y222417620D01*
X216424285Y222465239D01*
X216519523Y222560477D01*
X216567142Y222655715D01*
X216614761Y222846191D01*
X216614761Y222989048D01*
X216567142Y223179524D01*
X216519523Y223274762D01*
X216424285Y223370000D01*
X216281428Y223417620D01*
X216186190Y223417620D01*
X216043333Y223370000D01*
X215995714Y223322381D01*
X215376666Y223417620D02*
X215186190Y223417620D01*
X215090952Y223370000D01*
X214995714Y223274762D01*
X214948095Y223084286D01*
X214948095Y222750953D01*
X214995714Y222560477D01*
X215090952Y222465239D01*
X215186190Y222417620D01*
X215376666Y222417620D01*
X215471904Y222465239D01*
X215567142Y222560477D01*
X215614761Y222750953D01*
X215614761Y223084286D01*
X215567142Y223274762D01*
X215471904Y223370000D01*
X215376666Y223417620D01*
X214519523Y222417620D02*
X214519523Y223417620D01*
X213948095Y222417620D01*
X213948095Y223417620D01*
X213614761Y223417620D02*
X213043333Y223417620D01*
X213329047Y222417620D02*
X213329047Y223417620D01*
X212138571Y222417620D02*
X212471904Y222893810D01*
X212710000Y222417620D02*
X212710000Y223417620D01*
X212329047Y223417620D01*
X212233809Y223370000D01*
X212186190Y223322381D01*
X212138571Y223227143D01*
X212138571Y223084286D01*
X212186190Y222989048D01*
X212233809Y222941429D01*
X212329047Y222893810D01*
X212710000Y222893810D01*
X211519523Y223417620D02*
X211329047Y223417620D01*
X211233809Y223370000D01*
X211138571Y223274762D01*
X211090952Y223084286D01*
X211090952Y222750953D01*
X211138571Y222560477D01*
X211233809Y222465239D01*
X211329047Y222417620D01*
X211519523Y222417620D01*
X211614761Y222465239D01*
X211710000Y222560477D01*
X211757619Y222750953D01*
X211757619Y223084286D01*
X211710000Y223274762D01*
X211614761Y223370000D01*
X211519523Y223417620D01*
X210186190Y222417620D02*
X210662380Y222417620D01*
X210662380Y223417620D01*
X209329047Y222417620D02*
X209900476Y222417620D01*
X209614761Y222417620D02*
X209614761Y223417620D01*
X209710000Y223274762D01*
X209805238Y223179524D01*
X209900476Y223131905D01*
X258412380Y222012858D02*
X258460000Y221965239D01*
X258602857Y221917620D01*
X258698095Y221917620D01*
X258840952Y221965239D01*
X258936190Y222060477D01*
X258983809Y222155715D01*
X259031428Y222346191D01*
X259031428Y222489048D01*
X258983809Y222679524D01*
X258936190Y222774762D01*
X258840952Y222870000D01*
X258698095Y222917620D01*
X258602857Y222917620D01*
X258460000Y222870000D01*
X258412380Y222822381D01*
X257840952Y221917620D02*
X257936190Y221965239D01*
X257983809Y222012858D01*
X258031428Y222108096D01*
X258031428Y222393810D01*
X257983809Y222489048D01*
X257936190Y222536667D01*
X257840952Y222584286D01*
X257698095Y222584286D01*
X257602857Y222536667D01*
X257555238Y222489048D01*
X257507619Y222393810D01*
X257507619Y222108096D01*
X257555238Y222012858D01*
X257602857Y221965239D01*
X257698095Y221917620D01*
X257840952Y221917620D01*
X257079047Y221917620D02*
X257079047Y222584286D01*
X257079047Y222489048D02*
X257031428Y222536667D01*
X256936190Y222584286D01*
X256793333Y222584286D01*
X256698095Y222536667D01*
X256650476Y222441429D01*
X256650476Y221917620D01*
X256650476Y222441429D02*
X256602857Y222536667D01*
X256507619Y222584286D01*
X256364761Y222584286D01*
X256269523Y222536667D01*
X256221904Y222441429D01*
X256221904Y221917620D01*
X255745714Y221917620D02*
X255745714Y222584286D01*
X255745714Y222489048D02*
X255698095Y222536667D01*
X255602857Y222584286D01*
X255460000Y222584286D01*
X255364761Y222536667D01*
X255317142Y222441429D01*
X255317142Y221917620D01*
X255317142Y222441429D02*
X255269523Y222536667D01*
X255174285Y222584286D01*
X255031428Y222584286D01*
X254936190Y222536667D01*
X254888571Y222441429D01*
X254888571Y221917620D01*
X254269523Y221917620D02*
X254364761Y221965239D01*
X254412380Y222012858D01*
X254460000Y222108096D01*
X254460000Y222393810D01*
X254412380Y222489048D01*
X254364761Y222536667D01*
X254269523Y222584286D01*
X254126666Y222584286D01*
X254031428Y222536667D01*
X253983809Y222489048D01*
X253936190Y222393810D01*
X253936190Y222108096D01*
X253983809Y222012858D01*
X254031428Y221965239D01*
X254126666Y221917620D01*
X254269523Y221917620D01*
X253507619Y222584286D02*
X253507619Y221917620D01*
X253507619Y222489048D02*
X253460000Y222536667D01*
X253364761Y222584286D01*
X253221904Y222584286D01*
X253126666Y222536667D01*
X253079047Y222441429D01*
X253079047Y221917620D01*
X252602857Y221917620D02*
X252602857Y222917620D01*
X252221904Y222917620D01*
X252126666Y222870000D01*
X252079047Y222822381D01*
X252031428Y222727143D01*
X252031428Y222584286D01*
X252079047Y222489048D01*
X252126666Y222441429D01*
X252221904Y222393810D01*
X252602857Y222393810D01*
X251602857Y221917620D02*
X251602857Y222584286D01*
X251602857Y222917620D02*
X251650476Y222870000D01*
X251602857Y222822381D01*
X251555238Y222870000D01*
X251602857Y222917620D01*
X251602857Y222822381D01*
X251126666Y222584286D02*
X251126666Y221917620D01*
X251126666Y222489048D02*
X251079047Y222536667D01*
X250983809Y222584286D01*
X250840952Y222584286D01*
X250745714Y222536667D01*
X250698095Y222441429D01*
X250698095Y221917620D01*
X249650476Y222012858D02*
X249698095Y221965239D01*
X249840952Y221917620D01*
X249936190Y221917620D01*
X250079047Y221965239D01*
X250174285Y222060477D01*
X250221904Y222155715D01*
X250269523Y222346191D01*
X250269523Y222489048D01*
X250221904Y222679524D01*
X250174285Y222774762D01*
X250079047Y222870000D01*
X249936190Y222917620D01*
X249840952Y222917620D01*
X249698095Y222870000D01*
X249650476Y222822381D01*
X249079047Y221917620D02*
X249174285Y221965239D01*
X249221904Y222012858D01*
X249269523Y222108096D01*
X249269523Y222393810D01*
X249221904Y222489048D01*
X249174285Y222536667D01*
X249079047Y222584286D01*
X248936190Y222584286D01*
X248840952Y222536667D01*
X248793333Y222489048D01*
X248745714Y222393810D01*
X248745714Y222108096D01*
X248793333Y222012858D01*
X248840952Y221965239D01*
X248936190Y221917620D01*
X249079047Y221917620D01*
X248317142Y222584286D02*
X248317142Y221917620D01*
X248317142Y222489048D02*
X248269523Y222536667D01*
X248174285Y222584286D01*
X248031428Y222584286D01*
X247936190Y222536667D01*
X247888571Y222441429D01*
X247888571Y221917620D01*
X247555238Y222584286D02*
X247174285Y222584286D01*
X247412380Y222917620D02*
X247412380Y222060477D01*
X247364761Y221965239D01*
X247269523Y221917620D01*
X247174285Y221917620D01*
X246840952Y221917620D02*
X246840952Y222584286D01*
X246840952Y222393810D02*
X246793333Y222489048D01*
X246745714Y222536667D01*
X246650476Y222584286D01*
X246555238Y222584286D01*
X246079047Y221917620D02*
X246174285Y221965239D01*
X246221904Y222012858D01*
X246269523Y222108096D01*
X246269523Y222393810D01*
X246221904Y222489048D01*
X246174285Y222536667D01*
X246079047Y222584286D01*
X245936190Y222584286D01*
X245840952Y222536667D01*
X245793333Y222489048D01*
X245745714Y222393810D01*
X245745714Y222108096D01*
X245793333Y222012858D01*
X245840952Y221965239D01*
X245936190Y221917620D01*
X246079047Y221917620D01*
X245174285Y221917620D02*
X245269523Y221965239D01*
X245317142Y222060477D01*
X245317142Y222917620D01*
X245031428Y221822381D02*
X244269523Y221822381D01*
X243840952Y222393810D02*
X243840952Y221917620D01*
X244174285Y222917620D02*
X243840952Y222393810D01*
X243507619Y222917620D01*
X243174285Y222441429D02*
X242840952Y222441429D01*
X242698095Y221917620D02*
X243174285Y221917620D01*
X243174285Y222917620D01*
X242698095Y222917620D01*
X242317142Y222203334D02*
X241840952Y222203334D01*
X242412380Y221917620D02*
X242079047Y222917620D01*
X241745714Y221917620D01*
X240840952Y221917620D02*
X241174285Y222393810D01*
X241412380Y221917620D02*
X241412380Y222917620D01*
X241031428Y222917620D01*
X240936190Y222870000D01*
X240888571Y222822381D01*
X240840952Y222727143D01*
X240840952Y222584286D01*
X240888571Y222489048D01*
X240936190Y222441429D01*
X241031428Y222393810D01*
X241412380Y222393810D01*
X239888571Y221917620D02*
X240460000Y221917620D01*
X240174285Y221917620D02*
X240174285Y222917620D01*
X240269523Y222774762D01*
X240364761Y222679524D01*
X240460000Y222631905D01*
X246432380Y188386667D02*
X245956190Y188720000D01*
X246432380Y188958096D02*
X245432380Y188958096D01*
X245432380Y188577143D01*
X245480000Y188481905D01*
X245527619Y188434286D01*
X245622857Y188386667D01*
X245765714Y188386667D01*
X245860952Y188434286D01*
X245908571Y188481905D01*
X245956190Y188577143D01*
X245956190Y188958096D01*
X246432380Y187958096D02*
X245432380Y187958096D01*
X245432380Y187720000D01*
X245480000Y187577143D01*
X245575238Y187481905D01*
X245670476Y187434286D01*
X245860952Y187386667D01*
X246003809Y187386667D01*
X246194285Y187434286D01*
X246289523Y187481905D01*
X246384761Y187577143D01*
X246432380Y187720000D01*
X246432380Y187958096D01*
X246432380Y186958096D02*
X245432380Y186958096D01*
X245432380Y186577143D01*
X245480000Y186481905D01*
X245527619Y186434286D01*
X245622857Y186386667D01*
X245765714Y186386667D01*
X245860952Y186434286D01*
X245908571Y186481905D01*
X245956190Y186577143D01*
X245956190Y186958096D01*
X245527619Y186005715D02*
X245480000Y185958096D01*
X245432380Y185862858D01*
X245432380Y185624762D01*
X245480000Y185529524D01*
X245527619Y185481905D01*
X245622857Y185434286D01*
X245718095Y185434286D01*
X245860952Y185481905D01*
X246432380Y186053334D01*
X246432380Y185434286D01*
X217432380Y175705239D02*
X216432380Y175705239D01*
X217432380Y175229048D02*
X216432380Y175229048D01*
X217432380Y174657620D01*
X216432380Y174657620D01*
X216432380Y174324286D02*
X217432380Y173990953D01*
X216432380Y173657620D01*
X216908571Y173324286D02*
X216908571Y172990953D01*
X217432380Y172848096D02*
X217432380Y173324286D01*
X216432380Y173324286D01*
X216432380Y172848096D01*
X217432380Y171848096D02*
X216956190Y172181429D01*
X217432380Y172419524D02*
X216432380Y172419524D01*
X216432380Y172038572D01*
X216480000Y171943334D01*
X216527619Y171895715D01*
X216622857Y171848096D01*
X216765714Y171848096D01*
X216860952Y171895715D01*
X216908571Y171943334D01*
X216956190Y172038572D01*
X216956190Y172419524D01*
X216432380Y171562381D02*
X216432380Y170990953D01*
X217432380Y171276667D02*
X216432380Y171276667D01*
X216908571Y170657620D02*
X216908571Y170324286D01*
X217432380Y170181429D02*
X217432380Y170657620D01*
X216432380Y170657620D01*
X216432380Y170181429D01*
X217432380Y169181429D02*
X216956190Y169514762D01*
X217432380Y169752858D02*
X216432380Y169752858D01*
X216432380Y169371905D01*
X216480000Y169276667D01*
X216527619Y169229048D01*
X216622857Y169181429D01*
X216765714Y169181429D01*
X216860952Y169229048D01*
X216908571Y169276667D01*
X216956190Y169371905D01*
X216956190Y169752858D01*
X217527619Y168990953D02*
X217527619Y168229048D01*
X216527619Y168038572D02*
X216480000Y167990953D01*
X216432380Y167895715D01*
X216432380Y167657620D01*
X216480000Y167562381D01*
X216527619Y167514762D01*
X216622857Y167467143D01*
X216718095Y167467143D01*
X216860952Y167514762D01*
X217432380Y168086191D01*
X217432380Y167467143D01*
X209855238Y132767620D02*
X209855238Y133767620D01*
X209379047Y132767620D02*
X209379047Y133767620D01*
X208807619Y132767620D01*
X208807619Y133767620D01*
X208474285Y133767620D02*
X208140952Y132767620D01*
X207807619Y133767620D01*
X207474285Y133291429D02*
X207140952Y133291429D01*
X206998095Y132767620D02*
X207474285Y132767620D01*
X207474285Y133767620D01*
X206998095Y133767620D01*
X205998095Y132767620D02*
X206331428Y133243810D01*
X206569523Y132767620D02*
X206569523Y133767620D01*
X206188571Y133767620D01*
X206093333Y133720000D01*
X206045714Y133672381D01*
X205998095Y133577143D01*
X205998095Y133434286D01*
X206045714Y133339048D01*
X206093333Y133291429D01*
X206188571Y133243810D01*
X206569523Y133243810D01*
X205712380Y133767620D02*
X205140952Y133767620D01*
X205426666Y132767620D02*
X205426666Y133767620D01*
X204807619Y133291429D02*
X204474285Y133291429D01*
X204331428Y132767620D02*
X204807619Y132767620D01*
X204807619Y133767620D01*
X204331428Y133767620D01*
X203331428Y132767620D02*
X203664761Y133243810D01*
X203902857Y132767620D02*
X203902857Y133767620D01*
X203521904Y133767620D01*
X203426666Y133720000D01*
X203379047Y133672381D01*
X203331428Y133577143D01*
X203331428Y133434286D01*
X203379047Y133339048D01*
X203426666Y133291429D01*
X203521904Y133243810D01*
X203902857Y133243810D01*
X203140952Y132672381D02*
X202379047Y132672381D01*
X201617142Y132767620D02*
X202188571Y132767620D01*
X201902857Y132767620D02*
X201902857Y133767620D01*
X201998095Y133624762D01*
X202093333Y133529524D01*
X202188571Y133481905D01*
X163669523Y133717620D02*
X163098095Y133717620D01*
X163383809Y132717620D02*
X163383809Y133717620D01*
X162764761Y132717620D02*
X162764761Y133717620D01*
X162288571Y132717620D02*
X162288571Y133717620D01*
X161955238Y133003334D01*
X161621904Y133717620D01*
X161621904Y132717620D01*
X161145714Y133241429D02*
X160812380Y133241429D01*
X160669523Y132717620D02*
X161145714Y132717620D01*
X161145714Y133717620D01*
X160669523Y133717620D01*
X160479047Y132622381D02*
X159717142Y132622381D01*
X159479047Y132717620D02*
X159479047Y133717620D01*
X159002857Y132717620D02*
X159002857Y133717620D01*
X158431428Y132717620D01*
X158431428Y133717620D01*
X157955238Y132717620D02*
X157955238Y133717620D01*
X157574285Y133717620D01*
X157479047Y133670000D01*
X157431428Y133622381D01*
X157383809Y133527143D01*
X157383809Y133384286D01*
X157431428Y133289048D01*
X157479047Y133241429D01*
X157574285Y133193810D01*
X157955238Y133193810D01*
X156955238Y133717620D02*
X156955238Y132908096D01*
X156907619Y132812858D01*
X156860000Y132765239D01*
X156764761Y132717620D01*
X156574285Y132717620D01*
X156479047Y132765239D01*
X156431428Y132812858D01*
X156383809Y132908096D01*
X156383809Y133717620D01*
X156050476Y133717620D02*
X155479047Y133717620D01*
X155764761Y132717620D02*
X155764761Y133717620D01*
X155383809Y132622381D02*
X154621904Y132622381D01*
X153812380Y132812858D02*
X153860000Y132765239D01*
X154002857Y132717620D01*
X154098095Y132717620D01*
X154240952Y132765239D01*
X154336190Y132860477D01*
X154383809Y132955715D01*
X154431428Y133146191D01*
X154431428Y133289048D01*
X154383809Y133479524D01*
X154336190Y133574762D01*
X154240952Y133670000D01*
X154098095Y133717620D01*
X154002857Y133717620D01*
X153860000Y133670000D01*
X153812380Y133622381D01*
X153193333Y133717620D02*
X153002857Y133717620D01*
X152907619Y133670000D01*
X152812380Y133574762D01*
X152764761Y133384286D01*
X152764761Y133050953D01*
X152812380Y132860477D01*
X152907619Y132765239D01*
X153002857Y132717620D01*
X153193333Y132717620D01*
X153288571Y132765239D01*
X153383809Y132860477D01*
X153431428Y133050953D01*
X153431428Y133384286D01*
X153383809Y133574762D01*
X153288571Y133670000D01*
X153193333Y133717620D01*
X152336190Y132717620D02*
X152336190Y133717620D01*
X151764761Y132717620D01*
X151764761Y133717620D01*
X151431428Y133717620D02*
X150860000Y133717620D01*
X151145714Y132717620D02*
X151145714Y133717620D01*
X149955238Y132717620D02*
X150288571Y133193810D01*
X150526666Y132717620D02*
X150526666Y133717620D01*
X150145714Y133717620D01*
X150050476Y133670000D01*
X150002857Y133622381D01*
X149955238Y133527143D01*
X149955238Y133384286D01*
X150002857Y133289048D01*
X150050476Y133241429D01*
X150145714Y133193810D01*
X150526666Y133193810D01*
X149336190Y133717620D02*
X149145714Y133717620D01*
X149050476Y133670000D01*
X148955238Y133574762D01*
X148907619Y133384286D01*
X148907619Y133050953D01*
X148955238Y132860477D01*
X149050476Y132765239D01*
X149145714Y132717620D01*
X149336190Y132717620D01*
X149431428Y132765239D01*
X149526666Y132860477D01*
X149574285Y133050953D01*
X149574285Y133384286D01*
X149526666Y133574762D01*
X149431428Y133670000D01*
X149336190Y133717620D01*
X148002857Y132717620D02*
X148479047Y132717620D01*
X148479047Y133717620D01*
X147145714Y132717620D02*
X147717142Y132717620D01*
X147431428Y132717620D02*
X147431428Y133717620D01*
X147526666Y133574762D01*
X147621904Y133479524D01*
X147717142Y133431905D01*
X188246666Y86277620D02*
X188580000Y86753810D01*
X188818095Y86277620D02*
X188818095Y87277620D01*
X188437142Y87277620D01*
X188341904Y87230000D01*
X188294285Y87182381D01*
X188246666Y87087143D01*
X188246666Y86944286D01*
X188294285Y86849048D01*
X188341904Y86801429D01*
X188437142Y86753810D01*
X188818095Y86753810D01*
X187818095Y86277620D02*
X187818095Y87277620D01*
X187580000Y87277620D01*
X187437142Y87230000D01*
X187341904Y87134762D01*
X187294285Y87039524D01*
X187246666Y86849048D01*
X187246666Y86706191D01*
X187294285Y86515715D01*
X187341904Y86420477D01*
X187437142Y86325239D01*
X187580000Y86277620D01*
X187818095Y86277620D01*
X186818095Y86277620D02*
X186818095Y87277620D01*
X186437142Y87277620D01*
X186341904Y87230000D01*
X186294285Y87182381D01*
X186246666Y87087143D01*
X186246666Y86944286D01*
X186294285Y86849048D01*
X186341904Y86801429D01*
X186437142Y86753810D01*
X186818095Y86753810D01*
X185294285Y86277620D02*
X185865714Y86277620D01*
X185580000Y86277620D02*
X185580000Y87277620D01*
X185675238Y87134762D01*
X185770476Y87039524D01*
X185865714Y86991905D01*
X229490952Y132717620D02*
X229490952Y133717620D01*
X229014761Y133384286D02*
X229014761Y132717620D01*
X229014761Y133289048D02*
X228967142Y133336667D01*
X228871904Y133384286D01*
X228729047Y133384286D01*
X228633809Y133336667D01*
X228586190Y133241429D01*
X228586190Y132717620D01*
X228110000Y133384286D02*
X228110000Y132384286D01*
X228110000Y133336667D02*
X228014761Y133384286D01*
X227824285Y133384286D01*
X227729047Y133336667D01*
X227681428Y133289048D01*
X227633809Y133193810D01*
X227633809Y132908096D01*
X227681428Y132812858D01*
X227729047Y132765239D01*
X227824285Y132717620D01*
X228014761Y132717620D01*
X228110000Y132765239D01*
X226776666Y133384286D02*
X226776666Y132717620D01*
X227205238Y133384286D02*
X227205238Y132860477D01*
X227157619Y132765239D01*
X227062380Y132717620D01*
X226919523Y132717620D01*
X226824285Y132765239D01*
X226776666Y132812858D01*
X226443333Y133384286D02*
X226062380Y133384286D01*
X226300476Y133717620D02*
X226300476Y132860477D01*
X226252857Y132765239D01*
X226157619Y132717620D01*
X226062380Y132717620D01*
X225729047Y132717620D02*
X225729047Y133717620D01*
X225348095Y133717620D01*
X225252857Y133670000D01*
X225205238Y133622381D01*
X225157619Y133527143D01*
X225157619Y133384286D01*
X225205238Y133289048D01*
X225252857Y133241429D01*
X225348095Y133193810D01*
X225729047Y133193810D01*
X224586190Y132717620D02*
X224681428Y132765239D01*
X224729047Y132812858D01*
X224776666Y132908096D01*
X224776666Y133193810D01*
X224729047Y133289048D01*
X224681428Y133336667D01*
X224586190Y133384286D01*
X224443333Y133384286D01*
X224348095Y133336667D01*
X224300476Y133289048D01*
X224252857Y133193810D01*
X224252857Y132908096D01*
X224300476Y132812858D01*
X224348095Y132765239D01*
X224443333Y132717620D01*
X224586190Y132717620D01*
X223919523Y133384286D02*
X223729047Y132717620D01*
X223538571Y133193810D01*
X223348095Y132717620D01*
X223157619Y133384286D01*
X222395714Y132765239D02*
X222490952Y132717620D01*
X222681428Y132717620D01*
X222776666Y132765239D01*
X222824285Y132860477D01*
X222824285Y133241429D01*
X222776666Y133336667D01*
X222681428Y133384286D01*
X222490952Y133384286D01*
X222395714Y133336667D01*
X222348095Y133241429D01*
X222348095Y133146191D01*
X222824285Y133050953D01*
X221919523Y132717620D02*
X221919523Y133384286D01*
X221919523Y133193810D02*
X221871904Y133289048D01*
X221824285Y133336667D01*
X221729047Y133384286D01*
X221633809Y133384286D01*
X220729047Y132812858D02*
X220776666Y132765239D01*
X220919523Y132717620D01*
X221014761Y132717620D01*
X221157619Y132765239D01*
X221252857Y132860477D01*
X221300476Y132955715D01*
X221348095Y133146191D01*
X221348095Y133289048D01*
X221300476Y133479524D01*
X221252857Y133574762D01*
X221157619Y133670000D01*
X221014761Y133717620D01*
X220919523Y133717620D01*
X220776666Y133670000D01*
X220729047Y133622381D01*
X220157619Y132717620D02*
X220252857Y132765239D01*
X220300476Y132812858D01*
X220348095Y132908096D01*
X220348095Y133193810D01*
X220300476Y133289048D01*
X220252857Y133336667D01*
X220157619Y133384286D01*
X220014761Y133384286D01*
X219919523Y133336667D01*
X219871904Y133289048D01*
X219824285Y133193810D01*
X219824285Y132908096D01*
X219871904Y132812858D01*
X219919523Y132765239D01*
X220014761Y132717620D01*
X220157619Y132717620D01*
X219395714Y133384286D02*
X219395714Y132717620D01*
X219395714Y133289048D02*
X219348095Y133336667D01*
X219252857Y133384286D01*
X219110000Y133384286D01*
X219014761Y133336667D01*
X218967142Y133241429D01*
X218967142Y132717620D01*
X218586190Y133384286D02*
X218348095Y132717620D01*
X218110000Y133384286D01*
X217348095Y132765239D02*
X217443333Y132717620D01*
X217633809Y132717620D01*
X217729047Y132765239D01*
X217776666Y132860477D01*
X217776666Y133241429D01*
X217729047Y133336667D01*
X217633809Y133384286D01*
X217443333Y133384286D01*
X217348095Y133336667D01*
X217300476Y133241429D01*
X217300476Y133146191D01*
X217776666Y133050953D01*
X216871904Y132717620D02*
X216871904Y133384286D01*
X216871904Y133193810D02*
X216824285Y133289048D01*
X216776666Y133336667D01*
X216681428Y133384286D01*
X216586190Y133384286D01*
X216395714Y133384286D02*
X216014761Y133384286D01*
X216252857Y133717620D02*
X216252857Y132860477D01*
X216205238Y132765239D01*
X216110000Y132717620D01*
X216014761Y132717620D01*
X215300476Y132765239D02*
X215395714Y132717620D01*
X215586190Y132717620D01*
X215681428Y132765239D01*
X215729047Y132860477D01*
X215729047Y133241429D01*
X215681428Y133336667D01*
X215586190Y133384286D01*
X215395714Y133384286D01*
X215300476Y133336667D01*
X215252857Y133241429D01*
X215252857Y133146191D01*
X215729047Y133050953D01*
X214824285Y132717620D02*
X214824285Y133384286D01*
X214824285Y133193810D02*
X214776666Y133289048D01*
X214729047Y133336667D01*
X214633809Y133384286D01*
X214538571Y133384286D01*
X213681428Y132717620D02*
X214252857Y132717620D01*
X213967142Y132717620D02*
X213967142Y133717620D01*
X214062380Y133574762D01*
X214157619Y133479524D01*
X214252857Y133431905D01*
X186826666Y133291429D02*
X186683809Y133243810D01*
X186636190Y133196191D01*
X186588571Y133100953D01*
X186588571Y132958096D01*
X186636190Y132862858D01*
X186683809Y132815239D01*
X186779047Y132767620D01*
X187160000Y132767620D01*
X187160000Y133767620D01*
X186826666Y133767620D01*
X186731428Y133720000D01*
X186683809Y133672381D01*
X186636190Y133577143D01*
X186636190Y133481905D01*
X186683809Y133386667D01*
X186731428Y133339048D01*
X186826666Y133291429D01*
X187160000Y133291429D01*
X185588571Y132862858D02*
X185636190Y132815239D01*
X185779047Y132767620D01*
X185874285Y132767620D01*
X186017142Y132815239D01*
X186112380Y132910477D01*
X186160000Y133005715D01*
X186207619Y133196191D01*
X186207619Y133339048D01*
X186160000Y133529524D01*
X186112380Y133624762D01*
X186017142Y133720000D01*
X185874285Y133767620D01*
X185779047Y133767620D01*
X185636190Y133720000D01*
X185588571Y133672381D01*
X185160000Y132767620D02*
X185160000Y133767620D01*
X184921904Y133767620D01*
X184779047Y133720000D01*
X184683809Y133624762D01*
X184636190Y133529524D01*
X184588571Y133339048D01*
X184588571Y133196191D01*
X184636190Y133005715D01*
X184683809Y132910477D01*
X184779047Y132815239D01*
X184921904Y132767620D01*
X185160000Y132767620D01*
X184160000Y133148572D02*
X183398095Y133148572D01*
X183064761Y133767620D02*
X182493333Y133767620D01*
X182779047Y132767620D02*
X182779047Y133767620D01*
X182160000Y132767620D02*
X182160000Y133767620D01*
X181683809Y132767620D02*
X181683809Y133767620D01*
X181350476Y133053334D01*
X181017142Y133767620D01*
X181017142Y132767620D01*
X180540952Y133291429D02*
X180207619Y133291429D01*
X180064761Y132767620D02*
X180540952Y132767620D01*
X180540952Y133767620D01*
X180064761Y133767620D01*
X179112380Y132767620D02*
X179683809Y132767620D01*
X179398095Y132767620D02*
X179398095Y133767620D01*
X179493333Y133624762D01*
X179588571Y133529524D01*
X179683809Y133481905D01*
X119602380Y65823810D02*
X119602380Y66014286D01*
X119650000Y66109524D01*
X119697619Y66157143D01*
X119840476Y66252381D01*
X120030952Y66300000D01*
X120411904Y66300000D01*
X120507142Y66252381D01*
X120554761Y66204762D01*
X120602380Y66109524D01*
X120602380Y65919048D01*
X120554761Y65823810D01*
X120507142Y65776191D01*
X120411904Y65728572D01*
X120173809Y65728572D01*
X120078571Y65776191D01*
X120030952Y65823810D01*
X119983333Y65919048D01*
X119983333Y66109524D01*
X120030952Y66204762D01*
X120078571Y66252381D01*
X120173809Y66300000D01*
X119602380Y65442858D02*
X120602380Y65109524D01*
X119602380Y64776191D01*
X120221428Y64442858D02*
X120221428Y63680953D01*
X120507142Y62633334D02*
X120554761Y62680953D01*
X120602380Y62823810D01*
X120602380Y62919048D01*
X120554761Y63061905D01*
X120459523Y63157143D01*
X120364285Y63204762D01*
X120173809Y63252381D01*
X120030952Y63252381D01*
X119840476Y63204762D01*
X119745238Y63157143D01*
X119650000Y63061905D01*
X119602380Y62919048D01*
X119602380Y62823810D01*
X119650000Y62680953D01*
X119697619Y62633334D01*
X120602380Y62061905D02*
X120554761Y62157143D01*
X120507142Y62204762D01*
X120411904Y62252381D01*
X120126190Y62252381D01*
X120030952Y62204762D01*
X119983333Y62157143D01*
X119935714Y62061905D01*
X119935714Y61919048D01*
X119983333Y61823810D01*
X120030952Y61776191D01*
X120126190Y61728572D01*
X120411904Y61728572D01*
X120507142Y61776191D01*
X120554761Y61823810D01*
X120602380Y61919048D01*
X120602380Y62061905D01*
X119935714Y60871429D02*
X120602380Y60871429D01*
X119935714Y61300000D02*
X120459523Y61300000D01*
X120554761Y61252381D01*
X120602380Y61157143D01*
X120602380Y61014286D01*
X120554761Y60919048D01*
X120507142Y60871429D01*
X119935714Y60538096D02*
X119935714Y60157143D01*
X119602380Y60395239D02*
X120459523Y60395239D01*
X120554761Y60347620D01*
X120602380Y60252381D01*
X120602380Y60157143D01*
X120602380Y59300000D02*
X120602380Y59871429D01*
X120602380Y59585715D02*
X119602380Y59585715D01*
X119745238Y59680953D01*
X119840476Y59776191D01*
X119888095Y59871429D01*
X86302380Y65923810D02*
X86302380Y66114286D01*
X86350000Y66209524D01*
X86397619Y66257143D01*
X86540476Y66352381D01*
X86730952Y66400000D01*
X87111904Y66400000D01*
X87207142Y66352381D01*
X87254761Y66304762D01*
X87302380Y66209524D01*
X87302380Y66019048D01*
X87254761Y65923810D01*
X87207142Y65876191D01*
X87111904Y65828572D01*
X86873809Y65828572D01*
X86778571Y65876191D01*
X86730952Y65923810D01*
X86683333Y66019048D01*
X86683333Y66209524D01*
X86730952Y66304762D01*
X86778571Y66352381D01*
X86873809Y66400000D01*
X86302380Y65542858D02*
X87302380Y65209524D01*
X86302380Y64876191D01*
X86921428Y64542858D02*
X86921428Y63780953D01*
X87207142Y62733334D02*
X87254761Y62780953D01*
X87302380Y62923810D01*
X87302380Y63019048D01*
X87254761Y63161905D01*
X87159523Y63257143D01*
X87064285Y63304762D01*
X86873809Y63352381D01*
X86730952Y63352381D01*
X86540476Y63304762D01*
X86445238Y63257143D01*
X86350000Y63161905D01*
X86302380Y63019048D01*
X86302380Y62923810D01*
X86350000Y62780953D01*
X86397619Y62733334D01*
X87302380Y62304762D02*
X86635714Y62304762D01*
X86302380Y62304762D02*
X86350000Y62352381D01*
X86397619Y62304762D01*
X86350000Y62257143D01*
X86302380Y62304762D01*
X86397619Y62304762D01*
X86635714Y61828572D02*
X87302380Y61828572D01*
X86730952Y61828572D02*
X86683333Y61780953D01*
X86635714Y61685715D01*
X86635714Y61542858D01*
X86683333Y61447620D01*
X86778571Y61400000D01*
X87302380Y61400000D01*
X87302380Y60400000D02*
X87302380Y60971429D01*
X87302380Y60685715D02*
X86302380Y60685715D01*
X86445238Y60780953D01*
X86540476Y60876191D01*
X86588095Y60971429D01*
X119602380Y57776191D02*
X119602380Y58252381D01*
X120078571Y58300000D01*
X120030952Y58252381D01*
X119983333Y58157143D01*
X119983333Y57919048D01*
X120030952Y57823810D01*
X120078571Y57776191D01*
X120173809Y57728572D01*
X120411904Y57728572D01*
X120507142Y57776191D01*
X120554761Y57823810D01*
X120602380Y57919048D01*
X120602380Y58157143D01*
X120554761Y58252381D01*
X120507142Y58300000D01*
X119602380Y57442858D02*
X120602380Y57109524D01*
X119602380Y56776191D01*
X120221428Y56442858D02*
X120221428Y55680953D01*
X120507142Y54633334D02*
X120554761Y54680953D01*
X120602380Y54823810D01*
X120602380Y54919048D01*
X120554761Y55061905D01*
X120459523Y55157143D01*
X120364285Y55204762D01*
X120173809Y55252381D01*
X120030952Y55252381D01*
X119840476Y55204762D01*
X119745238Y55157143D01*
X119650000Y55061905D01*
X119602380Y54919048D01*
X119602380Y54823810D01*
X119650000Y54680953D01*
X119697619Y54633334D01*
X120602380Y54061905D02*
X120554761Y54157143D01*
X120507142Y54204762D01*
X120411904Y54252381D01*
X120126190Y54252381D01*
X120030952Y54204762D01*
X119983333Y54157143D01*
X119935714Y54061905D01*
X119935714Y53919048D01*
X119983333Y53823810D01*
X120030952Y53776191D01*
X120126190Y53728572D01*
X120411904Y53728572D01*
X120507142Y53776191D01*
X120554761Y53823810D01*
X120602380Y53919048D01*
X120602380Y54061905D01*
X119935714Y52871429D02*
X120602380Y52871429D01*
X119935714Y53300000D02*
X120459523Y53300000D01*
X120554761Y53252381D01*
X120602380Y53157143D01*
X120602380Y53014286D01*
X120554761Y52919048D01*
X120507142Y52871429D01*
X119935714Y52538096D02*
X119935714Y52157143D01*
X119602380Y52395239D02*
X120459523Y52395239D01*
X120554761Y52347620D01*
X120602380Y52252381D01*
X120602380Y52157143D01*
X120602380Y51300000D02*
X120602380Y51871429D01*
X120602380Y51585715D02*
X119602380Y51585715D01*
X119745238Y51680953D01*
X119840476Y51776191D01*
X119888095Y51871429D01*
X86402380Y57276191D02*
X86402380Y57752381D01*
X86878571Y57800000D01*
X86830952Y57752381D01*
X86783333Y57657143D01*
X86783333Y57419048D01*
X86830952Y57323810D01*
X86878571Y57276191D01*
X86973809Y57228572D01*
X87211904Y57228572D01*
X87307142Y57276191D01*
X87354761Y57323810D01*
X87402380Y57419048D01*
X87402380Y57657143D01*
X87354761Y57752381D01*
X87307142Y57800000D01*
X86402380Y56942858D02*
X87402380Y56609524D01*
X86402380Y56276191D01*
X87021428Y55942858D02*
X87021428Y55180953D01*
X87307142Y54133334D02*
X87354761Y54180953D01*
X87402380Y54323810D01*
X87402380Y54419048D01*
X87354761Y54561905D01*
X87259523Y54657143D01*
X87164285Y54704762D01*
X86973809Y54752381D01*
X86830952Y54752381D01*
X86640476Y54704762D01*
X86545238Y54657143D01*
X86450000Y54561905D01*
X86402380Y54419048D01*
X86402380Y54323810D01*
X86450000Y54180953D01*
X86497619Y54133334D01*
X87402380Y53704762D02*
X86735714Y53704762D01*
X86402380Y53704762D02*
X86450000Y53752381D01*
X86497619Y53704762D01*
X86450000Y53657143D01*
X86402380Y53704762D01*
X86497619Y53704762D01*
X86735714Y53228572D02*
X87402380Y53228572D01*
X86830952Y53228572D02*
X86783333Y53180953D01*
X86735714Y53085715D01*
X86735714Y52942858D01*
X86783333Y52847620D01*
X86878571Y52800000D01*
X87402380Y52800000D01*
X87402380Y51800000D02*
X87402380Y52371429D01*
X87402380Y52085715D02*
X86402380Y52085715D01*
X86545238Y52180953D01*
X86640476Y52276191D01*
X86688095Y52371429D01*
X56142380Y64894762D02*
X55666190Y65228096D01*
X56142380Y65466191D02*
X55142380Y65466191D01*
X55142380Y65085239D01*
X55190000Y64990000D01*
X55237619Y64942381D01*
X55332857Y64894762D01*
X55475714Y64894762D01*
X55570952Y64942381D01*
X55618571Y64990000D01*
X55666190Y65085239D01*
X55666190Y65466191D01*
X56237619Y64704286D02*
X56237619Y63942381D01*
X56047142Y63132858D02*
X56094761Y63180477D01*
X56142380Y63323334D01*
X56142380Y63418572D01*
X56094761Y63561429D01*
X55999523Y63656667D01*
X55904285Y63704286D01*
X55713809Y63751905D01*
X55570952Y63751905D01*
X55380476Y63704286D01*
X55285238Y63656667D01*
X55190000Y63561429D01*
X55142380Y63418572D01*
X55142380Y63323334D01*
X55190000Y63180477D01*
X55237619Y63132858D01*
X55142380Y62513810D02*
X55142380Y62323334D01*
X55190000Y62228096D01*
X55285238Y62132858D01*
X55475714Y62085239D01*
X55809047Y62085239D01*
X55999523Y62132858D01*
X56094761Y62228096D01*
X56142380Y62323334D01*
X56142380Y62513810D01*
X56094761Y62609048D01*
X55999523Y62704286D01*
X55809047Y62751905D01*
X55475714Y62751905D01*
X55285238Y62704286D01*
X55190000Y62609048D01*
X55142380Y62513810D01*
X56142380Y61656667D02*
X55142380Y61656667D01*
X56142380Y61085239D01*
X55142380Y61085239D01*
X55142380Y60751905D02*
X55142380Y60180477D01*
X56142380Y60466191D02*
X55142380Y60466191D01*
X56142380Y59275715D02*
X55666190Y59609048D01*
X56142380Y59847143D02*
X55142380Y59847143D01*
X55142380Y59466191D01*
X55190000Y59370953D01*
X55237619Y59323334D01*
X55332857Y59275715D01*
X55475714Y59275715D01*
X55570952Y59323334D01*
X55618571Y59370953D01*
X55666190Y59466191D01*
X55666190Y59847143D01*
X55142380Y58656667D02*
X55142380Y58466191D01*
X55190000Y58370953D01*
X55285238Y58275715D01*
X55475714Y58228096D01*
X55809047Y58228096D01*
X55999523Y58275715D01*
X56094761Y58370953D01*
X56142380Y58466191D01*
X56142380Y58656667D01*
X56094761Y58751905D01*
X55999523Y58847143D01*
X55809047Y58894762D01*
X55475714Y58894762D01*
X55285238Y58847143D01*
X55190000Y58751905D01*
X55142380Y58656667D01*
X56142380Y57323334D02*
X56142380Y57799524D01*
X55142380Y57799524D01*
X56142380Y56466191D02*
X56142380Y57037620D01*
X56142380Y56751905D02*
X55142380Y56751905D01*
X55285238Y56847143D01*
X55380476Y56942381D01*
X55428095Y57037620D01*
X76996666Y59527620D02*
X77330000Y60003810D01*
X77568095Y59527620D02*
X77568095Y60527620D01*
X77187142Y60527620D01*
X77091904Y60480000D01*
X77044285Y60432381D01*
X76996666Y60337143D01*
X76996666Y60194286D01*
X77044285Y60099048D01*
X77091904Y60051429D01*
X77187142Y60003810D01*
X77568095Y60003810D01*
X76615714Y60432381D02*
X76568095Y60480000D01*
X76472857Y60527620D01*
X76234761Y60527620D01*
X76139523Y60480000D01*
X76091904Y60432381D01*
X76044285Y60337143D01*
X76044285Y60241905D01*
X76091904Y60099048D01*
X76663333Y59527620D01*
X76044285Y59527620D01*
X38886666Y64517620D02*
X39220000Y64993810D01*
X39458095Y64517620D02*
X39458095Y65517620D01*
X39077142Y65517620D01*
X38981904Y65470000D01*
X38934285Y65422381D01*
X38886666Y65327143D01*
X38886666Y65184286D01*
X38934285Y65089048D01*
X38981904Y65041429D01*
X39077142Y64993810D01*
X39458095Y64993810D01*
X37934285Y64517620D02*
X38505714Y64517620D01*
X38220000Y64517620D02*
X38220000Y65517620D01*
X38315238Y65374762D01*
X38410476Y65279524D01*
X38505714Y65231905D01*
X64816666Y76347620D02*
X65292857Y76347620D01*
X65292857Y77347620D01*
X63959523Y76347620D02*
X64530952Y76347620D01*
X64245238Y76347620D02*
X64245238Y77347620D01*
X64340476Y77204762D01*
X64435714Y77109524D01*
X64530952Y77061905D01*
X50109523Y66597620D02*
X50109523Y67597620D01*
X49871428Y67597620D01*
X49728571Y67550000D01*
X49633333Y67454762D01*
X49585714Y67359524D01*
X49538095Y67169048D01*
X49538095Y67026191D01*
X49585714Y66835715D01*
X49633333Y66740477D01*
X49728571Y66645239D01*
X49871428Y66597620D01*
X50109523Y66597620D01*
X49109523Y66597620D02*
X49109523Y67264286D01*
X49109523Y67597620D02*
X49157142Y67550000D01*
X49109523Y67502381D01*
X49061904Y67550000D01*
X49109523Y67597620D01*
X49109523Y67502381D01*
X48490476Y66597620D02*
X48585714Y66645239D01*
X48633333Y66692858D01*
X48680952Y66788096D01*
X48680952Y67073810D01*
X48633333Y67169048D01*
X48585714Y67216667D01*
X48490476Y67264286D01*
X48347619Y67264286D01*
X48252380Y67216667D01*
X48204761Y67169048D01*
X48157142Y67073810D01*
X48157142Y66788096D01*
X48204761Y66692858D01*
X48252380Y66645239D01*
X48347619Y66597620D01*
X48490476Y66597620D01*
X47300000Y66597620D02*
X47300000Y67597620D01*
X47300000Y66645239D02*
X47395238Y66597620D01*
X47585714Y66597620D01*
X47680952Y66645239D01*
X47728571Y66692858D01*
X47776190Y66788096D01*
X47776190Y67073810D01*
X47728571Y67169048D01*
X47680952Y67216667D01*
X47585714Y67264286D01*
X47395238Y67264286D01*
X47300000Y67216667D01*
X46442857Y66645239D02*
X46538095Y66597620D01*
X46728571Y66597620D01*
X46823809Y66645239D01*
X46871428Y66740477D01*
X46871428Y67121429D01*
X46823809Y67216667D01*
X46728571Y67264286D01*
X46538095Y67264286D01*
X46442857Y67216667D01*
X46395238Y67121429D01*
X46395238Y67026191D01*
X46871428Y66930953D01*
X45442857Y66597620D02*
X46014285Y66597620D01*
X45728571Y66597620D02*
X45728571Y67597620D01*
X45823809Y67454762D01*
X45919047Y67359524D01*
X46014285Y67311905D01*
X71857142Y70657143D02*
X71904761Y70704762D01*
X71952380Y70847620D01*
X71952380Y70942858D01*
X71904761Y71085715D01*
X71809523Y71180953D01*
X71714285Y71228572D01*
X71523809Y71276191D01*
X71380952Y71276191D01*
X71190476Y71228572D01*
X71095238Y71180953D01*
X71000000Y71085715D01*
X70952380Y70942858D01*
X70952380Y70847620D01*
X71000000Y70704762D01*
X71047619Y70657143D01*
X71952380Y70085715D02*
X71904761Y70180953D01*
X71857142Y70228572D01*
X71761904Y70276191D01*
X71476190Y70276191D01*
X71380952Y70228572D01*
X71333333Y70180953D01*
X71285714Y70085715D01*
X71285714Y69942858D01*
X71333333Y69847620D01*
X71380952Y69800000D01*
X71476190Y69752381D01*
X71761904Y69752381D01*
X71857142Y69800000D01*
X71904761Y69847620D01*
X71952380Y69942858D01*
X71952380Y70085715D01*
X71285714Y68895239D02*
X71952380Y68895239D01*
X71285714Y69323810D02*
X71809523Y69323810D01*
X71904761Y69276191D01*
X71952380Y69180953D01*
X71952380Y69038096D01*
X71904761Y68942858D01*
X71857142Y68895239D01*
X71285714Y68561905D02*
X71285714Y68180953D01*
X70952380Y68419048D02*
X71809523Y68419048D01*
X71904761Y68371429D01*
X71952380Y68276191D01*
X71952380Y68180953D01*
X71952380Y67323810D02*
X71952380Y67895239D01*
X71952380Y67609524D02*
X70952380Y67609524D01*
X71095238Y67704762D01*
X71190476Y67800000D01*
X71238095Y67895239D01*
X42807142Y51357143D02*
X42854761Y51404762D01*
X42902380Y51547620D01*
X42902380Y51642858D01*
X42854761Y51785715D01*
X42759523Y51880953D01*
X42664285Y51928572D01*
X42473809Y51976191D01*
X42330952Y51976191D01*
X42140476Y51928572D01*
X42045238Y51880953D01*
X41950000Y51785715D01*
X41902380Y51642858D01*
X41902380Y51547620D01*
X41950000Y51404762D01*
X41997619Y51357143D01*
X42902380Y50928572D02*
X42235714Y50928572D01*
X41902380Y50928572D02*
X41950000Y50976191D01*
X41997619Y50928572D01*
X41950000Y50880953D01*
X41902380Y50928572D01*
X41997619Y50928572D01*
X42235714Y50452381D02*
X42902380Y50452381D01*
X42330952Y50452381D02*
X42283333Y50404762D01*
X42235714Y50309524D01*
X42235714Y50166667D01*
X42283333Y50071429D01*
X42378571Y50023810D01*
X42902380Y50023810D01*
X42902380Y49023810D02*
X42902380Y49595239D01*
X42902380Y49309524D02*
X41902380Y49309524D01*
X42045238Y49404762D01*
X42140476Y49500000D01*
X42188095Y49595239D01*
X77638095Y63442858D02*
X77685714Y63395239D01*
X77828571Y63347620D01*
X77923809Y63347620D01*
X78066666Y63395239D01*
X78161904Y63490477D01*
X78209523Y63585715D01*
X78257142Y63776191D01*
X78257142Y63919048D01*
X78209523Y64109524D01*
X78161904Y64204762D01*
X78066666Y64300000D01*
X77923809Y64347620D01*
X77828571Y64347620D01*
X77685714Y64300000D01*
X77638095Y64252381D01*
X77352380Y64014286D02*
X76971428Y64014286D01*
X77209523Y63347620D02*
X77209523Y64204762D01*
X77161904Y64300000D01*
X77066666Y64347620D01*
X76971428Y64347620D01*
X76780952Y64014286D02*
X76400000Y64014286D01*
X76638095Y63347620D02*
X76638095Y64204762D01*
X76590476Y64300000D01*
X76495238Y64347620D01*
X76400000Y64347620D01*
X75542857Y63347620D02*
X76114285Y63347620D01*
X75828571Y63347620D02*
X75828571Y64347620D01*
X75923809Y64204762D01*
X76019047Y64109524D01*
X76114285Y64061905D01*
M02*
