G04 #@! TF.GenerationSoftware,KiCad,Pcbnew,(5.1.6)-1*
G04 #@! TF.CreationDate,2020-11-13T18:36:43+07:00*
G04 #@! TF.ProjectId,Clock,436c6f63-6b2e-46b6-9963-61645f706362,rev?*
G04 #@! TF.SameCoordinates,PX9d739e0PY13ae73c0*
G04 #@! TF.FileFunction,Soldermask,Bot*
G04 #@! TF.FilePolarity,Negative*
%FSLAX46Y46*%
G04 Gerber Fmt 4.6, Leading zero omitted, Abs format (unit mm)*
G04 Created by KiCad (PCBNEW (5.1.6)-1) date 2020-11-13 18:36:43*
%MOMM*%
%LPD*%
G01*
G04 APERTURE LIST*
%ADD10C,3.300000*%
%ADD11C,1.624000*%
%ADD12O,1.800000X1.800000*%
%ADD13R,1.800000X1.800000*%
%ADD14O,1.700000X1.700000*%
%ADD15C,1.700000*%
%ADD16C,2.440000*%
%ADD17O,2.500000X1.700000*%
%ADD18R,2.500000X1.700000*%
%ADD19O,1.700000X2.500000*%
%ADD20R,1.700000X2.500000*%
%ADD21O,2.600000X3.100000*%
%ADD22O,2.005000X2.100000*%
%ADD23R,2.005000X2.100000*%
%ADD24O,3.600000X3.600000*%
%ADD25C,1.300000*%
%ADD26R,1.300000X1.300000*%
%ADD27C,1.600000*%
%ADD28R,1.600000X1.600000*%
%ADD29R,2.100000X2.100000*%
%ADD30C,2.100000*%
%ADD31R,1.700000X1.700000*%
%ADD32O,1.375000X1.900000*%
%ADD33R,1.375000X1.900000*%
%ADD34C,1.540000*%
%ADD35R,3.600000X3.600000*%
%ADD36C,2.600000*%
G04 APERTURE END LIST*
D10*
X12700000Y12700000D03*
X12700000Y279400000D03*
X406400000Y279400000D03*
X406400000Y12700000D03*
D11*
X347550000Y270200000D03*
X339050000Y270200000D03*
X353950000Y207600000D03*
X345450000Y207600000D03*
D12*
X334360000Y209600000D03*
D13*
X336900000Y209600000D03*
D14*
X360540000Y209600000D03*
D15*
X370700000Y209600000D03*
D14*
X370660000Y205800000D03*
D15*
X360500000Y205800000D03*
D16*
X301100000Y239200000D03*
X296100000Y239200000D03*
X291100000Y239200000D03*
D17*
X292120000Y248800000D03*
X284500000Y256420000D03*
X292120000Y251340000D03*
X284500000Y253880000D03*
X292120000Y253880000D03*
X284500000Y251340000D03*
X292120000Y256420000D03*
D18*
X284500000Y248800000D03*
D12*
X300300000Y253540000D03*
D13*
X300300000Y251000000D03*
D17*
X188030000Y242950000D03*
X195650000Y225170000D03*
X188030000Y240410000D03*
X195650000Y227710000D03*
X188030000Y237870000D03*
X195650000Y230250000D03*
X188030000Y235330000D03*
X195650000Y232790000D03*
X188030000Y232790000D03*
X195650000Y235330000D03*
X188030000Y230250000D03*
X195650000Y237870000D03*
X188030000Y227710000D03*
X195650000Y240410000D03*
X188030000Y225170000D03*
D18*
X195650000Y242950000D03*
D17*
X239020000Y41200000D03*
X231400000Y58980000D03*
X239020000Y43740000D03*
X231400000Y56440000D03*
X239020000Y46280000D03*
X231400000Y53900000D03*
X239020000Y48820000D03*
X231400000Y51360000D03*
X239020000Y51360000D03*
X231400000Y48820000D03*
X239020000Y53900000D03*
X231400000Y46280000D03*
X239020000Y56440000D03*
X231400000Y43740000D03*
X239020000Y58980000D03*
D18*
X231400000Y41200000D03*
D19*
X215100000Y189620000D03*
X197320000Y182000000D03*
X212560000Y189620000D03*
X199860000Y182000000D03*
X210020000Y189620000D03*
X202400000Y182000000D03*
X207480000Y189620000D03*
X204940000Y182000000D03*
X204940000Y189620000D03*
X207480000Y182000000D03*
X202400000Y189620000D03*
X210020000Y182000000D03*
X199860000Y189620000D03*
X212560000Y182000000D03*
X197320000Y189620000D03*
D20*
X215100000Y182000000D03*
D14*
X363140000Y264200000D03*
D15*
X373300000Y264200000D03*
D14*
X373260000Y267600000D03*
D15*
X363100000Y267600000D03*
D14*
X373260000Y260800000D03*
D15*
X363100000Y260800000D03*
D14*
X373260000Y257400000D03*
D15*
X363100000Y257400000D03*
D21*
X346100000Y263200000D03*
X341100000Y263200000D03*
X346100000Y250700000D03*
X341100000Y250700000D03*
D12*
X341050000Y230170000D03*
X341050000Y217430000D03*
X341050000Y219970000D03*
X341050000Y222530000D03*
X341050000Y225070000D03*
X341050000Y227610000D03*
X376350000Y222520000D03*
X376350000Y225060000D03*
D13*
X376350000Y227600000D03*
D12*
X376350000Y219980000D03*
D22*
X353620000Y243400000D03*
X356160000Y243400000D03*
D23*
X358700000Y243400000D03*
D24*
X356160000Y260060000D03*
D25*
X364300000Y247400000D03*
D26*
X364300000Y245400000D03*
D25*
X364300000Y238400000D03*
D26*
X364300000Y240400000D03*
D13*
X373250000Y241000000D03*
D12*
X373250000Y243540000D03*
X370710000Y241000000D03*
X373250000Y246080000D03*
X370710000Y243540000D03*
X370710000Y246080000D03*
X370710000Y248620000D03*
X373250000Y248620000D03*
X312416640Y237765080D03*
X312416640Y255545080D03*
X312416640Y250465080D03*
X312416640Y214905080D03*
X312416640Y225065080D03*
X312416640Y253005080D03*
X312416640Y235225080D03*
X312416640Y209825080D03*
X312416640Y219985080D03*
X312416640Y247925080D03*
X312416640Y242845080D03*
X312416640Y230145080D03*
X312416640Y212365080D03*
X312416640Y258085080D03*
X312416640Y240305080D03*
X312416640Y227605080D03*
X312416640Y222525080D03*
X312416640Y245385080D03*
X312416640Y217445080D03*
X312416640Y232685080D03*
X327416640Y227605080D03*
X327416640Y245385080D03*
X327416640Y253005080D03*
X327416640Y235225080D03*
X327416640Y214905080D03*
X327416640Y222525080D03*
X327416640Y240305080D03*
X327416640Y247925080D03*
X327416640Y209825080D03*
X327416640Y219985080D03*
X327416640Y250465080D03*
X327416640Y225065080D03*
X327416640Y212365080D03*
D13*
X327416640Y258085080D03*
D12*
X327416640Y255545080D03*
X327416640Y242845080D03*
X327416640Y230145080D03*
X327416640Y237765080D03*
X327416640Y217445080D03*
X327416640Y232685080D03*
D17*
X209520000Y41200000D03*
X201900000Y58980000D03*
X209520000Y43740000D03*
X201900000Y56440000D03*
X209520000Y46280000D03*
X201900000Y53900000D03*
X209520000Y48820000D03*
X201900000Y51360000D03*
X209520000Y51360000D03*
X201900000Y48820000D03*
X209520000Y53900000D03*
X201900000Y46280000D03*
X209520000Y56440000D03*
X201900000Y43740000D03*
X209520000Y58980000D03*
D18*
X201900000Y41200000D03*
D17*
X188270000Y41450000D03*
X180650000Y59230000D03*
X188270000Y43990000D03*
X180650000Y56690000D03*
X188270000Y46530000D03*
X180650000Y54150000D03*
X188270000Y49070000D03*
X180650000Y51610000D03*
X188270000Y51610000D03*
X180650000Y49070000D03*
X188270000Y54150000D03*
X180650000Y46530000D03*
X188270000Y56690000D03*
X180650000Y43990000D03*
X188270000Y59230000D03*
D18*
X180650000Y41450000D03*
D17*
X221520000Y225200000D03*
X213900000Y242980000D03*
X221520000Y227740000D03*
X213900000Y240440000D03*
X221520000Y230280000D03*
X213900000Y237900000D03*
X221520000Y232820000D03*
X213900000Y235360000D03*
X221520000Y235360000D03*
X213900000Y232820000D03*
X221520000Y237900000D03*
X213900000Y230280000D03*
X221520000Y240440000D03*
X213900000Y227740000D03*
X221520000Y242980000D03*
D18*
X213900000Y225200000D03*
D17*
X253270000Y224700000D03*
X245650000Y242480000D03*
X253270000Y227240000D03*
X245650000Y239940000D03*
X253270000Y229780000D03*
X245650000Y237400000D03*
X253270000Y232320000D03*
X245650000Y234860000D03*
X253270000Y234860000D03*
X245650000Y232320000D03*
X253270000Y237400000D03*
X245650000Y229780000D03*
X253270000Y239940000D03*
X245650000Y227240000D03*
X253270000Y242480000D03*
D18*
X245650000Y224700000D03*
D27*
X250740000Y64200000D03*
X255820000Y64200000D03*
X260900000Y64200000D03*
X265980000Y64200000D03*
X271060000Y64200000D03*
X271060000Y40200000D03*
X265980000Y40200000D03*
X260900000Y40200000D03*
X255820000Y40200000D03*
D28*
X250740000Y40200000D03*
D27*
X154740000Y245200000D03*
X159820000Y245200000D03*
X164900000Y245200000D03*
X169980000Y245200000D03*
X175060000Y245200000D03*
X175060000Y221200000D03*
X169980000Y221200000D03*
X164900000Y221200000D03*
X159820000Y221200000D03*
D28*
X154740000Y221200000D03*
D27*
X77740000Y245200000D03*
X82820000Y245200000D03*
X87900000Y245200000D03*
X92980000Y245200000D03*
X98060000Y245200000D03*
X98060000Y221200000D03*
X92980000Y221200000D03*
X87900000Y221200000D03*
X82820000Y221200000D03*
D28*
X77740000Y221200000D03*
D27*
X39240000Y245200000D03*
X44320000Y245200000D03*
X49400000Y245200000D03*
X54480000Y245200000D03*
X59560000Y245200000D03*
X59560000Y221200000D03*
X54480000Y221200000D03*
X49400000Y221200000D03*
X44320000Y221200000D03*
D28*
X39240000Y221200000D03*
D14*
X248350000Y182140000D03*
D15*
X248350000Y192300000D03*
D29*
X65336000Y89100000D03*
D30*
X70416000Y89100000D03*
X75496000Y89100000D03*
X80576000Y89100000D03*
X85656000Y89100000D03*
X85656000Y196100000D03*
X80576000Y196100000D03*
X75496000Y196100000D03*
X70416000Y196100000D03*
X65336000Y196100000D03*
D29*
X156776000Y89100000D03*
D30*
X161856000Y89100000D03*
X166936000Y89100000D03*
X172016000Y89100000D03*
X177096000Y89100000D03*
X177096000Y196100000D03*
X172016000Y196100000D03*
X166936000Y196100000D03*
X161856000Y196100000D03*
X156776000Y196100000D03*
X268660000Y89100000D03*
X263580000Y89100000D03*
X258500000Y89100000D03*
X253420000Y89100000D03*
X248340000Y89100000D03*
X248340000Y196100000D03*
X253420000Y196100000D03*
X258500000Y196100000D03*
X263580000Y196100000D03*
D29*
X268660000Y196100000D03*
D27*
X366240000Y64200000D03*
X371320000Y64200000D03*
X376400000Y64200000D03*
X381480000Y64200000D03*
X386560000Y64200000D03*
X386560000Y40200000D03*
X381480000Y40200000D03*
X376400000Y40200000D03*
X371320000Y40200000D03*
D28*
X366240000Y40200000D03*
D27*
X327740000Y64200000D03*
X332820000Y64200000D03*
X337900000Y64200000D03*
X342980000Y64200000D03*
X348060000Y64200000D03*
X348060000Y40200000D03*
X342980000Y40200000D03*
X337900000Y40200000D03*
X332820000Y40200000D03*
D28*
X327740000Y40200000D03*
D19*
X214650000Y175420000D03*
X199410000Y167800000D03*
X212110000Y175420000D03*
X201950000Y167800000D03*
X209570000Y175420000D03*
X204490000Y167800000D03*
X207030000Y175420000D03*
X207030000Y167800000D03*
X204490000Y175420000D03*
X209570000Y167800000D03*
X201950000Y175420000D03*
X212110000Y167800000D03*
X199410000Y175420000D03*
D20*
X214650000Y167800000D03*
D17*
X209570000Y135550000D03*
X201950000Y150790000D03*
X209570000Y138090000D03*
X201950000Y148250000D03*
X209570000Y140630000D03*
X201950000Y145710000D03*
X209570000Y143170000D03*
X201950000Y143170000D03*
X209570000Y145710000D03*
X201950000Y140630000D03*
X209570000Y148250000D03*
X201950000Y138090000D03*
X209570000Y150790000D03*
D18*
X201950000Y135550000D03*
D27*
X289240000Y64200000D03*
X294320000Y64200000D03*
X299400000Y64200000D03*
X304480000Y64200000D03*
X309560000Y64200000D03*
X309560000Y40200000D03*
X304480000Y40200000D03*
X299400000Y40200000D03*
X294320000Y40200000D03*
D28*
X289240000Y40200000D03*
D17*
X159170000Y135500000D03*
X151550000Y153280000D03*
X159170000Y138040000D03*
X151550000Y150740000D03*
X159170000Y140580000D03*
X151550000Y148200000D03*
X159170000Y143120000D03*
X151550000Y145660000D03*
X159170000Y145660000D03*
X151550000Y143120000D03*
X159170000Y148200000D03*
X151550000Y140580000D03*
X159170000Y150740000D03*
X151550000Y138040000D03*
X159170000Y153280000D03*
D18*
X151550000Y135500000D03*
D22*
X111220000Y63800000D03*
X113760000Y63800000D03*
D23*
X116300000Y63800000D03*
D24*
X113760000Y47140000D03*
D22*
X98220000Y63800000D03*
X100760000Y63800000D03*
D23*
X103300000Y63800000D03*
D24*
X100760000Y47140000D03*
D14*
X192160000Y89100000D03*
D15*
X182000000Y89100000D03*
D17*
X225420000Y135500000D03*
X217800000Y153280000D03*
X225420000Y138040000D03*
X217800000Y150740000D03*
X225420000Y140580000D03*
X217800000Y148200000D03*
X225420000Y143120000D03*
X217800000Y145660000D03*
X225420000Y145660000D03*
X217800000Y143120000D03*
X225420000Y148200000D03*
X217800000Y140580000D03*
X225420000Y150740000D03*
X217800000Y138040000D03*
X225420000Y153280000D03*
D18*
X217800000Y135500000D03*
D17*
X186970000Y135550000D03*
X179350000Y153330000D03*
X186970000Y138090000D03*
X179350000Y150790000D03*
X186970000Y140630000D03*
X179350000Y148250000D03*
X186970000Y143170000D03*
X179350000Y145710000D03*
X186970000Y145710000D03*
X179350000Y143170000D03*
X186970000Y148250000D03*
X179350000Y140630000D03*
X186970000Y150790000D03*
X179350000Y138090000D03*
X186970000Y153330000D03*
D18*
X179350000Y135550000D03*
D15*
X123900000Y61800000D03*
D31*
X123900000Y63800000D03*
D25*
X90100000Y62400000D03*
D26*
X90100000Y64400000D03*
D15*
X123900000Y53800000D03*
D31*
X123900000Y55800000D03*
D25*
X90200000Y53800000D03*
D26*
X90200000Y55800000D03*
D27*
X116290000Y245200000D03*
X121370000Y245200000D03*
X126450000Y245200000D03*
X131530000Y245200000D03*
X136610000Y245200000D03*
X136610000Y221200000D03*
X131530000Y221200000D03*
X126450000Y221200000D03*
X121370000Y221200000D03*
D28*
X116290000Y221200000D03*
D32*
X67000000Y63800000D03*
X65300000Y63800000D03*
X63600000Y63800000D03*
X61900000Y63800000D03*
D33*
X60200000Y63800000D03*
D24*
X63600000Y47140000D03*
D34*
X48600000Y61050000D03*
X51140000Y63590000D03*
X53680000Y61050000D03*
D14*
X81910000Y62350000D03*
D15*
X71750000Y62350000D03*
D14*
X33640000Y62600000D03*
D15*
X43800000Y62600000D03*
G36*
G01*
X5360000Y46470000D02*
X5360000Y48270000D01*
G75*
G02*
X6260000Y49170000I900000J0D01*
G01*
X8060000Y49170000D01*
G75*
G02*
X8960000Y48270000I0J-900000D01*
G01*
X8960000Y46470000D01*
G75*
G02*
X8060000Y45570000I-900000J0D01*
G01*
X6260000Y45570000D01*
G75*
G02*
X5360000Y46470000I0J900000D01*
G01*
G37*
G36*
G01*
X2610000Y51045000D02*
X2610000Y53095000D01*
G75*
G02*
X3385000Y53870000I775000J0D01*
G01*
X4935000Y53870000D01*
G75*
G02*
X5710000Y53095000I0J-775000D01*
G01*
X5710000Y51045000D01*
G75*
G02*
X4935000Y50270000I-775000J0D01*
G01*
X3385000Y50270000D01*
G75*
G02*
X2610000Y51045000I0J775000D01*
G01*
G37*
D35*
X10160000Y52070000D03*
D27*
X67400000Y71050000D03*
X61900000Y71050000D03*
D36*
X38800000Y71050000D03*
X56800000Y71050000D03*
D15*
X76750000Y67550000D03*
D31*
X76750000Y71050000D03*
D30*
X48700000Y48000000D03*
D29*
X48700000Y53000000D03*
D11*
X81150000Y55800000D03*
X72650000Y55800000D03*
D29*
X339940000Y89000000D03*
D30*
X345020000Y89000000D03*
X350100000Y89000000D03*
X355180000Y89000000D03*
X360260000Y89000000D03*
X360260000Y196000000D03*
X355180000Y196000000D03*
X350100000Y196000000D03*
X345020000Y196000000D03*
X339940000Y196000000D03*
M02*
