M48
INCH,LZ
T1C0.0157
T2C0.0236
T3C0.0300
T4C0.0315
T5C0.0394
T6C0.0413
T7C0.0433
T8C0.0472
T9C0.0512
T10C0.0689
%
G90
G05
T1
X015217Y036496
X028602Y031772
X028602Y031772
X035295Y035315
X053504Y058839
X056161Y076063
X057244Y034724
X057244Y03187
X06187Y078524
X063937Y081575
X064547Y050571
X065723Y071372
X066398Y059724
X066909Y069134
X067165Y04689
X067776Y016516
X068169Y061496
X070276Y062618
X070335Y013957
X070531Y011693
X072402Y013957
X0725Y062677
X0725Y060118
X073189Y02685
X074075Y067008
X074862Y028031
X074862Y010315
X075059Y013957
X075157Y071083
X075453Y03
X076555Y05311
X076575Y077992
X076831Y030591
X077815Y084921
X078602Y087283
X079035Y05063
X07939Y027343
X079587Y084331
X07998Y025669
X080709Y055098
X080768Y094075
X081339Y057618
X081555Y081181
X082539Y092303
X082835Y081969
X083839Y062185
X084705Y052697
X085276Y082657
X085413Y063327
X085492Y069764
X085512Y061929
X086083Y042894
X08628Y048307
X08628Y032165
X087067Y074291
X087067Y071535
X087067Y070748
X087067Y069764
X087203Y081576
X087264Y010807
X087283Y098031
X08815Y037874
X08815Y037874
X088346Y071142
X088346Y070157
X088346Y067559
X088445Y068484
X088465Y069075
X08874Y012677
X088839Y096339
X089469Y080413
X089724Y077992
X089724Y042894
X089823Y070157
X089921Y096929
X090906Y043189
X091102Y012874
X09124Y05063
X091457Y065827
X092283Y081575
X092461Y043327
X093287Y059094
X093563Y094075
X09376Y101949
X094252Y078819
X094547Y083346
X094606Y073642
X094843Y074488
X09498Y03626
X095138Y070157
X095236Y077835
X095394Y033091
X095522Y061762
X095551Y056831
X09563Y081575
X096555Y055945
X097303Y085709
X097402Y083346
X097697Y072815
X097776Y062598
X097776Y057028
X098091Y081673
X09878Y096831
X09878Y070157
X098878Y068976
X098878Y064449
X099665Y055295
X100453Y098504
X100748Y096831
X100748Y027146
X101043Y099882
X10124Y097815
X10248Y101969
X102913Y098209
X103012Y022126
X103346Y037933
X103524Y082657
X103602Y087382
X103799Y085807
X10498Y082854
X105571Y083543
X105965Y053622
X107047Y09122
X107343Y064941
X107736Y029803
X107933Y028425
X108031Y088268
X108228Y013366
X108406Y076713
X108406Y069685
X108917Y039449
X109114Y073996
X109705Y073799
X110098Y015335
X110492Y094075
X110886Y022126
X110984Y069961
X110984Y01937
X111476Y086004
X112953Y071929
X115394Y077638
X116791Y077539
X116791Y075768
X11752Y091417
X117579Y086004
X131772Y101181
X134291Y092913
X135492Y055098
X142559Y084488
X142717Y090315
X145236Y099528
T2
X035472Y025354
X035472Y024567
X143425Y094646
X035512Y021969
X035512Y021181
X143425Y097402
X143425Y096614
X143425Y093858
T3
X136004Y081732
X13935Y081732
X133484Y106378
X136831Y106378
X028602Y021969
X031949Y021969
T4
X060921Y096535
X060921Y087087
X062921Y096535
X062921Y087087
X064921Y096535
X064921Y087087
X066921Y096535
X066921Y087087
X068921Y096535
X068921Y087087
X142953Y101339
X146953Y101339
X142953Y105354
X146953Y105354
X04878Y025118
X04878Y024331
X077685Y074654
X077685Y071654
X078685Y074654
X078685Y071654
X079685Y074654
X079685Y071654
X080685Y074654
X080685Y071654
X081685Y074654
X081685Y071654
X082685Y074654
X082685Y071654
X083685Y074654
X083685Y071654
X084685Y074654
X084685Y071654
X129031Y025276
X129031Y015827
X131031Y025276
X131031Y015827
X133031Y025276
X133031Y015827
X135031Y025276
X135031Y015827
X137031Y025276
X137031Y015827
X142953Y102677
X146953Y102677
X074028Y09565
X074028Y09465
X074028Y09365
X074028Y09265
X074028Y09165
X074028Y09065
X074028Y08965
X074028Y08865
X077028Y09565
X077028Y09465
X077028Y09365
X077028Y09265
X077028Y09165
X077028Y09065
X077028Y08965
X077028Y08865
X098717Y025276
X098717Y015827
X100717Y025276
X100717Y015827
X102717Y025276
X102717Y015827
X104717Y025276
X104717Y015827
X106717Y025276
X106717Y015827
X013244Y024646
X017244Y024646
X071122Y023319
X071122Y022319
X071122Y021319
X071122Y020319
X071122Y019319
X071122Y018319
X071122Y017319
X071122Y016319
X074122Y023319
X074122Y022319
X074122Y021319
X074122Y020319
X074122Y019319
X074122Y018319
X074122Y017319
X074122Y016319
X141929Y081024
X145929Y081024
X059665Y060346
X059665Y059346
X059665Y058346
X059665Y057346
X059665Y056346
X059665Y055346
X059665Y054346
X059665Y053346
X062665Y060346
X062665Y059346
X062665Y058346
X062665Y057346
X062665Y056346
X062665Y055346
X062665Y054346
X062665Y053346
X078508Y069063
X078508Y066063
X079508Y069063
X079508Y066063
X080508Y069063
X080508Y066063
X081508Y069063
X081508Y066063
X082508Y069063
X082508Y066063
X083508Y069063
X083508Y066063
X084508Y069063
X084508Y066063
X028248Y024547
X032248Y024547
X096713Y095465
X096713Y094465
X096713Y093465
X096713Y092465
X096713Y091465
X096713Y090465
X096713Y089465
X096713Y088465
X099713Y095465
X099713Y094465
X099713Y093465
X099713Y092465
X099713Y091465
X099713Y090465
X099713Y089465
X099713Y088465
X030217Y027972
X030217Y026594
X079488Y02322
X079488Y02222
X079488Y02122
X079488Y02022
X079488Y01922
X079488Y01822
X079488Y01722
X079488Y01622
X082488Y02322
X082488Y02222
X082488Y02122
X082488Y02022
X082488Y01922
X082488Y01822
X082488Y01722
X082488Y01622
X141945Y08252
X145945Y08252
X030606Y096535
X030606Y087087
X032606Y096535
X032606Y087087
X034606Y096535
X034606Y087087
X036606Y096535
X036606Y087087
X038606Y096535
X038606Y087087
X079508Y059366
X079508Y058366
X079508Y057366
X079508Y056366
X079508Y055366
X079508Y054366
X079508Y053366
X082508Y059366
X082508Y058366
X082508Y057366
X082508Y056366
X082508Y055366
X082508Y054366
X082508Y053366
X144189Y025276
X144189Y015827
X146189Y025276
X146189Y015827
X148189Y025276
X148189Y015827
X150189Y025276
X150189Y015827
X152189Y025276
X152189Y015827
X045783Y096535
X045783Y087087
X047783Y096535
X047783Y087087
X049783Y096535
X049783Y087087
X051783Y096535
X051783Y087087
X053783Y096535
X053783Y087087
X084213Y095661
X084213Y094661
X084213Y093661
X084213Y092661
X084213Y091661
X084213Y090661
X084213Y089661
X084213Y088661
X087213Y095661
X087213Y094661
X087213Y093661
X087213Y092661
X087213Y091661
X087213Y090661
X087213Y089661
X087213Y088661
X019134Y024035
X020134Y025035
X021134Y024035
X112008Y100953
X112008Y099953
X112008Y098953
X112008Y097953
X115008Y100953
X115008Y099953
X115008Y098953
X115008Y097953
X071654Y035079
X075654Y035079
X113874Y025276
X113874Y015827
X115874Y025276
X115874Y015827
X117874Y025276
X117874Y015827
X119874Y025276
X119874Y015827
X121874Y025276
X121874Y015827
X07061Y060366
X07061Y059366
X07061Y058366
X07061Y057366
X07061Y056366
X07061Y055366
X07061Y054366
X07061Y053366
X07361Y060366
X07361Y059366
X07361Y058366
X07361Y057366
X07361Y056366
X07361Y055366
X07361Y054366
X07361Y053366
X04878Y021969
X04878Y021181
X085748Y060346
X085748Y059346
X085748Y058346
X085748Y057346
X085748Y056346
X085748Y055346
X085748Y054346
X085748Y053346
X088748Y060346
X088748Y059346
X088748Y058346
X088748Y057346
X088748Y056346
X088748Y055346
X088748Y054346
X088748Y053346
X097776Y075709
X097776Y071709
X015449Y096535
X015449Y087087
X017449Y096535
X017449Y087087
X019449Y096535
X019449Y087087
X021449Y096535
X021449Y087087
X023449Y096535
X023449Y087087
X091102Y02322
X091102Y02222
X091102Y02122
X091102Y02022
X091102Y01922
X091102Y01822
X091102Y01722
X091102Y01622
X094102Y02322
X094102Y02222
X094102Y02122
X094102Y02022
X094102Y01922
X094102Y01822
X094102Y01722
X094102Y01622
X142969Y104016
X146969Y104016
T5
X02437Y027972
X026535Y027972
X131638Y08252
X132638Y08252
X145949Y097882
X145949Y096882
X145949Y095882
X145949Y094882
X146949Y097882
X146949Y096882
X146949Y095882
X146949Y094882
X118228Y099819
X118228Y098819
X122999Y101608
X122999Y100608
X122999Y099608
X122999Y098608
X122999Y097608
X122999Y096608
X122999Y095608
X122999Y094608
X122999Y093608
X122999Y092608
X122999Y091608
X122999Y090608
X122999Y089608
X122999Y088608
X122999Y087608
X122999Y086608
X122999Y085608
X122999Y084608
X122999Y083608
X122999Y082608
X128904Y101608
X128904Y100608
X128904Y099608
X128904Y098608
X128904Y097608
X128904Y096608
X128904Y095608
X128904Y094608
X128904Y093608
X128904Y092608
X128904Y091608
X128904Y090608
X128904Y089608
X128904Y088608
X128904Y087608
X128904Y086608
X128904Y085608
X128904Y084608
X128904Y083608
X128904Y082608
X019173Y020866
X019173Y018898
X134272Y090618
X134272Y08961
X134272Y08861
X134272Y08761
X134272Y086602
X134272Y085602
X148169Y089606
X148169Y088606
X148169Y087606
X148169Y086606
T6
X061723Y077205
X061723Y035079
X063723Y077205
X063723Y035079
X065723Y077205
X065723Y035079
X067723Y077205
X067723Y035079
X069723Y077205
X069723Y035079
X133835Y077165
X133835Y035039
X135835Y077165
X135835Y035039
X137835Y077165
X137835Y035039
X139835Y077165
X139835Y035039
X141835Y077165
X141835Y035039
X025723Y077205
X025723Y035079
X027723Y077205
X027723Y035079
X029723Y077205
X029723Y035079
X031723Y077205
X031723Y035079
X033723Y077205
X033723Y035079
X097772Y077205
X097772Y035079
X099772Y077205
X099772Y035079
X101772Y077205
X101772Y035079
X103772Y077205
X103772Y035079
X105772Y077205
X105772Y035079
T7
X13922Y095827
X14022Y095827
X14122Y095827
X038669Y025118
X039669Y025118
X040669Y025118
X023701Y025118
X02437Y025118
X025039Y025118
X025709Y025118
X026378Y025118
X043787Y025118
X044787Y025118
X045787Y025118
T8
X134291Y103622
X134291Y098701
X13626Y103622
X13626Y098701
T9
X114606Y094173
X116575Y094173
X118543Y094173
T10
X015276Y027972
X022362Y027972
T5
G00X001638Y020894
M15
G01X001638Y020106
M16
G05
G00X002425Y01865
M15
G01X003213Y01865
M16
G05
G00X004Y020894
M15
G01X004Y020106
M16
G05
T0
M30
