G04 #@! TF.GenerationSoftware,KiCad,Pcbnew,(5.1.6)-1*
G04 #@! TF.CreationDate,2020-11-13T18:36:43+07:00*
G04 #@! TF.ProjectId,Clock,436c6f63-6b2e-46b6-9963-61645f706362,rev?*
G04 #@! TF.SameCoordinates,PX9d739e0PY13ae73c0*
G04 #@! TF.FileFunction,Legend,Top*
G04 #@! TF.FilePolarity,Positive*
%FSLAX46Y46*%
G04 Gerber Fmt 4.6, Leading zero omitted, Abs format (unit mm)*
G04 Created by KiCad (PCBNEW (5.1.6)-1) date 2020-11-13 18:36:43*
%MOMM*%
%LPD*%
G01*
G04 APERTURE LIST*
%ADD10C,0.120000*%
%ADD11C,0.150000*%
G04 APERTURE END LIST*
D10*
X241900000Y24200000D02*
X279900000Y24200000D01*
X279900000Y24200000D02*
X279900000Y80200000D01*
X279900000Y80200000D02*
X279900000Y80200000D01*
X241900000Y80200000D02*
X279900000Y80200000D01*
X279900000Y24200000D02*
X279900000Y24200000D01*
X241900000Y80200000D02*
X241900000Y80200000D01*
X241900000Y24200000D02*
X241900000Y80200000D01*
X241900000Y24200000D02*
X241900000Y24200000D01*
X253900000Y64200000D02*
X255900000Y62200000D01*
X255900000Y62200000D02*
X265900000Y62200000D01*
X267900000Y64200000D02*
X265900000Y62200000D01*
X253900000Y64200000D02*
X267900000Y64200000D01*
X253400000Y63700000D02*
X255400000Y61700000D01*
X255400000Y61700000D02*
X255400000Y53700000D01*
X255400000Y53700000D02*
X254400000Y52700000D01*
X254400000Y52700000D02*
X253400000Y53700000D01*
X253400000Y63700000D02*
X253400000Y53700000D01*
X268400000Y63700000D02*
X266400000Y61700000D01*
X268400000Y53700000D02*
X268400000Y63700000D01*
X267400000Y52700000D02*
X268400000Y53700000D01*
X266400000Y53700000D02*
X267400000Y52700000D01*
X266400000Y61700000D02*
X266400000Y53700000D01*
X254900000Y52200000D02*
X255900000Y53200000D01*
X255900000Y53200000D02*
X265900000Y53200000D01*
X265900000Y53200000D02*
X266900000Y52200000D01*
X266900000Y52200000D02*
X265900000Y51200000D01*
X265900000Y51200000D02*
X255900000Y51200000D01*
X255900000Y51200000D02*
X254900000Y52200000D01*
X253400000Y50700000D02*
X254400000Y51700000D01*
X253400000Y50700000D02*
X253400000Y40700000D01*
X253400000Y40700000D02*
X255400000Y42700000D01*
X255400000Y50700000D02*
X255400000Y42700000D01*
X254400000Y51700000D02*
X255400000Y50700000D01*
X267900000Y40200000D02*
X253900000Y40200000D01*
X265900000Y42200000D02*
X267900000Y40200000D01*
X255900000Y42200000D02*
X265900000Y42200000D01*
X255900000Y42200000D02*
X253900000Y40200000D01*
X266400000Y42700000D02*
X266400000Y50700000D01*
X268400000Y40700000D02*
X266400000Y42700000D01*
X268400000Y50700000D02*
X268400000Y40700000D01*
X267400000Y51700000D02*
X268400000Y50700000D01*
X266400000Y50700000D02*
X267400000Y51700000D01*
X272900000Y41200000D02*
G75*
G03*
X272900000Y41200000I-1000000J0D01*
G01*
X145900000Y205200000D02*
X183900000Y205200000D01*
X183900000Y205200000D02*
X183900000Y261200000D01*
X183900000Y261200000D02*
X183900000Y261200000D01*
X145900000Y261200000D02*
X183900000Y261200000D01*
X183900000Y205200000D02*
X183900000Y205200000D01*
X145900000Y261200000D02*
X145900000Y261200000D01*
X145900000Y205200000D02*
X145900000Y261200000D01*
X145900000Y205200000D02*
X145900000Y205200000D01*
X157900000Y245200000D02*
X159900000Y243200000D01*
X159900000Y243200000D02*
X169900000Y243200000D01*
X171900000Y245200000D02*
X169900000Y243200000D01*
X157900000Y245200000D02*
X171900000Y245200000D01*
X157400000Y244700000D02*
X159400000Y242700000D01*
X159400000Y242700000D02*
X159400000Y234700000D01*
X159400000Y234700000D02*
X158400000Y233700000D01*
X158400000Y233700000D02*
X157400000Y234700000D01*
X157400000Y244700000D02*
X157400000Y234700000D01*
X172400000Y244700000D02*
X170400000Y242700000D01*
X172400000Y234700000D02*
X172400000Y244700000D01*
X171400000Y233700000D02*
X172400000Y234700000D01*
X170400000Y234700000D02*
X171400000Y233700000D01*
X170400000Y242700000D02*
X170400000Y234700000D01*
X158900000Y233200000D02*
X159900000Y234200000D01*
X159900000Y234200000D02*
X169900000Y234200000D01*
X169900000Y234200000D02*
X170900000Y233200000D01*
X170900000Y233200000D02*
X169900000Y232200000D01*
X169900000Y232200000D02*
X159900000Y232200000D01*
X159900000Y232200000D02*
X158900000Y233200000D01*
X157400000Y231700000D02*
X158400000Y232700000D01*
X157400000Y231700000D02*
X157400000Y221700000D01*
X157400000Y221700000D02*
X159400000Y223700000D01*
X159400000Y231700000D02*
X159400000Y223700000D01*
X158400000Y232700000D02*
X159400000Y231700000D01*
X171900000Y221200000D02*
X157900000Y221200000D01*
X169900000Y223200000D02*
X171900000Y221200000D01*
X159900000Y223200000D02*
X169900000Y223200000D01*
X159900000Y223200000D02*
X157900000Y221200000D01*
X170400000Y223700000D02*
X170400000Y231700000D01*
X172400000Y221700000D02*
X170400000Y223700000D01*
X172400000Y231700000D02*
X172400000Y221700000D01*
X171400000Y232700000D02*
X172400000Y231700000D01*
X170400000Y231700000D02*
X171400000Y232700000D01*
X176900000Y222200000D02*
G75*
G03*
X176900000Y222200000I-1000000J0D01*
G01*
X68900000Y205200000D02*
X106900000Y205200000D01*
X106900000Y205200000D02*
X106900000Y261200000D01*
X106900000Y261200000D02*
X106900000Y261200000D01*
X68900000Y261200000D02*
X106900000Y261200000D01*
X106900000Y205200000D02*
X106900000Y205200000D01*
X68900000Y261200000D02*
X68900000Y261200000D01*
X68900000Y205200000D02*
X68900000Y261200000D01*
X68900000Y205200000D02*
X68900000Y205200000D01*
X80900000Y245200000D02*
X82900000Y243200000D01*
X82900000Y243200000D02*
X92900000Y243200000D01*
X94900000Y245200000D02*
X92900000Y243200000D01*
X80900000Y245200000D02*
X94900000Y245200000D01*
X80400000Y244700000D02*
X82400000Y242700000D01*
X82400000Y242700000D02*
X82400000Y234700000D01*
X82400000Y234700000D02*
X81400000Y233700000D01*
X81400000Y233700000D02*
X80400000Y234700000D01*
X80400000Y244700000D02*
X80400000Y234700000D01*
X95400000Y244700000D02*
X93400000Y242700000D01*
X95400000Y234700000D02*
X95400000Y244700000D01*
X94400000Y233700000D02*
X95400000Y234700000D01*
X93400000Y234700000D02*
X94400000Y233700000D01*
X93400000Y242700000D02*
X93400000Y234700000D01*
X81900000Y233200000D02*
X82900000Y234200000D01*
X82900000Y234200000D02*
X92900000Y234200000D01*
X92900000Y234200000D02*
X93900000Y233200000D01*
X93900000Y233200000D02*
X92900000Y232200000D01*
X92900000Y232200000D02*
X82900000Y232200000D01*
X82900000Y232200000D02*
X81900000Y233200000D01*
X80400000Y231700000D02*
X81400000Y232700000D01*
X80400000Y231700000D02*
X80400000Y221700000D01*
X80400000Y221700000D02*
X82400000Y223700000D01*
X82400000Y231700000D02*
X82400000Y223700000D01*
X81400000Y232700000D02*
X82400000Y231700000D01*
X94900000Y221200000D02*
X80900000Y221200000D01*
X92900000Y223200000D02*
X94900000Y221200000D01*
X82900000Y223200000D02*
X92900000Y223200000D01*
X82900000Y223200000D02*
X80900000Y221200000D01*
X93400000Y223700000D02*
X93400000Y231700000D01*
X95400000Y221700000D02*
X93400000Y223700000D01*
X95400000Y231700000D02*
X95400000Y221700000D01*
X94400000Y232700000D02*
X95400000Y231700000D01*
X93400000Y231700000D02*
X94400000Y232700000D01*
X99900000Y222200000D02*
G75*
G03*
X99900000Y222200000I-1000000J0D01*
G01*
X30400000Y205200000D02*
X68400000Y205200000D01*
X68400000Y205200000D02*
X68400000Y261200000D01*
X68400000Y261200000D02*
X68400000Y261200000D01*
X30400000Y261200000D02*
X68400000Y261200000D01*
X68400000Y205200000D02*
X68400000Y205200000D01*
X30400000Y261200000D02*
X30400000Y261200000D01*
X30400000Y205200000D02*
X30400000Y261200000D01*
X30400000Y205200000D02*
X30400000Y205200000D01*
X42400000Y245200000D02*
X44400000Y243200000D01*
X44400000Y243200000D02*
X54400000Y243200000D01*
X56400000Y245200000D02*
X54400000Y243200000D01*
X42400000Y245200000D02*
X56400000Y245200000D01*
X41900000Y244700000D02*
X43900000Y242700000D01*
X43900000Y242700000D02*
X43900000Y234700000D01*
X43900000Y234700000D02*
X42900000Y233700000D01*
X42900000Y233700000D02*
X41900000Y234700000D01*
X41900000Y244700000D02*
X41900000Y234700000D01*
X56900000Y244700000D02*
X54900000Y242700000D01*
X56900000Y234700000D02*
X56900000Y244700000D01*
X55900000Y233700000D02*
X56900000Y234700000D01*
X54900000Y234700000D02*
X55900000Y233700000D01*
X54900000Y242700000D02*
X54900000Y234700000D01*
X43400000Y233200000D02*
X44400000Y234200000D01*
X44400000Y234200000D02*
X54400000Y234200000D01*
X54400000Y234200000D02*
X55400000Y233200000D01*
X55400000Y233200000D02*
X54400000Y232200000D01*
X54400000Y232200000D02*
X44400000Y232200000D01*
X44400000Y232200000D02*
X43400000Y233200000D01*
X41900000Y231700000D02*
X42900000Y232700000D01*
X41900000Y231700000D02*
X41900000Y221700000D01*
X41900000Y221700000D02*
X43900000Y223700000D01*
X43900000Y231700000D02*
X43900000Y223700000D01*
X42900000Y232700000D02*
X43900000Y231700000D01*
X56400000Y221200000D02*
X42400000Y221200000D01*
X54400000Y223200000D02*
X56400000Y221200000D01*
X44400000Y223200000D02*
X54400000Y223200000D01*
X44400000Y223200000D02*
X42400000Y221200000D01*
X54900000Y223700000D02*
X54900000Y231700000D01*
X56900000Y221700000D02*
X54900000Y223700000D01*
X56900000Y231700000D02*
X56900000Y221700000D01*
X55900000Y232700000D02*
X56900000Y231700000D01*
X54900000Y231700000D02*
X55900000Y232700000D01*
X61400000Y222200000D02*
G75*
G03*
X61400000Y222200000I-1000000J0D01*
G01*
X114496000Y101600000D02*
G75*
G03*
X114496000Y101600000I-4000000J0D01*
G01*
X55496000Y102600000D02*
X50496000Y97600000D01*
X95496000Y102600000D02*
X55496000Y102600000D01*
X100496000Y97600000D02*
X95496000Y102600000D01*
X50496000Y97600000D02*
X100496000Y97600000D01*
X101496000Y139100000D02*
X98996000Y141600000D01*
X101496000Y98600000D02*
X101496000Y139100000D01*
X96496000Y103600000D02*
X101496000Y98600000D01*
X96496000Y139100000D02*
X96496000Y103600000D01*
X98996000Y141600000D02*
X96496000Y139100000D01*
X49496000Y139100000D02*
X51996000Y141600000D01*
X49496000Y98600000D02*
X49496000Y139100000D01*
X54496000Y103600000D02*
X49496000Y98600000D01*
X54496000Y139100000D02*
X54496000Y103600000D01*
X51996000Y141600000D02*
X54496000Y139100000D01*
X96496000Y146100000D02*
X96496000Y181600000D01*
X98996000Y143600000D02*
X96496000Y146100000D01*
X101496000Y146100000D02*
X98996000Y143600000D01*
X101496000Y186600000D02*
X101496000Y146100000D01*
X101496000Y186600000D02*
X96496000Y181600000D01*
X55496000Y140100000D02*
X52996000Y142600000D01*
X95496000Y140100000D02*
X55496000Y140100000D01*
X97996000Y142600000D02*
X95496000Y140100000D01*
X95496000Y145100000D02*
X97996000Y142600000D01*
X55496000Y145100000D02*
X95496000Y145100000D01*
X52996000Y142600000D02*
X55496000Y145100000D01*
X49496000Y146100000D02*
X51996000Y143600000D01*
X49496000Y186600000D02*
X49496000Y146100000D01*
X54496000Y146100000D02*
X51996000Y143600000D01*
X54496000Y181600000D02*
X54496000Y146100000D01*
X49496000Y186600000D02*
X54496000Y181600000D01*
X55496000Y182600000D02*
X50496000Y187600000D01*
X95496000Y182600000D02*
X55496000Y182600000D01*
X100496000Y187600000D02*
X95496000Y182600000D01*
X50496000Y187600000D02*
X100496000Y187600000D01*
X30496000Y81600000D02*
X30496000Y203600000D01*
X120496000Y81600000D02*
X30496000Y81600000D01*
X120496000Y203600000D02*
X120496000Y81600000D01*
X30496000Y203600000D02*
X120496000Y203600000D01*
X205936000Y101600000D02*
G75*
G03*
X205936000Y101600000I-4000000J0D01*
G01*
X146936000Y102600000D02*
X141936000Y97600000D01*
X186936000Y102600000D02*
X146936000Y102600000D01*
X191936000Y97600000D02*
X186936000Y102600000D01*
X141936000Y97600000D02*
X191936000Y97600000D01*
X192936000Y139100000D02*
X190436000Y141600000D01*
X192936000Y98600000D02*
X192936000Y139100000D01*
X187936000Y103600000D02*
X192936000Y98600000D01*
X187936000Y139100000D02*
X187936000Y103600000D01*
X190436000Y141600000D02*
X187936000Y139100000D01*
X140936000Y139100000D02*
X143436000Y141600000D01*
X140936000Y98600000D02*
X140936000Y139100000D01*
X145936000Y103600000D02*
X140936000Y98600000D01*
X145936000Y139100000D02*
X145936000Y103600000D01*
X143436000Y141600000D02*
X145936000Y139100000D01*
X187936000Y146100000D02*
X187936000Y181600000D01*
X190436000Y143600000D02*
X187936000Y146100000D01*
X192936000Y146100000D02*
X190436000Y143600000D01*
X192936000Y186600000D02*
X192936000Y146100000D01*
X192936000Y186600000D02*
X187936000Y181600000D01*
X146936000Y140100000D02*
X144436000Y142600000D01*
X186936000Y140100000D02*
X146936000Y140100000D01*
X189436000Y142600000D02*
X186936000Y140100000D01*
X186936000Y145100000D02*
X189436000Y142600000D01*
X146936000Y145100000D02*
X186936000Y145100000D01*
X144436000Y142600000D02*
X146936000Y145100000D01*
X140936000Y146100000D02*
X143436000Y143600000D01*
X140936000Y186600000D02*
X140936000Y146100000D01*
X145936000Y146100000D02*
X143436000Y143600000D01*
X145936000Y181600000D02*
X145936000Y146100000D01*
X140936000Y186600000D02*
X145936000Y181600000D01*
X146936000Y182600000D02*
X141936000Y187600000D01*
X186936000Y182600000D02*
X146936000Y182600000D01*
X191936000Y187600000D02*
X186936000Y182600000D01*
X141936000Y187600000D02*
X191936000Y187600000D01*
X121936000Y81600000D02*
X121936000Y203600000D01*
X211936000Y81600000D02*
X121936000Y81600000D01*
X211936000Y203600000D02*
X211936000Y81600000D01*
X121936000Y203600000D02*
X211936000Y203600000D01*
X303500000Y81600000D02*
X213500000Y81600000D01*
X213500000Y81600000D02*
X213500000Y203600000D01*
X213500000Y203600000D02*
X303500000Y203600000D01*
X303500000Y203600000D02*
X303500000Y81600000D01*
X283500000Y97600000D02*
X233500000Y97600000D01*
X233500000Y97600000D02*
X238500000Y102600000D01*
X238500000Y102600000D02*
X278500000Y102600000D01*
X278500000Y102600000D02*
X283500000Y97600000D01*
X284500000Y98600000D02*
X279500000Y103600000D01*
X279500000Y103600000D02*
X279500000Y139100000D01*
X279500000Y139100000D02*
X282000000Y141600000D01*
X284500000Y98600000D02*
X284500000Y139100000D01*
X284500000Y139100000D02*
X282000000Y141600000D01*
X281000000Y142600000D02*
X278500000Y140100000D01*
X278500000Y140100000D02*
X238500000Y140100000D01*
X238500000Y140100000D02*
X236000000Y142600000D01*
X236000000Y142600000D02*
X238500000Y145100000D01*
X238500000Y145100000D02*
X278500000Y145100000D01*
X278500000Y145100000D02*
X281000000Y142600000D01*
X232500000Y98600000D02*
X237500000Y103600000D01*
X232500000Y98600000D02*
X232500000Y139100000D01*
X232500000Y139100000D02*
X235000000Y141600000D01*
X235000000Y141600000D02*
X237500000Y139100000D01*
X237500000Y139100000D02*
X237500000Y103600000D01*
X282000000Y143600000D02*
X279500000Y146100000D01*
X279500000Y146100000D02*
X279500000Y181600000D01*
X279500000Y181600000D02*
X284500000Y186600000D01*
X284500000Y186600000D02*
X284500000Y146100000D01*
X284500000Y146100000D02*
X282000000Y143600000D01*
X235000000Y143600000D02*
X237500000Y146100000D01*
X237500000Y146100000D02*
X237500000Y181600000D01*
X237500000Y181600000D02*
X232500000Y186600000D01*
X232500000Y186600000D02*
X232500000Y146100000D01*
X232500000Y146100000D02*
X235000000Y143600000D01*
X283500000Y187600000D02*
X233500000Y187600000D01*
X233500000Y187600000D02*
X238500000Y182600000D01*
X238500000Y182600000D02*
X278500000Y182600000D01*
X278500000Y182600000D02*
X283500000Y187600000D01*
X227500000Y183600000D02*
G75*
G03*
X227500000Y183600000I-4000000J0D01*
G01*
X357400000Y24200000D02*
X395400000Y24200000D01*
X395400000Y24200000D02*
X395400000Y80200000D01*
X395400000Y80200000D02*
X395400000Y80200000D01*
X357400000Y80200000D02*
X395400000Y80200000D01*
X395400000Y24200000D02*
X395400000Y24200000D01*
X357400000Y80200000D02*
X357400000Y80200000D01*
X357400000Y24200000D02*
X357400000Y80200000D01*
X357400000Y24200000D02*
X357400000Y24200000D01*
X369400000Y64200000D02*
X371400000Y62200000D01*
X371400000Y62200000D02*
X381400000Y62200000D01*
X383400000Y64200000D02*
X381400000Y62200000D01*
X369400000Y64200000D02*
X383400000Y64200000D01*
X368900000Y63700000D02*
X370900000Y61700000D01*
X370900000Y61700000D02*
X370900000Y53700000D01*
X370900000Y53700000D02*
X369900000Y52700000D01*
X369900000Y52700000D02*
X368900000Y53700000D01*
X368900000Y63700000D02*
X368900000Y53700000D01*
X383900000Y63700000D02*
X381900000Y61700000D01*
X383900000Y53700000D02*
X383900000Y63700000D01*
X382900000Y52700000D02*
X383900000Y53700000D01*
X381900000Y53700000D02*
X382900000Y52700000D01*
X381900000Y61700000D02*
X381900000Y53700000D01*
X370400000Y52200000D02*
X371400000Y53200000D01*
X371400000Y53200000D02*
X381400000Y53200000D01*
X381400000Y53200000D02*
X382400000Y52200000D01*
X382400000Y52200000D02*
X381400000Y51200000D01*
X381400000Y51200000D02*
X371400000Y51200000D01*
X371400000Y51200000D02*
X370400000Y52200000D01*
X368900000Y50700000D02*
X369900000Y51700000D01*
X368900000Y50700000D02*
X368900000Y40700000D01*
X368900000Y40700000D02*
X370900000Y42700000D01*
X370900000Y50700000D02*
X370900000Y42700000D01*
X369900000Y51700000D02*
X370900000Y50700000D01*
X383400000Y40200000D02*
X369400000Y40200000D01*
X381400000Y42200000D02*
X383400000Y40200000D01*
X371400000Y42200000D02*
X381400000Y42200000D01*
X371400000Y42200000D02*
X369400000Y40200000D01*
X381900000Y42700000D02*
X381900000Y50700000D01*
X383900000Y40700000D02*
X381900000Y42700000D01*
X383900000Y50700000D02*
X383900000Y40700000D01*
X382900000Y51700000D02*
X383900000Y50700000D01*
X381900000Y50700000D02*
X382900000Y51700000D01*
X388400000Y41200000D02*
G75*
G03*
X388400000Y41200000I-1000000J0D01*
G01*
X318900000Y24200000D02*
X356900000Y24200000D01*
X356900000Y24200000D02*
X356900000Y80200000D01*
X356900000Y80200000D02*
X356900000Y80200000D01*
X318900000Y80200000D02*
X356900000Y80200000D01*
X356900000Y24200000D02*
X356900000Y24200000D01*
X318900000Y80200000D02*
X318900000Y80200000D01*
X318900000Y24200000D02*
X318900000Y80200000D01*
X318900000Y24200000D02*
X318900000Y24200000D01*
X330900000Y64200000D02*
X332900000Y62200000D01*
X332900000Y62200000D02*
X342900000Y62200000D01*
X344900000Y64200000D02*
X342900000Y62200000D01*
X330900000Y64200000D02*
X344900000Y64200000D01*
X330400000Y63700000D02*
X332400000Y61700000D01*
X332400000Y61700000D02*
X332400000Y53700000D01*
X332400000Y53700000D02*
X331400000Y52700000D01*
X331400000Y52700000D02*
X330400000Y53700000D01*
X330400000Y63700000D02*
X330400000Y53700000D01*
X345400000Y63700000D02*
X343400000Y61700000D01*
X345400000Y53700000D02*
X345400000Y63700000D01*
X344400000Y52700000D02*
X345400000Y53700000D01*
X343400000Y53700000D02*
X344400000Y52700000D01*
X343400000Y61700000D02*
X343400000Y53700000D01*
X331900000Y52200000D02*
X332900000Y53200000D01*
X332900000Y53200000D02*
X342900000Y53200000D01*
X342900000Y53200000D02*
X343900000Y52200000D01*
X343900000Y52200000D02*
X342900000Y51200000D01*
X342900000Y51200000D02*
X332900000Y51200000D01*
X332900000Y51200000D02*
X331900000Y52200000D01*
X330400000Y50700000D02*
X331400000Y51700000D01*
X330400000Y50700000D02*
X330400000Y40700000D01*
X330400000Y40700000D02*
X332400000Y42700000D01*
X332400000Y50700000D02*
X332400000Y42700000D01*
X331400000Y51700000D02*
X332400000Y50700000D01*
X344900000Y40200000D02*
X330900000Y40200000D01*
X342900000Y42200000D02*
X344900000Y40200000D01*
X332900000Y42200000D02*
X342900000Y42200000D01*
X332900000Y42200000D02*
X330900000Y40200000D01*
X343400000Y42700000D02*
X343400000Y50700000D01*
X345400000Y40700000D02*
X343400000Y42700000D01*
X345400000Y50700000D02*
X345400000Y40700000D01*
X344400000Y51700000D02*
X345400000Y50700000D01*
X343400000Y50700000D02*
X344400000Y51700000D01*
X349900000Y41200000D02*
G75*
G03*
X349900000Y41200000I-1000000J0D01*
G01*
X280400000Y24200000D02*
X318400000Y24200000D01*
X318400000Y24200000D02*
X318400000Y80200000D01*
X318400000Y80200000D02*
X318400000Y80200000D01*
X280400000Y80200000D02*
X318400000Y80200000D01*
X318400000Y24200000D02*
X318400000Y24200000D01*
X280400000Y80200000D02*
X280400000Y80200000D01*
X280400000Y24200000D02*
X280400000Y80200000D01*
X280400000Y24200000D02*
X280400000Y24200000D01*
X292400000Y64200000D02*
X294400000Y62200000D01*
X294400000Y62200000D02*
X304400000Y62200000D01*
X306400000Y64200000D02*
X304400000Y62200000D01*
X292400000Y64200000D02*
X306400000Y64200000D01*
X291900000Y63700000D02*
X293900000Y61700000D01*
X293900000Y61700000D02*
X293900000Y53700000D01*
X293900000Y53700000D02*
X292900000Y52700000D01*
X292900000Y52700000D02*
X291900000Y53700000D01*
X291900000Y63700000D02*
X291900000Y53700000D01*
X306900000Y63700000D02*
X304900000Y61700000D01*
X306900000Y53700000D02*
X306900000Y63700000D01*
X305900000Y52700000D02*
X306900000Y53700000D01*
X304900000Y53700000D02*
X305900000Y52700000D01*
X304900000Y61700000D02*
X304900000Y53700000D01*
X293400000Y52200000D02*
X294400000Y53200000D01*
X294400000Y53200000D02*
X304400000Y53200000D01*
X304400000Y53200000D02*
X305400000Y52200000D01*
X305400000Y52200000D02*
X304400000Y51200000D01*
X304400000Y51200000D02*
X294400000Y51200000D01*
X294400000Y51200000D02*
X293400000Y52200000D01*
X291900000Y50700000D02*
X292900000Y51700000D01*
X291900000Y50700000D02*
X291900000Y40700000D01*
X291900000Y40700000D02*
X293900000Y42700000D01*
X293900000Y50700000D02*
X293900000Y42700000D01*
X292900000Y51700000D02*
X293900000Y50700000D01*
X306400000Y40200000D02*
X292400000Y40200000D01*
X304400000Y42200000D02*
X306400000Y40200000D01*
X294400000Y42200000D02*
X304400000Y42200000D01*
X294400000Y42200000D02*
X292400000Y40200000D01*
X304900000Y42700000D02*
X304900000Y50700000D01*
X306900000Y40700000D02*
X304900000Y42700000D01*
X306900000Y50700000D02*
X306900000Y40700000D01*
X305900000Y51700000D02*
X306900000Y50700000D01*
X304900000Y50700000D02*
X305900000Y51700000D01*
X311400000Y41200000D02*
G75*
G03*
X311400000Y41200000I-1000000J0D01*
G01*
X111220000Y60110000D02*
X111220000Y62650000D01*
X113760000Y60110000D02*
X113760000Y62650000D01*
X116300000Y60110000D02*
X116300000Y62650000D01*
X108640000Y44220000D02*
X108640000Y60110000D01*
X118880000Y44220000D02*
X118880000Y60110000D01*
X118880000Y44220000D02*
X108640000Y44220000D01*
X118880000Y60110000D02*
X108640000Y60110000D01*
X98220000Y60110000D02*
X98220000Y62650000D01*
X100760000Y60110000D02*
X100760000Y62650000D01*
X103300000Y60110000D02*
X103300000Y62650000D01*
X95640000Y44220000D02*
X95640000Y60110000D01*
X105880000Y44220000D02*
X105880000Y60110000D01*
X105880000Y44220000D02*
X95640000Y44220000D01*
X105880000Y60110000D02*
X95640000Y60110000D01*
X107450000Y205200000D02*
X145450000Y205200000D01*
X145450000Y205200000D02*
X145450000Y261200000D01*
X145450000Y261200000D02*
X145450000Y261200000D01*
X107450000Y261200000D02*
X145450000Y261200000D01*
X145450000Y205200000D02*
X145450000Y205200000D01*
X107450000Y261200000D02*
X107450000Y261200000D01*
X107450000Y205200000D02*
X107450000Y261200000D01*
X107450000Y205200000D02*
X107450000Y205200000D01*
X119450000Y245200000D02*
X121450000Y243200000D01*
X121450000Y243200000D02*
X131450000Y243200000D01*
X133450000Y245200000D02*
X131450000Y243200000D01*
X119450000Y245200000D02*
X133450000Y245200000D01*
X118950000Y244700000D02*
X120950000Y242700000D01*
X120950000Y242700000D02*
X120950000Y234700000D01*
X120950000Y234700000D02*
X119950000Y233700000D01*
X119950000Y233700000D02*
X118950000Y234700000D01*
X118950000Y244700000D02*
X118950000Y234700000D01*
X133950000Y244700000D02*
X131950000Y242700000D01*
X133950000Y234700000D02*
X133950000Y244700000D01*
X132950000Y233700000D02*
X133950000Y234700000D01*
X131950000Y234700000D02*
X132950000Y233700000D01*
X131950000Y242700000D02*
X131950000Y234700000D01*
X120450000Y233200000D02*
X121450000Y234200000D01*
X121450000Y234200000D02*
X131450000Y234200000D01*
X131450000Y234200000D02*
X132450000Y233200000D01*
X132450000Y233200000D02*
X131450000Y232200000D01*
X131450000Y232200000D02*
X121450000Y232200000D01*
X121450000Y232200000D02*
X120450000Y233200000D01*
X118950000Y231700000D02*
X119950000Y232700000D01*
X118950000Y231700000D02*
X118950000Y221700000D01*
X118950000Y221700000D02*
X120950000Y223700000D01*
X120950000Y231700000D02*
X120950000Y223700000D01*
X119950000Y232700000D02*
X120950000Y231700000D01*
X133450000Y221200000D02*
X119450000Y221200000D01*
X131450000Y223200000D02*
X133450000Y221200000D01*
X121450000Y223200000D02*
X131450000Y223200000D01*
X121450000Y223200000D02*
X119450000Y221200000D01*
X131950000Y223700000D02*
X131950000Y231700000D01*
X133950000Y221700000D02*
X131950000Y223700000D01*
X133950000Y231700000D02*
X133950000Y221700000D01*
X132950000Y232700000D02*
X133950000Y231700000D01*
X131950000Y231700000D02*
X132950000Y232700000D01*
X138450000Y222200000D02*
G75*
G03*
X138450000Y222200000I-1000000J0D01*
G01*
X58479000Y60110000D02*
X68720000Y60110000D01*
X58479000Y50620000D02*
X68720000Y50620000D01*
X58479000Y60110000D02*
X58479000Y50620000D01*
X68720000Y60110000D02*
X68720000Y50620000D01*
X58479000Y44220000D02*
X59679000Y44220000D01*
X60880000Y44220000D02*
X62080000Y44220000D01*
X63280000Y44220000D02*
X64480000Y44220000D01*
X65680000Y44220000D02*
X66880000Y44220000D01*
X68080000Y44220000D02*
X68720000Y44220000D01*
X58479000Y50380000D02*
X58479000Y49180000D01*
X58479000Y47980000D02*
X58479000Y46780000D01*
X58479000Y45580000D02*
X58479000Y44380000D01*
X68720000Y50380000D02*
X68720000Y49180000D01*
X68720000Y47980000D02*
X68720000Y46780000D01*
X68720000Y45580000D02*
X68720000Y44380000D01*
X60200000Y62750000D02*
X60200000Y60110000D01*
X61900000Y62750000D02*
X61900000Y60110000D01*
X63600000Y62750000D02*
X63600000Y60110000D01*
X65300000Y62750000D02*
X65300000Y60110000D01*
X67000000Y62750000D02*
X67000000Y60110000D01*
X11260000Y55820000D02*
X11260000Y56870000D01*
X10210000Y56870000D02*
X11260000Y56870000D01*
X5160000Y47470000D02*
X-3640000Y47470000D01*
X-3640000Y47470000D02*
X-3640000Y56670000D01*
X11060000Y50170000D02*
X11060000Y47470000D01*
X11060000Y47470000D02*
X9160000Y47470000D01*
X-3640000Y56670000D02*
X11060000Y56670000D01*
X11060000Y56670000D02*
X11060000Y54070000D01*
X389100000Y101500000D02*
G75*
G03*
X389100000Y101500000I-4000000J0D01*
G01*
X330100000Y102500000D02*
X325100000Y97500000D01*
X370100000Y102500000D02*
X330100000Y102500000D01*
X375100000Y97500000D02*
X370100000Y102500000D01*
X325100000Y97500000D02*
X375100000Y97500000D01*
X376100000Y139000000D02*
X373600000Y141500000D01*
X376100000Y98500000D02*
X376100000Y139000000D01*
X371100000Y103500000D02*
X376100000Y98500000D01*
X371100000Y139000000D02*
X371100000Y103500000D01*
X373600000Y141500000D02*
X371100000Y139000000D01*
X324100000Y139000000D02*
X326600000Y141500000D01*
X324100000Y98500000D02*
X324100000Y139000000D01*
X329100000Y103500000D02*
X324100000Y98500000D01*
X329100000Y139000000D02*
X329100000Y103500000D01*
X326600000Y141500000D02*
X329100000Y139000000D01*
X371100000Y146000000D02*
X371100000Y181500000D01*
X373600000Y143500000D02*
X371100000Y146000000D01*
X376100000Y146000000D02*
X373600000Y143500000D01*
X376100000Y186500000D02*
X376100000Y146000000D01*
X376100000Y186500000D02*
X371100000Y181500000D01*
X330100000Y140000000D02*
X327600000Y142500000D01*
X370100000Y140000000D02*
X330100000Y140000000D01*
X372600000Y142500000D02*
X370100000Y140000000D01*
X370100000Y145000000D02*
X372600000Y142500000D01*
X330100000Y145000000D02*
X370100000Y145000000D01*
X327600000Y142500000D02*
X330100000Y145000000D01*
X324100000Y146000000D02*
X326600000Y143500000D01*
X324100000Y186500000D02*
X324100000Y146000000D01*
X329100000Y146000000D02*
X326600000Y143500000D01*
X329100000Y181500000D02*
X329100000Y146000000D01*
X324100000Y186500000D02*
X329100000Y181500000D01*
X330100000Y182500000D02*
X325100000Y187500000D01*
X370100000Y182500000D02*
X330100000Y182500000D01*
X375100000Y187500000D02*
X370100000Y182500000D01*
X325100000Y187500000D02*
X375100000Y187500000D01*
X305100000Y81500000D02*
X305100000Y203500000D01*
X395100000Y81500000D02*
X305100000Y81500000D01*
X395100000Y203500000D02*
X395100000Y81500000D01*
X305100000Y203500000D02*
X395100000Y203500000D01*
D11*
X11366666Y15997620D02*
X11033333Y16473810D01*
X10795238Y15997620D02*
X10795238Y16997620D01*
X11176190Y16997620D01*
X11271428Y16950000D01*
X11319047Y16902381D01*
X11366666Y16807143D01*
X11366666Y16664286D01*
X11319047Y16569048D01*
X11271428Y16521429D01*
X11176190Y16473810D01*
X10795238Y16473810D01*
X11795238Y16521429D02*
X12128571Y16521429D01*
X12271428Y15997620D02*
X11795238Y15997620D01*
X11795238Y16997620D01*
X12271428Y16997620D01*
X13033333Y16521429D02*
X12700000Y16521429D01*
X12700000Y15997620D02*
X12700000Y16997620D01*
X13176190Y16997620D01*
X13700000Y16997620D02*
X13700000Y16759524D01*
X13461904Y16854762D02*
X13700000Y16759524D01*
X13938095Y16854762D01*
X13557142Y16569048D02*
X13700000Y16759524D01*
X13842857Y16569048D01*
X14461904Y16997620D02*
X14461904Y16759524D01*
X14223809Y16854762D02*
X14461904Y16759524D01*
X14700000Y16854762D01*
X14319047Y16569048D02*
X14461904Y16759524D01*
X14604761Y16569048D01*
X11366666Y282697620D02*
X11033333Y283173810D01*
X10795238Y282697620D02*
X10795238Y283697620D01*
X11176190Y283697620D01*
X11271428Y283650000D01*
X11319047Y283602381D01*
X11366666Y283507143D01*
X11366666Y283364286D01*
X11319047Y283269048D01*
X11271428Y283221429D01*
X11176190Y283173810D01*
X10795238Y283173810D01*
X11795238Y283221429D02*
X12128571Y283221429D01*
X12271428Y282697620D02*
X11795238Y282697620D01*
X11795238Y283697620D01*
X12271428Y283697620D01*
X13033333Y283221429D02*
X12700000Y283221429D01*
X12700000Y282697620D02*
X12700000Y283697620D01*
X13176190Y283697620D01*
X13700000Y283697620D02*
X13700000Y283459524D01*
X13461904Y283554762D02*
X13700000Y283459524D01*
X13938095Y283554762D01*
X13557142Y283269048D02*
X13700000Y283459524D01*
X13842857Y283269048D01*
X14461904Y283697620D02*
X14461904Y283459524D01*
X14223809Y283554762D02*
X14461904Y283459524D01*
X14700000Y283554762D01*
X14319047Y283269048D02*
X14461904Y283459524D01*
X14604761Y283269048D01*
X405066666Y282697620D02*
X404733333Y283173810D01*
X404495238Y282697620D02*
X404495238Y283697620D01*
X404876190Y283697620D01*
X404971428Y283650000D01*
X405019047Y283602381D01*
X405066666Y283507143D01*
X405066666Y283364286D01*
X405019047Y283269048D01*
X404971428Y283221429D01*
X404876190Y283173810D01*
X404495238Y283173810D01*
X405495238Y283221429D02*
X405828571Y283221429D01*
X405971428Y282697620D02*
X405495238Y282697620D01*
X405495238Y283697620D01*
X405971428Y283697620D01*
X406733333Y283221429D02*
X406400000Y283221429D01*
X406400000Y282697620D02*
X406400000Y283697620D01*
X406876190Y283697620D01*
X407400000Y283697620D02*
X407400000Y283459524D01*
X407161904Y283554762D02*
X407400000Y283459524D01*
X407638095Y283554762D01*
X407257142Y283269048D02*
X407400000Y283459524D01*
X407542857Y283269048D01*
X408161904Y283697620D02*
X408161904Y283459524D01*
X407923809Y283554762D02*
X408161904Y283459524D01*
X408400000Y283554762D01*
X408019047Y283269048D02*
X408161904Y283459524D01*
X408304761Y283269048D01*
X405066666Y15997620D02*
X404733333Y16473810D01*
X404495238Y15997620D02*
X404495238Y16997620D01*
X404876190Y16997620D01*
X404971428Y16950000D01*
X405019047Y16902381D01*
X405066666Y16807143D01*
X405066666Y16664286D01*
X405019047Y16569048D01*
X404971428Y16521429D01*
X404876190Y16473810D01*
X404495238Y16473810D01*
X405495238Y16521429D02*
X405828571Y16521429D01*
X405971428Y15997620D02*
X405495238Y15997620D01*
X405495238Y16997620D01*
X405971428Y16997620D01*
X406733333Y16521429D02*
X406400000Y16521429D01*
X406400000Y15997620D02*
X406400000Y16997620D01*
X406876190Y16997620D01*
X407400000Y16997620D02*
X407400000Y16759524D01*
X407161904Y16854762D02*
X407400000Y16759524D01*
X407638095Y16854762D01*
X407257142Y16569048D02*
X407400000Y16759524D01*
X407542857Y16569048D01*
X408161904Y16997620D02*
X408161904Y16759524D01*
X407923809Y16854762D02*
X408161904Y16759524D01*
X408400000Y16854762D01*
X408019047Y16569048D02*
X408161904Y16759524D01*
X408304761Y16569048D01*
X259428571Y46267620D02*
X259428571Y47267620D01*
X259666666Y47267620D01*
X259809523Y47220000D01*
X259904761Y47124762D01*
X259952380Y47029524D01*
X260000000Y46839048D01*
X260000000Y46696191D01*
X259952380Y46505715D01*
X259904761Y46410477D01*
X259809523Y46315239D01*
X259666666Y46267620D01*
X259428571Y46267620D01*
X260857142Y46267620D02*
X260857142Y46791429D01*
X260809523Y46886667D01*
X260714285Y46934286D01*
X260523809Y46934286D01*
X260428571Y46886667D01*
X260857142Y46315239D02*
X260761904Y46267620D01*
X260523809Y46267620D01*
X260428571Y46315239D01*
X260380952Y46410477D01*
X260380952Y46505715D01*
X260428571Y46600953D01*
X260523809Y46648572D01*
X260761904Y46648572D01*
X260857142Y46696191D01*
X261095238Y46172381D02*
X261857142Y46172381D01*
X262619047Y46267620D02*
X262047619Y46267620D01*
X262333333Y46267620D02*
X262333333Y47267620D01*
X262238095Y47124762D01*
X262142857Y47029524D01*
X262047619Y46981905D01*
X164523809Y227743810D02*
X164523809Y227267620D01*
X164190476Y228267620D02*
X164523809Y227743810D01*
X164857142Y228267620D01*
X165619047Y227934286D02*
X165619047Y227267620D01*
X165380952Y228315239D02*
X165142857Y227600953D01*
X165761904Y227600953D01*
X87523809Y227743810D02*
X87523809Y227267620D01*
X87190476Y228267620D02*
X87523809Y227743810D01*
X87857142Y228267620D01*
X88142857Y228172381D02*
X88190476Y228220000D01*
X88285714Y228267620D01*
X88523809Y228267620D01*
X88619047Y228220000D01*
X88666666Y228172381D01*
X88714285Y228077143D01*
X88714285Y227981905D01*
X88666666Y227839048D01*
X88095238Y227267620D01*
X88714285Y227267620D01*
X49023809Y227743810D02*
X49023809Y227267620D01*
X48690476Y228267620D02*
X49023809Y227743810D01*
X49357142Y228267620D01*
X50214285Y227267620D02*
X49642857Y227267620D01*
X49928571Y227267620D02*
X49928571Y228267620D01*
X49833333Y228124762D01*
X49738095Y228029524D01*
X49642857Y227981905D01*
X74734095Y141647620D02*
X74734095Y142647620D01*
X74734095Y142171429D02*
X75305523Y142171429D01*
X75305523Y141647620D02*
X75305523Y142647620D01*
X76305523Y141647620D02*
X75734095Y141647620D01*
X76019809Y141647620D02*
X76019809Y142647620D01*
X75924571Y142504762D01*
X75829333Y142409524D01*
X75734095Y142361905D01*
X166174095Y141647620D02*
X166174095Y142647620D01*
X166174095Y142171429D02*
X166745523Y142171429D01*
X166745523Y141647620D02*
X166745523Y142647620D01*
X167174095Y142552381D02*
X167221714Y142600000D01*
X167316952Y142647620D01*
X167555047Y142647620D01*
X167650285Y142600000D01*
X167697904Y142552381D01*
X167745523Y142457143D01*
X167745523Y142361905D01*
X167697904Y142219048D01*
X167126476Y141647620D01*
X167745523Y141647620D01*
X257690476Y142647620D02*
X257690476Y143647620D01*
X258023809Y142933334D01*
X258357142Y143647620D01*
X258357142Y142647620D01*
X259357142Y142647620D02*
X258785714Y142647620D01*
X259071428Y142647620D02*
X259071428Y143647620D01*
X258976190Y143504762D01*
X258880952Y143409524D01*
X258785714Y143361905D01*
X374857142Y46267620D02*
X374857142Y47267620D01*
X375190476Y46553334D01*
X375523809Y47267620D01*
X375523809Y46267620D01*
X376142857Y46267620D02*
X376047619Y46315239D01*
X376000000Y46362858D01*
X375952380Y46458096D01*
X375952380Y46743810D01*
X376000000Y46839048D01*
X376047619Y46886667D01*
X376142857Y46934286D01*
X376285714Y46934286D01*
X376380952Y46886667D01*
X376428571Y46839048D01*
X376476190Y46743810D01*
X376476190Y46458096D01*
X376428571Y46362858D01*
X376380952Y46315239D01*
X376285714Y46267620D01*
X376142857Y46267620D01*
X376666666Y46172381D02*
X377428571Y46172381D01*
X377619047Y47172381D02*
X377666666Y47220000D01*
X377761904Y47267620D01*
X378000000Y47267620D01*
X378095238Y47220000D01*
X378142857Y47172381D01*
X378190476Y47077143D01*
X378190476Y46981905D01*
X378142857Y46839048D01*
X377571428Y46267620D01*
X378190476Y46267620D01*
X336357142Y46267620D02*
X336357142Y47267620D01*
X336690476Y46553334D01*
X337023809Y47267620D01*
X337023809Y46267620D01*
X337642857Y46267620D02*
X337547619Y46315239D01*
X337500000Y46362858D01*
X337452380Y46458096D01*
X337452380Y46743810D01*
X337500000Y46839048D01*
X337547619Y46886667D01*
X337642857Y46934286D01*
X337785714Y46934286D01*
X337880952Y46886667D01*
X337928571Y46839048D01*
X337976190Y46743810D01*
X337976190Y46458096D01*
X337928571Y46362858D01*
X337880952Y46315239D01*
X337785714Y46267620D01*
X337642857Y46267620D01*
X338166666Y46172381D02*
X338928571Y46172381D01*
X339690476Y46267620D02*
X339119047Y46267620D01*
X339404761Y46267620D02*
X339404761Y47267620D01*
X339309523Y47124762D01*
X339214285Y47029524D01*
X339119047Y46981905D01*
X297928571Y46267620D02*
X297928571Y47267620D01*
X298166666Y47267620D01*
X298309523Y47220000D01*
X298404761Y47124762D01*
X298452380Y47029524D01*
X298500000Y46839048D01*
X298500000Y46696191D01*
X298452380Y46505715D01*
X298404761Y46410477D01*
X298309523Y46315239D01*
X298166666Y46267620D01*
X297928571Y46267620D01*
X299357142Y46267620D02*
X299357142Y46791429D01*
X299309523Y46886667D01*
X299214285Y46934286D01*
X299023809Y46934286D01*
X298928571Y46886667D01*
X299357142Y46315239D02*
X299261904Y46267620D01*
X299023809Y46267620D01*
X298928571Y46315239D01*
X298880952Y46410477D01*
X298880952Y46505715D01*
X298928571Y46600953D01*
X299023809Y46648572D01*
X299261904Y46648572D01*
X299357142Y46696191D01*
X299595238Y46172381D02*
X300357142Y46172381D01*
X300547619Y47172381D02*
X300595238Y47220000D01*
X300690476Y47267620D01*
X300928571Y47267620D01*
X301023809Y47220000D01*
X301071428Y47172381D01*
X301119047Y47077143D01*
X301119047Y46981905D01*
X301071428Y46839048D01*
X300500000Y46267620D01*
X301119047Y46267620D01*
X108974285Y42767620D02*
X108640952Y43243810D01*
X108402857Y42767620D02*
X108402857Y43767620D01*
X108783809Y43767620D01*
X108879047Y43720000D01*
X108926666Y43672381D01*
X108974285Y43577143D01*
X108974285Y43434286D01*
X108926666Y43339048D01*
X108879047Y43291429D01*
X108783809Y43243810D01*
X108402857Y43243810D01*
X109783809Y42815239D02*
X109688571Y42767620D01*
X109498095Y42767620D01*
X109402857Y42815239D01*
X109355238Y42910477D01*
X109355238Y43291429D01*
X109402857Y43386667D01*
X109498095Y43434286D01*
X109688571Y43434286D01*
X109783809Y43386667D01*
X109831428Y43291429D01*
X109831428Y43196191D01*
X109355238Y43100953D01*
X110688571Y43434286D02*
X110688571Y42624762D01*
X110640952Y42529524D01*
X110593333Y42481905D01*
X110498095Y42434286D01*
X110355238Y42434286D01*
X110260000Y42481905D01*
X110688571Y42815239D02*
X110593333Y42767620D01*
X110402857Y42767620D01*
X110307619Y42815239D01*
X110260000Y42862858D01*
X110212380Y42958096D01*
X110212380Y43243810D01*
X110260000Y43339048D01*
X110307619Y43386667D01*
X110402857Y43434286D01*
X110593333Y43434286D01*
X110688571Y43386667D01*
X111593333Y43434286D02*
X111593333Y42767620D01*
X111164761Y43434286D02*
X111164761Y42910477D01*
X111212380Y42815239D01*
X111307619Y42767620D01*
X111450476Y42767620D01*
X111545714Y42815239D01*
X111593333Y42862858D01*
X112212380Y42767620D02*
X112117142Y42815239D01*
X112069523Y42910477D01*
X112069523Y43767620D01*
X113021904Y42767620D02*
X113021904Y43291429D01*
X112974285Y43386667D01*
X112879047Y43434286D01*
X112688571Y43434286D01*
X112593333Y43386667D01*
X113021904Y42815239D02*
X112926666Y42767620D01*
X112688571Y42767620D01*
X112593333Y42815239D01*
X112545714Y42910477D01*
X112545714Y43005715D01*
X112593333Y43100953D01*
X112688571Y43148572D01*
X112926666Y43148572D01*
X113021904Y43196191D01*
X113355238Y43434286D02*
X113736190Y43434286D01*
X113498095Y43767620D02*
X113498095Y42910477D01*
X113545714Y42815239D01*
X113640952Y42767620D01*
X113736190Y42767620D01*
X114212380Y42767620D02*
X114117142Y42815239D01*
X114069523Y42862858D01*
X114021904Y42958096D01*
X114021904Y43243810D01*
X114069523Y43339048D01*
X114117142Y43386667D01*
X114212380Y43434286D01*
X114355238Y43434286D01*
X114450476Y43386667D01*
X114498095Y43339048D01*
X114545714Y43243810D01*
X114545714Y42958096D01*
X114498095Y42862858D01*
X114450476Y42815239D01*
X114355238Y42767620D01*
X114212380Y42767620D01*
X114974285Y42767620D02*
X114974285Y43434286D01*
X114974285Y43243810D02*
X115021904Y43339048D01*
X115069523Y43386667D01*
X115164761Y43434286D01*
X115260000Y43434286D01*
X115593333Y43148572D02*
X116355238Y43148572D01*
X117260000Y43767620D02*
X117069523Y43767620D01*
X116974285Y43720000D01*
X116926666Y43672381D01*
X116831428Y43529524D01*
X116783809Y43339048D01*
X116783809Y42958096D01*
X116831428Y42862858D01*
X116879047Y42815239D01*
X116974285Y42767620D01*
X117164761Y42767620D01*
X117260000Y42815239D01*
X117307619Y42862858D01*
X117355238Y42958096D01*
X117355238Y43196191D01*
X117307619Y43291429D01*
X117260000Y43339048D01*
X117164761Y43386667D01*
X116974285Y43386667D01*
X116879047Y43339048D01*
X116831428Y43291429D01*
X116783809Y43196191D01*
X117640952Y43767620D02*
X117974285Y42767620D01*
X118307619Y43767620D01*
X119164761Y42767620D02*
X118593333Y42767620D01*
X118879047Y42767620D02*
X118879047Y43767620D01*
X118783809Y43624762D01*
X118688571Y43529524D01*
X118593333Y43481905D01*
X95974285Y42767620D02*
X95640952Y43243810D01*
X95402857Y42767620D02*
X95402857Y43767620D01*
X95783809Y43767620D01*
X95879047Y43720000D01*
X95926666Y43672381D01*
X95974285Y43577143D01*
X95974285Y43434286D01*
X95926666Y43339048D01*
X95879047Y43291429D01*
X95783809Y43243810D01*
X95402857Y43243810D01*
X96783809Y42815239D02*
X96688571Y42767620D01*
X96498095Y42767620D01*
X96402857Y42815239D01*
X96355238Y42910477D01*
X96355238Y43291429D01*
X96402857Y43386667D01*
X96498095Y43434286D01*
X96688571Y43434286D01*
X96783809Y43386667D01*
X96831428Y43291429D01*
X96831428Y43196191D01*
X96355238Y43100953D01*
X97688571Y43434286D02*
X97688571Y42624762D01*
X97640952Y42529524D01*
X97593333Y42481905D01*
X97498095Y42434286D01*
X97355238Y42434286D01*
X97260000Y42481905D01*
X97688571Y42815239D02*
X97593333Y42767620D01*
X97402857Y42767620D01*
X97307619Y42815239D01*
X97260000Y42862858D01*
X97212380Y42958096D01*
X97212380Y43243810D01*
X97260000Y43339048D01*
X97307619Y43386667D01*
X97402857Y43434286D01*
X97593333Y43434286D01*
X97688571Y43386667D01*
X98593333Y43434286D02*
X98593333Y42767620D01*
X98164761Y43434286D02*
X98164761Y42910477D01*
X98212380Y42815239D01*
X98307619Y42767620D01*
X98450476Y42767620D01*
X98545714Y42815239D01*
X98593333Y42862858D01*
X99212380Y42767620D02*
X99117142Y42815239D01*
X99069523Y42910477D01*
X99069523Y43767620D01*
X100021904Y42767620D02*
X100021904Y43291429D01*
X99974285Y43386667D01*
X99879047Y43434286D01*
X99688571Y43434286D01*
X99593333Y43386667D01*
X100021904Y42815239D02*
X99926666Y42767620D01*
X99688571Y42767620D01*
X99593333Y42815239D01*
X99545714Y42910477D01*
X99545714Y43005715D01*
X99593333Y43100953D01*
X99688571Y43148572D01*
X99926666Y43148572D01*
X100021904Y43196191D01*
X100355238Y43434286D02*
X100736190Y43434286D01*
X100498095Y43767620D02*
X100498095Y42910477D01*
X100545714Y42815239D01*
X100640952Y42767620D01*
X100736190Y42767620D01*
X101212380Y42767620D02*
X101117142Y42815239D01*
X101069523Y42862858D01*
X101021904Y42958096D01*
X101021904Y43243810D01*
X101069523Y43339048D01*
X101117142Y43386667D01*
X101212380Y43434286D01*
X101355238Y43434286D01*
X101450476Y43386667D01*
X101498095Y43339048D01*
X101545714Y43243810D01*
X101545714Y42958096D01*
X101498095Y42862858D01*
X101450476Y42815239D01*
X101355238Y42767620D01*
X101212380Y42767620D01*
X101974285Y42767620D02*
X101974285Y43434286D01*
X101974285Y43243810D02*
X102021904Y43339048D01*
X102069523Y43386667D01*
X102164761Y43434286D01*
X102260000Y43434286D01*
X102593333Y43148572D02*
X103355238Y43148572D01*
X104307619Y43767620D02*
X103831428Y43767620D01*
X103783809Y43291429D01*
X103831428Y43339048D01*
X103926666Y43386667D01*
X104164761Y43386667D01*
X104260000Y43339048D01*
X104307619Y43291429D01*
X104355238Y43196191D01*
X104355238Y42958096D01*
X104307619Y42862858D01*
X104260000Y42815239D01*
X104164761Y42767620D01*
X103926666Y42767620D01*
X103831428Y42815239D01*
X103783809Y42862858D01*
X104640952Y43767620D02*
X104974285Y42767620D01*
X105307619Y43767620D01*
X106164761Y42767620D02*
X105593333Y42767620D01*
X105879047Y42767620D02*
X105879047Y43767620D01*
X105783809Y43624762D01*
X105688571Y43529524D01*
X105593333Y43481905D01*
X126073809Y227743810D02*
X126073809Y227267620D01*
X125740476Y228267620D02*
X126073809Y227743810D01*
X126407142Y228267620D01*
X126645238Y228267620D02*
X127264285Y228267620D01*
X126930952Y227886667D01*
X127073809Y227886667D01*
X127169047Y227839048D01*
X127216666Y227791429D01*
X127264285Y227696191D01*
X127264285Y227458096D01*
X127216666Y227362858D01*
X127169047Y227315239D01*
X127073809Y227267620D01*
X126788095Y227267620D01*
X126692857Y227315239D01*
X126645238Y227362858D01*
X58338095Y42767620D02*
X58004761Y43243810D01*
X57766666Y42767620D02*
X57766666Y43767620D01*
X58147619Y43767620D01*
X58242857Y43720000D01*
X58290476Y43672381D01*
X58338095Y43577143D01*
X58338095Y43434286D01*
X58290476Y43339048D01*
X58242857Y43291429D01*
X58147619Y43243810D01*
X57766666Y43243810D01*
X59147619Y42815239D02*
X59052380Y42767620D01*
X58861904Y42767620D01*
X58766666Y42815239D01*
X58719047Y42910477D01*
X58719047Y43291429D01*
X58766666Y43386667D01*
X58861904Y43434286D01*
X59052380Y43434286D01*
X59147619Y43386667D01*
X59195238Y43291429D01*
X59195238Y43196191D01*
X58719047Y43100953D01*
X60052380Y43434286D02*
X60052380Y42624762D01*
X60004761Y42529524D01*
X59957142Y42481905D01*
X59861904Y42434286D01*
X59719047Y42434286D01*
X59623809Y42481905D01*
X60052380Y42815239D02*
X59957142Y42767620D01*
X59766666Y42767620D01*
X59671428Y42815239D01*
X59623809Y42862858D01*
X59576190Y42958096D01*
X59576190Y43243810D01*
X59623809Y43339048D01*
X59671428Y43386667D01*
X59766666Y43434286D01*
X59957142Y43434286D01*
X60052380Y43386667D01*
X60957142Y43434286D02*
X60957142Y42767620D01*
X60528571Y43434286D02*
X60528571Y42910477D01*
X60576190Y42815239D01*
X60671428Y42767620D01*
X60814285Y42767620D01*
X60909523Y42815239D01*
X60957142Y42862858D01*
X61576190Y42767620D02*
X61480952Y42815239D01*
X61433333Y42910477D01*
X61433333Y43767620D01*
X62385714Y42767620D02*
X62385714Y43291429D01*
X62338095Y43386667D01*
X62242857Y43434286D01*
X62052380Y43434286D01*
X61957142Y43386667D01*
X62385714Y42815239D02*
X62290476Y42767620D01*
X62052380Y42767620D01*
X61957142Y42815239D01*
X61909523Y42910477D01*
X61909523Y43005715D01*
X61957142Y43100953D01*
X62052380Y43148572D01*
X62290476Y43148572D01*
X62385714Y43196191D01*
X62719047Y43434286D02*
X63100000Y43434286D01*
X62861904Y43767620D02*
X62861904Y42910477D01*
X62909523Y42815239D01*
X63004761Y42767620D01*
X63100000Y42767620D01*
X63576190Y42767620D02*
X63480952Y42815239D01*
X63433333Y42862858D01*
X63385714Y42958096D01*
X63385714Y43243810D01*
X63433333Y43339048D01*
X63480952Y43386667D01*
X63576190Y43434286D01*
X63719047Y43434286D01*
X63814285Y43386667D01*
X63861904Y43339048D01*
X63909523Y43243810D01*
X63909523Y42958096D01*
X63861904Y42862858D01*
X63814285Y42815239D01*
X63719047Y42767620D01*
X63576190Y42767620D01*
X64338095Y42767620D02*
X64338095Y43434286D01*
X64338095Y43243810D02*
X64385714Y43339048D01*
X64433333Y43386667D01*
X64528571Y43434286D01*
X64623809Y43434286D01*
X64957142Y43148572D02*
X65719047Y43148572D01*
X66719047Y42767620D02*
X66147619Y42767620D01*
X66433333Y42767620D02*
X66433333Y43767620D01*
X66338095Y43624762D01*
X66242857Y43529524D01*
X66147619Y43481905D01*
X67671428Y42767620D02*
X67100000Y42767620D01*
X67385714Y42767620D02*
X67385714Y43767620D01*
X67290476Y43624762D01*
X67195238Y43529524D01*
X67100000Y43481905D01*
X67957142Y43767620D02*
X68290476Y42767620D01*
X68623809Y43767620D01*
X69480952Y42767620D02*
X68909523Y42767620D01*
X69195238Y42767620D02*
X69195238Y43767620D01*
X69100000Y43624762D01*
X69004761Y43529524D01*
X68909523Y43481905D01*
X-3218572Y45867620D02*
X-3218572Y46867620D01*
X-2837620Y46867620D01*
X-2742381Y46820000D01*
X-2694762Y46772381D01*
X-2647143Y46677143D01*
X-2647143Y46534286D01*
X-2694762Y46439048D01*
X-2742381Y46391429D01*
X-2837620Y46343810D01*
X-3218572Y46343810D01*
X-2075715Y45867620D02*
X-2170953Y45915239D01*
X-2218572Y45962858D01*
X-2266191Y46058096D01*
X-2266191Y46343810D01*
X-2218572Y46439048D01*
X-2170953Y46486667D01*
X-2075715Y46534286D01*
X-1932858Y46534286D01*
X-1837620Y46486667D01*
X-1790000Y46439048D01*
X-1742381Y46343810D01*
X-1742381Y46058096D01*
X-1790000Y45962858D01*
X-1837620Y45915239D01*
X-1932858Y45867620D01*
X-2075715Y45867620D01*
X-1409048Y46534286D02*
X-1218572Y45867620D01*
X-1028096Y46343810D01*
X-837620Y45867620D01*
X-647143Y46534286D01*
X114761Y45915239D02*
X19523Y45867620D01*
X-170953Y45867620D01*
X-266191Y45915239D01*
X-313810Y46010477D01*
X-313810Y46391429D01*
X-266191Y46486667D01*
X-170953Y46534286D01*
X19523Y46534286D01*
X114761Y46486667D01*
X162380Y46391429D01*
X162380Y46296191D01*
X-313810Y46200953D01*
X590952Y45867620D02*
X590952Y46534286D01*
X590952Y46343810D02*
X638571Y46439048D01*
X686190Y46486667D01*
X781428Y46534286D01*
X876666Y46534286D01*
X1162380Y45915239D02*
X1305238Y45867620D01*
X1543333Y45867620D01*
X1638571Y45915239D01*
X1686190Y45962858D01*
X1733809Y46058096D01*
X1733809Y46153334D01*
X1686190Y46248572D01*
X1638571Y46296191D01*
X1543333Y46343810D01*
X1352857Y46391429D01*
X1257619Y46439048D01*
X1210000Y46486667D01*
X1162380Y46581905D01*
X1162380Y46677143D01*
X1210000Y46772381D01*
X1257619Y46820000D01*
X1352857Y46867620D01*
X1590952Y46867620D01*
X1733809Y46820000D01*
X2590952Y46534286D02*
X2590952Y45867620D01*
X2162380Y46534286D02*
X2162380Y46010477D01*
X2210000Y45915239D01*
X2305238Y45867620D01*
X2448095Y45867620D01*
X2543333Y45915239D01*
X2590952Y45962858D01*
X3067142Y46534286D02*
X3067142Y45534286D01*
X3067142Y46486667D02*
X3162380Y46534286D01*
X3352857Y46534286D01*
X3448095Y46486667D01*
X3495714Y46439048D01*
X3543333Y46343810D01*
X3543333Y46058096D01*
X3495714Y45962858D01*
X3448095Y45915239D01*
X3352857Y45867620D01*
X3162380Y45867620D01*
X3067142Y45915239D01*
X3971904Y46534286D02*
X3971904Y45534286D01*
X3971904Y46486667D02*
X4067142Y46534286D01*
X4257619Y46534286D01*
X4352857Y46486667D01*
X4400476Y46439048D01*
X4448095Y46343810D01*
X4448095Y46058096D01*
X4400476Y45962858D01*
X4352857Y45915239D01*
X4257619Y45867620D01*
X4067142Y45867620D01*
X3971904Y45915239D01*
X5019523Y45867620D02*
X4924285Y45915239D01*
X4876666Y46010477D01*
X4876666Y46867620D01*
X5305238Y46534286D02*
X5543333Y45867620D01*
X5781428Y46534286D02*
X5543333Y45867620D01*
X5448095Y45629524D01*
X5400476Y45581905D01*
X5305238Y45534286D01*
X6686190Y45867620D02*
X6114761Y45867620D01*
X6400476Y45867620D02*
X6400476Y46867620D01*
X6305238Y46724762D01*
X6210000Y46629524D01*
X6114761Y46581905D01*
X349290476Y141547620D02*
X349290476Y142547620D01*
X349623809Y141833334D01*
X349957142Y142547620D01*
X349957142Y141547620D01*
X350385714Y142452381D02*
X350433333Y142500000D01*
X350528571Y142547620D01*
X350766666Y142547620D01*
X350861904Y142500000D01*
X350909523Y142452381D01*
X350957142Y142357143D01*
X350957142Y142261905D01*
X350909523Y142119048D01*
X350338095Y141547620D01*
X350957142Y141547620D01*
M02*
