G04 #@! TF.GenerationSoftware,KiCad,Pcbnew,(5.1.6)-1*
G04 #@! TF.CreationDate,2020-10-29T12:29:55+07:00*
G04 #@! TF.ProjectId,Clock,436c6f63-6b2e-46b6-9963-61645f706362,rev?*
G04 #@! TF.SameCoordinates,Original*
G04 #@! TF.FileFunction,Legend,Bot*
G04 #@! TF.FilePolarity,Positive*
%FSLAX46Y46*%
G04 Gerber Fmt 4.6, Leading zero omitted, Abs format (unit mm)*
G04 Created by KiCad (PCBNEW (5.1.6)-1) date 2020-10-29 12:29:55*
%MOMM*%
%LPD*%
G01*
G04 APERTURE LIST*
%ADD10C,0.120000*%
%ADD11C,0.100000*%
%ADD12C,0.150000*%
G04 APERTURE END LIST*
D10*
X515400000Y-64000000D02*
X501400000Y-64000000D01*
X515400000Y-56000000D02*
X515400000Y-64000000D01*
X501400000Y-56000000D02*
X515400000Y-56000000D01*
X501400000Y-64000000D02*
X501400000Y-56000000D01*
X507800000Y-126600000D02*
X507800000Y-118600000D01*
X507800000Y-118600000D02*
X521800000Y-118600000D01*
X521800000Y-118600000D02*
X521800000Y-126600000D01*
X521800000Y-126600000D02*
X507800000Y-126600000D01*
X503330000Y-121930000D02*
X503330000Y-120600000D01*
X502000000Y-121930000D02*
X503330000Y-121930000D01*
X500730000Y-121930000D02*
X500730000Y-119270000D01*
X500730000Y-119270000D02*
X498130000Y-119270000D01*
X500730000Y-121930000D02*
X498130000Y-121930000D01*
X498130000Y-121930000D02*
X498130000Y-119270000D01*
X533990000Y-119230000D02*
X533990000Y-121970000D01*
X533990000Y-121970000D02*
X527450000Y-121970000D01*
X527450000Y-121970000D02*
X527450000Y-119230000D01*
X527450000Y-119230000D02*
X533990000Y-119230000D01*
X534760000Y-120600000D02*
X533990000Y-120600000D01*
X526680000Y-120600000D02*
X527450000Y-120600000D01*
X534720000Y-124400000D02*
X533950000Y-124400000D01*
X526640000Y-124400000D02*
X527410000Y-124400000D01*
X533950000Y-125770000D02*
X527410000Y-125770000D01*
X533950000Y-123030000D02*
X533950000Y-125770000D01*
X527410000Y-123030000D02*
X533950000Y-123030000D01*
X527410000Y-125770000D02*
X527410000Y-123030000D01*
X453080000Y-84880000D02*
X453080000Y-92620000D01*
X469320000Y-84880000D02*
X469320000Y-92620000D01*
X453080000Y-84880000D02*
X469320000Y-84880000D01*
X453080000Y-92620000D02*
X469320000Y-92620000D01*
X457580000Y-92620000D02*
X457580000Y-97620000D01*
X464820000Y-92620000D02*
X464820000Y-97620000D01*
X457580000Y-92620000D02*
X464820000Y-92620000D01*
X457580000Y-97620000D02*
X464820000Y-97620000D01*
X459080000Y-97620000D02*
X459080000Y-107620000D01*
X463320000Y-97620000D02*
X463320000Y-107620000D01*
X459080000Y-97620000D02*
X463320000Y-97620000D01*
X459080000Y-107620000D02*
X463320000Y-107620000D01*
X452410000Y-82730000D02*
X451160000Y-82730000D01*
X451160000Y-82730000D02*
X451160000Y-72450000D01*
X451160000Y-72450000D02*
X455660000Y-72450000D01*
X455660000Y-72450000D02*
X455660000Y-82730000D01*
X455660000Y-82730000D02*
X454410000Y-82730000D01*
X448160000Y-82790000D02*
X448160000Y-72390000D01*
X448160000Y-72390000D02*
X458660000Y-72390000D01*
X458660000Y-72390000D02*
X458660000Y-82790000D01*
X458660000Y-82790000D02*
X448160000Y-82790000D01*
X454410000Y-82730000D02*
G75*
G03*
X452410000Y-82730000I-1000000J0D01*
G01*
X464070000Y-75330000D02*
X466730000Y-75330000D01*
X464070000Y-77930000D02*
X464070000Y-75330000D01*
X466730000Y-77930000D02*
X466730000Y-75330000D01*
X464070000Y-77930000D02*
X466730000Y-77930000D01*
X464070000Y-79200000D02*
X464070000Y-80530000D01*
X464070000Y-80530000D02*
X465400000Y-80530000D01*
X357940000Y-85920000D02*
X359190000Y-85920000D01*
X359190000Y-85920000D02*
X359190000Y-106360000D01*
X359190000Y-106360000D02*
X354690000Y-106360000D01*
X354690000Y-106360000D02*
X354690000Y-85920000D01*
X354690000Y-85920000D02*
X355940000Y-85920000D01*
X362190000Y-85860000D02*
X362190000Y-106420000D01*
X362190000Y-106420000D02*
X351690000Y-106420000D01*
X351690000Y-106420000D02*
X351690000Y-85860000D01*
X351690000Y-85860000D02*
X362190000Y-85860000D01*
X355940000Y-85920000D02*
G75*
G03*
X357940000Y-85920000I1000000J0D01*
G01*
X399310000Y-290330000D02*
X398060000Y-290330000D01*
X398060000Y-290330000D02*
X398060000Y-269890000D01*
X398060000Y-269890000D02*
X402560000Y-269890000D01*
X402560000Y-269890000D02*
X402560000Y-290330000D01*
X402560000Y-290330000D02*
X401310000Y-290330000D01*
X395060000Y-290390000D02*
X395060000Y-269830000D01*
X395060000Y-269830000D02*
X405560000Y-269830000D01*
X405560000Y-269830000D02*
X405560000Y-290390000D01*
X405560000Y-290390000D02*
X395060000Y-290390000D01*
X401310000Y-290330000D02*
G75*
G03*
X399310000Y-290330000I-1000000J0D01*
G01*
X381530000Y-145390000D02*
X381530000Y-146640000D01*
X381530000Y-146640000D02*
X361090000Y-146640000D01*
X361090000Y-146640000D02*
X361090000Y-142140000D01*
X361090000Y-142140000D02*
X381530000Y-142140000D01*
X381530000Y-142140000D02*
X381530000Y-143390000D01*
X381590000Y-149640000D02*
X361030000Y-149640000D01*
X361030000Y-149640000D02*
X361030000Y-139140000D01*
X361030000Y-139140000D02*
X381590000Y-139140000D01*
X381590000Y-139140000D02*
X381590000Y-149640000D01*
X381530000Y-143390000D02*
G75*
G03*
X381530000Y-145390000I0J-1000000D01*
G01*
X536590000Y-64630000D02*
X536590000Y-67370000D01*
X536590000Y-67370000D02*
X530050000Y-67370000D01*
X530050000Y-67370000D02*
X530050000Y-64630000D01*
X530050000Y-64630000D02*
X536590000Y-64630000D01*
X537360000Y-66000000D02*
X536590000Y-66000000D01*
X529280000Y-66000000D02*
X530050000Y-66000000D01*
X530010000Y-63970000D02*
X530010000Y-61230000D01*
X530010000Y-61230000D02*
X536550000Y-61230000D01*
X536550000Y-61230000D02*
X536550000Y-63970000D01*
X536550000Y-63970000D02*
X530010000Y-63970000D01*
X529240000Y-62600000D02*
X530010000Y-62600000D01*
X537320000Y-62600000D02*
X536550000Y-62600000D01*
X530010000Y-70770000D02*
X530010000Y-68030000D01*
X530010000Y-68030000D02*
X536550000Y-68030000D01*
X536550000Y-68030000D02*
X536550000Y-70770000D01*
X536550000Y-70770000D02*
X530010000Y-70770000D01*
X529240000Y-69400000D02*
X530010000Y-69400000D01*
X537320000Y-69400000D02*
X536550000Y-69400000D01*
X537320000Y-72800000D02*
X536550000Y-72800000D01*
X529240000Y-72800000D02*
X530010000Y-72800000D01*
X536550000Y-74170000D02*
X530010000Y-74170000D01*
X536550000Y-71430000D02*
X536550000Y-74170000D01*
X530010000Y-71430000D02*
X536550000Y-71430000D01*
X530010000Y-74170000D02*
X530010000Y-71430000D01*
X509670000Y-67100000D02*
X507730000Y-67100000D01*
X514850000Y-67100000D02*
X512730000Y-67100000D01*
X514850000Y-79400000D02*
X514850000Y-67100000D01*
X512730000Y-79400000D02*
X514850000Y-79400000D01*
X507730000Y-79400000D02*
X509670000Y-79400000D01*
X502550000Y-79400000D02*
X504670000Y-79400000D01*
X502550000Y-67100000D02*
X502550000Y-79400000D01*
X504670000Y-67100000D02*
X502550000Y-67100000D01*
X513319050Y-73350000D02*
G75*
G03*
X513319050Y-73350000I-4579050J0D01*
G01*
X518720000Y-83110000D02*
X518720000Y-85650000D01*
X521260000Y-83110000D02*
X521260000Y-85650000D01*
X523800000Y-83110000D02*
X523800000Y-85650000D01*
X516140000Y-67220000D02*
X516140000Y-83110000D01*
X526380000Y-67220000D02*
X526380000Y-83110000D01*
X526380000Y-67220000D02*
X516140000Y-67220000D01*
X526380000Y-83110000D02*
X516140000Y-83110000D01*
X530795000Y-85869801D02*
X530395000Y-85869801D01*
X530595000Y-86069801D02*
X530595000Y-85669801D01*
X529770000Y-81719000D02*
X529030000Y-81719000D01*
X529937000Y-81759000D02*
X528863000Y-81759000D01*
X530064000Y-81799000D02*
X528736000Y-81799000D01*
X530168000Y-81839000D02*
X528632000Y-81839000D01*
X530259000Y-81879000D02*
X528541000Y-81879000D01*
X530340000Y-81919000D02*
X528460000Y-81919000D01*
X530413000Y-81959000D02*
X528387000Y-81959000D01*
X528560000Y-81999000D02*
X528320000Y-81999000D01*
X530480000Y-81999000D02*
X530240000Y-81999000D01*
X528560000Y-82039000D02*
X528258000Y-82039000D01*
X530542000Y-82039000D02*
X530240000Y-82039000D01*
X528560000Y-82079000D02*
X528200000Y-82079000D01*
X530600000Y-82079000D02*
X530240000Y-82079000D01*
X528560000Y-82119000D02*
X528146000Y-82119000D01*
X530654000Y-82119000D02*
X530240000Y-82119000D01*
X528560000Y-82159000D02*
X528096000Y-82159000D01*
X530704000Y-82159000D02*
X530240000Y-82159000D01*
X528560000Y-82199000D02*
X528049000Y-82199000D01*
X530751000Y-82199000D02*
X530240000Y-82199000D01*
X528560000Y-82239000D02*
X528004000Y-82239000D01*
X530796000Y-82239000D02*
X530240000Y-82239000D01*
X528560000Y-82279000D02*
X527962000Y-82279000D01*
X530838000Y-82279000D02*
X530240000Y-82279000D01*
X528560000Y-82319000D02*
X527922000Y-82319000D01*
X530878000Y-82319000D02*
X530240000Y-82319000D01*
X528560000Y-82359000D02*
X527884000Y-82359000D01*
X530916000Y-82359000D02*
X530240000Y-82359000D01*
X528560000Y-82399000D02*
X527848000Y-82399000D01*
X530952000Y-82399000D02*
X530240000Y-82399000D01*
X528560000Y-82439000D02*
X527813000Y-82439000D01*
X530987000Y-82439000D02*
X530240000Y-82439000D01*
X528560000Y-82479000D02*
X527781000Y-82479000D01*
X531019000Y-82479000D02*
X530240000Y-82479000D01*
X528560000Y-82519000D02*
X527750000Y-82519000D01*
X531050000Y-82519000D02*
X530240000Y-82519000D01*
X528560000Y-82559000D02*
X527720000Y-82559000D01*
X531080000Y-82559000D02*
X530240000Y-82559000D01*
X528560000Y-82599000D02*
X527692000Y-82599000D01*
X531108000Y-82599000D02*
X530240000Y-82599000D01*
X528560000Y-82639000D02*
X527665000Y-82639000D01*
X531135000Y-82639000D02*
X530240000Y-82639000D01*
X528560000Y-82679000D02*
X527640000Y-82679000D01*
X531160000Y-82679000D02*
X530240000Y-82679000D01*
X528560000Y-82719000D02*
X527615000Y-82719000D01*
X531185000Y-82719000D02*
X530240000Y-82719000D01*
X528560000Y-82759000D02*
X527592000Y-82759000D01*
X531208000Y-82759000D02*
X530240000Y-82759000D01*
X528560000Y-82799000D02*
X527570000Y-82799000D01*
X531230000Y-82799000D02*
X530240000Y-82799000D01*
X528560000Y-82839000D02*
X527549000Y-82839000D01*
X531251000Y-82839000D02*
X530240000Y-82839000D01*
X528560000Y-82879000D02*
X527530000Y-82879000D01*
X531270000Y-82879000D02*
X530240000Y-82879000D01*
X528560000Y-82919000D02*
X527511000Y-82919000D01*
X531289000Y-82919000D02*
X530240000Y-82919000D01*
X528560000Y-82959000D02*
X527493000Y-82959000D01*
X531307000Y-82959000D02*
X530240000Y-82959000D01*
X528560000Y-82999000D02*
X527476000Y-82999000D01*
X531324000Y-82999000D02*
X530240000Y-82999000D01*
X528560000Y-83039000D02*
X527460000Y-83039000D01*
X531340000Y-83039000D02*
X530240000Y-83039000D01*
X528560000Y-83079000D02*
X527446000Y-83079000D01*
X531354000Y-83079000D02*
X530240000Y-83079000D01*
X528560000Y-83120000D02*
X527432000Y-83120000D01*
X531368000Y-83120000D02*
X530240000Y-83120000D01*
X528560000Y-83160000D02*
X527418000Y-83160000D01*
X531382000Y-83160000D02*
X530240000Y-83160000D01*
X528560000Y-83200000D02*
X527406000Y-83200000D01*
X531394000Y-83200000D02*
X530240000Y-83200000D01*
X528560000Y-83240000D02*
X527395000Y-83240000D01*
X531405000Y-83240000D02*
X530240000Y-83240000D01*
X528560000Y-83280000D02*
X527384000Y-83280000D01*
X531416000Y-83280000D02*
X530240000Y-83280000D01*
X528560000Y-83320000D02*
X527375000Y-83320000D01*
X531425000Y-83320000D02*
X530240000Y-83320000D01*
X528560000Y-83360000D02*
X527366000Y-83360000D01*
X531434000Y-83360000D02*
X530240000Y-83360000D01*
X528560000Y-83400000D02*
X527358000Y-83400000D01*
X531442000Y-83400000D02*
X530240000Y-83400000D01*
X528560000Y-83440000D02*
X527350000Y-83440000D01*
X531450000Y-83440000D02*
X530240000Y-83440000D01*
X528560000Y-83480000D02*
X527344000Y-83480000D01*
X531456000Y-83480000D02*
X530240000Y-83480000D01*
X528560000Y-83520000D02*
X527338000Y-83520000D01*
X531462000Y-83520000D02*
X530240000Y-83520000D01*
X528560000Y-83560000D02*
X527333000Y-83560000D01*
X531467000Y-83560000D02*
X530240000Y-83560000D01*
X528560000Y-83600000D02*
X527329000Y-83600000D01*
X531471000Y-83600000D02*
X530240000Y-83600000D01*
X531474000Y-83640000D02*
X527326000Y-83640000D01*
X531477000Y-83680000D02*
X527323000Y-83680000D01*
X531479000Y-83720000D02*
X527321000Y-83720000D01*
X531480000Y-83760000D02*
X527320000Y-83760000D01*
X531480000Y-83800000D02*
X527320000Y-83800000D01*
X531520000Y-83800000D02*
G75*
G03*
X531520000Y-83800000I-2120000J0D01*
G01*
X528005000Y-88730199D02*
X528405000Y-88730199D01*
X528205000Y-88530199D02*
X528205000Y-88930199D01*
X529030000Y-92881000D02*
X529770000Y-92881000D01*
X528863000Y-92841000D02*
X529937000Y-92841000D01*
X528736000Y-92801000D02*
X530064000Y-92801000D01*
X528632000Y-92761000D02*
X530168000Y-92761000D01*
X528541000Y-92721000D02*
X530259000Y-92721000D01*
X528460000Y-92681000D02*
X530340000Y-92681000D01*
X528387000Y-92641000D02*
X530413000Y-92641000D01*
X530240000Y-92601000D02*
X530480000Y-92601000D01*
X528320000Y-92601000D02*
X528560000Y-92601000D01*
X530240000Y-92561000D02*
X530542000Y-92561000D01*
X528258000Y-92561000D02*
X528560000Y-92561000D01*
X530240000Y-92521000D02*
X530600000Y-92521000D01*
X528200000Y-92521000D02*
X528560000Y-92521000D01*
X530240000Y-92481000D02*
X530654000Y-92481000D01*
X528146000Y-92481000D02*
X528560000Y-92481000D01*
X530240000Y-92441000D02*
X530704000Y-92441000D01*
X528096000Y-92441000D02*
X528560000Y-92441000D01*
X530240000Y-92401000D02*
X530751000Y-92401000D01*
X528049000Y-92401000D02*
X528560000Y-92401000D01*
X530240000Y-92361000D02*
X530796000Y-92361000D01*
X528004000Y-92361000D02*
X528560000Y-92361000D01*
X530240000Y-92321000D02*
X530838000Y-92321000D01*
X527962000Y-92321000D02*
X528560000Y-92321000D01*
X530240000Y-92281000D02*
X530878000Y-92281000D01*
X527922000Y-92281000D02*
X528560000Y-92281000D01*
X530240000Y-92241000D02*
X530916000Y-92241000D01*
X527884000Y-92241000D02*
X528560000Y-92241000D01*
X530240000Y-92201000D02*
X530952000Y-92201000D01*
X527848000Y-92201000D02*
X528560000Y-92201000D01*
X530240000Y-92161000D02*
X530987000Y-92161000D01*
X527813000Y-92161000D02*
X528560000Y-92161000D01*
X530240000Y-92121000D02*
X531019000Y-92121000D01*
X527781000Y-92121000D02*
X528560000Y-92121000D01*
X530240000Y-92081000D02*
X531050000Y-92081000D01*
X527750000Y-92081000D02*
X528560000Y-92081000D01*
X530240000Y-92041000D02*
X531080000Y-92041000D01*
X527720000Y-92041000D02*
X528560000Y-92041000D01*
X530240000Y-92001000D02*
X531108000Y-92001000D01*
X527692000Y-92001000D02*
X528560000Y-92001000D01*
X530240000Y-91961000D02*
X531135000Y-91961000D01*
X527665000Y-91961000D02*
X528560000Y-91961000D01*
X530240000Y-91921000D02*
X531160000Y-91921000D01*
X527640000Y-91921000D02*
X528560000Y-91921000D01*
X530240000Y-91881000D02*
X531185000Y-91881000D01*
X527615000Y-91881000D02*
X528560000Y-91881000D01*
X530240000Y-91841000D02*
X531208000Y-91841000D01*
X527592000Y-91841000D02*
X528560000Y-91841000D01*
X530240000Y-91801000D02*
X531230000Y-91801000D01*
X527570000Y-91801000D02*
X528560000Y-91801000D01*
X530240000Y-91761000D02*
X531251000Y-91761000D01*
X527549000Y-91761000D02*
X528560000Y-91761000D01*
X530240000Y-91721000D02*
X531270000Y-91721000D01*
X527530000Y-91721000D02*
X528560000Y-91721000D01*
X530240000Y-91681000D02*
X531289000Y-91681000D01*
X527511000Y-91681000D02*
X528560000Y-91681000D01*
X530240000Y-91641000D02*
X531307000Y-91641000D01*
X527493000Y-91641000D02*
X528560000Y-91641000D01*
X530240000Y-91601000D02*
X531324000Y-91601000D01*
X527476000Y-91601000D02*
X528560000Y-91601000D01*
X530240000Y-91561000D02*
X531340000Y-91561000D01*
X527460000Y-91561000D02*
X528560000Y-91561000D01*
X530240000Y-91521000D02*
X531354000Y-91521000D01*
X527446000Y-91521000D02*
X528560000Y-91521000D01*
X530240000Y-91480000D02*
X531368000Y-91480000D01*
X527432000Y-91480000D02*
X528560000Y-91480000D01*
X530240000Y-91440000D02*
X531382000Y-91440000D01*
X527418000Y-91440000D02*
X528560000Y-91440000D01*
X530240000Y-91400000D02*
X531394000Y-91400000D01*
X527406000Y-91400000D02*
X528560000Y-91400000D01*
X530240000Y-91360000D02*
X531405000Y-91360000D01*
X527395000Y-91360000D02*
X528560000Y-91360000D01*
X530240000Y-91320000D02*
X531416000Y-91320000D01*
X527384000Y-91320000D02*
X528560000Y-91320000D01*
X530240000Y-91280000D02*
X531425000Y-91280000D01*
X527375000Y-91280000D02*
X528560000Y-91280000D01*
X530240000Y-91240000D02*
X531434000Y-91240000D01*
X527366000Y-91240000D02*
X528560000Y-91240000D01*
X530240000Y-91200000D02*
X531442000Y-91200000D01*
X527358000Y-91200000D02*
X528560000Y-91200000D01*
X530240000Y-91160000D02*
X531450000Y-91160000D01*
X527350000Y-91160000D02*
X528560000Y-91160000D01*
X530240000Y-91120000D02*
X531456000Y-91120000D01*
X527344000Y-91120000D02*
X528560000Y-91120000D01*
X530240000Y-91080000D02*
X531462000Y-91080000D01*
X527338000Y-91080000D02*
X528560000Y-91080000D01*
X530240000Y-91040000D02*
X531467000Y-91040000D01*
X527333000Y-91040000D02*
X528560000Y-91040000D01*
X530240000Y-91000000D02*
X531471000Y-91000000D01*
X527329000Y-91000000D02*
X528560000Y-91000000D01*
X527326000Y-90960000D02*
X531474000Y-90960000D01*
X527323000Y-90920000D02*
X531477000Y-90920000D01*
X527321000Y-90880000D02*
X531479000Y-90880000D01*
X527320000Y-90840000D02*
X531480000Y-90840000D01*
X527320000Y-90800000D02*
X531480000Y-90800000D01*
X531520000Y-90800000D02*
G75*
G03*
X531520000Y-90800000I-2120000J0D01*
G01*
X558950000Y-92650000D02*
X558950000Y-78150000D01*
X558950000Y-78150000D02*
X534650000Y-78150000D01*
X534650000Y-78150000D02*
X534650000Y-92650000D01*
X534650000Y-92650000D02*
X558950000Y-92650000D01*
X496250000Y-69850000D02*
X473750000Y-69850000D01*
X473750000Y-69850000D02*
X473750000Y-122650000D01*
X473750000Y-122650000D02*
X496250000Y-122650000D01*
X496250000Y-122650000D02*
X496250000Y-69850000D01*
X376060000Y-290390000D02*
X365560000Y-290390000D01*
X376060000Y-269830000D02*
X376060000Y-290390000D01*
X365560000Y-269830000D02*
X376060000Y-269830000D01*
X365560000Y-290390000D02*
X365560000Y-269830000D01*
X373060000Y-290330000D02*
X371810000Y-290330000D01*
X373060000Y-269890000D02*
X373060000Y-290330000D01*
X368560000Y-269890000D02*
X373060000Y-269890000D01*
X368560000Y-290330000D02*
X368560000Y-269890000D01*
X369810000Y-290330000D02*
X368560000Y-290330000D01*
X371810000Y-290330000D02*
G75*
G03*
X369810000Y-290330000I-1000000J0D01*
G01*
X354810000Y-290140000D02*
X344310000Y-290140000D01*
X354810000Y-269580000D02*
X354810000Y-290140000D01*
X344310000Y-269580000D02*
X354810000Y-269580000D01*
X344310000Y-290140000D02*
X344310000Y-269580000D01*
X351810000Y-290080000D02*
X350560000Y-290080000D01*
X351810000Y-269640000D02*
X351810000Y-290080000D01*
X347310000Y-269640000D02*
X351810000Y-269640000D01*
X347310000Y-290080000D02*
X347310000Y-269640000D01*
X348560000Y-290080000D02*
X347310000Y-290080000D01*
X350560000Y-290080000D02*
G75*
G03*
X348560000Y-290080000I-1000000J0D01*
G01*
X388060000Y-106390000D02*
X377560000Y-106390000D01*
X388060000Y-85830000D02*
X388060000Y-106390000D01*
X377560000Y-85830000D02*
X388060000Y-85830000D01*
X377560000Y-106390000D02*
X377560000Y-85830000D01*
X385060000Y-106330000D02*
X383810000Y-106330000D01*
X385060000Y-85890000D02*
X385060000Y-106330000D01*
X380560000Y-85890000D02*
X385060000Y-85890000D01*
X380560000Y-106330000D02*
X380560000Y-85890000D01*
X381810000Y-106330000D02*
X380560000Y-106330000D01*
X383810000Y-106330000D02*
G75*
G03*
X381810000Y-106330000I-1000000J0D01*
G01*
X419810000Y-106890000D02*
X409310000Y-106890000D01*
X419810000Y-86330000D02*
X419810000Y-106890000D01*
X409310000Y-86330000D02*
X419810000Y-86330000D01*
X409310000Y-106890000D02*
X409310000Y-86330000D01*
X416810000Y-106830000D02*
X415560000Y-106830000D01*
X416810000Y-86390000D02*
X416810000Y-106830000D01*
X412310000Y-86390000D02*
X416810000Y-86390000D01*
X412310000Y-106830000D02*
X412310000Y-86390000D01*
X413560000Y-106830000D02*
X412310000Y-106830000D01*
X415560000Y-106830000D02*
G75*
G03*
X413560000Y-106830000I-1000000J0D01*
G01*
X412080000Y-139710000D02*
X414820000Y-139710000D01*
X414820000Y-139710000D02*
X414820000Y-146250000D01*
X414820000Y-146250000D02*
X412080000Y-146250000D01*
X412080000Y-146250000D02*
X412080000Y-139710000D01*
X413450000Y-138940000D02*
X413450000Y-139710000D01*
X413450000Y-147020000D02*
X413450000Y-146250000D01*
X381140000Y-153340000D02*
X381140000Y-163840000D01*
X363120000Y-153340000D02*
X381140000Y-153340000D01*
X363120000Y-163840000D02*
X363120000Y-153340000D01*
X381140000Y-163840000D02*
X363120000Y-163840000D01*
X381080000Y-156340000D02*
X381080000Y-157590000D01*
X363180000Y-156340000D02*
X381080000Y-156340000D01*
X363180000Y-160840000D02*
X363180000Y-156340000D01*
X381080000Y-160840000D02*
X363180000Y-160840000D01*
X381080000Y-159590000D02*
X381080000Y-160840000D01*
X381080000Y-157590000D02*
G75*
G03*
X381080000Y-159590000I0J-1000000D01*
G01*
X376110000Y-196040000D02*
X365610000Y-196040000D01*
X376110000Y-178020000D02*
X376110000Y-196040000D01*
X365610000Y-178020000D02*
X376110000Y-178020000D01*
X365610000Y-196040000D02*
X365610000Y-178020000D01*
X373110000Y-195980000D02*
X371860000Y-195980000D01*
X373110000Y-178080000D02*
X373110000Y-195980000D01*
X368610000Y-178080000D02*
X373110000Y-178080000D01*
X368610000Y-195980000D02*
X368610000Y-178080000D01*
X369860000Y-195980000D02*
X368610000Y-195980000D01*
X371860000Y-195980000D02*
G75*
G03*
X369860000Y-195980000I-1000000J0D01*
G01*
X319460000Y-196030000D02*
X318210000Y-196030000D01*
X318210000Y-196030000D02*
X318210000Y-175590000D01*
X318210000Y-175590000D02*
X322710000Y-175590000D01*
X322710000Y-175590000D02*
X322710000Y-196030000D01*
X322710000Y-196030000D02*
X321460000Y-196030000D01*
X315210000Y-196090000D02*
X315210000Y-175530000D01*
X315210000Y-175530000D02*
X325710000Y-175530000D01*
X325710000Y-175530000D02*
X325710000Y-196090000D01*
X325710000Y-196090000D02*
X315210000Y-196090000D01*
X321460000Y-196030000D02*
G75*
G03*
X319460000Y-196030000I-1000000J0D01*
G01*
X348910000Y-242470000D02*
X348910000Y-239730000D01*
X348910000Y-239730000D02*
X355450000Y-239730000D01*
X355450000Y-239730000D02*
X355450000Y-242470000D01*
X355450000Y-242470000D02*
X348910000Y-242470000D01*
X348140000Y-241100000D02*
X348910000Y-241100000D01*
X356220000Y-241100000D02*
X355450000Y-241100000D01*
X385710000Y-196030000D02*
X384460000Y-196030000D01*
X384460000Y-196030000D02*
X384460000Y-175590000D01*
X384460000Y-175590000D02*
X388960000Y-175590000D01*
X388960000Y-175590000D02*
X388960000Y-196030000D01*
X388960000Y-196030000D02*
X387710000Y-196030000D01*
X381460000Y-196090000D02*
X381460000Y-175530000D01*
X381460000Y-175530000D02*
X391960000Y-175530000D01*
X391960000Y-175530000D02*
X391960000Y-196090000D01*
X391960000Y-196090000D02*
X381460000Y-196090000D01*
X387710000Y-196030000D02*
G75*
G03*
X385710000Y-196030000I-1000000J0D01*
G01*
X347260000Y-195980000D02*
X346010000Y-195980000D01*
X346010000Y-195980000D02*
X346010000Y-175540000D01*
X346010000Y-175540000D02*
X350510000Y-175540000D01*
X350510000Y-175540000D02*
X350510000Y-195980000D01*
X350510000Y-195980000D02*
X349260000Y-195980000D01*
X343010000Y-196040000D02*
X343010000Y-175480000D01*
X343010000Y-175480000D02*
X353510000Y-175480000D01*
X353510000Y-175480000D02*
X353510000Y-196040000D01*
X353510000Y-196040000D02*
X343010000Y-196040000D01*
X349260000Y-195980000D02*
G75*
G03*
X347260000Y-195980000I-1000000J0D01*
G01*
X291620000Y-267400000D02*
G75*
G03*
X291620000Y-267400000I-2620000J0D01*
G01*
X290040000Y-267400000D02*
X291580000Y-267400000D01*
X286420000Y-267400000D02*
X287960000Y-267400000D01*
X290040000Y-267440000D02*
X291580000Y-267440000D01*
X286420000Y-267440000D02*
X287960000Y-267440000D01*
X286421000Y-267480000D02*
X287960000Y-267480000D01*
X290040000Y-267480000D02*
X291579000Y-267480000D01*
X286422000Y-267520000D02*
X287960000Y-267520000D01*
X290040000Y-267520000D02*
X291578000Y-267520000D01*
X286424000Y-267560000D02*
X287960000Y-267560000D01*
X290040000Y-267560000D02*
X291576000Y-267560000D01*
X286427000Y-267600000D02*
X287960000Y-267600000D01*
X290040000Y-267600000D02*
X291573000Y-267600000D01*
X286431000Y-267640000D02*
X287960000Y-267640000D01*
X290040000Y-267640000D02*
X291569000Y-267640000D01*
X286435000Y-267680000D02*
X287960000Y-267680000D01*
X290040000Y-267680000D02*
X291565000Y-267680000D01*
X286439000Y-267720000D02*
X287960000Y-267720000D01*
X290040000Y-267720000D02*
X291561000Y-267720000D01*
X286444000Y-267760000D02*
X287960000Y-267760000D01*
X290040000Y-267760000D02*
X291556000Y-267760000D01*
X286450000Y-267800000D02*
X287960000Y-267800000D01*
X290040000Y-267800000D02*
X291550000Y-267800000D01*
X286457000Y-267840000D02*
X287960000Y-267840000D01*
X290040000Y-267840000D02*
X291543000Y-267840000D01*
X286464000Y-267880000D02*
X287960000Y-267880000D01*
X290040000Y-267880000D02*
X291536000Y-267880000D01*
X286472000Y-267920000D02*
X287960000Y-267920000D01*
X290040000Y-267920000D02*
X291528000Y-267920000D01*
X286480000Y-267960000D02*
X287960000Y-267960000D01*
X290040000Y-267960000D02*
X291520000Y-267960000D01*
X286489000Y-268000000D02*
X287960000Y-268000000D01*
X290040000Y-268000000D02*
X291511000Y-268000000D01*
X286499000Y-268040000D02*
X287960000Y-268040000D01*
X290040000Y-268040000D02*
X291501000Y-268040000D01*
X286509000Y-268080000D02*
X287960000Y-268080000D01*
X290040000Y-268080000D02*
X291491000Y-268080000D01*
X286520000Y-268121000D02*
X287960000Y-268121000D01*
X290040000Y-268121000D02*
X291480000Y-268121000D01*
X286532000Y-268161000D02*
X287960000Y-268161000D01*
X290040000Y-268161000D02*
X291468000Y-268161000D01*
X286545000Y-268201000D02*
X287960000Y-268201000D01*
X290040000Y-268201000D02*
X291455000Y-268201000D01*
X286558000Y-268241000D02*
X287960000Y-268241000D01*
X290040000Y-268241000D02*
X291442000Y-268241000D01*
X286572000Y-268281000D02*
X287960000Y-268281000D01*
X290040000Y-268281000D02*
X291428000Y-268281000D01*
X286586000Y-268321000D02*
X287960000Y-268321000D01*
X290040000Y-268321000D02*
X291414000Y-268321000D01*
X286602000Y-268361000D02*
X287960000Y-268361000D01*
X290040000Y-268361000D02*
X291398000Y-268361000D01*
X286618000Y-268401000D02*
X287960000Y-268401000D01*
X290040000Y-268401000D02*
X291382000Y-268401000D01*
X286635000Y-268441000D02*
X287960000Y-268441000D01*
X290040000Y-268441000D02*
X291365000Y-268441000D01*
X286652000Y-268481000D02*
X287960000Y-268481000D01*
X290040000Y-268481000D02*
X291348000Y-268481000D01*
X286671000Y-268521000D02*
X287960000Y-268521000D01*
X290040000Y-268521000D02*
X291329000Y-268521000D01*
X286690000Y-268561000D02*
X287960000Y-268561000D01*
X290040000Y-268561000D02*
X291310000Y-268561000D01*
X286710000Y-268601000D02*
X287960000Y-268601000D01*
X290040000Y-268601000D02*
X291290000Y-268601000D01*
X286732000Y-268641000D02*
X287960000Y-268641000D01*
X290040000Y-268641000D02*
X291268000Y-268641000D01*
X286753000Y-268681000D02*
X287960000Y-268681000D01*
X290040000Y-268681000D02*
X291247000Y-268681000D01*
X286776000Y-268721000D02*
X287960000Y-268721000D01*
X290040000Y-268721000D02*
X291224000Y-268721000D01*
X286800000Y-268761000D02*
X287960000Y-268761000D01*
X290040000Y-268761000D02*
X291200000Y-268761000D01*
X286825000Y-268801000D02*
X287960000Y-268801000D01*
X290040000Y-268801000D02*
X291175000Y-268801000D01*
X286851000Y-268841000D02*
X287960000Y-268841000D01*
X290040000Y-268841000D02*
X291149000Y-268841000D01*
X286878000Y-268881000D02*
X287960000Y-268881000D01*
X290040000Y-268881000D02*
X291122000Y-268881000D01*
X286905000Y-268921000D02*
X287960000Y-268921000D01*
X290040000Y-268921000D02*
X291095000Y-268921000D01*
X286935000Y-268961000D02*
X287960000Y-268961000D01*
X290040000Y-268961000D02*
X291065000Y-268961000D01*
X286965000Y-269001000D02*
X287960000Y-269001000D01*
X290040000Y-269001000D02*
X291035000Y-269001000D01*
X286996000Y-269041000D02*
X287960000Y-269041000D01*
X290040000Y-269041000D02*
X291004000Y-269041000D01*
X287029000Y-269081000D02*
X287960000Y-269081000D01*
X290040000Y-269081000D02*
X290971000Y-269081000D01*
X287063000Y-269121000D02*
X287960000Y-269121000D01*
X290040000Y-269121000D02*
X290937000Y-269121000D01*
X287099000Y-269161000D02*
X287960000Y-269161000D01*
X290040000Y-269161000D02*
X290901000Y-269161000D01*
X287136000Y-269201000D02*
X287960000Y-269201000D01*
X290040000Y-269201000D02*
X290864000Y-269201000D01*
X287174000Y-269241000D02*
X287960000Y-269241000D01*
X290040000Y-269241000D02*
X290826000Y-269241000D01*
X287215000Y-269281000D02*
X287960000Y-269281000D01*
X290040000Y-269281000D02*
X290785000Y-269281000D01*
X287257000Y-269321000D02*
X287960000Y-269321000D01*
X290040000Y-269321000D02*
X290743000Y-269321000D01*
X287301000Y-269361000D02*
X287960000Y-269361000D01*
X290040000Y-269361000D02*
X290699000Y-269361000D01*
X287347000Y-269401000D02*
X287960000Y-269401000D01*
X290040000Y-269401000D02*
X290653000Y-269401000D01*
X287395000Y-269441000D02*
X290605000Y-269441000D01*
X287446000Y-269481000D02*
X290554000Y-269481000D01*
X287500000Y-269521000D02*
X290500000Y-269521000D01*
X287557000Y-269561000D02*
X290443000Y-269561000D01*
X287617000Y-269601000D02*
X290383000Y-269601000D01*
X287681000Y-269641000D02*
X290319000Y-269641000D01*
X287749000Y-269681000D02*
X290251000Y-269681000D01*
X287822000Y-269721000D02*
X290178000Y-269721000D01*
X287902000Y-269761000D02*
X290098000Y-269761000D01*
X287989000Y-269801000D02*
X290011000Y-269801000D01*
X288085000Y-269841000D02*
X289915000Y-269841000D01*
X288195000Y-269881000D02*
X289805000Y-269881000D01*
X288323000Y-269921000D02*
X289677000Y-269921000D01*
X288482000Y-269961000D02*
X289518000Y-269961000D01*
X288716000Y-270001000D02*
X289284000Y-270001000D01*
X287525000Y-264595225D02*
X287525000Y-265095225D01*
X287275000Y-264845225D02*
X287775000Y-264845225D01*
X257320000Y-266800000D02*
G75*
G03*
X257320000Y-266800000I-2120000J0D01*
G01*
X253120000Y-266800000D02*
X257280000Y-266800000D01*
X253120000Y-266840000D02*
X257280000Y-266840000D01*
X253121000Y-266880000D02*
X257279000Y-266880000D01*
X253123000Y-266920000D02*
X257277000Y-266920000D01*
X253126000Y-266960000D02*
X257274000Y-266960000D01*
X253129000Y-267000000D02*
X254360000Y-267000000D01*
X256040000Y-267000000D02*
X257271000Y-267000000D01*
X253133000Y-267040000D02*
X254360000Y-267040000D01*
X256040000Y-267040000D02*
X257267000Y-267040000D01*
X253138000Y-267080000D02*
X254360000Y-267080000D01*
X256040000Y-267080000D02*
X257262000Y-267080000D01*
X253144000Y-267120000D02*
X254360000Y-267120000D01*
X256040000Y-267120000D02*
X257256000Y-267120000D01*
X253150000Y-267160000D02*
X254360000Y-267160000D01*
X256040000Y-267160000D02*
X257250000Y-267160000D01*
X253158000Y-267200000D02*
X254360000Y-267200000D01*
X256040000Y-267200000D02*
X257242000Y-267200000D01*
X253166000Y-267240000D02*
X254360000Y-267240000D01*
X256040000Y-267240000D02*
X257234000Y-267240000D01*
X253175000Y-267280000D02*
X254360000Y-267280000D01*
X256040000Y-267280000D02*
X257225000Y-267280000D01*
X253184000Y-267320000D02*
X254360000Y-267320000D01*
X256040000Y-267320000D02*
X257216000Y-267320000D01*
X253195000Y-267360000D02*
X254360000Y-267360000D01*
X256040000Y-267360000D02*
X257205000Y-267360000D01*
X253206000Y-267400000D02*
X254360000Y-267400000D01*
X256040000Y-267400000D02*
X257194000Y-267400000D01*
X253218000Y-267440000D02*
X254360000Y-267440000D01*
X256040000Y-267440000D02*
X257182000Y-267440000D01*
X253232000Y-267480000D02*
X254360000Y-267480000D01*
X256040000Y-267480000D02*
X257168000Y-267480000D01*
X253246000Y-267521000D02*
X254360000Y-267521000D01*
X256040000Y-267521000D02*
X257154000Y-267521000D01*
X253260000Y-267561000D02*
X254360000Y-267561000D01*
X256040000Y-267561000D02*
X257140000Y-267561000D01*
X253276000Y-267601000D02*
X254360000Y-267601000D01*
X256040000Y-267601000D02*
X257124000Y-267601000D01*
X253293000Y-267641000D02*
X254360000Y-267641000D01*
X256040000Y-267641000D02*
X257107000Y-267641000D01*
X253311000Y-267681000D02*
X254360000Y-267681000D01*
X256040000Y-267681000D02*
X257089000Y-267681000D01*
X253330000Y-267721000D02*
X254360000Y-267721000D01*
X256040000Y-267721000D02*
X257070000Y-267721000D01*
X253349000Y-267761000D02*
X254360000Y-267761000D01*
X256040000Y-267761000D02*
X257051000Y-267761000D01*
X253370000Y-267801000D02*
X254360000Y-267801000D01*
X256040000Y-267801000D02*
X257030000Y-267801000D01*
X253392000Y-267841000D02*
X254360000Y-267841000D01*
X256040000Y-267841000D02*
X257008000Y-267841000D01*
X253415000Y-267881000D02*
X254360000Y-267881000D01*
X256040000Y-267881000D02*
X256985000Y-267881000D01*
X253440000Y-267921000D02*
X254360000Y-267921000D01*
X256040000Y-267921000D02*
X256960000Y-267921000D01*
X253465000Y-267961000D02*
X254360000Y-267961000D01*
X256040000Y-267961000D02*
X256935000Y-267961000D01*
X253492000Y-268001000D02*
X254360000Y-268001000D01*
X256040000Y-268001000D02*
X256908000Y-268001000D01*
X253520000Y-268041000D02*
X254360000Y-268041000D01*
X256040000Y-268041000D02*
X256880000Y-268041000D01*
X253550000Y-268081000D02*
X254360000Y-268081000D01*
X256040000Y-268081000D02*
X256850000Y-268081000D01*
X253581000Y-268121000D02*
X254360000Y-268121000D01*
X256040000Y-268121000D02*
X256819000Y-268121000D01*
X253613000Y-268161000D02*
X254360000Y-268161000D01*
X256040000Y-268161000D02*
X256787000Y-268161000D01*
X253648000Y-268201000D02*
X254360000Y-268201000D01*
X256040000Y-268201000D02*
X256752000Y-268201000D01*
X253684000Y-268241000D02*
X254360000Y-268241000D01*
X256040000Y-268241000D02*
X256716000Y-268241000D01*
X253722000Y-268281000D02*
X254360000Y-268281000D01*
X256040000Y-268281000D02*
X256678000Y-268281000D01*
X253762000Y-268321000D02*
X254360000Y-268321000D01*
X256040000Y-268321000D02*
X256638000Y-268321000D01*
X253804000Y-268361000D02*
X254360000Y-268361000D01*
X256040000Y-268361000D02*
X256596000Y-268361000D01*
X253849000Y-268401000D02*
X254360000Y-268401000D01*
X256040000Y-268401000D02*
X256551000Y-268401000D01*
X253896000Y-268441000D02*
X254360000Y-268441000D01*
X256040000Y-268441000D02*
X256504000Y-268441000D01*
X253946000Y-268481000D02*
X254360000Y-268481000D01*
X256040000Y-268481000D02*
X256454000Y-268481000D01*
X254000000Y-268521000D02*
X254360000Y-268521000D01*
X256040000Y-268521000D02*
X256400000Y-268521000D01*
X254058000Y-268561000D02*
X254360000Y-268561000D01*
X256040000Y-268561000D02*
X256342000Y-268561000D01*
X254120000Y-268601000D02*
X254360000Y-268601000D01*
X256040000Y-268601000D02*
X256280000Y-268601000D01*
X254187000Y-268641000D02*
X256213000Y-268641000D01*
X254260000Y-268681000D02*
X256140000Y-268681000D01*
X254341000Y-268721000D02*
X256059000Y-268721000D01*
X254432000Y-268761000D02*
X255968000Y-268761000D01*
X254536000Y-268801000D02*
X255864000Y-268801000D01*
X254663000Y-268841000D02*
X255737000Y-268841000D01*
X254830000Y-268881000D02*
X255570000Y-268881000D01*
X254005000Y-264530199D02*
X254005000Y-264930199D01*
X253805000Y-264730199D02*
X254205000Y-264730199D01*
X291620000Y-275400000D02*
G75*
G03*
X291620000Y-275400000I-2620000J0D01*
G01*
X290040000Y-275400000D02*
X291580000Y-275400000D01*
X286420000Y-275400000D02*
X287960000Y-275400000D01*
X290040000Y-275440000D02*
X291580000Y-275440000D01*
X286420000Y-275440000D02*
X287960000Y-275440000D01*
X286421000Y-275480000D02*
X287960000Y-275480000D01*
X290040000Y-275480000D02*
X291579000Y-275480000D01*
X286422000Y-275520000D02*
X287960000Y-275520000D01*
X290040000Y-275520000D02*
X291578000Y-275520000D01*
X286424000Y-275560000D02*
X287960000Y-275560000D01*
X290040000Y-275560000D02*
X291576000Y-275560000D01*
X286427000Y-275600000D02*
X287960000Y-275600000D01*
X290040000Y-275600000D02*
X291573000Y-275600000D01*
X286431000Y-275640000D02*
X287960000Y-275640000D01*
X290040000Y-275640000D02*
X291569000Y-275640000D01*
X286435000Y-275680000D02*
X287960000Y-275680000D01*
X290040000Y-275680000D02*
X291565000Y-275680000D01*
X286439000Y-275720000D02*
X287960000Y-275720000D01*
X290040000Y-275720000D02*
X291561000Y-275720000D01*
X286444000Y-275760000D02*
X287960000Y-275760000D01*
X290040000Y-275760000D02*
X291556000Y-275760000D01*
X286450000Y-275800000D02*
X287960000Y-275800000D01*
X290040000Y-275800000D02*
X291550000Y-275800000D01*
X286457000Y-275840000D02*
X287960000Y-275840000D01*
X290040000Y-275840000D02*
X291543000Y-275840000D01*
X286464000Y-275880000D02*
X287960000Y-275880000D01*
X290040000Y-275880000D02*
X291536000Y-275880000D01*
X286472000Y-275920000D02*
X287960000Y-275920000D01*
X290040000Y-275920000D02*
X291528000Y-275920000D01*
X286480000Y-275960000D02*
X287960000Y-275960000D01*
X290040000Y-275960000D02*
X291520000Y-275960000D01*
X286489000Y-276000000D02*
X287960000Y-276000000D01*
X290040000Y-276000000D02*
X291511000Y-276000000D01*
X286499000Y-276040000D02*
X287960000Y-276040000D01*
X290040000Y-276040000D02*
X291501000Y-276040000D01*
X286509000Y-276080000D02*
X287960000Y-276080000D01*
X290040000Y-276080000D02*
X291491000Y-276080000D01*
X286520000Y-276121000D02*
X287960000Y-276121000D01*
X290040000Y-276121000D02*
X291480000Y-276121000D01*
X286532000Y-276161000D02*
X287960000Y-276161000D01*
X290040000Y-276161000D02*
X291468000Y-276161000D01*
X286545000Y-276201000D02*
X287960000Y-276201000D01*
X290040000Y-276201000D02*
X291455000Y-276201000D01*
X286558000Y-276241000D02*
X287960000Y-276241000D01*
X290040000Y-276241000D02*
X291442000Y-276241000D01*
X286572000Y-276281000D02*
X287960000Y-276281000D01*
X290040000Y-276281000D02*
X291428000Y-276281000D01*
X286586000Y-276321000D02*
X287960000Y-276321000D01*
X290040000Y-276321000D02*
X291414000Y-276321000D01*
X286602000Y-276361000D02*
X287960000Y-276361000D01*
X290040000Y-276361000D02*
X291398000Y-276361000D01*
X286618000Y-276401000D02*
X287960000Y-276401000D01*
X290040000Y-276401000D02*
X291382000Y-276401000D01*
X286635000Y-276441000D02*
X287960000Y-276441000D01*
X290040000Y-276441000D02*
X291365000Y-276441000D01*
X286652000Y-276481000D02*
X287960000Y-276481000D01*
X290040000Y-276481000D02*
X291348000Y-276481000D01*
X286671000Y-276521000D02*
X287960000Y-276521000D01*
X290040000Y-276521000D02*
X291329000Y-276521000D01*
X286690000Y-276561000D02*
X287960000Y-276561000D01*
X290040000Y-276561000D02*
X291310000Y-276561000D01*
X286710000Y-276601000D02*
X287960000Y-276601000D01*
X290040000Y-276601000D02*
X291290000Y-276601000D01*
X286732000Y-276641000D02*
X287960000Y-276641000D01*
X290040000Y-276641000D02*
X291268000Y-276641000D01*
X286753000Y-276681000D02*
X287960000Y-276681000D01*
X290040000Y-276681000D02*
X291247000Y-276681000D01*
X286776000Y-276721000D02*
X287960000Y-276721000D01*
X290040000Y-276721000D02*
X291224000Y-276721000D01*
X286800000Y-276761000D02*
X287960000Y-276761000D01*
X290040000Y-276761000D02*
X291200000Y-276761000D01*
X286825000Y-276801000D02*
X287960000Y-276801000D01*
X290040000Y-276801000D02*
X291175000Y-276801000D01*
X286851000Y-276841000D02*
X287960000Y-276841000D01*
X290040000Y-276841000D02*
X291149000Y-276841000D01*
X286878000Y-276881000D02*
X287960000Y-276881000D01*
X290040000Y-276881000D02*
X291122000Y-276881000D01*
X286905000Y-276921000D02*
X287960000Y-276921000D01*
X290040000Y-276921000D02*
X291095000Y-276921000D01*
X286935000Y-276961000D02*
X287960000Y-276961000D01*
X290040000Y-276961000D02*
X291065000Y-276961000D01*
X286965000Y-277001000D02*
X287960000Y-277001000D01*
X290040000Y-277001000D02*
X291035000Y-277001000D01*
X286996000Y-277041000D02*
X287960000Y-277041000D01*
X290040000Y-277041000D02*
X291004000Y-277041000D01*
X287029000Y-277081000D02*
X287960000Y-277081000D01*
X290040000Y-277081000D02*
X290971000Y-277081000D01*
X287063000Y-277121000D02*
X287960000Y-277121000D01*
X290040000Y-277121000D02*
X290937000Y-277121000D01*
X287099000Y-277161000D02*
X287960000Y-277161000D01*
X290040000Y-277161000D02*
X290901000Y-277161000D01*
X287136000Y-277201000D02*
X287960000Y-277201000D01*
X290040000Y-277201000D02*
X290864000Y-277201000D01*
X287174000Y-277241000D02*
X287960000Y-277241000D01*
X290040000Y-277241000D02*
X290826000Y-277241000D01*
X287215000Y-277281000D02*
X287960000Y-277281000D01*
X290040000Y-277281000D02*
X290785000Y-277281000D01*
X287257000Y-277321000D02*
X287960000Y-277321000D01*
X290040000Y-277321000D02*
X290743000Y-277321000D01*
X287301000Y-277361000D02*
X287960000Y-277361000D01*
X290040000Y-277361000D02*
X290699000Y-277361000D01*
X287347000Y-277401000D02*
X287960000Y-277401000D01*
X290040000Y-277401000D02*
X290653000Y-277401000D01*
X287395000Y-277441000D02*
X290605000Y-277441000D01*
X287446000Y-277481000D02*
X290554000Y-277481000D01*
X287500000Y-277521000D02*
X290500000Y-277521000D01*
X287557000Y-277561000D02*
X290443000Y-277561000D01*
X287617000Y-277601000D02*
X290383000Y-277601000D01*
X287681000Y-277641000D02*
X290319000Y-277641000D01*
X287749000Y-277681000D02*
X290251000Y-277681000D01*
X287822000Y-277721000D02*
X290178000Y-277721000D01*
X287902000Y-277761000D02*
X290098000Y-277761000D01*
X287989000Y-277801000D02*
X290011000Y-277801000D01*
X288085000Y-277841000D02*
X289915000Y-277841000D01*
X288195000Y-277881000D02*
X289805000Y-277881000D01*
X288323000Y-277921000D02*
X289677000Y-277921000D01*
X288482000Y-277961000D02*
X289518000Y-277961000D01*
X288716000Y-278001000D02*
X289284000Y-278001000D01*
X287525000Y-272595225D02*
X287525000Y-273095225D01*
X287275000Y-272845225D02*
X287775000Y-272845225D01*
X257420000Y-275400000D02*
G75*
G03*
X257420000Y-275400000I-2120000J0D01*
G01*
X253220000Y-275400000D02*
X257380000Y-275400000D01*
X253220000Y-275440000D02*
X257380000Y-275440000D01*
X253221000Y-275480000D02*
X257379000Y-275480000D01*
X253223000Y-275520000D02*
X257377000Y-275520000D01*
X253226000Y-275560000D02*
X257374000Y-275560000D01*
X253229000Y-275600000D02*
X254460000Y-275600000D01*
X256140000Y-275600000D02*
X257371000Y-275600000D01*
X253233000Y-275640000D02*
X254460000Y-275640000D01*
X256140000Y-275640000D02*
X257367000Y-275640000D01*
X253238000Y-275680000D02*
X254460000Y-275680000D01*
X256140000Y-275680000D02*
X257362000Y-275680000D01*
X253244000Y-275720000D02*
X254460000Y-275720000D01*
X256140000Y-275720000D02*
X257356000Y-275720000D01*
X253250000Y-275760000D02*
X254460000Y-275760000D01*
X256140000Y-275760000D02*
X257350000Y-275760000D01*
X253258000Y-275800000D02*
X254460000Y-275800000D01*
X256140000Y-275800000D02*
X257342000Y-275800000D01*
X253266000Y-275840000D02*
X254460000Y-275840000D01*
X256140000Y-275840000D02*
X257334000Y-275840000D01*
X253275000Y-275880000D02*
X254460000Y-275880000D01*
X256140000Y-275880000D02*
X257325000Y-275880000D01*
X253284000Y-275920000D02*
X254460000Y-275920000D01*
X256140000Y-275920000D02*
X257316000Y-275920000D01*
X253295000Y-275960000D02*
X254460000Y-275960000D01*
X256140000Y-275960000D02*
X257305000Y-275960000D01*
X253306000Y-276000000D02*
X254460000Y-276000000D01*
X256140000Y-276000000D02*
X257294000Y-276000000D01*
X253318000Y-276040000D02*
X254460000Y-276040000D01*
X256140000Y-276040000D02*
X257282000Y-276040000D01*
X253332000Y-276080000D02*
X254460000Y-276080000D01*
X256140000Y-276080000D02*
X257268000Y-276080000D01*
X253346000Y-276121000D02*
X254460000Y-276121000D01*
X256140000Y-276121000D02*
X257254000Y-276121000D01*
X253360000Y-276161000D02*
X254460000Y-276161000D01*
X256140000Y-276161000D02*
X257240000Y-276161000D01*
X253376000Y-276201000D02*
X254460000Y-276201000D01*
X256140000Y-276201000D02*
X257224000Y-276201000D01*
X253393000Y-276241000D02*
X254460000Y-276241000D01*
X256140000Y-276241000D02*
X257207000Y-276241000D01*
X253411000Y-276281000D02*
X254460000Y-276281000D01*
X256140000Y-276281000D02*
X257189000Y-276281000D01*
X253430000Y-276321000D02*
X254460000Y-276321000D01*
X256140000Y-276321000D02*
X257170000Y-276321000D01*
X253449000Y-276361000D02*
X254460000Y-276361000D01*
X256140000Y-276361000D02*
X257151000Y-276361000D01*
X253470000Y-276401000D02*
X254460000Y-276401000D01*
X256140000Y-276401000D02*
X257130000Y-276401000D01*
X253492000Y-276441000D02*
X254460000Y-276441000D01*
X256140000Y-276441000D02*
X257108000Y-276441000D01*
X253515000Y-276481000D02*
X254460000Y-276481000D01*
X256140000Y-276481000D02*
X257085000Y-276481000D01*
X253540000Y-276521000D02*
X254460000Y-276521000D01*
X256140000Y-276521000D02*
X257060000Y-276521000D01*
X253565000Y-276561000D02*
X254460000Y-276561000D01*
X256140000Y-276561000D02*
X257035000Y-276561000D01*
X253592000Y-276601000D02*
X254460000Y-276601000D01*
X256140000Y-276601000D02*
X257008000Y-276601000D01*
X253620000Y-276641000D02*
X254460000Y-276641000D01*
X256140000Y-276641000D02*
X256980000Y-276641000D01*
X253650000Y-276681000D02*
X254460000Y-276681000D01*
X256140000Y-276681000D02*
X256950000Y-276681000D01*
X253681000Y-276721000D02*
X254460000Y-276721000D01*
X256140000Y-276721000D02*
X256919000Y-276721000D01*
X253713000Y-276761000D02*
X254460000Y-276761000D01*
X256140000Y-276761000D02*
X256887000Y-276761000D01*
X253748000Y-276801000D02*
X254460000Y-276801000D01*
X256140000Y-276801000D02*
X256852000Y-276801000D01*
X253784000Y-276841000D02*
X254460000Y-276841000D01*
X256140000Y-276841000D02*
X256816000Y-276841000D01*
X253822000Y-276881000D02*
X254460000Y-276881000D01*
X256140000Y-276881000D02*
X256778000Y-276881000D01*
X253862000Y-276921000D02*
X254460000Y-276921000D01*
X256140000Y-276921000D02*
X256738000Y-276921000D01*
X253904000Y-276961000D02*
X254460000Y-276961000D01*
X256140000Y-276961000D02*
X256696000Y-276961000D01*
X253949000Y-277001000D02*
X254460000Y-277001000D01*
X256140000Y-277001000D02*
X256651000Y-277001000D01*
X253996000Y-277041000D02*
X254460000Y-277041000D01*
X256140000Y-277041000D02*
X256604000Y-277041000D01*
X254046000Y-277081000D02*
X254460000Y-277081000D01*
X256140000Y-277081000D02*
X256554000Y-277081000D01*
X254100000Y-277121000D02*
X254460000Y-277121000D01*
X256140000Y-277121000D02*
X256500000Y-277121000D01*
X254158000Y-277161000D02*
X254460000Y-277161000D01*
X256140000Y-277161000D02*
X256442000Y-277161000D01*
X254220000Y-277201000D02*
X254460000Y-277201000D01*
X256140000Y-277201000D02*
X256380000Y-277201000D01*
X254287000Y-277241000D02*
X256313000Y-277241000D01*
X254360000Y-277281000D02*
X256240000Y-277281000D01*
X254441000Y-277321000D02*
X256159000Y-277321000D01*
X254532000Y-277361000D02*
X256068000Y-277361000D01*
X254636000Y-277401000D02*
X255964000Y-277401000D01*
X254763000Y-277441000D02*
X255837000Y-277441000D01*
X254930000Y-277481000D02*
X255670000Y-277481000D01*
X254105000Y-273130199D02*
X254105000Y-273530199D01*
X253905000Y-273330199D02*
X254305000Y-273330199D01*
X219660000Y-265590000D02*
X212820000Y-265590000D01*
X219660000Y-272830000D02*
X212820000Y-272830000D01*
X212820000Y-268500000D02*
X212820000Y-265590000D01*
X212820000Y-272830000D02*
X212820000Y-269800000D01*
X219660000Y-268500000D02*
X219660000Y-265590000D01*
X219660000Y-272830000D02*
X219660000Y-269800000D01*
X245970000Y-267850000D02*
X245200000Y-267850000D01*
X237890000Y-267850000D02*
X238660000Y-267850000D01*
X245200000Y-269220000D02*
X238660000Y-269220000D01*
X245200000Y-266480000D02*
X245200000Y-269220000D01*
X238660000Y-266480000D02*
X245200000Y-266480000D01*
X238660000Y-269220000D02*
X238660000Y-266480000D01*
X199780000Y-267600000D02*
X200550000Y-267600000D01*
X207860000Y-267600000D02*
X207090000Y-267600000D01*
X200550000Y-266230000D02*
X207090000Y-266230000D01*
X200550000Y-268970000D02*
X200550000Y-266230000D01*
X207090000Y-268970000D02*
X200550000Y-268970000D01*
X207090000Y-266230000D02*
X207090000Y-268970000D01*
X234750000Y-259150000D02*
G75*
G03*
X234750000Y-259150000I-5000000J0D01*
G01*
X205200000Y-259150000D02*
X208100000Y-259150000D01*
X220600000Y-259150000D02*
X217000000Y-259150000D01*
D11*
G36*
X216150000Y-261950000D02*
G01*
X217650000Y-262000000D01*
X217650000Y-256400000D01*
X216150000Y-256400000D01*
X216150000Y-261950000D01*
G37*
X216150000Y-261950000D02*
X217650000Y-262000000D01*
X217650000Y-256400000D01*
X216150000Y-256400000D01*
X216150000Y-261950000D01*
D10*
X208150000Y-262000000D02*
X217650000Y-262000000D01*
X208150000Y-256400000D02*
X208150000Y-262000000D01*
X217650000Y-256400000D02*
X217650000Y-262000000D01*
X217650000Y-256400000D02*
X208150000Y-256400000D01*
X239135000Y-256890302D02*
X239935000Y-256890302D01*
X239535000Y-256490302D02*
X239535000Y-257290302D01*
X241317000Y-264981000D02*
X242383000Y-264981000D01*
X241082000Y-264941000D02*
X242618000Y-264941000D01*
X240902000Y-264901000D02*
X242798000Y-264901000D01*
X240752000Y-264861000D02*
X242948000Y-264861000D01*
X240621000Y-264821000D02*
X243079000Y-264821000D01*
X240504000Y-264781000D02*
X243196000Y-264781000D01*
X240397000Y-264741000D02*
X243303000Y-264741000D01*
X240298000Y-264701000D02*
X243402000Y-264701000D01*
X240205000Y-264661000D02*
X243495000Y-264661000D01*
X240119000Y-264621000D02*
X243581000Y-264621000D01*
X240037000Y-264581000D02*
X243663000Y-264581000D01*
X239960000Y-264541000D02*
X243740000Y-264541000D01*
X239886000Y-264501000D02*
X243814000Y-264501000D01*
X239816000Y-264461000D02*
X243884000Y-264461000D01*
X239748000Y-264421000D02*
X243952000Y-264421000D01*
X239684000Y-264381000D02*
X244016000Y-264381000D01*
X239622000Y-264341000D02*
X244078000Y-264341000D01*
X239563000Y-264301000D02*
X244137000Y-264301000D01*
X239505000Y-264261000D02*
X244195000Y-264261000D01*
X239450000Y-264221000D02*
X244250000Y-264221000D01*
X239396000Y-264181000D02*
X244304000Y-264181000D01*
X239345000Y-264141000D02*
X244355000Y-264141000D01*
X239294000Y-264101000D02*
X244406000Y-264101000D01*
X239246000Y-264061000D02*
X244454000Y-264061000D01*
X239199000Y-264021000D02*
X244501000Y-264021000D01*
X239153000Y-263981000D02*
X244547000Y-263981000D01*
X239109000Y-263941000D02*
X244591000Y-263941000D01*
X239066000Y-263901000D02*
X244634000Y-263901000D01*
X239024000Y-263861000D02*
X244676000Y-263861000D01*
X238983000Y-263821000D02*
X244717000Y-263821000D01*
X238943000Y-263781000D02*
X244757000Y-263781000D01*
X238905000Y-263741000D02*
X244795000Y-263741000D01*
X238867000Y-263701000D02*
X244833000Y-263701000D01*
X242890000Y-263661000D02*
X244869000Y-263661000D01*
X238831000Y-263661000D02*
X240810000Y-263661000D01*
X242890000Y-263621000D02*
X244905000Y-263621000D01*
X238795000Y-263621000D02*
X240810000Y-263621000D01*
X242890000Y-263581000D02*
X244940000Y-263581000D01*
X238760000Y-263581000D02*
X240810000Y-263581000D01*
X242890000Y-263541000D02*
X244974000Y-263541000D01*
X238726000Y-263541000D02*
X240810000Y-263541000D01*
X242890000Y-263501000D02*
X245006000Y-263501000D01*
X238694000Y-263501000D02*
X240810000Y-263501000D01*
X242890000Y-263461000D02*
X245039000Y-263461000D01*
X238661000Y-263461000D02*
X240810000Y-263461000D01*
X242890000Y-263421000D02*
X245070000Y-263421000D01*
X238630000Y-263421000D02*
X240810000Y-263421000D01*
X242890000Y-263381000D02*
X245100000Y-263381000D01*
X238600000Y-263381000D02*
X240810000Y-263381000D01*
X242890000Y-263341000D02*
X245130000Y-263341000D01*
X238570000Y-263341000D02*
X240810000Y-263341000D01*
X242890000Y-263301000D02*
X245159000Y-263301000D01*
X238541000Y-263301000D02*
X240810000Y-263301000D01*
X242890000Y-263261000D02*
X245188000Y-263261000D01*
X238512000Y-263261000D02*
X240810000Y-263261000D01*
X242890000Y-263221000D02*
X245215000Y-263221000D01*
X238485000Y-263221000D02*
X240810000Y-263221000D01*
X242890000Y-263181000D02*
X245242000Y-263181000D01*
X238458000Y-263181000D02*
X240810000Y-263181000D01*
X242890000Y-263141000D02*
X245268000Y-263141000D01*
X238432000Y-263141000D02*
X240810000Y-263141000D01*
X242890000Y-263101000D02*
X245294000Y-263101000D01*
X238406000Y-263101000D02*
X240810000Y-263101000D01*
X242890000Y-263061000D02*
X245319000Y-263061000D01*
X238381000Y-263061000D02*
X240810000Y-263061000D01*
X242890000Y-263021000D02*
X245343000Y-263021000D01*
X238357000Y-263021000D02*
X240810000Y-263021000D01*
X242890000Y-262981000D02*
X245367000Y-262981000D01*
X238333000Y-262981000D02*
X240810000Y-262981000D01*
X242890000Y-262941000D02*
X245390000Y-262941000D01*
X238310000Y-262941000D02*
X240810000Y-262941000D01*
X242890000Y-262901000D02*
X245412000Y-262901000D01*
X238288000Y-262901000D02*
X240810000Y-262901000D01*
X242890000Y-262861000D02*
X245434000Y-262861000D01*
X238266000Y-262861000D02*
X240810000Y-262861000D01*
X242890000Y-262821000D02*
X245456000Y-262821000D01*
X238244000Y-262821000D02*
X240810000Y-262821000D01*
X242890000Y-262781000D02*
X245477000Y-262781000D01*
X238223000Y-262781000D02*
X240810000Y-262781000D01*
X242890000Y-262741000D02*
X245497000Y-262741000D01*
X238203000Y-262741000D02*
X240810000Y-262741000D01*
X242890000Y-262701000D02*
X245516000Y-262701000D01*
X238184000Y-262701000D02*
X240810000Y-262701000D01*
X242890000Y-262661000D02*
X245536000Y-262661000D01*
X238164000Y-262661000D02*
X240810000Y-262661000D01*
X242890000Y-262621000D02*
X245554000Y-262621000D01*
X238146000Y-262621000D02*
X240810000Y-262621000D01*
X242890000Y-262581000D02*
X245572000Y-262581000D01*
X238128000Y-262581000D02*
X240810000Y-262581000D01*
X242890000Y-262541000D02*
X245590000Y-262541000D01*
X238110000Y-262541000D02*
X240810000Y-262541000D01*
X242890000Y-262501000D02*
X245607000Y-262501000D01*
X238093000Y-262501000D02*
X240810000Y-262501000D01*
X242890000Y-262461000D02*
X245624000Y-262461000D01*
X238076000Y-262461000D02*
X240810000Y-262461000D01*
X242890000Y-262421000D02*
X245640000Y-262421000D01*
X238060000Y-262421000D02*
X240810000Y-262421000D01*
X242890000Y-262381000D02*
X245655000Y-262381000D01*
X238045000Y-262381000D02*
X240810000Y-262381000D01*
X242890000Y-262341000D02*
X245671000Y-262341000D01*
X238029000Y-262341000D02*
X240810000Y-262341000D01*
X242890000Y-262301000D02*
X245685000Y-262301000D01*
X238015000Y-262301000D02*
X240810000Y-262301000D01*
X242890000Y-262261000D02*
X245700000Y-262261000D01*
X238000000Y-262261000D02*
X240810000Y-262261000D01*
X242890000Y-262221000D02*
X245713000Y-262221000D01*
X237987000Y-262221000D02*
X240810000Y-262221000D01*
X242890000Y-262181000D02*
X245727000Y-262181000D01*
X237973000Y-262181000D02*
X240810000Y-262181000D01*
X242890000Y-262141000D02*
X245739000Y-262141000D01*
X237961000Y-262141000D02*
X240810000Y-262141000D01*
X242890000Y-262101000D02*
X245752000Y-262101000D01*
X237948000Y-262101000D02*
X240810000Y-262101000D01*
X242890000Y-262061000D02*
X245764000Y-262061000D01*
X237936000Y-262061000D02*
X240810000Y-262061000D01*
X242890000Y-262021000D02*
X245775000Y-262021000D01*
X237925000Y-262021000D02*
X240810000Y-262021000D01*
X242890000Y-261981000D02*
X245786000Y-261981000D01*
X237914000Y-261981000D02*
X240810000Y-261981000D01*
X242890000Y-261941000D02*
X245797000Y-261941000D01*
X237903000Y-261941000D02*
X240810000Y-261941000D01*
X242890000Y-261901000D02*
X245807000Y-261901000D01*
X237893000Y-261901000D02*
X240810000Y-261901000D01*
X242890000Y-261861000D02*
X245817000Y-261861000D01*
X237883000Y-261861000D02*
X240810000Y-261861000D01*
X242890000Y-261821000D02*
X245826000Y-261821000D01*
X237874000Y-261821000D02*
X240810000Y-261821000D01*
X242890000Y-261781000D02*
X245835000Y-261781000D01*
X237865000Y-261781000D02*
X240810000Y-261781000D01*
X242890000Y-261741000D02*
X245844000Y-261741000D01*
X237856000Y-261741000D02*
X240810000Y-261741000D01*
X242890000Y-261701000D02*
X245852000Y-261701000D01*
X237848000Y-261701000D02*
X240810000Y-261701000D01*
X242890000Y-261661000D02*
X245860000Y-261661000D01*
X237840000Y-261661000D02*
X240810000Y-261661000D01*
X242890000Y-261621000D02*
X245867000Y-261621000D01*
X237833000Y-261621000D02*
X240810000Y-261621000D01*
X237826000Y-261580000D02*
X245874000Y-261580000D01*
X237820000Y-261540000D02*
X245880000Y-261540000D01*
X237813000Y-261500000D02*
X245887000Y-261500000D01*
X237808000Y-261460000D02*
X245892000Y-261460000D01*
X237802000Y-261420000D02*
X245898000Y-261420000D01*
X237798000Y-261380000D02*
X245902000Y-261380000D01*
X237793000Y-261340000D02*
X245907000Y-261340000D01*
X237789000Y-261300000D02*
X245911000Y-261300000D01*
X237785000Y-261260000D02*
X245915000Y-261260000D01*
X237782000Y-261220000D02*
X245918000Y-261220000D01*
X237779000Y-261180000D02*
X245921000Y-261180000D01*
X237776000Y-261140000D02*
X245924000Y-261140000D01*
X237774000Y-261100000D02*
X245926000Y-261100000D01*
X237773000Y-261060000D02*
X245927000Y-261060000D01*
X237771000Y-261020000D02*
X245929000Y-261020000D01*
X237770000Y-260980000D02*
X245930000Y-260980000D01*
X237770000Y-260940000D02*
X245930000Y-260940000D01*
X237770000Y-260900000D02*
X245930000Y-260900000D01*
X245970000Y-260900000D02*
G75*
G03*
X245970000Y-260900000I-4120000J0D01*
G01*
X210425000Y-274720354D02*
X211425000Y-274720354D01*
X210925000Y-274220354D02*
X210925000Y-275220354D01*
X213201000Y-284781000D02*
X214399000Y-284781000D01*
X212938000Y-284741000D02*
X214662000Y-284741000D01*
X212738000Y-284701000D02*
X214862000Y-284701000D01*
X212570000Y-284661000D02*
X215030000Y-284661000D01*
X212422000Y-284621000D02*
X215178000Y-284621000D01*
X212290000Y-284581000D02*
X215310000Y-284581000D01*
X212170000Y-284541000D02*
X215430000Y-284541000D01*
X212058000Y-284501000D02*
X215542000Y-284501000D01*
X211954000Y-284461000D02*
X215646000Y-284461000D01*
X211856000Y-284421000D02*
X215744000Y-284421000D01*
X211763000Y-284381000D02*
X215837000Y-284381000D01*
X211675000Y-284341000D02*
X215925000Y-284341000D01*
X211591000Y-284301000D02*
X216009000Y-284301000D01*
X211511000Y-284261000D02*
X216089000Y-284261000D01*
X211435000Y-284221000D02*
X216165000Y-284221000D01*
X211361000Y-284181000D02*
X216239000Y-284181000D01*
X211290000Y-284141000D02*
X216310000Y-284141000D01*
X211221000Y-284101000D02*
X216379000Y-284101000D01*
X211155000Y-284061000D02*
X216445000Y-284061000D01*
X211091000Y-284021000D02*
X216509000Y-284021000D01*
X211030000Y-283981000D02*
X216570000Y-283981000D01*
X210970000Y-283941000D02*
X216630000Y-283941000D01*
X210911000Y-283901000D02*
X216689000Y-283901000D01*
X210855000Y-283861000D02*
X216745000Y-283861000D01*
X210800000Y-283821000D02*
X216800000Y-283821000D01*
X210746000Y-283781000D02*
X216854000Y-283781000D01*
X210694000Y-283741000D02*
X216906000Y-283741000D01*
X210644000Y-283701000D02*
X216956000Y-283701000D01*
X210594000Y-283661000D02*
X217006000Y-283661000D01*
X210546000Y-283621000D02*
X217054000Y-283621000D01*
X210499000Y-283581000D02*
X217101000Y-283581000D01*
X210453000Y-283541000D02*
X217147000Y-283541000D01*
X210408000Y-283501000D02*
X217192000Y-283501000D01*
X210364000Y-283461000D02*
X217236000Y-283461000D01*
X215041000Y-283421000D02*
X217278000Y-283421000D01*
X210322000Y-283421000D02*
X212559000Y-283421000D01*
X215041000Y-283381000D02*
X217320000Y-283381000D01*
X210280000Y-283381000D02*
X212559000Y-283381000D01*
X215041000Y-283341000D02*
X217361000Y-283341000D01*
X210239000Y-283341000D02*
X212559000Y-283341000D01*
X215041000Y-283301000D02*
X217401000Y-283301000D01*
X210199000Y-283301000D02*
X212559000Y-283301000D01*
X215041000Y-283261000D02*
X217440000Y-283261000D01*
X210160000Y-283261000D02*
X212559000Y-283261000D01*
X215041000Y-283221000D02*
X217479000Y-283221000D01*
X210121000Y-283221000D02*
X212559000Y-283221000D01*
X215041000Y-283181000D02*
X217516000Y-283181000D01*
X210084000Y-283181000D02*
X212559000Y-283181000D01*
X215041000Y-283141000D02*
X217553000Y-283141000D01*
X210047000Y-283141000D02*
X212559000Y-283141000D01*
X215041000Y-283101000D02*
X217589000Y-283101000D01*
X210011000Y-283101000D02*
X212559000Y-283101000D01*
X215041000Y-283061000D02*
X217624000Y-283061000D01*
X209976000Y-283061000D02*
X212559000Y-283061000D01*
X215041000Y-283021000D02*
X217658000Y-283021000D01*
X209942000Y-283021000D02*
X212559000Y-283021000D01*
X215041000Y-282981000D02*
X217692000Y-282981000D01*
X209908000Y-282981000D02*
X212559000Y-282981000D01*
X215041000Y-282941000D02*
X217725000Y-282941000D01*
X209875000Y-282941000D02*
X212559000Y-282941000D01*
X215041000Y-282901000D02*
X217757000Y-282901000D01*
X209843000Y-282901000D02*
X212559000Y-282901000D01*
X215041000Y-282861000D02*
X217789000Y-282861000D01*
X209811000Y-282861000D02*
X212559000Y-282861000D01*
X215041000Y-282821000D02*
X217820000Y-282821000D01*
X209780000Y-282821000D02*
X212559000Y-282821000D01*
X215041000Y-282781000D02*
X217850000Y-282781000D01*
X209750000Y-282781000D02*
X212559000Y-282781000D01*
X215041000Y-282741000D02*
X217880000Y-282741000D01*
X209720000Y-282741000D02*
X212559000Y-282741000D01*
X215041000Y-282701000D02*
X217910000Y-282701000D01*
X209690000Y-282701000D02*
X212559000Y-282701000D01*
X215041000Y-282661000D02*
X217938000Y-282661000D01*
X209662000Y-282661000D02*
X212559000Y-282661000D01*
X215041000Y-282621000D02*
X217966000Y-282621000D01*
X209634000Y-282621000D02*
X212559000Y-282621000D01*
X215041000Y-282581000D02*
X217994000Y-282581000D01*
X209606000Y-282581000D02*
X212559000Y-282581000D01*
X215041000Y-282541000D02*
X218021000Y-282541000D01*
X209579000Y-282541000D02*
X212559000Y-282541000D01*
X215041000Y-282501000D02*
X218047000Y-282501000D01*
X209553000Y-282501000D02*
X212559000Y-282501000D01*
X215041000Y-282461000D02*
X218073000Y-282461000D01*
X209527000Y-282461000D02*
X212559000Y-282461000D01*
X215041000Y-282421000D02*
X218098000Y-282421000D01*
X209502000Y-282421000D02*
X212559000Y-282421000D01*
X215041000Y-282381000D02*
X218123000Y-282381000D01*
X209477000Y-282381000D02*
X212559000Y-282381000D01*
X215041000Y-282341000D02*
X218147000Y-282341000D01*
X209453000Y-282341000D02*
X212559000Y-282341000D01*
X215041000Y-282301000D02*
X218171000Y-282301000D01*
X209429000Y-282301000D02*
X212559000Y-282301000D01*
X215041000Y-282261000D02*
X218195000Y-282261000D01*
X209405000Y-282261000D02*
X212559000Y-282261000D01*
X215041000Y-282221000D02*
X218217000Y-282221000D01*
X209383000Y-282221000D02*
X212559000Y-282221000D01*
X215041000Y-282181000D02*
X218240000Y-282181000D01*
X209360000Y-282181000D02*
X212559000Y-282181000D01*
X215041000Y-282141000D02*
X218262000Y-282141000D01*
X209338000Y-282141000D02*
X212559000Y-282141000D01*
X215041000Y-282101000D02*
X218283000Y-282101000D01*
X209317000Y-282101000D02*
X212559000Y-282101000D01*
X215041000Y-282061000D02*
X218304000Y-282061000D01*
X209296000Y-282061000D02*
X212559000Y-282061000D01*
X215041000Y-282021000D02*
X218325000Y-282021000D01*
X209275000Y-282021000D02*
X212559000Y-282021000D01*
X215041000Y-281981000D02*
X218345000Y-281981000D01*
X209255000Y-281981000D02*
X212559000Y-281981000D01*
X215041000Y-281941000D02*
X218364000Y-281941000D01*
X209236000Y-281941000D02*
X212559000Y-281941000D01*
X215041000Y-281901000D02*
X218384000Y-281901000D01*
X209216000Y-281901000D02*
X212559000Y-281901000D01*
X215041000Y-281861000D02*
X218403000Y-281861000D01*
X209197000Y-281861000D02*
X212559000Y-281861000D01*
X215041000Y-281821000D02*
X218421000Y-281821000D01*
X209179000Y-281821000D02*
X212559000Y-281821000D01*
X215041000Y-281781000D02*
X218439000Y-281781000D01*
X209161000Y-281781000D02*
X212559000Y-281781000D01*
X215041000Y-281741000D02*
X218457000Y-281741000D01*
X209143000Y-281741000D02*
X212559000Y-281741000D01*
X215041000Y-281701000D02*
X218474000Y-281701000D01*
X209126000Y-281701000D02*
X212559000Y-281701000D01*
X215041000Y-281661000D02*
X218490000Y-281661000D01*
X209110000Y-281661000D02*
X212559000Y-281661000D01*
X215041000Y-281621000D02*
X218507000Y-281621000D01*
X209093000Y-281621000D02*
X212559000Y-281621000D01*
X215041000Y-281581000D02*
X218523000Y-281581000D01*
X209077000Y-281581000D02*
X212559000Y-281581000D01*
X215041000Y-281541000D02*
X218538000Y-281541000D01*
X209062000Y-281541000D02*
X212559000Y-281541000D01*
X215041000Y-281501000D02*
X218554000Y-281501000D01*
X209046000Y-281501000D02*
X212559000Y-281501000D01*
X215041000Y-281461000D02*
X218568000Y-281461000D01*
X209032000Y-281461000D02*
X212559000Y-281461000D01*
X215041000Y-281421000D02*
X218583000Y-281421000D01*
X209017000Y-281421000D02*
X212559000Y-281421000D01*
X215041000Y-281381000D02*
X218597000Y-281381000D01*
X209003000Y-281381000D02*
X212559000Y-281381000D01*
X215041000Y-281341000D02*
X218611000Y-281341000D01*
X208989000Y-281341000D02*
X212559000Y-281341000D01*
X215041000Y-281301000D02*
X218624000Y-281301000D01*
X208976000Y-281301000D02*
X212559000Y-281301000D01*
X215041000Y-281261000D02*
X218637000Y-281261000D01*
X208963000Y-281261000D02*
X212559000Y-281261000D01*
X215041000Y-281221000D02*
X218650000Y-281221000D01*
X208950000Y-281221000D02*
X212559000Y-281221000D01*
X215041000Y-281181000D02*
X218662000Y-281181000D01*
X208938000Y-281181000D02*
X212559000Y-281181000D01*
X215041000Y-281141000D02*
X218674000Y-281141000D01*
X208926000Y-281141000D02*
X212559000Y-281141000D01*
X215041000Y-281101000D02*
X218685000Y-281101000D01*
X208915000Y-281101000D02*
X212559000Y-281101000D01*
X215041000Y-281061000D02*
X218697000Y-281061000D01*
X208903000Y-281061000D02*
X212559000Y-281061000D01*
X215041000Y-281021000D02*
X218707000Y-281021000D01*
X208893000Y-281021000D02*
X212559000Y-281021000D01*
X215041000Y-280981000D02*
X218718000Y-280981000D01*
X208882000Y-280981000D02*
X212559000Y-280981000D01*
X208872000Y-280941000D02*
X218728000Y-280941000D01*
X208862000Y-280901000D02*
X218738000Y-280901000D01*
X208853000Y-280861000D02*
X218747000Y-280861000D01*
X208844000Y-280821000D02*
X218756000Y-280821000D01*
X208835000Y-280781000D02*
X218765000Y-280781000D01*
X208826000Y-280741000D02*
X218774000Y-280741000D01*
X208818000Y-280701000D02*
X218782000Y-280701000D01*
X208810000Y-280661000D02*
X218790000Y-280661000D01*
X208803000Y-280621000D02*
X218797000Y-280621000D01*
X208796000Y-280581000D02*
X218804000Y-280581000D01*
X208789000Y-280541000D02*
X218811000Y-280541000D01*
X208782000Y-280501000D02*
X218818000Y-280501000D01*
X208776000Y-280461000D02*
X218824000Y-280461000D01*
X208770000Y-280421000D02*
X218830000Y-280421000D01*
X208765000Y-280380000D02*
X218835000Y-280380000D01*
X208760000Y-280340000D02*
X218840000Y-280340000D01*
X208755000Y-280300000D02*
X218845000Y-280300000D01*
X208750000Y-280260000D02*
X218850000Y-280260000D01*
X208746000Y-280220000D02*
X218854000Y-280220000D01*
X208742000Y-280180000D02*
X218858000Y-280180000D01*
X208738000Y-280140000D02*
X218862000Y-280140000D01*
X208735000Y-280100000D02*
X218865000Y-280100000D01*
X208732000Y-280060000D02*
X218868000Y-280060000D01*
X208730000Y-280020000D02*
X218870000Y-280020000D01*
X208727000Y-279980000D02*
X218873000Y-279980000D01*
X208725000Y-279940000D02*
X218875000Y-279940000D01*
X208723000Y-279900000D02*
X218877000Y-279900000D01*
X208722000Y-279860000D02*
X218878000Y-279860000D01*
X208721000Y-279820000D02*
X218879000Y-279820000D01*
X208720000Y-279780000D02*
X218880000Y-279780000D01*
X208720000Y-279740000D02*
X218880000Y-279740000D01*
X208720000Y-279700000D02*
X218880000Y-279700000D01*
X218920000Y-279700000D02*
G75*
G03*
X218920000Y-279700000I-5120000J0D01*
G01*
X249000000Y-278400000D02*
X235000000Y-278400000D01*
X249000000Y-270400000D02*
X249000000Y-278400000D01*
X235000000Y-270400000D02*
X249000000Y-270400000D01*
X235000000Y-278400000D02*
X235000000Y-270400000D01*
D12*
X512233333Y-52452380D02*
X512233333Y-51452380D01*
X511995238Y-51452380D01*
X511852380Y-51500000D01*
X511757142Y-51595238D01*
X511709523Y-51690476D01*
X511661904Y-51880952D01*
X511661904Y-52023809D01*
X511709523Y-52214285D01*
X511757142Y-52309523D01*
X511852380Y-52404761D01*
X511995238Y-52452380D01*
X512233333Y-52452380D01*
X510852380Y-52404761D02*
X510947619Y-52452380D01*
X511138095Y-52452380D01*
X511233333Y-52404761D01*
X511280952Y-52309523D01*
X511280952Y-51928571D01*
X511233333Y-51833333D01*
X511138095Y-51785714D01*
X510947619Y-51785714D01*
X510852380Y-51833333D01*
X510804761Y-51928571D01*
X510804761Y-52023809D01*
X511280952Y-52119047D01*
X510376190Y-52452380D02*
X510376190Y-51452380D01*
X510376190Y-51833333D02*
X510280952Y-51785714D01*
X510090476Y-51785714D01*
X509995238Y-51833333D01*
X509947619Y-51880952D01*
X509900000Y-51976190D01*
X509900000Y-52261904D01*
X509947619Y-52357142D01*
X509995238Y-52404761D01*
X510090476Y-52452380D01*
X510280952Y-52452380D01*
X510376190Y-52404761D01*
X509328571Y-52452380D02*
X509423809Y-52404761D01*
X509471428Y-52357142D01*
X509519047Y-52261904D01*
X509519047Y-51976190D01*
X509471428Y-51880952D01*
X509423809Y-51833333D01*
X509328571Y-51785714D01*
X509185714Y-51785714D01*
X509090476Y-51833333D01*
X509042857Y-51880952D01*
X508995238Y-51976190D01*
X508995238Y-52261904D01*
X509042857Y-52357142D01*
X509090476Y-52404761D01*
X509185714Y-52452380D01*
X509328571Y-52452380D01*
X508138095Y-51785714D02*
X508138095Y-52452380D01*
X508566666Y-51785714D02*
X508566666Y-52309523D01*
X508519047Y-52404761D01*
X508423809Y-52452380D01*
X508280952Y-52452380D01*
X508185714Y-52404761D01*
X508138095Y-52357142D01*
X507661904Y-51785714D02*
X507661904Y-52452380D01*
X507661904Y-51880952D02*
X507614285Y-51833333D01*
X507519047Y-51785714D01*
X507376190Y-51785714D01*
X507280952Y-51833333D01*
X507233333Y-51928571D01*
X507233333Y-52452380D01*
X506328571Y-52404761D02*
X506423809Y-52452380D01*
X506614285Y-52452380D01*
X506709523Y-52404761D01*
X506757142Y-52357142D01*
X506804761Y-52261904D01*
X506804761Y-51976190D01*
X506757142Y-51880952D01*
X506709523Y-51833333D01*
X506614285Y-51785714D01*
X506423809Y-51785714D01*
X506328571Y-51833333D01*
X505519047Y-52404761D02*
X505614285Y-52452380D01*
X505804761Y-52452380D01*
X505900000Y-52404761D01*
X505947619Y-52309523D01*
X505947619Y-51928571D01*
X505900000Y-51833333D01*
X505804761Y-51785714D01*
X505614285Y-51785714D01*
X505519047Y-51833333D01*
X505471428Y-51928571D01*
X505471428Y-52023809D01*
X505947619Y-52119047D01*
X504519047Y-52452380D02*
X505090476Y-52452380D01*
X504804761Y-52452380D02*
X504804761Y-51452380D01*
X504900000Y-51595238D01*
X504995238Y-51690476D01*
X505090476Y-51738095D01*
X518633333Y-115052380D02*
X518633333Y-114052380D01*
X518395238Y-114052380D01*
X518252380Y-114100000D01*
X518157142Y-114195238D01*
X518109523Y-114290476D01*
X518061904Y-114480952D01*
X518061904Y-114623809D01*
X518109523Y-114814285D01*
X518157142Y-114909523D01*
X518252380Y-115004761D01*
X518395238Y-115052380D01*
X518633333Y-115052380D01*
X517252380Y-115004761D02*
X517347619Y-115052380D01*
X517538095Y-115052380D01*
X517633333Y-115004761D01*
X517680952Y-114909523D01*
X517680952Y-114528571D01*
X517633333Y-114433333D01*
X517538095Y-114385714D01*
X517347619Y-114385714D01*
X517252380Y-114433333D01*
X517204761Y-114528571D01*
X517204761Y-114623809D01*
X517680952Y-114719047D01*
X516776190Y-115052380D02*
X516776190Y-114052380D01*
X516776190Y-114433333D02*
X516680952Y-114385714D01*
X516490476Y-114385714D01*
X516395238Y-114433333D01*
X516347619Y-114480952D01*
X516300000Y-114576190D01*
X516300000Y-114861904D01*
X516347619Y-114957142D01*
X516395238Y-115004761D01*
X516490476Y-115052380D01*
X516680952Y-115052380D01*
X516776190Y-115004761D01*
X515728571Y-115052380D02*
X515823809Y-115004761D01*
X515871428Y-114957142D01*
X515919047Y-114861904D01*
X515919047Y-114576190D01*
X515871428Y-114480952D01*
X515823809Y-114433333D01*
X515728571Y-114385714D01*
X515585714Y-114385714D01*
X515490476Y-114433333D01*
X515442857Y-114480952D01*
X515395238Y-114576190D01*
X515395238Y-114861904D01*
X515442857Y-114957142D01*
X515490476Y-115004761D01*
X515585714Y-115052380D01*
X515728571Y-115052380D01*
X514538095Y-114385714D02*
X514538095Y-115052380D01*
X514966666Y-114385714D02*
X514966666Y-114909523D01*
X514919047Y-115004761D01*
X514823809Y-115052380D01*
X514680952Y-115052380D01*
X514585714Y-115004761D01*
X514538095Y-114957142D01*
X514061904Y-114385714D02*
X514061904Y-115052380D01*
X514061904Y-114480952D02*
X514014285Y-114433333D01*
X513919047Y-114385714D01*
X513776190Y-114385714D01*
X513680952Y-114433333D01*
X513633333Y-114528571D01*
X513633333Y-115052380D01*
X512728571Y-115004761D02*
X512823809Y-115052380D01*
X513014285Y-115052380D01*
X513109523Y-115004761D01*
X513157142Y-114957142D01*
X513204761Y-114861904D01*
X513204761Y-114576190D01*
X513157142Y-114480952D01*
X513109523Y-114433333D01*
X513014285Y-114385714D01*
X512823809Y-114385714D01*
X512728571Y-114433333D01*
X511919047Y-115004761D02*
X512014285Y-115052380D01*
X512204761Y-115052380D01*
X512300000Y-115004761D01*
X512347619Y-114909523D01*
X512347619Y-114528571D01*
X512300000Y-114433333D01*
X512204761Y-114385714D01*
X512014285Y-114385714D01*
X511919047Y-114433333D01*
X511871428Y-114528571D01*
X511871428Y-114623809D01*
X512347619Y-114719047D01*
X511490476Y-114147619D02*
X511442857Y-114100000D01*
X511347619Y-114052380D01*
X511109523Y-114052380D01*
X511014285Y-114100000D01*
X510966666Y-114147619D01*
X510919047Y-114242857D01*
X510919047Y-114338095D01*
X510966666Y-114480952D01*
X511538095Y-115052380D01*
X510919047Y-115052380D01*
X503782380Y-120266666D02*
X504496666Y-120266666D01*
X504639523Y-120219047D01*
X504734761Y-120123809D01*
X504782380Y-119980952D01*
X504782380Y-119885714D01*
X503877619Y-120695238D02*
X503830000Y-120742857D01*
X503782380Y-120838095D01*
X503782380Y-121076190D01*
X503830000Y-121171428D01*
X503877619Y-121219047D01*
X503972857Y-121266666D01*
X504068095Y-121266666D01*
X504210952Y-121219047D01*
X504782380Y-120647619D01*
X504782380Y-121266666D01*
X537339047Y-118682380D02*
X537672380Y-118206190D01*
X537910476Y-118682380D02*
X537910476Y-117682380D01*
X537529523Y-117682380D01*
X537434285Y-117730000D01*
X537386666Y-117777619D01*
X537339047Y-117872857D01*
X537339047Y-118015714D01*
X537386666Y-118110952D01*
X537434285Y-118158571D01*
X537529523Y-118206190D01*
X537910476Y-118206190D01*
X537148571Y-118777619D02*
X536386666Y-118777619D01*
X535815238Y-118158571D02*
X535672380Y-118206190D01*
X535624761Y-118253809D01*
X535577142Y-118349047D01*
X535577142Y-118491904D01*
X535624761Y-118587142D01*
X535672380Y-118634761D01*
X535767619Y-118682380D01*
X536148571Y-118682380D01*
X536148571Y-117682380D01*
X535815238Y-117682380D01*
X535720000Y-117730000D01*
X535672380Y-117777619D01*
X535624761Y-117872857D01*
X535624761Y-117968095D01*
X535672380Y-118063333D01*
X535720000Y-118110952D01*
X535815238Y-118158571D01*
X536148571Y-118158571D01*
X535148571Y-117682380D02*
X535148571Y-118491904D01*
X535100952Y-118587142D01*
X535053333Y-118634761D01*
X534958095Y-118682380D01*
X534767619Y-118682380D01*
X534672380Y-118634761D01*
X534624761Y-118587142D01*
X534577142Y-118491904D01*
X534577142Y-117682380D01*
X534243809Y-117682380D02*
X533672380Y-117682380D01*
X533958095Y-118682380D02*
X533958095Y-117682380D01*
X533481904Y-117682380D02*
X532910476Y-117682380D01*
X533196190Y-118682380D02*
X533196190Y-117682380D01*
X532386666Y-117682380D02*
X532196190Y-117682380D01*
X532100952Y-117730000D01*
X532005714Y-117825238D01*
X531958095Y-118015714D01*
X531958095Y-118349047D01*
X532005714Y-118539523D01*
X532100952Y-118634761D01*
X532196190Y-118682380D01*
X532386666Y-118682380D01*
X532481904Y-118634761D01*
X532577142Y-118539523D01*
X532624761Y-118349047D01*
X532624761Y-118015714D01*
X532577142Y-117825238D01*
X532481904Y-117730000D01*
X532386666Y-117682380D01*
X531529523Y-118682380D02*
X531529523Y-117682380D01*
X530958095Y-118682380D01*
X530958095Y-117682380D01*
X530720000Y-118777619D02*
X529958095Y-118777619D01*
X529720000Y-118682380D02*
X529720000Y-117682380D01*
X529339047Y-117682380D01*
X529243809Y-117730000D01*
X529196190Y-117777619D01*
X529148571Y-117872857D01*
X529148571Y-118015714D01*
X529196190Y-118110952D01*
X529243809Y-118158571D01*
X529339047Y-118206190D01*
X529720000Y-118206190D01*
X528720000Y-117682380D02*
X528720000Y-118491904D01*
X528672380Y-118587142D01*
X528624761Y-118634761D01*
X528529523Y-118682380D01*
X528339047Y-118682380D01*
X528243809Y-118634761D01*
X528196190Y-118587142D01*
X528148571Y-118491904D01*
X528148571Y-117682380D01*
X527196190Y-118682380D02*
X527672380Y-118682380D01*
X527672380Y-117682380D01*
X526386666Y-118682380D02*
X526862857Y-118682380D01*
X526862857Y-117682380D01*
X526053333Y-117682380D02*
X526053333Y-118491904D01*
X526005714Y-118587142D01*
X525958095Y-118634761D01*
X525862857Y-118682380D01*
X525672380Y-118682380D01*
X525577142Y-118634761D01*
X525529523Y-118587142D01*
X525481904Y-118491904D01*
X525481904Y-117682380D01*
X525005714Y-118682380D02*
X525005714Y-117682380D01*
X524624761Y-117682380D01*
X524529523Y-117730000D01*
X524481904Y-117777619D01*
X524434285Y-117872857D01*
X524434285Y-118015714D01*
X524481904Y-118110952D01*
X524529523Y-118158571D01*
X524624761Y-118206190D01*
X525005714Y-118206190D01*
X523481904Y-118682380D02*
X524053333Y-118682380D01*
X523767619Y-118682380D02*
X523767619Y-117682380D01*
X523862857Y-117825238D01*
X523958095Y-117920476D01*
X524053333Y-117968095D01*
X534060952Y-127222380D02*
X534394285Y-126746190D01*
X534632380Y-127222380D02*
X534632380Y-126222380D01*
X534251428Y-126222380D01*
X534156190Y-126270000D01*
X534108571Y-126317619D01*
X534060952Y-126412857D01*
X534060952Y-126555714D01*
X534108571Y-126650952D01*
X534156190Y-126698571D01*
X534251428Y-126746190D01*
X534632380Y-126746190D01*
X533870476Y-127317619D02*
X533108571Y-127317619D01*
X532537142Y-126698571D02*
X532394285Y-126746190D01*
X532346666Y-126793809D01*
X532299047Y-126889047D01*
X532299047Y-127031904D01*
X532346666Y-127127142D01*
X532394285Y-127174761D01*
X532489523Y-127222380D01*
X532870476Y-127222380D01*
X532870476Y-126222380D01*
X532537142Y-126222380D01*
X532441904Y-126270000D01*
X532394285Y-126317619D01*
X532346666Y-126412857D01*
X532346666Y-126508095D01*
X532394285Y-126603333D01*
X532441904Y-126650952D01*
X532537142Y-126698571D01*
X532870476Y-126698571D01*
X531870476Y-126222380D02*
X531870476Y-127031904D01*
X531822857Y-127127142D01*
X531775238Y-127174761D01*
X531680000Y-127222380D01*
X531489523Y-127222380D01*
X531394285Y-127174761D01*
X531346666Y-127127142D01*
X531299047Y-127031904D01*
X531299047Y-126222380D01*
X530965714Y-126222380D02*
X530394285Y-126222380D01*
X530680000Y-127222380D02*
X530680000Y-126222380D01*
X530203809Y-126222380D02*
X529632380Y-126222380D01*
X529918095Y-127222380D02*
X529918095Y-126222380D01*
X529108571Y-126222380D02*
X528918095Y-126222380D01*
X528822857Y-126270000D01*
X528727619Y-126365238D01*
X528680000Y-126555714D01*
X528680000Y-126889047D01*
X528727619Y-127079523D01*
X528822857Y-127174761D01*
X528918095Y-127222380D01*
X529108571Y-127222380D01*
X529203809Y-127174761D01*
X529299047Y-127079523D01*
X529346666Y-126889047D01*
X529346666Y-126555714D01*
X529299047Y-126365238D01*
X529203809Y-126270000D01*
X529108571Y-126222380D01*
X528251428Y-127222380D02*
X528251428Y-126222380D01*
X527680000Y-127222380D01*
X527680000Y-126222380D01*
X527251428Y-126317619D02*
X527203809Y-126270000D01*
X527108571Y-126222380D01*
X526870476Y-126222380D01*
X526775238Y-126270000D01*
X526727619Y-126317619D01*
X526680000Y-126412857D01*
X526680000Y-126508095D01*
X526727619Y-126650952D01*
X527299047Y-127222380D01*
X526680000Y-127222380D01*
X452402380Y-90404761D02*
X451926190Y-90071428D01*
X452402380Y-89833333D02*
X451402380Y-89833333D01*
X451402380Y-90214285D01*
X451450000Y-90309523D01*
X451497619Y-90357142D01*
X451592857Y-90404761D01*
X451735714Y-90404761D01*
X451830952Y-90357142D01*
X451878571Y-90309523D01*
X451926190Y-90214285D01*
X451926190Y-89833333D01*
X451402380Y-90690476D02*
X452402380Y-91023809D01*
X451402380Y-91357142D01*
X452402380Y-92214285D02*
X452402380Y-91642857D01*
X452402380Y-91928571D02*
X451402380Y-91928571D01*
X451545238Y-91833333D01*
X451640476Y-91738095D01*
X451688095Y-91642857D01*
X454171904Y-83182380D02*
X454171904Y-83991904D01*
X454124285Y-84087142D01*
X454076666Y-84134761D01*
X453981428Y-84182380D01*
X453790952Y-84182380D01*
X453695714Y-84134761D01*
X453648095Y-84087142D01*
X453600476Y-83991904D01*
X453600476Y-83182380D01*
X452600476Y-84182380D02*
X453171904Y-84182380D01*
X452886190Y-84182380D02*
X452886190Y-83182380D01*
X452981428Y-83325238D01*
X453076666Y-83420476D01*
X453171904Y-83468095D01*
X465733333Y-80982380D02*
X465733333Y-81696666D01*
X465780952Y-81839523D01*
X465876190Y-81934761D01*
X466019047Y-81982380D01*
X466114285Y-81982380D01*
X464733333Y-81982380D02*
X465304761Y-81982380D01*
X465019047Y-81982380D02*
X465019047Y-80982380D01*
X465114285Y-81125238D01*
X465209523Y-81220476D01*
X465304761Y-81268095D01*
X360773333Y-84848571D02*
X360630476Y-84896190D01*
X360582857Y-84943809D01*
X360535238Y-85039047D01*
X360535238Y-85181904D01*
X360582857Y-85277142D01*
X360630476Y-85324761D01*
X360725714Y-85372380D01*
X361106666Y-85372380D01*
X361106666Y-84372380D01*
X360773333Y-84372380D01*
X360678095Y-84420000D01*
X360630476Y-84467619D01*
X360582857Y-84562857D01*
X360582857Y-84658095D01*
X360630476Y-84753333D01*
X360678095Y-84800952D01*
X360773333Y-84848571D01*
X361106666Y-84848571D01*
X359535238Y-85277142D02*
X359582857Y-85324761D01*
X359725714Y-85372380D01*
X359820952Y-85372380D01*
X359963809Y-85324761D01*
X360059047Y-85229523D01*
X360106666Y-85134285D01*
X360154285Y-84943809D01*
X360154285Y-84800952D01*
X360106666Y-84610476D01*
X360059047Y-84515238D01*
X359963809Y-84420000D01*
X359820952Y-84372380D01*
X359725714Y-84372380D01*
X359582857Y-84420000D01*
X359535238Y-84467619D01*
X359106666Y-85372380D02*
X359106666Y-84372380D01*
X358868571Y-84372380D01*
X358725714Y-84420000D01*
X358630476Y-84515238D01*
X358582857Y-84610476D01*
X358535238Y-84800952D01*
X358535238Y-84943809D01*
X358582857Y-85134285D01*
X358630476Y-85229523D01*
X358725714Y-85324761D01*
X358868571Y-85372380D01*
X359106666Y-85372380D01*
X358106666Y-84991428D02*
X357344761Y-84991428D01*
X356678095Y-84896190D02*
X356678095Y-85372380D01*
X357011428Y-84372380D02*
X356678095Y-84896190D01*
X356344761Y-84372380D01*
X356011428Y-84848571D02*
X355678095Y-84848571D01*
X355535238Y-85372380D02*
X356011428Y-85372380D01*
X356011428Y-84372380D01*
X355535238Y-84372380D01*
X355154285Y-85086666D02*
X354678095Y-85086666D01*
X355249523Y-85372380D02*
X354916190Y-84372380D01*
X354582857Y-85372380D01*
X353678095Y-85372380D02*
X354011428Y-84896190D01*
X354249523Y-85372380D02*
X354249523Y-84372380D01*
X353868571Y-84372380D01*
X353773333Y-84420000D01*
X353725714Y-84467619D01*
X353678095Y-84562857D01*
X353678095Y-84705714D01*
X353725714Y-84800952D01*
X353773333Y-84848571D01*
X353868571Y-84896190D01*
X354249523Y-84896190D01*
X352725714Y-85372380D02*
X353297142Y-85372380D01*
X353011428Y-85372380D02*
X353011428Y-84372380D01*
X353106666Y-84515238D01*
X353201904Y-84610476D01*
X353297142Y-84658095D01*
X404095714Y-291258571D02*
X403952857Y-291306190D01*
X403905238Y-291353809D01*
X403857619Y-291449047D01*
X403857619Y-291591904D01*
X403905238Y-291687142D01*
X403952857Y-291734761D01*
X404048095Y-291782380D01*
X404429047Y-291782380D01*
X404429047Y-290782380D01*
X404095714Y-290782380D01*
X404000476Y-290830000D01*
X403952857Y-290877619D01*
X403905238Y-290972857D01*
X403905238Y-291068095D01*
X403952857Y-291163333D01*
X404000476Y-291210952D01*
X404095714Y-291258571D01*
X404429047Y-291258571D01*
X402857619Y-291687142D02*
X402905238Y-291734761D01*
X403048095Y-291782380D01*
X403143333Y-291782380D01*
X403286190Y-291734761D01*
X403381428Y-291639523D01*
X403429047Y-291544285D01*
X403476666Y-291353809D01*
X403476666Y-291210952D01*
X403429047Y-291020476D01*
X403381428Y-290925238D01*
X403286190Y-290830000D01*
X403143333Y-290782380D01*
X403048095Y-290782380D01*
X402905238Y-290830000D01*
X402857619Y-290877619D01*
X402429047Y-291782380D02*
X402429047Y-290782380D01*
X402190952Y-290782380D01*
X402048095Y-290830000D01*
X401952857Y-290925238D01*
X401905238Y-291020476D01*
X401857619Y-291210952D01*
X401857619Y-291353809D01*
X401905238Y-291544285D01*
X401952857Y-291639523D01*
X402048095Y-291734761D01*
X402190952Y-291782380D01*
X402429047Y-291782380D01*
X401429047Y-291401428D02*
X400667142Y-291401428D01*
X400190952Y-291782380D02*
X400190952Y-290782380D01*
X399952857Y-290782380D01*
X399810000Y-290830000D01*
X399714761Y-290925238D01*
X399667142Y-291020476D01*
X399619523Y-291210952D01*
X399619523Y-291353809D01*
X399667142Y-291544285D01*
X399714761Y-291639523D01*
X399810000Y-291734761D01*
X399952857Y-291782380D01*
X400190952Y-291782380D01*
X399238571Y-291496666D02*
X398762380Y-291496666D01*
X399333809Y-291782380D02*
X399000476Y-290782380D01*
X398667142Y-291782380D01*
X398476666Y-290782380D02*
X397905238Y-290782380D01*
X398190952Y-291782380D02*
X398190952Y-290782380D01*
X397571904Y-291258571D02*
X397238571Y-291258571D01*
X397095714Y-291782380D02*
X397571904Y-291782380D01*
X397571904Y-290782380D01*
X397095714Y-290782380D01*
X396143333Y-291782380D02*
X396714761Y-291782380D01*
X396429047Y-291782380D02*
X396429047Y-290782380D01*
X396524285Y-290925238D01*
X396619523Y-291020476D01*
X396714761Y-291068095D01*
X382887142Y-135604285D02*
X382934761Y-135556666D01*
X382982380Y-135413809D01*
X382982380Y-135318571D01*
X382934761Y-135175714D01*
X382839523Y-135080476D01*
X382744285Y-135032857D01*
X382553809Y-134985238D01*
X382410952Y-134985238D01*
X382220476Y-135032857D01*
X382125238Y-135080476D01*
X382030000Y-135175714D01*
X381982380Y-135318571D01*
X381982380Y-135413809D01*
X382030000Y-135556666D01*
X382077619Y-135604285D01*
X382982380Y-136175714D02*
X382934761Y-136080476D01*
X382887142Y-136032857D01*
X382791904Y-135985238D01*
X382506190Y-135985238D01*
X382410952Y-136032857D01*
X382363333Y-136080476D01*
X382315714Y-136175714D01*
X382315714Y-136318571D01*
X382363333Y-136413809D01*
X382410952Y-136461428D01*
X382506190Y-136509047D01*
X382791904Y-136509047D01*
X382887142Y-136461428D01*
X382934761Y-136413809D01*
X382982380Y-136318571D01*
X382982380Y-136175714D01*
X382982380Y-136937619D02*
X382315714Y-136937619D01*
X382410952Y-136937619D02*
X382363333Y-136985238D01*
X382315714Y-137080476D01*
X382315714Y-137223333D01*
X382363333Y-137318571D01*
X382458571Y-137366190D01*
X382982380Y-137366190D01*
X382458571Y-137366190D02*
X382363333Y-137413809D01*
X382315714Y-137509047D01*
X382315714Y-137651904D01*
X382363333Y-137747142D01*
X382458571Y-137794761D01*
X382982380Y-137794761D01*
X382982380Y-138270952D02*
X382315714Y-138270952D01*
X382410952Y-138270952D02*
X382363333Y-138318571D01*
X382315714Y-138413809D01*
X382315714Y-138556666D01*
X382363333Y-138651904D01*
X382458571Y-138699523D01*
X382982380Y-138699523D01*
X382458571Y-138699523D02*
X382363333Y-138747142D01*
X382315714Y-138842380D01*
X382315714Y-138985238D01*
X382363333Y-139080476D01*
X382458571Y-139128095D01*
X382982380Y-139128095D01*
X382982380Y-139747142D02*
X382934761Y-139651904D01*
X382887142Y-139604285D01*
X382791904Y-139556666D01*
X382506190Y-139556666D01*
X382410952Y-139604285D01*
X382363333Y-139651904D01*
X382315714Y-139747142D01*
X382315714Y-139890000D01*
X382363333Y-139985238D01*
X382410952Y-140032857D01*
X382506190Y-140080476D01*
X382791904Y-140080476D01*
X382887142Y-140032857D01*
X382934761Y-139985238D01*
X382982380Y-139890000D01*
X382982380Y-139747142D01*
X382315714Y-140509047D02*
X382982380Y-140509047D01*
X382410952Y-140509047D02*
X382363333Y-140556666D01*
X382315714Y-140651904D01*
X382315714Y-140794761D01*
X382363333Y-140890000D01*
X382458571Y-140937619D01*
X382982380Y-140937619D01*
X382982380Y-141413809D02*
X381982380Y-141413809D01*
X381982380Y-141794761D01*
X382030000Y-141890000D01*
X382077619Y-141937619D01*
X382172857Y-141985238D01*
X382315714Y-141985238D01*
X382410952Y-141937619D01*
X382458571Y-141890000D01*
X382506190Y-141794761D01*
X382506190Y-141413809D01*
X382982380Y-142413809D02*
X382315714Y-142413809D01*
X381982380Y-142413809D02*
X382030000Y-142366190D01*
X382077619Y-142413809D01*
X382030000Y-142461428D01*
X381982380Y-142413809D01*
X382077619Y-142413809D01*
X382315714Y-142890000D02*
X382982380Y-142890000D01*
X382410952Y-142890000D02*
X382363333Y-142937619D01*
X382315714Y-143032857D01*
X382315714Y-143175714D01*
X382363333Y-143270952D01*
X382458571Y-143318571D01*
X382982380Y-143318571D01*
X382887142Y-144366190D02*
X382934761Y-144318571D01*
X382982380Y-144175714D01*
X382982380Y-144080476D01*
X382934761Y-143937619D01*
X382839523Y-143842380D01*
X382744285Y-143794761D01*
X382553809Y-143747142D01*
X382410952Y-143747142D01*
X382220476Y-143794761D01*
X382125238Y-143842380D01*
X382030000Y-143937619D01*
X381982380Y-144080476D01*
X381982380Y-144175714D01*
X382030000Y-144318571D01*
X382077619Y-144366190D01*
X382982380Y-144937619D02*
X382934761Y-144842380D01*
X382887142Y-144794761D01*
X382791904Y-144747142D01*
X382506190Y-144747142D01*
X382410952Y-144794761D01*
X382363333Y-144842380D01*
X382315714Y-144937619D01*
X382315714Y-145080476D01*
X382363333Y-145175714D01*
X382410952Y-145223333D01*
X382506190Y-145270952D01*
X382791904Y-145270952D01*
X382887142Y-145223333D01*
X382934761Y-145175714D01*
X382982380Y-145080476D01*
X382982380Y-144937619D01*
X382315714Y-145699523D02*
X382982380Y-145699523D01*
X382410952Y-145699523D02*
X382363333Y-145747142D01*
X382315714Y-145842380D01*
X382315714Y-145985238D01*
X382363333Y-146080476D01*
X382458571Y-146128095D01*
X382982380Y-146128095D01*
X382315714Y-146461428D02*
X382315714Y-146842380D01*
X381982380Y-146604285D02*
X382839523Y-146604285D01*
X382934761Y-146651904D01*
X382982380Y-146747142D01*
X382982380Y-146842380D01*
X382982380Y-147175714D02*
X382315714Y-147175714D01*
X382506190Y-147175714D02*
X382410952Y-147223333D01*
X382363333Y-147270952D01*
X382315714Y-147366190D01*
X382315714Y-147461428D01*
X382982380Y-147937619D02*
X382934761Y-147842380D01*
X382887142Y-147794761D01*
X382791904Y-147747142D01*
X382506190Y-147747142D01*
X382410952Y-147794761D01*
X382363333Y-147842380D01*
X382315714Y-147937619D01*
X382315714Y-148080476D01*
X382363333Y-148175714D01*
X382410952Y-148223333D01*
X382506190Y-148270952D01*
X382791904Y-148270952D01*
X382887142Y-148223333D01*
X382934761Y-148175714D01*
X382982380Y-148080476D01*
X382982380Y-147937619D01*
X382982380Y-148842380D02*
X382934761Y-148747142D01*
X382839523Y-148699523D01*
X381982380Y-148699523D01*
X383077619Y-148985238D02*
X383077619Y-149747142D01*
X381982380Y-149842380D02*
X381982380Y-150413809D01*
X382982380Y-150128095D02*
X381982380Y-150128095D01*
X382982380Y-150747142D02*
X381982380Y-150747142D01*
X382982380Y-151223333D02*
X381982380Y-151223333D01*
X382696666Y-151556666D01*
X381982380Y-151890000D01*
X382982380Y-151890000D01*
X382458571Y-152366190D02*
X382458571Y-152699523D01*
X382982380Y-152842380D02*
X382982380Y-152366190D01*
X381982380Y-152366190D01*
X381982380Y-152842380D01*
X382982380Y-153794761D02*
X382982380Y-153223333D01*
X382982380Y-153509047D02*
X381982380Y-153509047D01*
X382125238Y-153413809D01*
X382220476Y-153318571D01*
X382268095Y-153223333D01*
X535224761Y-64082380D02*
X535558095Y-63606190D01*
X535796190Y-64082380D02*
X535796190Y-63082380D01*
X535415238Y-63082380D01*
X535320000Y-63130000D01*
X535272380Y-63177619D01*
X535224761Y-63272857D01*
X535224761Y-63415714D01*
X535272380Y-63510952D01*
X535320000Y-63558571D01*
X535415238Y-63606190D01*
X535796190Y-63606190D01*
X535034285Y-64177619D02*
X534272380Y-64177619D01*
X533462857Y-64082380D02*
X533796190Y-63606190D01*
X534034285Y-64082380D02*
X534034285Y-63082380D01*
X533653333Y-63082380D01*
X533558095Y-63130000D01*
X533510476Y-63177619D01*
X533462857Y-63272857D01*
X533462857Y-63415714D01*
X533510476Y-63510952D01*
X533558095Y-63558571D01*
X533653333Y-63606190D01*
X534034285Y-63606190D01*
X533081904Y-64034761D02*
X532939047Y-64082380D01*
X532700952Y-64082380D01*
X532605714Y-64034761D01*
X532558095Y-63987142D01*
X532510476Y-63891904D01*
X532510476Y-63796666D01*
X532558095Y-63701428D01*
X532605714Y-63653809D01*
X532700952Y-63606190D01*
X532891428Y-63558571D01*
X532986666Y-63510952D01*
X533034285Y-63463333D01*
X533081904Y-63368095D01*
X533081904Y-63272857D01*
X533034285Y-63177619D01*
X532986666Y-63130000D01*
X532891428Y-63082380D01*
X532653333Y-63082380D01*
X532510476Y-63130000D01*
X532224761Y-63082380D02*
X531653333Y-63082380D01*
X531939047Y-64082380D02*
X531939047Y-63082380D01*
X530796190Y-64082380D02*
X531367619Y-64082380D01*
X531081904Y-64082380D02*
X531081904Y-63082380D01*
X531177142Y-63225238D01*
X531272380Y-63320476D01*
X531367619Y-63368095D01*
X537065714Y-65422380D02*
X537399047Y-64946190D01*
X537637142Y-65422380D02*
X537637142Y-64422380D01*
X537256190Y-64422380D01*
X537160952Y-64470000D01*
X537113333Y-64517619D01*
X537065714Y-64612857D01*
X537065714Y-64755714D01*
X537113333Y-64850952D01*
X537160952Y-64898571D01*
X537256190Y-64946190D01*
X537637142Y-64946190D01*
X536875238Y-65517619D02*
X536113333Y-65517619D01*
X535875238Y-65422380D02*
X535875238Y-64422380D01*
X535494285Y-64422380D01*
X535399047Y-64470000D01*
X535351428Y-64517619D01*
X535303809Y-64612857D01*
X535303809Y-64755714D01*
X535351428Y-64850952D01*
X535399047Y-64898571D01*
X535494285Y-64946190D01*
X535875238Y-64946190D01*
X534875238Y-64422380D02*
X534875238Y-65231904D01*
X534827619Y-65327142D01*
X534780000Y-65374761D01*
X534684761Y-65422380D01*
X534494285Y-65422380D01*
X534399047Y-65374761D01*
X534351428Y-65327142D01*
X534303809Y-65231904D01*
X534303809Y-64422380D01*
X533351428Y-65422380D02*
X533827619Y-65422380D01*
X533827619Y-64422380D01*
X532541904Y-65422380D02*
X533018095Y-65422380D01*
X533018095Y-64422380D01*
X532208571Y-64422380D02*
X532208571Y-65231904D01*
X532160952Y-65327142D01*
X532113333Y-65374761D01*
X532018095Y-65422380D01*
X531827619Y-65422380D01*
X531732380Y-65374761D01*
X531684761Y-65327142D01*
X531637142Y-65231904D01*
X531637142Y-64422380D01*
X531160952Y-65422380D02*
X531160952Y-64422380D01*
X530780000Y-64422380D01*
X530684761Y-64470000D01*
X530637142Y-64517619D01*
X530589523Y-64612857D01*
X530589523Y-64755714D01*
X530637142Y-64850952D01*
X530684761Y-64898571D01*
X530780000Y-64946190D01*
X531160952Y-64946190D01*
X530399047Y-65517619D02*
X529637142Y-65517619D01*
X528875238Y-65422380D02*
X529446666Y-65422380D01*
X529160952Y-65422380D02*
X529160952Y-64422380D01*
X529256190Y-64565238D01*
X529351428Y-64660476D01*
X529446666Y-64708095D01*
X537065714Y-72222380D02*
X537399047Y-71746190D01*
X537637142Y-72222380D02*
X537637142Y-71222380D01*
X537256190Y-71222380D01*
X537160952Y-71270000D01*
X537113333Y-71317619D01*
X537065714Y-71412857D01*
X537065714Y-71555714D01*
X537113333Y-71650952D01*
X537160952Y-71698571D01*
X537256190Y-71746190D01*
X537637142Y-71746190D01*
X536875238Y-72317619D02*
X536113333Y-72317619D01*
X535875238Y-72222380D02*
X535875238Y-71222380D01*
X535494285Y-71222380D01*
X535399047Y-71270000D01*
X535351428Y-71317619D01*
X535303809Y-71412857D01*
X535303809Y-71555714D01*
X535351428Y-71650952D01*
X535399047Y-71698571D01*
X535494285Y-71746190D01*
X535875238Y-71746190D01*
X534875238Y-71222380D02*
X534875238Y-72031904D01*
X534827619Y-72127142D01*
X534780000Y-72174761D01*
X534684761Y-72222380D01*
X534494285Y-72222380D01*
X534399047Y-72174761D01*
X534351428Y-72127142D01*
X534303809Y-72031904D01*
X534303809Y-71222380D01*
X533351428Y-72222380D02*
X533827619Y-72222380D01*
X533827619Y-71222380D01*
X532541904Y-72222380D02*
X533018095Y-72222380D01*
X533018095Y-71222380D01*
X532208571Y-71222380D02*
X532208571Y-72031904D01*
X532160952Y-72127142D01*
X532113333Y-72174761D01*
X532018095Y-72222380D01*
X531827619Y-72222380D01*
X531732380Y-72174761D01*
X531684761Y-72127142D01*
X531637142Y-72031904D01*
X531637142Y-71222380D01*
X531160952Y-72222380D02*
X531160952Y-71222380D01*
X530780000Y-71222380D01*
X530684761Y-71270000D01*
X530637142Y-71317619D01*
X530589523Y-71412857D01*
X530589523Y-71555714D01*
X530637142Y-71650952D01*
X530684761Y-71698571D01*
X530780000Y-71746190D01*
X531160952Y-71746190D01*
X530399047Y-72317619D02*
X529637142Y-72317619D01*
X529208571Y-71222380D02*
X529113333Y-71222380D01*
X529018095Y-71270000D01*
X528970476Y-71317619D01*
X528922857Y-71412857D01*
X528875238Y-71603333D01*
X528875238Y-71841428D01*
X528922857Y-72031904D01*
X528970476Y-72127142D01*
X529018095Y-72174761D01*
X529113333Y-72222380D01*
X529208571Y-72222380D01*
X529303809Y-72174761D01*
X529351428Y-72127142D01*
X529399047Y-72031904D01*
X529446666Y-71841428D01*
X529446666Y-71603333D01*
X529399047Y-71412857D01*
X529351428Y-71317619D01*
X529303809Y-71270000D01*
X529208571Y-71222380D01*
X536660952Y-75622380D02*
X536994285Y-75146190D01*
X537232380Y-75622380D02*
X537232380Y-74622380D01*
X536851428Y-74622380D01*
X536756190Y-74670000D01*
X536708571Y-74717619D01*
X536660952Y-74812857D01*
X536660952Y-74955714D01*
X536708571Y-75050952D01*
X536756190Y-75098571D01*
X536851428Y-75146190D01*
X537232380Y-75146190D01*
X536470476Y-75717619D02*
X535708571Y-75717619D01*
X535137142Y-75098571D02*
X534994285Y-75146190D01*
X534946666Y-75193809D01*
X534899047Y-75289047D01*
X534899047Y-75431904D01*
X534946666Y-75527142D01*
X534994285Y-75574761D01*
X535089523Y-75622380D01*
X535470476Y-75622380D01*
X535470476Y-74622380D01*
X535137142Y-74622380D01*
X535041904Y-74670000D01*
X534994285Y-74717619D01*
X534946666Y-74812857D01*
X534946666Y-74908095D01*
X534994285Y-75003333D01*
X535041904Y-75050952D01*
X535137142Y-75098571D01*
X535470476Y-75098571D01*
X534470476Y-74622380D02*
X534470476Y-75431904D01*
X534422857Y-75527142D01*
X534375238Y-75574761D01*
X534280000Y-75622380D01*
X534089523Y-75622380D01*
X533994285Y-75574761D01*
X533946666Y-75527142D01*
X533899047Y-75431904D01*
X533899047Y-74622380D01*
X533565714Y-74622380D02*
X532994285Y-74622380D01*
X533280000Y-75622380D02*
X533280000Y-74622380D01*
X532803809Y-74622380D02*
X532232380Y-74622380D01*
X532518095Y-75622380D02*
X532518095Y-74622380D01*
X531708571Y-74622380D02*
X531518095Y-74622380D01*
X531422857Y-74670000D01*
X531327619Y-74765238D01*
X531280000Y-74955714D01*
X531280000Y-75289047D01*
X531327619Y-75479523D01*
X531422857Y-75574761D01*
X531518095Y-75622380D01*
X531708571Y-75622380D01*
X531803809Y-75574761D01*
X531899047Y-75479523D01*
X531946666Y-75289047D01*
X531946666Y-74955714D01*
X531899047Y-74765238D01*
X531803809Y-74670000D01*
X531708571Y-74622380D01*
X530851428Y-75622380D02*
X530851428Y-74622380D01*
X530280000Y-75622380D01*
X530280000Y-74622380D01*
X529280000Y-75622380D02*
X529851428Y-75622380D01*
X529565714Y-75622380D02*
X529565714Y-74622380D01*
X529660952Y-74765238D01*
X529756190Y-74860476D01*
X529851428Y-74908095D01*
X501897142Y-67040476D02*
X501944761Y-66992857D01*
X501992380Y-66850000D01*
X501992380Y-66754761D01*
X501944761Y-66611904D01*
X501849523Y-66516666D01*
X501754285Y-66469047D01*
X501563809Y-66421428D01*
X501420952Y-66421428D01*
X501230476Y-66469047D01*
X501135238Y-66516666D01*
X501040000Y-66611904D01*
X500992380Y-66754761D01*
X500992380Y-66850000D01*
X501040000Y-66992857D01*
X501087619Y-67040476D01*
X501992380Y-67469047D02*
X501325714Y-67469047D01*
X501516190Y-67469047D02*
X501420952Y-67516666D01*
X501373333Y-67564285D01*
X501325714Y-67659523D01*
X501325714Y-67754761D01*
X501944761Y-68469047D02*
X501992380Y-68373809D01*
X501992380Y-68183333D01*
X501944761Y-68088095D01*
X501849523Y-68040476D01*
X501468571Y-68040476D01*
X501373333Y-68088095D01*
X501325714Y-68183333D01*
X501325714Y-68373809D01*
X501373333Y-68469047D01*
X501468571Y-68516666D01*
X501563809Y-68516666D01*
X501659047Y-68040476D01*
X501992380Y-69373809D02*
X500992380Y-69373809D01*
X501944761Y-69373809D02*
X501992380Y-69278571D01*
X501992380Y-69088095D01*
X501944761Y-68992857D01*
X501897142Y-68945238D01*
X501801904Y-68897619D01*
X501516190Y-68897619D01*
X501420952Y-68945238D01*
X501373333Y-68992857D01*
X501325714Y-69088095D01*
X501325714Y-69278571D01*
X501373333Y-69373809D01*
X501944761Y-70230952D02*
X501992380Y-70135714D01*
X501992380Y-69945238D01*
X501944761Y-69850000D01*
X501849523Y-69802380D01*
X501468571Y-69802380D01*
X501373333Y-69850000D01*
X501325714Y-69945238D01*
X501325714Y-70135714D01*
X501373333Y-70230952D01*
X501468571Y-70278571D01*
X501563809Y-70278571D01*
X501659047Y-69802380D01*
X501325714Y-70707142D02*
X501992380Y-70707142D01*
X501420952Y-70707142D02*
X501373333Y-70754761D01*
X501325714Y-70850000D01*
X501325714Y-70992857D01*
X501373333Y-71088095D01*
X501468571Y-71135714D01*
X501992380Y-71135714D01*
X501325714Y-71469047D02*
X501325714Y-71850000D01*
X500992380Y-71611904D02*
X501849523Y-71611904D01*
X501944761Y-71659523D01*
X501992380Y-71754761D01*
X501992380Y-71850000D01*
X501992380Y-72183333D02*
X501325714Y-72183333D01*
X500992380Y-72183333D02*
X501040000Y-72135714D01*
X501087619Y-72183333D01*
X501040000Y-72230952D01*
X500992380Y-72183333D01*
X501087619Y-72183333D01*
X501992380Y-73088095D02*
X501468571Y-73088095D01*
X501373333Y-73040476D01*
X501325714Y-72945238D01*
X501325714Y-72754761D01*
X501373333Y-72659523D01*
X501944761Y-73088095D02*
X501992380Y-72992857D01*
X501992380Y-72754761D01*
X501944761Y-72659523D01*
X501849523Y-72611904D01*
X501754285Y-72611904D01*
X501659047Y-72659523D01*
X501611428Y-72754761D01*
X501611428Y-72992857D01*
X501563809Y-73088095D01*
X501992380Y-73707142D02*
X501944761Y-73611904D01*
X501849523Y-73564285D01*
X500992380Y-73564285D01*
X501944761Y-74040476D02*
X501992380Y-74135714D01*
X501992380Y-74326190D01*
X501944761Y-74421428D01*
X501849523Y-74469047D01*
X501801904Y-74469047D01*
X501706666Y-74421428D01*
X501659047Y-74326190D01*
X501659047Y-74183333D01*
X501611428Y-74088095D01*
X501516190Y-74040476D01*
X501468571Y-74040476D01*
X501373333Y-74088095D01*
X501325714Y-74183333D01*
X501325714Y-74326190D01*
X501373333Y-74421428D01*
X502087619Y-74659523D02*
X502087619Y-75421428D01*
X501992380Y-76230952D02*
X501516190Y-75897619D01*
X501992380Y-75659523D02*
X500992380Y-75659523D01*
X500992380Y-76040476D01*
X501040000Y-76135714D01*
X501087619Y-76183333D01*
X501182857Y-76230952D01*
X501325714Y-76230952D01*
X501420952Y-76183333D01*
X501468571Y-76135714D01*
X501516190Y-76040476D01*
X501516190Y-75659523D01*
X501944761Y-77040476D02*
X501992380Y-76945238D01*
X501992380Y-76754761D01*
X501944761Y-76659523D01*
X501849523Y-76611904D01*
X501468571Y-76611904D01*
X501373333Y-76659523D01*
X501325714Y-76754761D01*
X501325714Y-76945238D01*
X501373333Y-77040476D01*
X501468571Y-77088095D01*
X501563809Y-77088095D01*
X501659047Y-76611904D01*
X501944761Y-77469047D02*
X501992380Y-77564285D01*
X501992380Y-77754761D01*
X501944761Y-77850000D01*
X501849523Y-77897619D01*
X501801904Y-77897619D01*
X501706666Y-77850000D01*
X501659047Y-77754761D01*
X501659047Y-77611904D01*
X501611428Y-77516666D01*
X501516190Y-77469047D01*
X501468571Y-77469047D01*
X501373333Y-77516666D01*
X501325714Y-77611904D01*
X501325714Y-77754761D01*
X501373333Y-77850000D01*
X501944761Y-78707142D02*
X501992380Y-78611904D01*
X501992380Y-78421428D01*
X501944761Y-78326190D01*
X501849523Y-78278571D01*
X501468571Y-78278571D01*
X501373333Y-78326190D01*
X501325714Y-78421428D01*
X501325714Y-78611904D01*
X501373333Y-78707142D01*
X501468571Y-78754761D01*
X501563809Y-78754761D01*
X501659047Y-78278571D01*
X501325714Y-79040476D02*
X501325714Y-79421428D01*
X500992380Y-79183333D02*
X501849523Y-79183333D01*
X501944761Y-79230952D01*
X501992380Y-79326190D01*
X501992380Y-79421428D01*
X501992380Y-80278571D02*
X501992380Y-79707142D01*
X501992380Y-79992857D02*
X500992380Y-79992857D01*
X501135238Y-79897619D01*
X501230476Y-79802380D01*
X501278095Y-79707142D01*
X525502380Y-105352380D02*
X525026190Y-105019047D01*
X525502380Y-104780952D02*
X524502380Y-104780952D01*
X524502380Y-105161904D01*
X524550000Y-105257142D01*
X524597619Y-105304761D01*
X524692857Y-105352380D01*
X524835714Y-105352380D01*
X524930952Y-105304761D01*
X524978571Y-105257142D01*
X525026190Y-105161904D01*
X525026190Y-104780952D01*
X524502380Y-105638095D02*
X524502380Y-106209523D01*
X525502380Y-105923809D02*
X524502380Y-105923809D01*
X525407142Y-107114285D02*
X525454761Y-107066666D01*
X525502380Y-106923809D01*
X525502380Y-106828571D01*
X525454761Y-106685714D01*
X525359523Y-106590476D01*
X525264285Y-106542857D01*
X525073809Y-106495238D01*
X524930952Y-106495238D01*
X524740476Y-106542857D01*
X524645238Y-106590476D01*
X524550000Y-106685714D01*
X524502380Y-106828571D01*
X524502380Y-106923809D01*
X524550000Y-107066666D01*
X524597619Y-107114285D01*
X525502380Y-108066666D02*
X525502380Y-107495238D01*
X525502380Y-107780952D02*
X524502380Y-107780952D01*
X524645238Y-107685714D01*
X524740476Y-107590476D01*
X524788095Y-107495238D01*
X526760000Y-66672380D02*
X527093333Y-66196190D01*
X527331428Y-66672380D02*
X527331428Y-65672380D01*
X526950476Y-65672380D01*
X526855238Y-65720000D01*
X526807619Y-65767619D01*
X526760000Y-65862857D01*
X526760000Y-66005714D01*
X526807619Y-66100952D01*
X526855238Y-66148571D01*
X526950476Y-66196190D01*
X527331428Y-66196190D01*
X525950476Y-66624761D02*
X526045714Y-66672380D01*
X526236190Y-66672380D01*
X526331428Y-66624761D01*
X526379047Y-66529523D01*
X526379047Y-66148571D01*
X526331428Y-66053333D01*
X526236190Y-66005714D01*
X526045714Y-66005714D01*
X525950476Y-66053333D01*
X525902857Y-66148571D01*
X525902857Y-66243809D01*
X526379047Y-66339047D01*
X525045714Y-66005714D02*
X525045714Y-66815238D01*
X525093333Y-66910476D01*
X525140952Y-66958095D01*
X525236190Y-67005714D01*
X525379047Y-67005714D01*
X525474285Y-66958095D01*
X525045714Y-66624761D02*
X525140952Y-66672380D01*
X525331428Y-66672380D01*
X525426666Y-66624761D01*
X525474285Y-66577142D01*
X525521904Y-66481904D01*
X525521904Y-66196190D01*
X525474285Y-66100952D01*
X525426666Y-66053333D01*
X525331428Y-66005714D01*
X525140952Y-66005714D01*
X525045714Y-66053333D01*
X524140952Y-66005714D02*
X524140952Y-66672380D01*
X524569523Y-66005714D02*
X524569523Y-66529523D01*
X524521904Y-66624761D01*
X524426666Y-66672380D01*
X524283809Y-66672380D01*
X524188571Y-66624761D01*
X524140952Y-66577142D01*
X523521904Y-66672380D02*
X523617142Y-66624761D01*
X523664761Y-66529523D01*
X523664761Y-65672380D01*
X522712380Y-66672380D02*
X522712380Y-66148571D01*
X522760000Y-66053333D01*
X522855238Y-66005714D01*
X523045714Y-66005714D01*
X523140952Y-66053333D01*
X522712380Y-66624761D02*
X522807619Y-66672380D01*
X523045714Y-66672380D01*
X523140952Y-66624761D01*
X523188571Y-66529523D01*
X523188571Y-66434285D01*
X523140952Y-66339047D01*
X523045714Y-66291428D01*
X522807619Y-66291428D01*
X522712380Y-66243809D01*
X522379047Y-66005714D02*
X521998095Y-66005714D01*
X522236190Y-65672380D02*
X522236190Y-66529523D01*
X522188571Y-66624761D01*
X522093333Y-66672380D01*
X521998095Y-66672380D01*
X521521904Y-66672380D02*
X521617142Y-66624761D01*
X521664761Y-66577142D01*
X521712380Y-66481904D01*
X521712380Y-66196190D01*
X521664761Y-66100952D01*
X521617142Y-66053333D01*
X521521904Y-66005714D01*
X521379047Y-66005714D01*
X521283809Y-66053333D01*
X521236190Y-66100952D01*
X521188571Y-66196190D01*
X521188571Y-66481904D01*
X521236190Y-66577142D01*
X521283809Y-66624761D01*
X521379047Y-66672380D01*
X521521904Y-66672380D01*
X520760000Y-66672380D02*
X520760000Y-66005714D01*
X520760000Y-66196190D02*
X520712380Y-66100952D01*
X520664761Y-66053333D01*
X520569523Y-66005714D01*
X520474285Y-66005714D01*
X520140952Y-66291428D02*
X519379047Y-66291428D01*
X518998095Y-65672380D02*
X518379047Y-65672380D01*
X518712380Y-66053333D01*
X518569523Y-66053333D01*
X518474285Y-66100952D01*
X518426666Y-66148571D01*
X518379047Y-66243809D01*
X518379047Y-66481904D01*
X518426666Y-66577142D01*
X518474285Y-66624761D01*
X518569523Y-66672380D01*
X518855238Y-66672380D01*
X518950476Y-66624761D01*
X518998095Y-66577142D01*
X517950476Y-66577142D02*
X517902857Y-66624761D01*
X517950476Y-66672380D01*
X517998095Y-66624761D01*
X517950476Y-66577142D01*
X517950476Y-66672380D01*
X517569523Y-65672380D02*
X516950476Y-65672380D01*
X517283809Y-66053333D01*
X517140952Y-66053333D01*
X517045714Y-66100952D01*
X516998095Y-66148571D01*
X516950476Y-66243809D01*
X516950476Y-66481904D01*
X516998095Y-66577142D01*
X517045714Y-66624761D01*
X517140952Y-66672380D01*
X517426666Y-66672380D01*
X517521904Y-66624761D01*
X517569523Y-66577142D01*
X516664761Y-65672380D02*
X516331428Y-66672380D01*
X515998095Y-65672380D01*
X515140952Y-66672380D02*
X515712380Y-66672380D01*
X515426666Y-66672380D02*
X515426666Y-65672380D01*
X515521904Y-65815238D01*
X515617142Y-65910476D01*
X515712380Y-65958095D01*
X532102380Y-79538095D02*
X532102380Y-80157142D01*
X532483333Y-79823809D01*
X532483333Y-79966666D01*
X532530952Y-80061904D01*
X532578571Y-80109523D01*
X532673809Y-80157142D01*
X532911904Y-80157142D01*
X533007142Y-80109523D01*
X533054761Y-80061904D01*
X533102380Y-79966666D01*
X533102380Y-79680952D01*
X533054761Y-79585714D01*
X533007142Y-79538095D01*
X533007142Y-80585714D02*
X533054761Y-80633333D01*
X533102380Y-80585714D01*
X533054761Y-80538095D01*
X533007142Y-80585714D01*
X533102380Y-80585714D01*
X532102380Y-80966666D02*
X532102380Y-81585714D01*
X532483333Y-81252380D01*
X532483333Y-81395238D01*
X532530952Y-81490476D01*
X532578571Y-81538095D01*
X532673809Y-81585714D01*
X532911904Y-81585714D01*
X533007142Y-81538095D01*
X533054761Y-81490476D01*
X533102380Y-81395238D01*
X533102380Y-81109523D01*
X533054761Y-81014285D01*
X533007142Y-80966666D01*
X532102380Y-81871428D02*
X533102380Y-82204761D01*
X532102380Y-82538095D01*
X532721428Y-82871428D02*
X532721428Y-83633333D01*
X533007142Y-84680952D02*
X533054761Y-84633333D01*
X533102380Y-84490476D01*
X533102380Y-84395238D01*
X533054761Y-84252380D01*
X532959523Y-84157142D01*
X532864285Y-84109523D01*
X532673809Y-84061904D01*
X532530952Y-84061904D01*
X532340476Y-84109523D01*
X532245238Y-84157142D01*
X532150000Y-84252380D01*
X532102380Y-84395238D01*
X532102380Y-84490476D01*
X532150000Y-84633333D01*
X532197619Y-84680952D01*
X533102380Y-85252380D02*
X533054761Y-85157142D01*
X533007142Y-85109523D01*
X532911904Y-85061904D01*
X532626190Y-85061904D01*
X532530952Y-85109523D01*
X532483333Y-85157142D01*
X532435714Y-85252380D01*
X532435714Y-85395238D01*
X532483333Y-85490476D01*
X532530952Y-85538095D01*
X532626190Y-85585714D01*
X532911904Y-85585714D01*
X533007142Y-85538095D01*
X533054761Y-85490476D01*
X533102380Y-85395238D01*
X533102380Y-85252380D01*
X532435714Y-86442857D02*
X533102380Y-86442857D01*
X532435714Y-86014285D02*
X532959523Y-86014285D01*
X533054761Y-86061904D01*
X533102380Y-86157142D01*
X533102380Y-86300000D01*
X533054761Y-86395238D01*
X533007142Y-86442857D01*
X532435714Y-86776190D02*
X532435714Y-87157142D01*
X532102380Y-86919047D02*
X532959523Y-86919047D01*
X533054761Y-86966666D01*
X533102380Y-87061904D01*
X533102380Y-87157142D01*
X533102380Y-88014285D02*
X533102380Y-87442857D01*
X533102380Y-87728571D02*
X532102380Y-87728571D01*
X532245238Y-87633333D01*
X532340476Y-87538095D01*
X532388095Y-87442857D01*
X525602380Y-87038095D02*
X525602380Y-87657142D01*
X525983333Y-87323809D01*
X525983333Y-87466666D01*
X526030952Y-87561904D01*
X526078571Y-87609523D01*
X526173809Y-87657142D01*
X526411904Y-87657142D01*
X526507142Y-87609523D01*
X526554761Y-87561904D01*
X526602380Y-87466666D01*
X526602380Y-87180952D01*
X526554761Y-87085714D01*
X526507142Y-87038095D01*
X526507142Y-88085714D02*
X526554761Y-88133333D01*
X526602380Y-88085714D01*
X526554761Y-88038095D01*
X526507142Y-88085714D01*
X526602380Y-88085714D01*
X525602380Y-88466666D02*
X525602380Y-89085714D01*
X525983333Y-88752380D01*
X525983333Y-88895238D01*
X526030952Y-88990476D01*
X526078571Y-89038095D01*
X526173809Y-89085714D01*
X526411904Y-89085714D01*
X526507142Y-89038095D01*
X526554761Y-88990476D01*
X526602380Y-88895238D01*
X526602380Y-88609523D01*
X526554761Y-88514285D01*
X526507142Y-88466666D01*
X525602380Y-89371428D02*
X526602380Y-89704761D01*
X525602380Y-90038095D01*
X526221428Y-90371428D02*
X526221428Y-91133333D01*
X526507142Y-92180952D02*
X526554761Y-92133333D01*
X526602380Y-91990476D01*
X526602380Y-91895238D01*
X526554761Y-91752380D01*
X526459523Y-91657142D01*
X526364285Y-91609523D01*
X526173809Y-91561904D01*
X526030952Y-91561904D01*
X525840476Y-91609523D01*
X525745238Y-91657142D01*
X525650000Y-91752380D01*
X525602380Y-91895238D01*
X525602380Y-91990476D01*
X525650000Y-92133333D01*
X525697619Y-92180952D01*
X526602380Y-92609523D02*
X525935714Y-92609523D01*
X525602380Y-92609523D02*
X525650000Y-92561904D01*
X525697619Y-92609523D01*
X525650000Y-92657142D01*
X525602380Y-92609523D01*
X525697619Y-92609523D01*
X525935714Y-93085714D02*
X526602380Y-93085714D01*
X526030952Y-93085714D02*
X525983333Y-93133333D01*
X525935714Y-93228571D01*
X525935714Y-93371428D01*
X525983333Y-93466666D01*
X526078571Y-93514285D01*
X526602380Y-93514285D01*
X526602380Y-94514285D02*
X526602380Y-93942857D01*
X526602380Y-94228571D02*
X525602380Y-94228571D01*
X525745238Y-94133333D01*
X525840476Y-94038095D01*
X525888095Y-93942857D01*
X534072380Y-83305714D02*
X533072380Y-83305714D01*
X533786666Y-83639047D01*
X533072380Y-83972380D01*
X534072380Y-83972380D01*
X533977142Y-85020000D02*
X534024761Y-84972380D01*
X534072380Y-84829523D01*
X534072380Y-84734285D01*
X534024761Y-84591428D01*
X533929523Y-84496190D01*
X533834285Y-84448571D01*
X533643809Y-84400952D01*
X533500952Y-84400952D01*
X533310476Y-84448571D01*
X533215238Y-84496190D01*
X533120000Y-84591428D01*
X533072380Y-84734285D01*
X533072380Y-84829523D01*
X533120000Y-84972380D01*
X533167619Y-85020000D01*
X533072380Y-85448571D02*
X533881904Y-85448571D01*
X533977142Y-85496190D01*
X534024761Y-85543809D01*
X534072380Y-85639047D01*
X534072380Y-85829523D01*
X534024761Y-85924761D01*
X533977142Y-85972380D01*
X533881904Y-86020000D01*
X533072380Y-86020000D01*
X534167619Y-86258095D02*
X534167619Y-87020000D01*
X533167619Y-87210476D02*
X533120000Y-87258095D01*
X533072380Y-87353333D01*
X533072380Y-87591428D01*
X533120000Y-87686666D01*
X533167619Y-87734285D01*
X533262857Y-87781904D01*
X533358095Y-87781904D01*
X533500952Y-87734285D01*
X534072380Y-87162857D01*
X534072380Y-87781904D01*
X487204285Y-124242380D02*
X487204285Y-123242380D01*
X486870952Y-123956666D01*
X486537619Y-123242380D01*
X486537619Y-124242380D01*
X485490000Y-124147142D02*
X485537619Y-124194761D01*
X485680476Y-124242380D01*
X485775714Y-124242380D01*
X485918571Y-124194761D01*
X486013809Y-124099523D01*
X486061428Y-124004285D01*
X486109047Y-123813809D01*
X486109047Y-123670952D01*
X486061428Y-123480476D01*
X486013809Y-123385238D01*
X485918571Y-123290000D01*
X485775714Y-123242380D01*
X485680476Y-123242380D01*
X485537619Y-123290000D01*
X485490000Y-123337619D01*
X485061428Y-123242380D02*
X485061428Y-124051904D01*
X485013809Y-124147142D01*
X484966190Y-124194761D01*
X484870952Y-124242380D01*
X484680476Y-124242380D01*
X484585238Y-124194761D01*
X484537619Y-124147142D01*
X484490000Y-124051904D01*
X484490000Y-123242380D01*
X484251904Y-124337619D02*
X483490000Y-124337619D01*
X482728095Y-124242380D02*
X483299523Y-124242380D01*
X483013809Y-124242380D02*
X483013809Y-123242380D01*
X483109047Y-123385238D01*
X483204285Y-123480476D01*
X483299523Y-123528095D01*
X379714761Y-291687142D02*
X379762380Y-291734761D01*
X379905238Y-291782380D01*
X380000476Y-291782380D01*
X380143333Y-291734761D01*
X380238571Y-291639523D01*
X380286190Y-291544285D01*
X380333809Y-291353809D01*
X380333809Y-291210952D01*
X380286190Y-291020476D01*
X380238571Y-290925238D01*
X380143333Y-290830000D01*
X380000476Y-290782380D01*
X379905238Y-290782380D01*
X379762380Y-290830000D01*
X379714761Y-290877619D01*
X379143333Y-291782380D02*
X379238571Y-291734761D01*
X379286190Y-291687142D01*
X379333809Y-291591904D01*
X379333809Y-291306190D01*
X379286190Y-291210952D01*
X379238571Y-291163333D01*
X379143333Y-291115714D01*
X379000476Y-291115714D01*
X378905238Y-291163333D01*
X378857619Y-291210952D01*
X378810000Y-291306190D01*
X378810000Y-291591904D01*
X378857619Y-291687142D01*
X378905238Y-291734761D01*
X379000476Y-291782380D01*
X379143333Y-291782380D01*
X378381428Y-291782380D02*
X378381428Y-291115714D01*
X378381428Y-291210952D02*
X378333809Y-291163333D01*
X378238571Y-291115714D01*
X378095714Y-291115714D01*
X378000476Y-291163333D01*
X377952857Y-291258571D01*
X377952857Y-291782380D01*
X377952857Y-291258571D02*
X377905238Y-291163333D01*
X377810000Y-291115714D01*
X377667142Y-291115714D01*
X377571904Y-291163333D01*
X377524285Y-291258571D01*
X377524285Y-291782380D01*
X377048095Y-291782380D02*
X377048095Y-291115714D01*
X377048095Y-291210952D02*
X377000476Y-291163333D01*
X376905238Y-291115714D01*
X376762380Y-291115714D01*
X376667142Y-291163333D01*
X376619523Y-291258571D01*
X376619523Y-291782380D01*
X376619523Y-291258571D02*
X376571904Y-291163333D01*
X376476666Y-291115714D01*
X376333809Y-291115714D01*
X376238571Y-291163333D01*
X376190952Y-291258571D01*
X376190952Y-291782380D01*
X375571904Y-291782380D02*
X375667142Y-291734761D01*
X375714761Y-291687142D01*
X375762380Y-291591904D01*
X375762380Y-291306190D01*
X375714761Y-291210952D01*
X375667142Y-291163333D01*
X375571904Y-291115714D01*
X375429047Y-291115714D01*
X375333809Y-291163333D01*
X375286190Y-291210952D01*
X375238571Y-291306190D01*
X375238571Y-291591904D01*
X375286190Y-291687142D01*
X375333809Y-291734761D01*
X375429047Y-291782380D01*
X375571904Y-291782380D01*
X374810000Y-291115714D02*
X374810000Y-291782380D01*
X374810000Y-291210952D02*
X374762380Y-291163333D01*
X374667142Y-291115714D01*
X374524285Y-291115714D01*
X374429047Y-291163333D01*
X374381428Y-291258571D01*
X374381428Y-291782380D01*
X373905238Y-291782380D02*
X373905238Y-290782380D01*
X373524285Y-290782380D01*
X373429047Y-290830000D01*
X373381428Y-290877619D01*
X373333809Y-290972857D01*
X373333809Y-291115714D01*
X373381428Y-291210952D01*
X373429047Y-291258571D01*
X373524285Y-291306190D01*
X373905238Y-291306190D01*
X372905238Y-291782380D02*
X372905238Y-291115714D01*
X372905238Y-290782380D02*
X372952857Y-290830000D01*
X372905238Y-290877619D01*
X372857619Y-290830000D01*
X372905238Y-290782380D01*
X372905238Y-290877619D01*
X372429047Y-291115714D02*
X372429047Y-291782380D01*
X372429047Y-291210952D02*
X372381428Y-291163333D01*
X372286190Y-291115714D01*
X372143333Y-291115714D01*
X372048095Y-291163333D01*
X372000476Y-291258571D01*
X372000476Y-291782380D01*
X370952857Y-291687142D02*
X371000476Y-291734761D01*
X371143333Y-291782380D01*
X371238571Y-291782380D01*
X371381428Y-291734761D01*
X371476666Y-291639523D01*
X371524285Y-291544285D01*
X371571904Y-291353809D01*
X371571904Y-291210952D01*
X371524285Y-291020476D01*
X371476666Y-290925238D01*
X371381428Y-290830000D01*
X371238571Y-290782380D01*
X371143333Y-290782380D01*
X371000476Y-290830000D01*
X370952857Y-290877619D01*
X370381428Y-291782380D02*
X370476666Y-291734761D01*
X370524285Y-291687142D01*
X370571904Y-291591904D01*
X370571904Y-291306190D01*
X370524285Y-291210952D01*
X370476666Y-291163333D01*
X370381428Y-291115714D01*
X370238571Y-291115714D01*
X370143333Y-291163333D01*
X370095714Y-291210952D01*
X370048095Y-291306190D01*
X370048095Y-291591904D01*
X370095714Y-291687142D01*
X370143333Y-291734761D01*
X370238571Y-291782380D01*
X370381428Y-291782380D01*
X369619523Y-291115714D02*
X369619523Y-291782380D01*
X369619523Y-291210952D02*
X369571904Y-291163333D01*
X369476666Y-291115714D01*
X369333809Y-291115714D01*
X369238571Y-291163333D01*
X369190952Y-291258571D01*
X369190952Y-291782380D01*
X368857619Y-291115714D02*
X368476666Y-291115714D01*
X368714761Y-290782380D02*
X368714761Y-291639523D01*
X368667142Y-291734761D01*
X368571904Y-291782380D01*
X368476666Y-291782380D01*
X368143333Y-291782380D02*
X368143333Y-291115714D01*
X368143333Y-291306190D02*
X368095714Y-291210952D01*
X368048095Y-291163333D01*
X367952857Y-291115714D01*
X367857619Y-291115714D01*
X367381428Y-291782380D02*
X367476666Y-291734761D01*
X367524285Y-291687142D01*
X367571904Y-291591904D01*
X367571904Y-291306190D01*
X367524285Y-291210952D01*
X367476666Y-291163333D01*
X367381428Y-291115714D01*
X367238571Y-291115714D01*
X367143333Y-291163333D01*
X367095714Y-291210952D01*
X367048095Y-291306190D01*
X367048095Y-291591904D01*
X367095714Y-291687142D01*
X367143333Y-291734761D01*
X367238571Y-291782380D01*
X367381428Y-291782380D01*
X366476666Y-291782380D02*
X366571904Y-291734761D01*
X366619523Y-291639523D01*
X366619523Y-290782380D01*
X366333809Y-291877619D02*
X365571904Y-291877619D01*
X365333809Y-291782380D02*
X365333809Y-290782380D01*
X365095714Y-290782380D01*
X364952857Y-290830000D01*
X364857619Y-290925238D01*
X364810000Y-291020476D01*
X364762380Y-291210952D01*
X364762380Y-291353809D01*
X364810000Y-291544285D01*
X364857619Y-291639523D01*
X364952857Y-291734761D01*
X365095714Y-291782380D01*
X365333809Y-291782380D01*
X364381428Y-291496666D02*
X363905238Y-291496666D01*
X364476666Y-291782380D02*
X364143333Y-290782380D01*
X363810000Y-291782380D01*
X363619523Y-290782380D02*
X363048095Y-290782380D01*
X363333809Y-291782380D02*
X363333809Y-290782380D01*
X362714761Y-291258571D02*
X362381428Y-291258571D01*
X362238571Y-291782380D02*
X362714761Y-291782380D01*
X362714761Y-290782380D01*
X362238571Y-290782380D01*
X361286190Y-291782380D02*
X361857619Y-291782380D01*
X361571904Y-291782380D02*
X361571904Y-290782380D01*
X361667142Y-290925238D01*
X361762380Y-291020476D01*
X361857619Y-291068095D01*
X357845714Y-291532380D02*
X357845714Y-290532380D01*
X357607619Y-290532380D01*
X357464761Y-290580000D01*
X357369523Y-290675238D01*
X357321904Y-290770476D01*
X357274285Y-290960952D01*
X357274285Y-291103809D01*
X357321904Y-291294285D01*
X357369523Y-291389523D01*
X357464761Y-291484761D01*
X357607619Y-291532380D01*
X357845714Y-291532380D01*
X356893333Y-291246666D02*
X356417142Y-291246666D01*
X356988571Y-291532380D02*
X356655238Y-290532380D01*
X356321904Y-291532380D01*
X356131428Y-290532380D02*
X355560000Y-290532380D01*
X355845714Y-291532380D02*
X355845714Y-290532380D01*
X355226666Y-291008571D02*
X354893333Y-291008571D01*
X354750476Y-291532380D02*
X355226666Y-291532380D01*
X355226666Y-290532380D01*
X354750476Y-290532380D01*
X354560000Y-291627619D02*
X353798095Y-291627619D01*
X353560000Y-291532380D02*
X353560000Y-290532380D01*
X353083809Y-291532380D02*
X353083809Y-290532380D01*
X352512380Y-291532380D01*
X352512380Y-290532380D01*
X352036190Y-291532380D02*
X352036190Y-290532380D01*
X351655238Y-290532380D01*
X351560000Y-290580000D01*
X351512380Y-290627619D01*
X351464761Y-290722857D01*
X351464761Y-290865714D01*
X351512380Y-290960952D01*
X351560000Y-291008571D01*
X351655238Y-291056190D01*
X352036190Y-291056190D01*
X351036190Y-290532380D02*
X351036190Y-291341904D01*
X350988571Y-291437142D01*
X350940952Y-291484761D01*
X350845714Y-291532380D01*
X350655238Y-291532380D01*
X350560000Y-291484761D01*
X350512380Y-291437142D01*
X350464761Y-291341904D01*
X350464761Y-290532380D01*
X350131428Y-290532380D02*
X349560000Y-290532380D01*
X349845714Y-291532380D02*
X349845714Y-290532380D01*
X349464761Y-291627619D02*
X348702857Y-291627619D01*
X347893333Y-291437142D02*
X347940952Y-291484761D01*
X348083809Y-291532380D01*
X348179047Y-291532380D01*
X348321904Y-291484761D01*
X348417142Y-291389523D01*
X348464761Y-291294285D01*
X348512380Y-291103809D01*
X348512380Y-290960952D01*
X348464761Y-290770476D01*
X348417142Y-290675238D01*
X348321904Y-290580000D01*
X348179047Y-290532380D01*
X348083809Y-290532380D01*
X347940952Y-290580000D01*
X347893333Y-290627619D01*
X347274285Y-290532380D02*
X347083809Y-290532380D01*
X346988571Y-290580000D01*
X346893333Y-290675238D01*
X346845714Y-290865714D01*
X346845714Y-291199047D01*
X346893333Y-291389523D01*
X346988571Y-291484761D01*
X347083809Y-291532380D01*
X347274285Y-291532380D01*
X347369523Y-291484761D01*
X347464761Y-291389523D01*
X347512380Y-291199047D01*
X347512380Y-290865714D01*
X347464761Y-290675238D01*
X347369523Y-290580000D01*
X347274285Y-290532380D01*
X346417142Y-291532380D02*
X346417142Y-290532380D01*
X345845714Y-291532380D01*
X345845714Y-290532380D01*
X345512380Y-290532380D02*
X344940952Y-290532380D01*
X345226666Y-291532380D02*
X345226666Y-290532380D01*
X344036190Y-291532380D02*
X344369523Y-291056190D01*
X344607619Y-291532380D02*
X344607619Y-290532380D01*
X344226666Y-290532380D01*
X344131428Y-290580000D01*
X344083809Y-290627619D01*
X344036190Y-290722857D01*
X344036190Y-290865714D01*
X344083809Y-290960952D01*
X344131428Y-291008571D01*
X344226666Y-291056190D01*
X344607619Y-291056190D01*
X343417142Y-290532380D02*
X343226666Y-290532380D01*
X343131428Y-290580000D01*
X343036190Y-290675238D01*
X342988571Y-290865714D01*
X342988571Y-291199047D01*
X343036190Y-291389523D01*
X343131428Y-291484761D01*
X343226666Y-291532380D01*
X343417142Y-291532380D01*
X343512380Y-291484761D01*
X343607619Y-291389523D01*
X343655238Y-291199047D01*
X343655238Y-290865714D01*
X343607619Y-290675238D01*
X343512380Y-290580000D01*
X343417142Y-290532380D01*
X342083809Y-291532380D02*
X342560000Y-291532380D01*
X342560000Y-290532380D01*
X341226666Y-291532380D02*
X341798095Y-291532380D01*
X341512380Y-291532380D02*
X341512380Y-290532380D01*
X341607619Y-290675238D01*
X341702857Y-290770476D01*
X341798095Y-290818095D01*
X390952857Y-107306190D02*
X390952857Y-107782380D01*
X391286190Y-106782380D02*
X390952857Y-107306190D01*
X390619523Y-106782380D01*
X390286190Y-107258571D02*
X389952857Y-107258571D01*
X389810000Y-107782380D02*
X390286190Y-107782380D01*
X390286190Y-106782380D01*
X389810000Y-106782380D01*
X389429047Y-107496666D02*
X388952857Y-107496666D01*
X389524285Y-107782380D02*
X389190952Y-106782380D01*
X388857619Y-107782380D01*
X387952857Y-107782380D02*
X388286190Y-107306190D01*
X388524285Y-107782380D02*
X388524285Y-106782380D01*
X388143333Y-106782380D01*
X388048095Y-106830000D01*
X388000476Y-106877619D01*
X387952857Y-106972857D01*
X387952857Y-107115714D01*
X388000476Y-107210952D01*
X388048095Y-107258571D01*
X388143333Y-107306190D01*
X388524285Y-107306190D01*
X387762380Y-107877619D02*
X387000476Y-107877619D01*
X386762380Y-107782380D02*
X386762380Y-106782380D01*
X386286190Y-107782380D02*
X386286190Y-106782380D01*
X385714761Y-107782380D01*
X385714761Y-106782380D01*
X385238571Y-107782380D02*
X385238571Y-106782380D01*
X384857619Y-106782380D01*
X384762380Y-106830000D01*
X384714761Y-106877619D01*
X384667142Y-106972857D01*
X384667142Y-107115714D01*
X384714761Y-107210952D01*
X384762380Y-107258571D01*
X384857619Y-107306190D01*
X385238571Y-107306190D01*
X384238571Y-106782380D02*
X384238571Y-107591904D01*
X384190952Y-107687142D01*
X384143333Y-107734761D01*
X384048095Y-107782380D01*
X383857619Y-107782380D01*
X383762380Y-107734761D01*
X383714761Y-107687142D01*
X383667142Y-107591904D01*
X383667142Y-106782380D01*
X383333809Y-106782380D02*
X382762380Y-106782380D01*
X383048095Y-107782380D02*
X383048095Y-106782380D01*
X382667142Y-107877619D02*
X381905238Y-107877619D01*
X381095714Y-107687142D02*
X381143333Y-107734761D01*
X381286190Y-107782380D01*
X381381428Y-107782380D01*
X381524285Y-107734761D01*
X381619523Y-107639523D01*
X381667142Y-107544285D01*
X381714761Y-107353809D01*
X381714761Y-107210952D01*
X381667142Y-107020476D01*
X381619523Y-106925238D01*
X381524285Y-106830000D01*
X381381428Y-106782380D01*
X381286190Y-106782380D01*
X381143333Y-106830000D01*
X381095714Y-106877619D01*
X380476666Y-106782380D02*
X380286190Y-106782380D01*
X380190952Y-106830000D01*
X380095714Y-106925238D01*
X380048095Y-107115714D01*
X380048095Y-107449047D01*
X380095714Y-107639523D01*
X380190952Y-107734761D01*
X380286190Y-107782380D01*
X380476666Y-107782380D01*
X380571904Y-107734761D01*
X380667142Y-107639523D01*
X380714761Y-107449047D01*
X380714761Y-107115714D01*
X380667142Y-106925238D01*
X380571904Y-106830000D01*
X380476666Y-106782380D01*
X379619523Y-107782380D02*
X379619523Y-106782380D01*
X379048095Y-107782380D01*
X379048095Y-106782380D01*
X378714761Y-106782380D02*
X378143333Y-106782380D01*
X378429047Y-107782380D02*
X378429047Y-106782380D01*
X377238571Y-107782380D02*
X377571904Y-107306190D01*
X377810000Y-107782380D02*
X377810000Y-106782380D01*
X377429047Y-106782380D01*
X377333809Y-106830000D01*
X377286190Y-106877619D01*
X377238571Y-106972857D01*
X377238571Y-107115714D01*
X377286190Y-107210952D01*
X377333809Y-107258571D01*
X377429047Y-107306190D01*
X377810000Y-107306190D01*
X376619523Y-106782380D02*
X376429047Y-106782380D01*
X376333809Y-106830000D01*
X376238571Y-106925238D01*
X376190952Y-107115714D01*
X376190952Y-107449047D01*
X376238571Y-107639523D01*
X376333809Y-107734761D01*
X376429047Y-107782380D01*
X376619523Y-107782380D01*
X376714761Y-107734761D01*
X376810000Y-107639523D01*
X376857619Y-107449047D01*
X376857619Y-107115714D01*
X376810000Y-106925238D01*
X376714761Y-106830000D01*
X376619523Y-106782380D01*
X375286190Y-107782380D02*
X375762380Y-107782380D01*
X375762380Y-106782380D01*
X374429047Y-107782380D02*
X375000476Y-107782380D01*
X374714761Y-107782380D02*
X374714761Y-106782380D01*
X374810000Y-106925238D01*
X374905238Y-107020476D01*
X375000476Y-107068095D01*
X423512380Y-108187142D02*
X423560000Y-108234761D01*
X423702857Y-108282380D01*
X423798095Y-108282380D01*
X423940952Y-108234761D01*
X424036190Y-108139523D01*
X424083809Y-108044285D01*
X424131428Y-107853809D01*
X424131428Y-107710952D01*
X424083809Y-107520476D01*
X424036190Y-107425238D01*
X423940952Y-107330000D01*
X423798095Y-107282380D01*
X423702857Y-107282380D01*
X423560000Y-107330000D01*
X423512380Y-107377619D01*
X422940952Y-108282380D02*
X423036190Y-108234761D01*
X423083809Y-108187142D01*
X423131428Y-108091904D01*
X423131428Y-107806190D01*
X423083809Y-107710952D01*
X423036190Y-107663333D01*
X422940952Y-107615714D01*
X422798095Y-107615714D01*
X422702857Y-107663333D01*
X422655238Y-107710952D01*
X422607619Y-107806190D01*
X422607619Y-108091904D01*
X422655238Y-108187142D01*
X422702857Y-108234761D01*
X422798095Y-108282380D01*
X422940952Y-108282380D01*
X422179047Y-108282380D02*
X422179047Y-107615714D01*
X422179047Y-107710952D02*
X422131428Y-107663333D01*
X422036190Y-107615714D01*
X421893333Y-107615714D01*
X421798095Y-107663333D01*
X421750476Y-107758571D01*
X421750476Y-108282380D01*
X421750476Y-107758571D02*
X421702857Y-107663333D01*
X421607619Y-107615714D01*
X421464761Y-107615714D01*
X421369523Y-107663333D01*
X421321904Y-107758571D01*
X421321904Y-108282380D01*
X420845714Y-108282380D02*
X420845714Y-107615714D01*
X420845714Y-107710952D02*
X420798095Y-107663333D01*
X420702857Y-107615714D01*
X420560000Y-107615714D01*
X420464761Y-107663333D01*
X420417142Y-107758571D01*
X420417142Y-108282380D01*
X420417142Y-107758571D02*
X420369523Y-107663333D01*
X420274285Y-107615714D01*
X420131428Y-107615714D01*
X420036190Y-107663333D01*
X419988571Y-107758571D01*
X419988571Y-108282380D01*
X419369523Y-108282380D02*
X419464761Y-108234761D01*
X419512380Y-108187142D01*
X419560000Y-108091904D01*
X419560000Y-107806190D01*
X419512380Y-107710952D01*
X419464761Y-107663333D01*
X419369523Y-107615714D01*
X419226666Y-107615714D01*
X419131428Y-107663333D01*
X419083809Y-107710952D01*
X419036190Y-107806190D01*
X419036190Y-108091904D01*
X419083809Y-108187142D01*
X419131428Y-108234761D01*
X419226666Y-108282380D01*
X419369523Y-108282380D01*
X418607619Y-107615714D02*
X418607619Y-108282380D01*
X418607619Y-107710952D02*
X418560000Y-107663333D01*
X418464761Y-107615714D01*
X418321904Y-107615714D01*
X418226666Y-107663333D01*
X418179047Y-107758571D01*
X418179047Y-108282380D01*
X417702857Y-108282380D02*
X417702857Y-107282380D01*
X417321904Y-107282380D01*
X417226666Y-107330000D01*
X417179047Y-107377619D01*
X417131428Y-107472857D01*
X417131428Y-107615714D01*
X417179047Y-107710952D01*
X417226666Y-107758571D01*
X417321904Y-107806190D01*
X417702857Y-107806190D01*
X416702857Y-108282380D02*
X416702857Y-107615714D01*
X416702857Y-107282380D02*
X416750476Y-107330000D01*
X416702857Y-107377619D01*
X416655238Y-107330000D01*
X416702857Y-107282380D01*
X416702857Y-107377619D01*
X416226666Y-107615714D02*
X416226666Y-108282380D01*
X416226666Y-107710952D02*
X416179047Y-107663333D01*
X416083809Y-107615714D01*
X415940952Y-107615714D01*
X415845714Y-107663333D01*
X415798095Y-107758571D01*
X415798095Y-108282380D01*
X414750476Y-108187142D02*
X414798095Y-108234761D01*
X414940952Y-108282380D01*
X415036190Y-108282380D01*
X415179047Y-108234761D01*
X415274285Y-108139523D01*
X415321904Y-108044285D01*
X415369523Y-107853809D01*
X415369523Y-107710952D01*
X415321904Y-107520476D01*
X415274285Y-107425238D01*
X415179047Y-107330000D01*
X415036190Y-107282380D01*
X414940952Y-107282380D01*
X414798095Y-107330000D01*
X414750476Y-107377619D01*
X414179047Y-108282380D02*
X414274285Y-108234761D01*
X414321904Y-108187142D01*
X414369523Y-108091904D01*
X414369523Y-107806190D01*
X414321904Y-107710952D01*
X414274285Y-107663333D01*
X414179047Y-107615714D01*
X414036190Y-107615714D01*
X413940952Y-107663333D01*
X413893333Y-107710952D01*
X413845714Y-107806190D01*
X413845714Y-108091904D01*
X413893333Y-108187142D01*
X413940952Y-108234761D01*
X414036190Y-108282380D01*
X414179047Y-108282380D01*
X413417142Y-107615714D02*
X413417142Y-108282380D01*
X413417142Y-107710952D02*
X413369523Y-107663333D01*
X413274285Y-107615714D01*
X413131428Y-107615714D01*
X413036190Y-107663333D01*
X412988571Y-107758571D01*
X412988571Y-108282380D01*
X412655238Y-107615714D02*
X412274285Y-107615714D01*
X412512380Y-107282380D02*
X412512380Y-108139523D01*
X412464761Y-108234761D01*
X412369523Y-108282380D01*
X412274285Y-108282380D01*
X411940952Y-108282380D02*
X411940952Y-107615714D01*
X411940952Y-107806190D02*
X411893333Y-107710952D01*
X411845714Y-107663333D01*
X411750476Y-107615714D01*
X411655238Y-107615714D01*
X411179047Y-108282380D02*
X411274285Y-108234761D01*
X411321904Y-108187142D01*
X411369523Y-108091904D01*
X411369523Y-107806190D01*
X411321904Y-107710952D01*
X411274285Y-107663333D01*
X411179047Y-107615714D01*
X411036190Y-107615714D01*
X410940952Y-107663333D01*
X410893333Y-107710952D01*
X410845714Y-107806190D01*
X410845714Y-108091904D01*
X410893333Y-108187142D01*
X410940952Y-108234761D01*
X411036190Y-108282380D01*
X411179047Y-108282380D01*
X410274285Y-108282380D02*
X410369523Y-108234761D01*
X410417142Y-108139523D01*
X410417142Y-107282380D01*
X410131428Y-108377619D02*
X409369523Y-108377619D01*
X408940952Y-107806190D02*
X408940952Y-108282380D01*
X409274285Y-107282380D02*
X408940952Y-107806190D01*
X408607619Y-107282380D01*
X408274285Y-107758571D02*
X407940952Y-107758571D01*
X407798095Y-108282380D02*
X408274285Y-108282380D01*
X408274285Y-107282380D01*
X407798095Y-107282380D01*
X407417142Y-107996666D02*
X406940952Y-107996666D01*
X407512380Y-108282380D02*
X407179047Y-107282380D01*
X406845714Y-108282380D01*
X405940952Y-108282380D02*
X406274285Y-107806190D01*
X406512380Y-108282380D02*
X406512380Y-107282380D01*
X406131428Y-107282380D01*
X406036190Y-107330000D01*
X405988571Y-107377619D01*
X405940952Y-107472857D01*
X405940952Y-107615714D01*
X405988571Y-107710952D01*
X406036190Y-107758571D01*
X406131428Y-107806190D01*
X406512380Y-107806190D01*
X404988571Y-108282380D02*
X405560000Y-108282380D01*
X405274285Y-108282380D02*
X405274285Y-107282380D01*
X405369523Y-107425238D01*
X405464761Y-107520476D01*
X405560000Y-107568095D01*
X411532380Y-141813333D02*
X411056190Y-141480000D01*
X411532380Y-141241904D02*
X410532380Y-141241904D01*
X410532380Y-141622857D01*
X410580000Y-141718095D01*
X410627619Y-141765714D01*
X410722857Y-141813333D01*
X410865714Y-141813333D01*
X410960952Y-141765714D01*
X411008571Y-141718095D01*
X411056190Y-141622857D01*
X411056190Y-141241904D01*
X411532380Y-142241904D02*
X410532380Y-142241904D01*
X410532380Y-142480000D01*
X410580000Y-142622857D01*
X410675238Y-142718095D01*
X410770476Y-142765714D01*
X410960952Y-142813333D01*
X411103809Y-142813333D01*
X411294285Y-142765714D01*
X411389523Y-142718095D01*
X411484761Y-142622857D01*
X411532380Y-142480000D01*
X411532380Y-142241904D01*
X411532380Y-143241904D02*
X410532380Y-143241904D01*
X410532380Y-143622857D01*
X410580000Y-143718095D01*
X410627619Y-143765714D01*
X410722857Y-143813333D01*
X410865714Y-143813333D01*
X410960952Y-143765714D01*
X411008571Y-143718095D01*
X411056190Y-143622857D01*
X411056190Y-143241904D01*
X410627619Y-144194285D02*
X410580000Y-144241904D01*
X410532380Y-144337142D01*
X410532380Y-144575238D01*
X410580000Y-144670476D01*
X410627619Y-144718095D01*
X410722857Y-144765714D01*
X410818095Y-144765714D01*
X410960952Y-144718095D01*
X411532380Y-144146666D01*
X411532380Y-144765714D01*
X382532380Y-154494761D02*
X381532380Y-154494761D01*
X382532380Y-154970952D02*
X381532380Y-154970952D01*
X382532380Y-155542380D01*
X381532380Y-155542380D01*
X381532380Y-155875714D02*
X382532380Y-156209047D01*
X381532380Y-156542380D01*
X382008571Y-156875714D02*
X382008571Y-157209047D01*
X382532380Y-157351904D02*
X382532380Y-156875714D01*
X381532380Y-156875714D01*
X381532380Y-157351904D01*
X382532380Y-158351904D02*
X382056190Y-158018571D01*
X382532380Y-157780476D02*
X381532380Y-157780476D01*
X381532380Y-158161428D01*
X381580000Y-158256666D01*
X381627619Y-158304285D01*
X381722857Y-158351904D01*
X381865714Y-158351904D01*
X381960952Y-158304285D01*
X382008571Y-158256666D01*
X382056190Y-158161428D01*
X382056190Y-157780476D01*
X381532380Y-158637619D02*
X381532380Y-159209047D01*
X382532380Y-158923333D02*
X381532380Y-158923333D01*
X382008571Y-159542380D02*
X382008571Y-159875714D01*
X382532380Y-160018571D02*
X382532380Y-159542380D01*
X381532380Y-159542380D01*
X381532380Y-160018571D01*
X382532380Y-161018571D02*
X382056190Y-160685238D01*
X382532380Y-160447142D02*
X381532380Y-160447142D01*
X381532380Y-160828095D01*
X381580000Y-160923333D01*
X381627619Y-160970952D01*
X381722857Y-161018571D01*
X381865714Y-161018571D01*
X381960952Y-160970952D01*
X382008571Y-160923333D01*
X382056190Y-160828095D01*
X382056190Y-160447142D01*
X382627619Y-161209047D02*
X382627619Y-161970952D01*
X381627619Y-162161428D02*
X381580000Y-162209047D01*
X381532380Y-162304285D01*
X381532380Y-162542380D01*
X381580000Y-162637619D01*
X381627619Y-162685238D01*
X381722857Y-162732857D01*
X381818095Y-162732857D01*
X381960952Y-162685238D01*
X382532380Y-162113809D01*
X382532380Y-162732857D01*
X374955238Y-197432380D02*
X374955238Y-196432380D01*
X374479047Y-197432380D02*
X374479047Y-196432380D01*
X373907619Y-197432380D01*
X373907619Y-196432380D01*
X373574285Y-196432380D02*
X373240952Y-197432380D01*
X372907619Y-196432380D01*
X372574285Y-196908571D02*
X372240952Y-196908571D01*
X372098095Y-197432380D02*
X372574285Y-197432380D01*
X372574285Y-196432380D01*
X372098095Y-196432380D01*
X371098095Y-197432380D02*
X371431428Y-196956190D01*
X371669523Y-197432380D02*
X371669523Y-196432380D01*
X371288571Y-196432380D01*
X371193333Y-196480000D01*
X371145714Y-196527619D01*
X371098095Y-196622857D01*
X371098095Y-196765714D01*
X371145714Y-196860952D01*
X371193333Y-196908571D01*
X371288571Y-196956190D01*
X371669523Y-196956190D01*
X370812380Y-196432380D02*
X370240952Y-196432380D01*
X370526666Y-197432380D02*
X370526666Y-196432380D01*
X369907619Y-196908571D02*
X369574285Y-196908571D01*
X369431428Y-197432380D02*
X369907619Y-197432380D01*
X369907619Y-196432380D01*
X369431428Y-196432380D01*
X368431428Y-197432380D02*
X368764761Y-196956190D01*
X369002857Y-197432380D02*
X369002857Y-196432380D01*
X368621904Y-196432380D01*
X368526666Y-196480000D01*
X368479047Y-196527619D01*
X368431428Y-196622857D01*
X368431428Y-196765714D01*
X368479047Y-196860952D01*
X368526666Y-196908571D01*
X368621904Y-196956190D01*
X369002857Y-196956190D01*
X368240952Y-197527619D02*
X367479047Y-197527619D01*
X366717142Y-197432380D02*
X367288571Y-197432380D01*
X367002857Y-197432380D02*
X367002857Y-196432380D01*
X367098095Y-196575238D01*
X367193333Y-196670476D01*
X367288571Y-196718095D01*
X328769523Y-196482380D02*
X328198095Y-196482380D01*
X328483809Y-197482380D02*
X328483809Y-196482380D01*
X327864761Y-197482380D02*
X327864761Y-196482380D01*
X327388571Y-197482380D02*
X327388571Y-196482380D01*
X327055238Y-197196666D01*
X326721904Y-196482380D01*
X326721904Y-197482380D01*
X326245714Y-196958571D02*
X325912380Y-196958571D01*
X325769523Y-197482380D02*
X326245714Y-197482380D01*
X326245714Y-196482380D01*
X325769523Y-196482380D01*
X325579047Y-197577619D02*
X324817142Y-197577619D01*
X324579047Y-197482380D02*
X324579047Y-196482380D01*
X324102857Y-197482380D02*
X324102857Y-196482380D01*
X323531428Y-197482380D01*
X323531428Y-196482380D01*
X323055238Y-197482380D02*
X323055238Y-196482380D01*
X322674285Y-196482380D01*
X322579047Y-196530000D01*
X322531428Y-196577619D01*
X322483809Y-196672857D01*
X322483809Y-196815714D01*
X322531428Y-196910952D01*
X322579047Y-196958571D01*
X322674285Y-197006190D01*
X323055238Y-197006190D01*
X322055238Y-196482380D02*
X322055238Y-197291904D01*
X322007619Y-197387142D01*
X321960000Y-197434761D01*
X321864761Y-197482380D01*
X321674285Y-197482380D01*
X321579047Y-197434761D01*
X321531428Y-197387142D01*
X321483809Y-197291904D01*
X321483809Y-196482380D01*
X321150476Y-196482380D02*
X320579047Y-196482380D01*
X320864761Y-197482380D02*
X320864761Y-196482380D01*
X320483809Y-197577619D02*
X319721904Y-197577619D01*
X318912380Y-197387142D02*
X318960000Y-197434761D01*
X319102857Y-197482380D01*
X319198095Y-197482380D01*
X319340952Y-197434761D01*
X319436190Y-197339523D01*
X319483809Y-197244285D01*
X319531428Y-197053809D01*
X319531428Y-196910952D01*
X319483809Y-196720476D01*
X319436190Y-196625238D01*
X319340952Y-196530000D01*
X319198095Y-196482380D01*
X319102857Y-196482380D01*
X318960000Y-196530000D01*
X318912380Y-196577619D01*
X318293333Y-196482380D02*
X318102857Y-196482380D01*
X318007619Y-196530000D01*
X317912380Y-196625238D01*
X317864761Y-196815714D01*
X317864761Y-197149047D01*
X317912380Y-197339523D01*
X318007619Y-197434761D01*
X318102857Y-197482380D01*
X318293333Y-197482380D01*
X318388571Y-197434761D01*
X318483809Y-197339523D01*
X318531428Y-197149047D01*
X318531428Y-196815714D01*
X318483809Y-196625238D01*
X318388571Y-196530000D01*
X318293333Y-196482380D01*
X317436190Y-197482380D02*
X317436190Y-196482380D01*
X316864761Y-197482380D01*
X316864761Y-196482380D01*
X316531428Y-196482380D02*
X315960000Y-196482380D01*
X316245714Y-197482380D02*
X316245714Y-196482380D01*
X315055238Y-197482380D02*
X315388571Y-197006190D01*
X315626666Y-197482380D02*
X315626666Y-196482380D01*
X315245714Y-196482380D01*
X315150476Y-196530000D01*
X315102857Y-196577619D01*
X315055238Y-196672857D01*
X315055238Y-196815714D01*
X315102857Y-196910952D01*
X315150476Y-196958571D01*
X315245714Y-197006190D01*
X315626666Y-197006190D01*
X314436190Y-196482380D02*
X314245714Y-196482380D01*
X314150476Y-196530000D01*
X314055238Y-196625238D01*
X314007619Y-196815714D01*
X314007619Y-197149047D01*
X314055238Y-197339523D01*
X314150476Y-197434761D01*
X314245714Y-197482380D01*
X314436190Y-197482380D01*
X314531428Y-197434761D01*
X314626666Y-197339523D01*
X314674285Y-197149047D01*
X314674285Y-196815714D01*
X314626666Y-196625238D01*
X314531428Y-196530000D01*
X314436190Y-196482380D01*
X313102857Y-197482380D02*
X313579047Y-197482380D01*
X313579047Y-196482380D01*
X312245714Y-197482380D02*
X312817142Y-197482380D01*
X312531428Y-197482380D02*
X312531428Y-196482380D01*
X312626666Y-196625238D01*
X312721904Y-196720476D01*
X312817142Y-196768095D01*
X353346666Y-243922380D02*
X353680000Y-243446190D01*
X353918095Y-243922380D02*
X353918095Y-242922380D01*
X353537142Y-242922380D01*
X353441904Y-242970000D01*
X353394285Y-243017619D01*
X353346666Y-243112857D01*
X353346666Y-243255714D01*
X353394285Y-243350952D01*
X353441904Y-243398571D01*
X353537142Y-243446190D01*
X353918095Y-243446190D01*
X352918095Y-243922380D02*
X352918095Y-242922380D01*
X352680000Y-242922380D01*
X352537142Y-242970000D01*
X352441904Y-243065238D01*
X352394285Y-243160476D01*
X352346666Y-243350952D01*
X352346666Y-243493809D01*
X352394285Y-243684285D01*
X352441904Y-243779523D01*
X352537142Y-243874761D01*
X352680000Y-243922380D01*
X352918095Y-243922380D01*
X351918095Y-243922380D02*
X351918095Y-242922380D01*
X351537142Y-242922380D01*
X351441904Y-242970000D01*
X351394285Y-243017619D01*
X351346666Y-243112857D01*
X351346666Y-243255714D01*
X351394285Y-243350952D01*
X351441904Y-243398571D01*
X351537142Y-243446190D01*
X351918095Y-243446190D01*
X350394285Y-243922380D02*
X350965714Y-243922380D01*
X350680000Y-243922380D02*
X350680000Y-242922380D01*
X350775238Y-243065238D01*
X350870476Y-243160476D01*
X350965714Y-243208095D01*
X394590952Y-197482380D02*
X394590952Y-196482380D01*
X394114761Y-196815714D02*
X394114761Y-197482380D01*
X394114761Y-196910952D02*
X394067142Y-196863333D01*
X393971904Y-196815714D01*
X393829047Y-196815714D01*
X393733809Y-196863333D01*
X393686190Y-196958571D01*
X393686190Y-197482380D01*
X393210000Y-196815714D02*
X393210000Y-197815714D01*
X393210000Y-196863333D02*
X393114761Y-196815714D01*
X392924285Y-196815714D01*
X392829047Y-196863333D01*
X392781428Y-196910952D01*
X392733809Y-197006190D01*
X392733809Y-197291904D01*
X392781428Y-197387142D01*
X392829047Y-197434761D01*
X392924285Y-197482380D01*
X393114761Y-197482380D01*
X393210000Y-197434761D01*
X391876666Y-196815714D02*
X391876666Y-197482380D01*
X392305238Y-196815714D02*
X392305238Y-197339523D01*
X392257619Y-197434761D01*
X392162380Y-197482380D01*
X392019523Y-197482380D01*
X391924285Y-197434761D01*
X391876666Y-197387142D01*
X391543333Y-196815714D02*
X391162380Y-196815714D01*
X391400476Y-196482380D02*
X391400476Y-197339523D01*
X391352857Y-197434761D01*
X391257619Y-197482380D01*
X391162380Y-197482380D01*
X390829047Y-197482380D02*
X390829047Y-196482380D01*
X390448095Y-196482380D01*
X390352857Y-196530000D01*
X390305238Y-196577619D01*
X390257619Y-196672857D01*
X390257619Y-196815714D01*
X390305238Y-196910952D01*
X390352857Y-196958571D01*
X390448095Y-197006190D01*
X390829047Y-197006190D01*
X389686190Y-197482380D02*
X389781428Y-197434761D01*
X389829047Y-197387142D01*
X389876666Y-197291904D01*
X389876666Y-197006190D01*
X389829047Y-196910952D01*
X389781428Y-196863333D01*
X389686190Y-196815714D01*
X389543333Y-196815714D01*
X389448095Y-196863333D01*
X389400476Y-196910952D01*
X389352857Y-197006190D01*
X389352857Y-197291904D01*
X389400476Y-197387142D01*
X389448095Y-197434761D01*
X389543333Y-197482380D01*
X389686190Y-197482380D01*
X389019523Y-196815714D02*
X388829047Y-197482380D01*
X388638571Y-197006190D01*
X388448095Y-197482380D01*
X388257619Y-196815714D01*
X387495714Y-197434761D02*
X387590952Y-197482380D01*
X387781428Y-197482380D01*
X387876666Y-197434761D01*
X387924285Y-197339523D01*
X387924285Y-196958571D01*
X387876666Y-196863333D01*
X387781428Y-196815714D01*
X387590952Y-196815714D01*
X387495714Y-196863333D01*
X387448095Y-196958571D01*
X387448095Y-197053809D01*
X387924285Y-197149047D01*
X387019523Y-197482380D02*
X387019523Y-196815714D01*
X387019523Y-197006190D02*
X386971904Y-196910952D01*
X386924285Y-196863333D01*
X386829047Y-196815714D01*
X386733809Y-196815714D01*
X385829047Y-197387142D02*
X385876666Y-197434761D01*
X386019523Y-197482380D01*
X386114761Y-197482380D01*
X386257619Y-197434761D01*
X386352857Y-197339523D01*
X386400476Y-197244285D01*
X386448095Y-197053809D01*
X386448095Y-196910952D01*
X386400476Y-196720476D01*
X386352857Y-196625238D01*
X386257619Y-196530000D01*
X386114761Y-196482380D01*
X386019523Y-196482380D01*
X385876666Y-196530000D01*
X385829047Y-196577619D01*
X385257619Y-197482380D02*
X385352857Y-197434761D01*
X385400476Y-197387142D01*
X385448095Y-197291904D01*
X385448095Y-197006190D01*
X385400476Y-196910952D01*
X385352857Y-196863333D01*
X385257619Y-196815714D01*
X385114761Y-196815714D01*
X385019523Y-196863333D01*
X384971904Y-196910952D01*
X384924285Y-197006190D01*
X384924285Y-197291904D01*
X384971904Y-197387142D01*
X385019523Y-197434761D01*
X385114761Y-197482380D01*
X385257619Y-197482380D01*
X384495714Y-196815714D02*
X384495714Y-197482380D01*
X384495714Y-196910952D02*
X384448095Y-196863333D01*
X384352857Y-196815714D01*
X384210000Y-196815714D01*
X384114761Y-196863333D01*
X384067142Y-196958571D01*
X384067142Y-197482380D01*
X383686190Y-196815714D02*
X383448095Y-197482380D01*
X383210000Y-196815714D01*
X382448095Y-197434761D02*
X382543333Y-197482380D01*
X382733809Y-197482380D01*
X382829047Y-197434761D01*
X382876666Y-197339523D01*
X382876666Y-196958571D01*
X382829047Y-196863333D01*
X382733809Y-196815714D01*
X382543333Y-196815714D01*
X382448095Y-196863333D01*
X382400476Y-196958571D01*
X382400476Y-197053809D01*
X382876666Y-197149047D01*
X381971904Y-197482380D02*
X381971904Y-196815714D01*
X381971904Y-197006190D02*
X381924285Y-196910952D01*
X381876666Y-196863333D01*
X381781428Y-196815714D01*
X381686190Y-196815714D01*
X381495714Y-196815714D02*
X381114761Y-196815714D01*
X381352857Y-196482380D02*
X381352857Y-197339523D01*
X381305238Y-197434761D01*
X381210000Y-197482380D01*
X381114761Y-197482380D01*
X380400476Y-197434761D02*
X380495714Y-197482380D01*
X380686190Y-197482380D01*
X380781428Y-197434761D01*
X380829047Y-197339523D01*
X380829047Y-196958571D01*
X380781428Y-196863333D01*
X380686190Y-196815714D01*
X380495714Y-196815714D01*
X380400476Y-196863333D01*
X380352857Y-196958571D01*
X380352857Y-197053809D01*
X380829047Y-197149047D01*
X379924285Y-197482380D02*
X379924285Y-196815714D01*
X379924285Y-197006190D02*
X379876666Y-196910952D01*
X379829047Y-196863333D01*
X379733809Y-196815714D01*
X379638571Y-196815714D01*
X378781428Y-197482380D02*
X379352857Y-197482380D01*
X379067142Y-197482380D02*
X379067142Y-196482380D01*
X379162380Y-196625238D01*
X379257619Y-196720476D01*
X379352857Y-196768095D01*
X351926666Y-196908571D02*
X351783809Y-196956190D01*
X351736190Y-197003809D01*
X351688571Y-197099047D01*
X351688571Y-197241904D01*
X351736190Y-197337142D01*
X351783809Y-197384761D01*
X351879047Y-197432380D01*
X352260000Y-197432380D01*
X352260000Y-196432380D01*
X351926666Y-196432380D01*
X351831428Y-196480000D01*
X351783809Y-196527619D01*
X351736190Y-196622857D01*
X351736190Y-196718095D01*
X351783809Y-196813333D01*
X351831428Y-196860952D01*
X351926666Y-196908571D01*
X352260000Y-196908571D01*
X350688571Y-197337142D02*
X350736190Y-197384761D01*
X350879047Y-197432380D01*
X350974285Y-197432380D01*
X351117142Y-197384761D01*
X351212380Y-197289523D01*
X351260000Y-197194285D01*
X351307619Y-197003809D01*
X351307619Y-196860952D01*
X351260000Y-196670476D01*
X351212380Y-196575238D01*
X351117142Y-196480000D01*
X350974285Y-196432380D01*
X350879047Y-196432380D01*
X350736190Y-196480000D01*
X350688571Y-196527619D01*
X350260000Y-197432380D02*
X350260000Y-196432380D01*
X350021904Y-196432380D01*
X349879047Y-196480000D01*
X349783809Y-196575238D01*
X349736190Y-196670476D01*
X349688571Y-196860952D01*
X349688571Y-197003809D01*
X349736190Y-197194285D01*
X349783809Y-197289523D01*
X349879047Y-197384761D01*
X350021904Y-197432380D01*
X350260000Y-197432380D01*
X349260000Y-197051428D02*
X348498095Y-197051428D01*
X348164761Y-196432380D02*
X347593333Y-196432380D01*
X347879047Y-197432380D02*
X347879047Y-196432380D01*
X347260000Y-197432380D02*
X347260000Y-196432380D01*
X346783809Y-197432380D02*
X346783809Y-196432380D01*
X346450476Y-197146666D01*
X346117142Y-196432380D01*
X346117142Y-197432380D01*
X345640952Y-196908571D02*
X345307619Y-196908571D01*
X345164761Y-197432380D02*
X345640952Y-197432380D01*
X345640952Y-196432380D01*
X345164761Y-196432380D01*
X344212380Y-197432380D02*
X344783809Y-197432380D01*
X344498095Y-197432380D02*
X344498095Y-196432380D01*
X344593333Y-196575238D01*
X344688571Y-196670476D01*
X344783809Y-196718095D01*
X284702380Y-264376190D02*
X284702380Y-264185714D01*
X284750000Y-264090476D01*
X284797619Y-264042857D01*
X284940476Y-263947619D01*
X285130952Y-263900000D01*
X285511904Y-263900000D01*
X285607142Y-263947619D01*
X285654761Y-263995238D01*
X285702380Y-264090476D01*
X285702380Y-264280952D01*
X285654761Y-264376190D01*
X285607142Y-264423809D01*
X285511904Y-264471428D01*
X285273809Y-264471428D01*
X285178571Y-264423809D01*
X285130952Y-264376190D01*
X285083333Y-264280952D01*
X285083333Y-264090476D01*
X285130952Y-263995238D01*
X285178571Y-263947619D01*
X285273809Y-263900000D01*
X284702380Y-264757142D02*
X285702380Y-265090476D01*
X284702380Y-265423809D01*
X285321428Y-265757142D02*
X285321428Y-266519047D01*
X285607142Y-267566666D02*
X285654761Y-267519047D01*
X285702380Y-267376190D01*
X285702380Y-267280952D01*
X285654761Y-267138095D01*
X285559523Y-267042857D01*
X285464285Y-266995238D01*
X285273809Y-266947619D01*
X285130952Y-266947619D01*
X284940476Y-266995238D01*
X284845238Y-267042857D01*
X284750000Y-267138095D01*
X284702380Y-267280952D01*
X284702380Y-267376190D01*
X284750000Y-267519047D01*
X284797619Y-267566666D01*
X285702380Y-268138095D02*
X285654761Y-268042857D01*
X285607142Y-267995238D01*
X285511904Y-267947619D01*
X285226190Y-267947619D01*
X285130952Y-267995238D01*
X285083333Y-268042857D01*
X285035714Y-268138095D01*
X285035714Y-268280952D01*
X285083333Y-268376190D01*
X285130952Y-268423809D01*
X285226190Y-268471428D01*
X285511904Y-268471428D01*
X285607142Y-268423809D01*
X285654761Y-268376190D01*
X285702380Y-268280952D01*
X285702380Y-268138095D01*
X285035714Y-269328571D02*
X285702380Y-269328571D01*
X285035714Y-268900000D02*
X285559523Y-268900000D01*
X285654761Y-268947619D01*
X285702380Y-269042857D01*
X285702380Y-269185714D01*
X285654761Y-269280952D01*
X285607142Y-269328571D01*
X285035714Y-269661904D02*
X285035714Y-270042857D01*
X284702380Y-269804761D02*
X285559523Y-269804761D01*
X285654761Y-269852380D01*
X285702380Y-269947619D01*
X285702380Y-270042857D01*
X285702380Y-270900000D02*
X285702380Y-270328571D01*
X285702380Y-270614285D02*
X284702380Y-270614285D01*
X284845238Y-270519047D01*
X284940476Y-270423809D01*
X284988095Y-270328571D01*
X251402380Y-264276190D02*
X251402380Y-264085714D01*
X251450000Y-263990476D01*
X251497619Y-263942857D01*
X251640476Y-263847619D01*
X251830952Y-263800000D01*
X252211904Y-263800000D01*
X252307142Y-263847619D01*
X252354761Y-263895238D01*
X252402380Y-263990476D01*
X252402380Y-264180952D01*
X252354761Y-264276190D01*
X252307142Y-264323809D01*
X252211904Y-264371428D01*
X251973809Y-264371428D01*
X251878571Y-264323809D01*
X251830952Y-264276190D01*
X251783333Y-264180952D01*
X251783333Y-263990476D01*
X251830952Y-263895238D01*
X251878571Y-263847619D01*
X251973809Y-263800000D01*
X251402380Y-264657142D02*
X252402380Y-264990476D01*
X251402380Y-265323809D01*
X252021428Y-265657142D02*
X252021428Y-266419047D01*
X252307142Y-267466666D02*
X252354761Y-267419047D01*
X252402380Y-267276190D01*
X252402380Y-267180952D01*
X252354761Y-267038095D01*
X252259523Y-266942857D01*
X252164285Y-266895238D01*
X251973809Y-266847619D01*
X251830952Y-266847619D01*
X251640476Y-266895238D01*
X251545238Y-266942857D01*
X251450000Y-267038095D01*
X251402380Y-267180952D01*
X251402380Y-267276190D01*
X251450000Y-267419047D01*
X251497619Y-267466666D01*
X252402380Y-267895238D02*
X251735714Y-267895238D01*
X251402380Y-267895238D02*
X251450000Y-267847619D01*
X251497619Y-267895238D01*
X251450000Y-267942857D01*
X251402380Y-267895238D01*
X251497619Y-267895238D01*
X251735714Y-268371428D02*
X252402380Y-268371428D01*
X251830952Y-268371428D02*
X251783333Y-268419047D01*
X251735714Y-268514285D01*
X251735714Y-268657142D01*
X251783333Y-268752380D01*
X251878571Y-268800000D01*
X252402380Y-268800000D01*
X252402380Y-269800000D02*
X252402380Y-269228571D01*
X252402380Y-269514285D02*
X251402380Y-269514285D01*
X251545238Y-269419047D01*
X251640476Y-269323809D01*
X251688095Y-269228571D01*
X284702380Y-272423809D02*
X284702380Y-271947619D01*
X285178571Y-271900000D01*
X285130952Y-271947619D01*
X285083333Y-272042857D01*
X285083333Y-272280952D01*
X285130952Y-272376190D01*
X285178571Y-272423809D01*
X285273809Y-272471428D01*
X285511904Y-272471428D01*
X285607142Y-272423809D01*
X285654761Y-272376190D01*
X285702380Y-272280952D01*
X285702380Y-272042857D01*
X285654761Y-271947619D01*
X285607142Y-271900000D01*
X284702380Y-272757142D02*
X285702380Y-273090476D01*
X284702380Y-273423809D01*
X285321428Y-273757142D02*
X285321428Y-274519047D01*
X285607142Y-275566666D02*
X285654761Y-275519047D01*
X285702380Y-275376190D01*
X285702380Y-275280952D01*
X285654761Y-275138095D01*
X285559523Y-275042857D01*
X285464285Y-274995238D01*
X285273809Y-274947619D01*
X285130952Y-274947619D01*
X284940476Y-274995238D01*
X284845238Y-275042857D01*
X284750000Y-275138095D01*
X284702380Y-275280952D01*
X284702380Y-275376190D01*
X284750000Y-275519047D01*
X284797619Y-275566666D01*
X285702380Y-276138095D02*
X285654761Y-276042857D01*
X285607142Y-275995238D01*
X285511904Y-275947619D01*
X285226190Y-275947619D01*
X285130952Y-275995238D01*
X285083333Y-276042857D01*
X285035714Y-276138095D01*
X285035714Y-276280952D01*
X285083333Y-276376190D01*
X285130952Y-276423809D01*
X285226190Y-276471428D01*
X285511904Y-276471428D01*
X285607142Y-276423809D01*
X285654761Y-276376190D01*
X285702380Y-276280952D01*
X285702380Y-276138095D01*
X285035714Y-277328571D02*
X285702380Y-277328571D01*
X285035714Y-276900000D02*
X285559523Y-276900000D01*
X285654761Y-276947619D01*
X285702380Y-277042857D01*
X285702380Y-277185714D01*
X285654761Y-277280952D01*
X285607142Y-277328571D01*
X285035714Y-277661904D02*
X285035714Y-278042857D01*
X284702380Y-277804761D02*
X285559523Y-277804761D01*
X285654761Y-277852380D01*
X285702380Y-277947619D01*
X285702380Y-278042857D01*
X285702380Y-278900000D02*
X285702380Y-278328571D01*
X285702380Y-278614285D02*
X284702380Y-278614285D01*
X284845238Y-278519047D01*
X284940476Y-278423809D01*
X284988095Y-278328571D01*
X251502380Y-272923809D02*
X251502380Y-272447619D01*
X251978571Y-272400000D01*
X251930952Y-272447619D01*
X251883333Y-272542857D01*
X251883333Y-272780952D01*
X251930952Y-272876190D01*
X251978571Y-272923809D01*
X252073809Y-272971428D01*
X252311904Y-272971428D01*
X252407142Y-272923809D01*
X252454761Y-272876190D01*
X252502380Y-272780952D01*
X252502380Y-272542857D01*
X252454761Y-272447619D01*
X252407142Y-272400000D01*
X251502380Y-273257142D02*
X252502380Y-273590476D01*
X251502380Y-273923809D01*
X252121428Y-274257142D02*
X252121428Y-275019047D01*
X252407142Y-276066666D02*
X252454761Y-276019047D01*
X252502380Y-275876190D01*
X252502380Y-275780952D01*
X252454761Y-275638095D01*
X252359523Y-275542857D01*
X252264285Y-275495238D01*
X252073809Y-275447619D01*
X251930952Y-275447619D01*
X251740476Y-275495238D01*
X251645238Y-275542857D01*
X251550000Y-275638095D01*
X251502380Y-275780952D01*
X251502380Y-275876190D01*
X251550000Y-276019047D01*
X251597619Y-276066666D01*
X252502380Y-276495238D02*
X251835714Y-276495238D01*
X251502380Y-276495238D02*
X251550000Y-276447619D01*
X251597619Y-276495238D01*
X251550000Y-276542857D01*
X251502380Y-276495238D01*
X251597619Y-276495238D01*
X251835714Y-276971428D02*
X252502380Y-276971428D01*
X251930952Y-276971428D02*
X251883333Y-277019047D01*
X251835714Y-277114285D01*
X251835714Y-277257142D01*
X251883333Y-277352380D01*
X251978571Y-277400000D01*
X252502380Y-277400000D01*
X252502380Y-278400000D02*
X252502380Y-277828571D01*
X252502380Y-278114285D02*
X251502380Y-278114285D01*
X251645238Y-278019047D01*
X251740476Y-277923809D01*
X251788095Y-277828571D01*
X221242380Y-265305238D02*
X220766190Y-264971904D01*
X221242380Y-264733809D02*
X220242380Y-264733809D01*
X220242380Y-265114761D01*
X220290000Y-265210000D01*
X220337619Y-265257619D01*
X220432857Y-265305238D01*
X220575714Y-265305238D01*
X220670952Y-265257619D01*
X220718571Y-265210000D01*
X220766190Y-265114761D01*
X220766190Y-264733809D01*
X221337619Y-265495714D02*
X221337619Y-266257619D01*
X221147142Y-267067142D02*
X221194761Y-267019523D01*
X221242380Y-266876666D01*
X221242380Y-266781428D01*
X221194761Y-266638571D01*
X221099523Y-266543333D01*
X221004285Y-266495714D01*
X220813809Y-266448095D01*
X220670952Y-266448095D01*
X220480476Y-266495714D01*
X220385238Y-266543333D01*
X220290000Y-266638571D01*
X220242380Y-266781428D01*
X220242380Y-266876666D01*
X220290000Y-267019523D01*
X220337619Y-267067142D01*
X220242380Y-267686190D02*
X220242380Y-267876666D01*
X220290000Y-267971904D01*
X220385238Y-268067142D01*
X220575714Y-268114761D01*
X220909047Y-268114761D01*
X221099523Y-268067142D01*
X221194761Y-267971904D01*
X221242380Y-267876666D01*
X221242380Y-267686190D01*
X221194761Y-267590952D01*
X221099523Y-267495714D01*
X220909047Y-267448095D01*
X220575714Y-267448095D01*
X220385238Y-267495714D01*
X220290000Y-267590952D01*
X220242380Y-267686190D01*
X221242380Y-268543333D02*
X220242380Y-268543333D01*
X221242380Y-269114761D01*
X220242380Y-269114761D01*
X220242380Y-269448095D02*
X220242380Y-270019523D01*
X221242380Y-269733809D02*
X220242380Y-269733809D01*
X221242380Y-270924285D02*
X220766190Y-270590952D01*
X221242380Y-270352857D02*
X220242380Y-270352857D01*
X220242380Y-270733809D01*
X220290000Y-270829047D01*
X220337619Y-270876666D01*
X220432857Y-270924285D01*
X220575714Y-270924285D01*
X220670952Y-270876666D01*
X220718571Y-270829047D01*
X220766190Y-270733809D01*
X220766190Y-270352857D01*
X220242380Y-271543333D02*
X220242380Y-271733809D01*
X220290000Y-271829047D01*
X220385238Y-271924285D01*
X220575714Y-271971904D01*
X220909047Y-271971904D01*
X221099523Y-271924285D01*
X221194761Y-271829047D01*
X221242380Y-271733809D01*
X221242380Y-271543333D01*
X221194761Y-271448095D01*
X221099523Y-271352857D01*
X220909047Y-271305238D01*
X220575714Y-271305238D01*
X220385238Y-271352857D01*
X220290000Y-271448095D01*
X220242380Y-271543333D01*
X221242380Y-272876666D02*
X221242380Y-272400476D01*
X220242380Y-272400476D01*
X221242380Y-273733809D02*
X221242380Y-273162380D01*
X221242380Y-273448095D02*
X220242380Y-273448095D01*
X220385238Y-273352857D01*
X220480476Y-273257619D01*
X220528095Y-273162380D01*
X242096666Y-270672380D02*
X242430000Y-270196190D01*
X242668095Y-270672380D02*
X242668095Y-269672380D01*
X242287142Y-269672380D01*
X242191904Y-269720000D01*
X242144285Y-269767619D01*
X242096666Y-269862857D01*
X242096666Y-270005714D01*
X242144285Y-270100952D01*
X242191904Y-270148571D01*
X242287142Y-270196190D01*
X242668095Y-270196190D01*
X241715714Y-269767619D02*
X241668095Y-269720000D01*
X241572857Y-269672380D01*
X241334761Y-269672380D01*
X241239523Y-269720000D01*
X241191904Y-269767619D01*
X241144285Y-269862857D01*
X241144285Y-269958095D01*
X241191904Y-270100952D01*
X241763333Y-270672380D01*
X241144285Y-270672380D01*
X203986666Y-265682380D02*
X204320000Y-265206190D01*
X204558095Y-265682380D02*
X204558095Y-264682380D01*
X204177142Y-264682380D01*
X204081904Y-264730000D01*
X204034285Y-264777619D01*
X203986666Y-264872857D01*
X203986666Y-265015714D01*
X204034285Y-265110952D01*
X204081904Y-265158571D01*
X204177142Y-265206190D01*
X204558095Y-265206190D01*
X203034285Y-265682380D02*
X203605714Y-265682380D01*
X203320000Y-265682380D02*
X203320000Y-264682380D01*
X203415238Y-264825238D01*
X203510476Y-264920476D01*
X203605714Y-264968095D01*
X229916666Y-253852380D02*
X230392857Y-253852380D01*
X230392857Y-252852380D01*
X229059523Y-253852380D02*
X229630952Y-253852380D01*
X229345238Y-253852380D02*
X229345238Y-252852380D01*
X229440476Y-252995238D01*
X229535714Y-253090476D01*
X229630952Y-253138095D01*
X215209523Y-263602380D02*
X215209523Y-262602380D01*
X214971428Y-262602380D01*
X214828571Y-262650000D01*
X214733333Y-262745238D01*
X214685714Y-262840476D01*
X214638095Y-263030952D01*
X214638095Y-263173809D01*
X214685714Y-263364285D01*
X214733333Y-263459523D01*
X214828571Y-263554761D01*
X214971428Y-263602380D01*
X215209523Y-263602380D01*
X214209523Y-263602380D02*
X214209523Y-262935714D01*
X214209523Y-262602380D02*
X214257142Y-262650000D01*
X214209523Y-262697619D01*
X214161904Y-262650000D01*
X214209523Y-262602380D01*
X214209523Y-262697619D01*
X213590476Y-263602380D02*
X213685714Y-263554761D01*
X213733333Y-263507142D01*
X213780952Y-263411904D01*
X213780952Y-263126190D01*
X213733333Y-263030952D01*
X213685714Y-262983333D01*
X213590476Y-262935714D01*
X213447619Y-262935714D01*
X213352380Y-262983333D01*
X213304761Y-263030952D01*
X213257142Y-263126190D01*
X213257142Y-263411904D01*
X213304761Y-263507142D01*
X213352380Y-263554761D01*
X213447619Y-263602380D01*
X213590476Y-263602380D01*
X212400000Y-263602380D02*
X212400000Y-262602380D01*
X212400000Y-263554761D02*
X212495238Y-263602380D01*
X212685714Y-263602380D01*
X212780952Y-263554761D01*
X212828571Y-263507142D01*
X212876190Y-263411904D01*
X212876190Y-263126190D01*
X212828571Y-263030952D01*
X212780952Y-262983333D01*
X212685714Y-262935714D01*
X212495238Y-262935714D01*
X212400000Y-262983333D01*
X211542857Y-263554761D02*
X211638095Y-263602380D01*
X211828571Y-263602380D01*
X211923809Y-263554761D01*
X211971428Y-263459523D01*
X211971428Y-263078571D01*
X211923809Y-262983333D01*
X211828571Y-262935714D01*
X211638095Y-262935714D01*
X211542857Y-262983333D01*
X211495238Y-263078571D01*
X211495238Y-263173809D01*
X211971428Y-263269047D01*
X210542857Y-263602380D02*
X211114285Y-263602380D01*
X210828571Y-263602380D02*
X210828571Y-262602380D01*
X210923809Y-262745238D01*
X211019047Y-262840476D01*
X211114285Y-262888095D01*
X236957142Y-259542857D02*
X237004761Y-259495238D01*
X237052380Y-259352380D01*
X237052380Y-259257142D01*
X237004761Y-259114285D01*
X236909523Y-259019047D01*
X236814285Y-258971428D01*
X236623809Y-258923809D01*
X236480952Y-258923809D01*
X236290476Y-258971428D01*
X236195238Y-259019047D01*
X236100000Y-259114285D01*
X236052380Y-259257142D01*
X236052380Y-259352380D01*
X236100000Y-259495238D01*
X236147619Y-259542857D01*
X237052380Y-260114285D02*
X237004761Y-260019047D01*
X236957142Y-259971428D01*
X236861904Y-259923809D01*
X236576190Y-259923809D01*
X236480952Y-259971428D01*
X236433333Y-260019047D01*
X236385714Y-260114285D01*
X236385714Y-260257142D01*
X236433333Y-260352380D01*
X236480952Y-260400000D01*
X236576190Y-260447619D01*
X236861904Y-260447619D01*
X236957142Y-260400000D01*
X237004761Y-260352380D01*
X237052380Y-260257142D01*
X237052380Y-260114285D01*
X236385714Y-261304761D02*
X237052380Y-261304761D01*
X236385714Y-260876190D02*
X236909523Y-260876190D01*
X237004761Y-260923809D01*
X237052380Y-261019047D01*
X237052380Y-261161904D01*
X237004761Y-261257142D01*
X236957142Y-261304761D01*
X236385714Y-261638095D02*
X236385714Y-262019047D01*
X236052380Y-261780952D02*
X236909523Y-261780952D01*
X237004761Y-261828571D01*
X237052380Y-261923809D01*
X237052380Y-262019047D01*
X237052380Y-262876190D02*
X237052380Y-262304761D01*
X237052380Y-262590476D02*
X236052380Y-262590476D01*
X236195238Y-262495238D01*
X236290476Y-262400000D01*
X236338095Y-262304761D01*
X207907142Y-278842857D02*
X207954761Y-278795238D01*
X208002380Y-278652380D01*
X208002380Y-278557142D01*
X207954761Y-278414285D01*
X207859523Y-278319047D01*
X207764285Y-278271428D01*
X207573809Y-278223809D01*
X207430952Y-278223809D01*
X207240476Y-278271428D01*
X207145238Y-278319047D01*
X207050000Y-278414285D01*
X207002380Y-278557142D01*
X207002380Y-278652380D01*
X207050000Y-278795238D01*
X207097619Y-278842857D01*
X208002380Y-279271428D02*
X207335714Y-279271428D01*
X207002380Y-279271428D02*
X207050000Y-279223809D01*
X207097619Y-279271428D01*
X207050000Y-279319047D01*
X207002380Y-279271428D01*
X207097619Y-279271428D01*
X207335714Y-279747619D02*
X208002380Y-279747619D01*
X207430952Y-279747619D02*
X207383333Y-279795238D01*
X207335714Y-279890476D01*
X207335714Y-280033333D01*
X207383333Y-280128571D01*
X207478571Y-280176190D01*
X208002380Y-280176190D01*
X208002380Y-281176190D02*
X208002380Y-280604761D01*
X208002380Y-280890476D02*
X207002380Y-280890476D01*
X207145238Y-280795238D01*
X207240476Y-280700000D01*
X207288095Y-280604761D01*
X242738095Y-266757142D02*
X242785714Y-266804761D01*
X242928571Y-266852380D01*
X243023809Y-266852380D01*
X243166666Y-266804761D01*
X243261904Y-266709523D01*
X243309523Y-266614285D01*
X243357142Y-266423809D01*
X243357142Y-266280952D01*
X243309523Y-266090476D01*
X243261904Y-265995238D01*
X243166666Y-265900000D01*
X243023809Y-265852380D01*
X242928571Y-265852380D01*
X242785714Y-265900000D01*
X242738095Y-265947619D01*
X242452380Y-266185714D02*
X242071428Y-266185714D01*
X242309523Y-266852380D02*
X242309523Y-265995238D01*
X242261904Y-265900000D01*
X242166666Y-265852380D01*
X242071428Y-265852380D01*
X241880952Y-266185714D02*
X241500000Y-266185714D01*
X241738095Y-266852380D02*
X241738095Y-265995238D01*
X241690476Y-265900000D01*
X241595238Y-265852380D01*
X241500000Y-265852380D01*
X240642857Y-266852380D02*
X241214285Y-266852380D01*
X240928571Y-266852380D02*
X240928571Y-265852380D01*
X241023809Y-265995238D01*
X241119047Y-266090476D01*
X241214285Y-266138095D01*
M02*
