M48
METRIC,TZ
T1C0.400
T2C0.600
T3C0.762
T4C0.800
T5C1.000
T6C1.050
T7C1.100
T8C1.200
T9C1.300
T10C1.750
%
G90
G05
T1
X203750Y-237500
X237750Y-249500
X237750Y-249500
X254750Y-240500
X301000Y-180750
X307750Y-137000
X310500Y-242000
X310500Y-249250
X322250Y-130750
X327500Y-123000
X329050Y-201750
X332036Y-148914
X333750Y-178500
X335050Y-154600
X335700Y-211100
X337250Y-288250
X338250Y-174000
X343600Y-171150
X343750Y-294750
X344250Y-300500
X349000Y-294750
X349250Y-171000
X349250Y-177500
X351000Y-262000
X353250Y-160000
X355250Y-259000
X355250Y-304000
X355750Y-294750
X356000Y-149650
X356750Y-254000
X359550Y-195300
X359600Y-132100
X360250Y-252500
X362750Y-114500
X364750Y-108500
X365850Y-201600
X366750Y-260750
X367250Y-116000
X368250Y-265000
X370100Y-190250
X370250Y-91250
X371700Y-183850
X372250Y-124000
X374750Y-95750
X375500Y-122000
X378050Y-172250
X380250Y-196350
X381700Y-120250
X382050Y-169350
X382250Y-153000
X382300Y-172900
X383750Y-221250
X384250Y-207500
X384250Y-248500
X386250Y-141500
X386250Y-148500
X386250Y-150500
X386250Y-153000
X386596Y-122996
X386750Y-302750
X386800Y-81200
X389000Y-234000
X389000Y-234000
X389500Y-149500
X389500Y-152000
X389500Y-158600
X389750Y-156250
X389800Y-154750
X390500Y-298000
X390750Y-85500
X392350Y-125950
X393000Y-132100
X393000Y-221250
X393250Y-152000
X393500Y-84000
X396000Y-220500
X396500Y-297500
X396850Y-201600
X397400Y-163000
X399500Y-123000
X399950Y-220150
X402050Y-180100
X402750Y-91250
X403250Y-71250
X404500Y-130000
X405250Y-118500
X405400Y-143150
X406000Y-141000
X406350Y-238100
X406750Y-152000
X407000Y-132500
X407400Y-246150
X407725Y-173325
X407800Y-185850
X408000Y-123000
X410350Y-188100
X412250Y-112500
X412500Y-118500
X413250Y-145250
X413450Y-171200
X413450Y-185350
X414250Y-122750
X416000Y-84250
X416000Y-152000
X416250Y-155000
X416250Y-166500
X418250Y-189750
X420250Y-80000
X421000Y-84250
X421000Y-261250
X421750Y-76500
X422250Y-81750
X425400Y-71200
X426500Y-80750
X426750Y-274000
X427600Y-233850
X428050Y-120250
X428250Y-108250
X428750Y-112250
X431750Y-119750
X433250Y-118000
X434250Y-194000
X437000Y-98500
X437750Y-165250
X438750Y-254500
X439250Y-258000
X439500Y-106000
X440000Y-296250
X440450Y-135350
X440450Y-153200
X441750Y-230000
X442250Y-142250
X443750Y-142750
X444750Y-291250
X445750Y-91250
X446750Y-274000
X447000Y-152500
X447000Y-281000
X448250Y-111750
X452000Y-147500
X458200Y-133000
X461750Y-133250
X461750Y-137750
X463600Y-98000
X463750Y-111750
X499800Y-73200
X506200Y-94200
X509250Y-190250
X527200Y-115600
X527600Y-100800
X534000Y-77400
T2
X255300Y-274400
X255300Y-276400
X255200Y-265800
X255200Y-267800
X529400Y-89800
X529400Y-91800
X529400Y-82800
X529400Y-84800
T3
X504150Y-60000
X512650Y-60000
X237750Y-274400
X246250Y-274400
X510550Y-122600
X519050Y-122600
T4
X344450Y-176870
X344450Y-179410
X344450Y-181950
X344450Y-184490
X344450Y-187030
X344450Y-189570
X344450Y-192110
X344450Y-194650
X352070Y-176870
X352070Y-179410
X352070Y-181950
X352070Y-184490
X352070Y-187030
X352070Y-189570
X352070Y-192110
X352070Y-194650
X362420Y-140580
X362420Y-148200
X364960Y-140580
X364960Y-148200
X367500Y-140580
X367500Y-148200
X370040Y-140580
X370040Y-148200
X372580Y-140580
X372580Y-148200
X375120Y-140580
X375120Y-148200
X377660Y-140580
X377660Y-148200
X380200Y-140580
X380200Y-148200
X528240Y-66000
X538400Y-66000
X319840Y-85000
X319840Y-109000
X324920Y-85000
X324920Y-109000
X330000Y-85000
X330000Y-109000
X335080Y-85000
X335080Y-109000
X340160Y-85000
X340160Y-109000
X281390Y-85000
X281390Y-109000
X286470Y-85000
X286470Y-109000
X291550Y-85000
X291550Y-109000
X296630Y-85000
X296630Y-109000
X301710Y-85000
X301710Y-109000
X213700Y-269150
X216240Y-266610
X218780Y-269150
X528200Y-72800
X538360Y-72800
X379000Y-87220
X379000Y-89760
X379000Y-92300
X379000Y-94840
X379000Y-97380
X379000Y-99920
X379000Y-102460
X379000Y-105000
X386620Y-87220
X386620Y-89760
X386620Y-92300
X386620Y-94840
X386620Y-97380
X386620Y-99920
X386620Y-102460
X386620Y-105000
X353130Y-87250
X353130Y-89790
X353130Y-92330
X353130Y-94870
X353130Y-97410
X353130Y-99950
X353130Y-102490
X353130Y-105030
X360750Y-87250
X360750Y-89790
X360750Y-92330
X360750Y-94870
X360750Y-97410
X360750Y-99950
X360750Y-102490
X360750Y-105030
X347100Y-241100
X357260Y-241100
X242840Y-85000
X242840Y-109000
X247920Y-85000
X247920Y-109000
X253000Y-85000
X253000Y-109000
X258080Y-85000
X258080Y-109000
X263160Y-85000
X263160Y-109000
X316650Y-176920
X316650Y-179460
X316650Y-182000
X316650Y-184540
X316650Y-187080
X316650Y-189620
X316650Y-192160
X316650Y-194700
X324270Y-176920
X324270Y-179460
X324270Y-182000
X324270Y-184540
X324270Y-187080
X324270Y-189620
X324270Y-192160
X324270Y-194700
X525600Y-124400
X535760Y-124400
X396500Y-271220
X396500Y-273760
X396500Y-276300
X396500Y-278840
X396500Y-281380
X396500Y-283920
X396500Y-286460
X396500Y-289000
X404120Y-271220
X404120Y-273760
X404120Y-276300
X404120Y-278840
X404120Y-281380
X404120Y-283920
X404120Y-286460
X404120Y-289000
X345750Y-270970
X345750Y-273510
X345750Y-276050
X345750Y-278590
X345750Y-281130
X345750Y-283670
X345750Y-286210
X345750Y-288750
X353370Y-270970
X353370Y-273510
X353370Y-276050
X353370Y-278590
X353370Y-281130
X353370Y-283670
X353370Y-286210
X353370Y-288750
X413450Y-137900
X413450Y-148060
X289000Y-274400
X289000Y-276400
X198740Y-267600
X208900Y-267600
X528200Y-69400
X538360Y-69400
X367000Y-271220
X367000Y-273760
X367000Y-276300
X367000Y-278840
X367000Y-281380
X367000Y-283920
X367000Y-286460
X367000Y-289000
X374620Y-271220
X374620Y-273760
X374620Y-276300
X374620Y-278840
X374620Y-281380
X374620Y-283920
X374620Y-286460
X374620Y-289000
X364510Y-154780
X364510Y-162400
X367050Y-154780
X367050Y-162400
X369590Y-154780
X369590Y-162400
X372130Y-154780
X372130Y-162400
X374670Y-154780
X374670Y-162400
X377210Y-154780
X377210Y-162400
X379750Y-154780
X379750Y-162400
X531340Y-266000
X531340Y-290000
X536420Y-266000
X536420Y-290000
X541500Y-266000
X541500Y-290000
X546580Y-266000
X546580Y-290000
X551660Y-266000
X551660Y-290000
X289000Y-266400
X289000Y-268400
X454340Y-266000
X454340Y-290000
X459420Y-266000
X459420Y-290000
X464500Y-266000
X464500Y-290000
X469580Y-266000
X469580Y-290000
X474660Y-266000
X474660Y-290000
X382900Y-176920
X382900Y-179460
X382900Y-182000
X382900Y-184540
X382900Y-187080
X382900Y-189620
X382900Y-192160
X382900Y-194700
X390520Y-176920
X390520Y-179460
X390520Y-182000
X390520Y-184540
X390520Y-187080
X390520Y-189620
X390520Y-192160
X390520Y-194700
X415840Y-266000
X415840Y-290000
X420920Y-266000
X420920Y-290000
X426000Y-266000
X426000Y-290000
X431080Y-266000
X431080Y-290000
X436160Y-266000
X436160Y-290000
X236850Y-267850
X247010Y-267850
X241850Y-259150
X241850Y-262650
X449600Y-73780
X449600Y-76320
X449600Y-78860
X449600Y-81400
X457220Y-73780
X457220Y-76320
X457220Y-78860
X457220Y-81400
X410750Y-87720
X410750Y-90260
X410750Y-92800
X410750Y-95340
X410750Y-97880
X410750Y-100420
X410750Y-102960
X410750Y-105500
X418370Y-87720
X418370Y-90260
X418370Y-92800
X418370Y-95340
X418370Y-97880
X418370Y-100420
X418370Y-102960
X418370Y-105500
X367050Y-179410
X367050Y-181950
X367050Y-184490
X367050Y-187030
X367050Y-189570
X367050Y-192110
X367050Y-194650
X374670Y-179410
X374670Y-181950
X374670Y-184490
X374670Y-187030
X374670Y-189570
X374670Y-192110
X374670Y-194650
X525640Y-120600
X535800Y-120600
X528200Y-62600
X538360Y-62600
X492840Y-266000
X492840Y-290000
X497920Y-266000
X497920Y-290000
X503000Y-266000
X503000Y-290000
X508080Y-266000
X508080Y-290000
X513160Y-266000
X513160Y-290000
X204340Y-85000
X204340Y-109000
X209420Y-85000
X209420Y-109000
X214500Y-85000
X214500Y-109000
X219580Y-85000
X219580Y-109000
X224660Y-85000
X224660Y-109000
T5
X213800Y-277200
X213800Y-282200
X465400Y-76660
X465400Y-79200
X506150Y-100030
X506150Y-102590
X506150Y-105130
X506150Y-107670
X506150Y-110230
X506150Y-112770
X541450Y-102600
X541450Y-105140
X541450Y-107680
X541450Y-110220
X477517Y-72115
X477517Y-74655
X477517Y-77195
X477517Y-79735
X477517Y-82275
X477517Y-84815
X477517Y-87355
X477517Y-89895
X477517Y-92435
X477517Y-94975
X477517Y-97515
X477517Y-100055
X477517Y-102595
X477517Y-105135
X477517Y-107675
X477517Y-110215
X477517Y-112755
X477517Y-115295
X477517Y-117835
X477517Y-120375
X492517Y-72115
X492517Y-74655
X492517Y-77195
X492517Y-79735
X492517Y-82275
X492517Y-84815
X492517Y-87355
X492517Y-89895
X492517Y-92435
X492517Y-94975
X492517Y-97515
X492517Y-100055
X492517Y-102595
X492517Y-105135
X492517Y-107675
X492517Y-110215
X492517Y-112755
X492517Y-115295
X492517Y-117835
X492517Y-120375
X499460Y-120600
X502000Y-120600
X535810Y-81580
X535810Y-84120
X535810Y-86660
X535810Y-89200
X538350Y-81580
X538350Y-84120
X538350Y-86660
X538350Y-89200
X227000Y-259150
X232500Y-259150
T6
X321876Y-134100
X321876Y-241100
X326956Y-134100
X326956Y-241100
X332036Y-134100
X332036Y-241100
X337116Y-134100
X337116Y-241100
X342196Y-134100
X342196Y-241100
X505040Y-134200
X505040Y-241200
X510120Y-134200
X510120Y-241200
X515200Y-134200
X515200Y-241200
X520280Y-134200
X520280Y-241200
X525360Y-134200
X525360Y-241200
X230436Y-134100
X230436Y-241100
X235516Y-134100
X235516Y-241100
X240596Y-134100
X240596Y-241100
X245676Y-134100
X245676Y-241100
X250756Y-134100
X250756Y-241100
X413440Y-134100
X413440Y-241100
X418520Y-134100
X418520Y-241100
X423600Y-134100
X423600Y-241100
X428680Y-134100
X428680Y-241100
X433760Y-134100
X433760Y-241100
T7
X276320Y-266400
X278860Y-266400
X281400Y-266400
X225300Y-266400
X227000Y-266400
X228700Y-266400
X230400Y-266400
X232100Y-266400
X263320Y-266400
X265860Y-266400
X268400Y-266400
X518720Y-86800
X521260Y-86800
X523800Y-86800
T8
X506200Y-67000
X506200Y-79500
X511200Y-67000
X511200Y-79500
T9
X456200Y-91000
X461200Y-91000
X466200Y-91000
T10
X203900Y-259150
X221900Y-259150
T5
G00X169260Y-277130
M15
G01X169260Y-279130
M16
G05
G00X171260Y-282830
M15
G01X173260Y-282830
M16
G05
G00X175260Y-277130
M15
G01X175260Y-279130
M16
G05
T0
M30
